<svg width="20" height="20" viewBox="0 0 20 20" fill="none" xmlns="http://www.w3.org/2000/svg">
<path d="M16.8428 0C18.5795 0.000153373 20 1.35009 20 3V14C20 15.6499 18.5795 16.9998 16.8428 17H3.1582L0 20V3C3.35379e-05 1.34999 1.42134 0 3.1582 0H16.8428ZM8.94727 12.5H11.0527V7H8.94727V12.5ZM10 3.5C9.72085 3.50001 9.45326 3.60547 9.25586 3.79297C9.05845 3.9805 8.94727 4.23479 8.94727 4.5C8.94727 4.76522 9.05845 5.01949 9.25586 5.20703C9.45326 5.39454 9.72085 5.49999 10 5.5C10.2792 5.5 10.5467 5.39453 10.7441 5.20703C10.9416 5.01949 11.0527 4.76522 11.0527 4.5C11.0527 4.23479 10.9415 3.9805 10.7441 3.79297C10.5467 3.60548 10.2791 3.5 10 3.5Z" fill="white"/>
</svg>
