<svg width="24" height="27" viewBox="0 0 24 27" fill="none" xmlns="http://www.w3.org/2000/svg">
<path d="M12.4636 26.3722C10.6332 26.4336 8.86731 26.2044 7.16443 25.5873C5.78841 25.0886 4.49845 24.4253 3.3756 23.4707C2.90266 23.0686 2.39082 22.6968 1.98664 22.2328C1.33699 21.4871 0.752499 20.6834 0.160605 19.8891C-0.0528566 19.6027 -0.0416638 19.2912 0.124214 18.9463C0.646272 17.8609 1.36582 16.9267 2.26721 16.1451C3.37726 15.1826 4.66601 14.5583 6.11667 14.2747C6.59022 14.1822 7.05361 14.0684 7.50019 14.3535C7.7669 14.5237 8.03271 14.6954 8.29886 14.8665C8.9273 15.2706 9.62815 15.5203 10.3508 15.6325C11.0828 15.7461 11.8432 15.811 12.5776 15.7453C13.8072 15.6353 14.965 15.2216 15.9608 14.472C16.4152 14.13 16.881 14.1085 17.3657 14.2428C18.089 14.4431 18.8295 14.6306 19.5032 14.9491C20.5866 15.4614 21.5212 16.195 22.2945 17.1324C22.7624 17.6996 23.17 18.2957 23.48 18.9596C23.6192 19.2579 23.6121 19.5336 23.4272 19.8348C22.8942 20.7031 22.2505 21.475 21.555 22.2172C20.3932 23.4572 19.0391 24.4156 17.5071 25.1321C16.389 25.655 15.215 26.0076 13.9994 26.2098C13.5011 26.2927 12.9922 26.3124 12.4636 26.3722Z" fill="url(#paint0_linear_3467_1467)"/>
<path d="M4.95704 7.34634C4.91569 6.31494 5.03424 5.33624 5.40945 4.39584C5.85564 3.27757 6.5221 2.32644 7.46191 1.56011C8.26444 0.905722 9.15614 0.43552 10.1569 0.196392C10.9051 0.0176155 11.6634 -0.0452849 12.445 0.0333178C13.3534 0.12468 14.1962 0.370507 14.9998 0.787645C16.1985 1.4099 17.1195 2.31631 17.7877 3.48597C18.4872 4.71056 18.7675 6.0365 18.6565 7.42973C18.5514 8.74745 18.0887 9.94402 17.2795 11.0049C16.3441 12.2313 15.1342 13.0463 13.6594 13.4678C12.7634 13.7239 11.8498 13.7569 10.9233 13.6483C10.0961 13.5513 9.32383 13.3037 8.59347 12.9139C7.0986 12.1162 6.01878 10.9328 5.4296 9.34736C5.19567 8.71783 5.11014 8.03316 4.95704 7.34634Z" fill="white"/>
<defs>
<linearGradient id="paint0_linear_3467_1467" x1="11.7881" y1="14.166" x2="11.7881" y2="26.3818" gradientUnits="userSpaceOnUse">
<stop stop-color="#FF722D"/>
<stop offset="1" stop-color="#FFC5A9"/>
</linearGradient>
</defs>
</svg>
