<svg width="54" height="54" viewBox="0 0 54 54" fill="none" xmlns="http://www.w3.org/2000/svg">
<circle cx="27" cy="27" r="27" fill="#1D1D1D"/>
<path d="M25.2627 39.7729C21.176 38.9537 15.8921 36.0138 15.8921 28.4118C15.8921 21.4938 20.9559 16.8871 24.5971 14.7704C25.4051 14.3007 26.351 14.9184 26.351 15.8529V18.2434C26.351 20.1285 27.1435 23.5692 29.3457 25.0004C30.47 25.7311 31.6843 24.6375 31.8209 23.3035L31.9332 22.2082C32.0636 20.9348 33.3605 20.1618 34.3782 20.9382C36.2065 22.3329 38.1172 24.7753 38.1172 28.4118C38.1172 37.7086 31.2027 40.0328 27.7455 40.0328C27.5444 40.0328 27.333 40.0268 27.113 40.0141C28.8202 39.8682 31.5804 38.809 31.5804 35.384C31.5804 32.7048 29.6258 30.8923 28.1407 30.0112C27.7413 29.7742 27.2738 30.082 27.2738 30.5463V31.3166C27.2738 31.9061 27.0458 32.8277 26.5031 33.4585C25.8889 34.1723 24.9875 33.4245 24.9148 32.4857C24.8918 32.1896 24.594 32.0008 24.3375 32.1507C23.4991 32.6407 22.4289 33.6874 22.4289 35.384C22.4289 38.0614 23.9049 39.2931 25.2627 39.7729Z" fill="#FF722D"/>
</svg>
