<svg width="24" height="26" viewBox="0 0 24 26" fill="none" xmlns="http://www.w3.org/2000/svg">
<path d="M13.1237 7.8743C9.17767 7.8743 5.26915 7.8743 1.36062 7.8743C0.457319 7.8743 0.0475289 7.42159 0.161101 6.50276C0.278776 5.55072 0.563828 4.66997 1.16004 3.89066C1.88779 2.93942 2.80879 2.34033 3.94813 2.06542C4.59933 1.9083 5.26043 2.00917 5.91665 1.99456C6.15284 1.9893 6.2565 1.93882 6.23218 1.67943C6.21089 1.45226 6.22745 1.22136 6.22784 0.992114C6.22879 0.42217 6.64368 -3.32244e-05 7.2024 3.15283e-05C7.76015 9.57458e-05 8.16541 0.418716 8.17839 0.995003C8.18549 1.31079 8.0455 1.72423 8.23096 1.91662C8.43417 2.12744 8.84548 1.98348 9.16507 1.98444C11.2629 1.99076 13.3608 1.9816 15.4586 1.99468C15.7515 1.99651 15.8633 1.9211 15.8263 1.61787C15.8034 1.42974 15.822 1.23633 15.8221 1.04528C15.8223 0.430771 16.2142 0.00405777 16.782 3.0945e-05C17.3736 -0.00416391 17.761 0.418474 17.7744 1.05642C17.7807 1.35703 17.636 1.76543 17.839 1.92867C18.0268 2.07974 18.4108 1.99677 18.7071 1.98406C19.4797 1.95092 20.229 2.02572 20.9404 2.36694C22.3813 3.05811 23.3423 4.15332 23.6901 5.7598C23.7895 6.21894 23.942 6.67829 23.7788 7.16131C23.61 7.66092 23.3401 7.87387 22.8263 7.87397C19.6046 7.87462 16.3829 7.8743 13.1237 7.8743Z" fill="url(#paint0_linear_3334_743)"/>
<path d="M1.15625 9.77344C8.39897 9.793 15.642 9.79148 22.8848 9.77441C23.5266 9.77299 24.0029 10.2132 23.998 10.9219C23.9824 13.1124 24.0208 15.3042 23.9805 17.4941C23.9593 18.6428 23.8831 19.7921 23.8359 20.9414C23.7846 22.1928 23.3492 23.3159 22.5146 24.2334C21.8174 24.9998 20.9419 25.5125 19.916 25.6797C19.0975 25.813 18.2634 25.796 17.4375 25.8516C14.7509 26.0322 12.0618 26.0108 9.37402 25.9805C8.08577 25.9659 6.79519 25.8996 5.50781 25.8281C4.57099 25.7761 3.61582 25.7248 2.76758 25.2246C1.28258 24.3489 0.380079 23.0824 0.228516 21.3027C0.150282 20.3841 0.0765134 19.466 0.0820312 18.5059C-0.0765542 15.9658 0.0534186 13.4597 0.000976562 10.9561C-0.0134711 10.2591 0.41813 9.77146 1.15625 9.77344ZM12.0537 17.6621C11.3929 17.5851 10.684 18.2504 10.5791 19.0469C10.4948 19.6881 11.1791 20.4531 11.9336 20.5605C12.5302 20.6453 13.2569 20.0101 13.3721 19.29C13.4759 18.4593 12.8932 17.7602 12.0537 17.6621ZM16.8506 17.6621C16.1898 17.5851 15.4819 18.2504 15.377 19.0469C15.2926 19.6882 15.9768 20.4533 16.7314 20.5605C17.328 20.6452 18.0538 20.01 18.1689 19.29C18.2728 18.4592 17.6903 17.76 16.8506 17.6621ZM8.61523 19.0742C8.49162 18.0593 7.72087 17.5154 6.81543 17.7441C6.25398 17.8862 5.75367 18.5696 5.7793 19.1338C5.81163 19.8438 6.27537 20.3462 7.07617 20.54C7.52058 20.6476 8.19998 20.2261 8.48145 19.6396C8.53176 19.4307 8.63574 19.2445 8.61523 19.0742ZM17.959 13.4502C17.6629 12.8852 16.8537 12.6077 16.167 12.9385C15.6724 13.1768 15.2587 13.8596 15.4482 14.5713C15.6093 15.1748 16.2565 15.7308 16.8184 15.6641C17.7545 15.5528 18.4826 14.7575 18.0693 13.6328C18.0307 13.5522 17.9877 13.5049 17.959 13.4502ZM12.6328 12.9346C12.3018 12.8593 12.018 12.7385 11.6816 12.834C11.0107 13.0246 10.4721 13.7579 10.5996 14.3535C10.7972 15.276 11.4146 15.7785 12.3037 15.5908C12.9874 15.4463 13.5256 14.8292 13.3506 13.9102C13.2675 13.4742 13.0123 13.1759 12.6328 12.9346ZM8.47852 13.6357C8.21141 12.9728 7.46795 12.657 6.68555 12.915C5.99567 13.1226 5.62971 14.0833 5.91895 14.7715C6.21035 15.4648 7.05825 15.7899 7.67285 15.5547C8.39381 15.2788 8.80559 14.4475 8.47852 13.6357Z" fill="white"/>
<defs>
<linearGradient id="paint0_linear_3334_743" x1="0.142578" y1="3.93719" x2="23.8506" y2="3.93719" gradientUnits="userSpaceOnUse">
<stop stop-color="#FF722D"/>
<stop offset="1" stop-color="#FFA173"/>
</linearGradient>
</defs>
</svg>
