<svg width="51" height="62" viewBox="0 0 51 62" fill="none" xmlns="http://www.w3.org/2000/svg">
<g opacity="0.23">
<path fill-rule="evenodd" clip-rule="evenodd" d="M61.1683 53.6875C59.1282 51.3209 55.8319 47.9047 53.1138 47.6722C51.46 47.5309 49.621 48.9608 47.8063 50.3128C47.4496 50.5077 44.7041 52.2804 44.3669 52.3929C42.5862 52.9728 38.7501 53.2679 36.3453 51.2461C34.0298 49.2935 30.347 45.6561 27.3585 42.3098C24.4932 38.8545 21.4683 34.6844 19.903 32.1139C18.2704 29.4507 19.2318 25.8096 20.1163 24.189C20.2781 23.8973 22.2869 21.6764 22.736 21.1606L22.8074 21.2395C24.4837 19.725 26.2411 18.1848 26.3842 16.5833C26.6183 13.9174 23.7459 10.1586 21.7056 7.78745C19.6651 5.41179 16.4853 1.23844 12.4031 2.0008C10.866 2.28578 9.55462 2.87507 8.27052 3.69911L8.23258 3.65974C8.206 3.67889 8.08253 3.78332 8.0208 3.83554C7.98076 3.85973 7.94491 3.87469 7.90941 3.89871L7.92375 3.9163C7.19137 4.52445 5.0981 6.20892 4.86097 6.43556C2.28765 8.89545 -1.50814 14.6029 1.97815 24.4777C4.5652 31.8158 9.80742 40.3499 16.8312 48.9163L16.7961 48.9494C17.1398 49.3625 17.4911 49.7346 17.848 50.1337C18.1825 50.5427 18.5123 50.9474 18.8557 51.3515L18.9 51.3181C26.3209 59.5565 34.0215 66.075 40.9644 69.8291C50.3113 74.8795 56.7146 72.2018 59.6408 70.1548C59.9156 69.9585 61.9975 68.2155 62.7038 67.6401L62.7227 67.6575C62.7489 67.6293 62.7657 67.5924 62.801 67.5638C62.854 67.521 62.9687 67.426 62.9908 67.407L62.9621 67.3718C64.0215 66.2706 64.8599 65.1053 65.4141 63.656C66.8651 59.8421 63.2088 56.0632 61.1683 53.6875Z" fill="url(#paint0_linear_3467_982)"/>
</g>
<defs>
<linearGradient id="paint0_linear_3467_982" x1="31.6821" y1="1.21166" x2="34.4179" y2="73.3713" gradientUnits="userSpaceOnUse">
<stop stop-color="#FF722D"/>
<stop offset="1" stop-color="#E29672"/>
</linearGradient>
</defs>
</svg>
