<svg width="28" height="32" viewBox="0 0 28 32" fill="none" xmlns="http://www.w3.org/2000/svg">
<path fill-rule="evenodd" clip-rule="evenodd" d="M26.1174 23.7327C25.2575 22.6504 23.8611 21.0823 22.6657 20.9337C21.9384 20.8433 21.1026 21.4457 20.2789 22.0139C20.1182 22.0942 18.8765 22.8331 18.7259 22.8773C17.9303 23.1042 16.2326 23.1705 15.2059 22.2348C14.2174 21.3313 12.6543 19.6587 11.3926 18.1267C10.1872 16.5485 8.92343 14.6511 8.2765 13.4865C7.60144 12.2798 8.08764 10.6835 8.50554 9.98078C8.58188 9.85429 9.50607 8.90456 9.71301 8.6837L9.74315 8.71984C10.5086 8.07732 11.3103 7.42477 11.4007 6.718C11.5493 5.54139 10.3459 3.82868 9.48598 2.74443C8.62608 1.65817 7.29405 -0.24328 5.47982 0.0257745C4.79673 0.126168 4.20806 0.365104 3.62743 0.708449L3.61136 0.690379C3.5993 0.69841 3.54305 0.742583 3.51492 0.76467C3.49684 0.774709 3.48076 0.780733 3.46469 0.790772L3.47072 0.798804C3.13721 1.05581 2.18489 1.7666 2.0764 1.86297C0.899062 2.90907 -0.87297 5.37273 0.497241 9.80409C1.51385 13.097 3.68167 16.9641 6.63506 20.8755L6.61899 20.8895C6.76364 21.0783 6.91232 21.2489 7.063 21.4317C7.20364 21.6184 7.34227 21.8031 7.48692 21.9878L7.50701 21.9738C10.6412 25.7466 13.9281 28.7624 16.9277 30.5413C20.966 32.9347 23.837 31.8565 25.163 30.9991C25.2876 30.9168 26.2359 30.1799 26.5574 29.937L26.5654 29.945C26.5774 29.933 26.5855 29.9169 26.6016 29.9049C26.6257 29.8868 26.6779 29.8466 26.688 29.8386L26.6759 29.8225C27.1621 29.3527 27.5519 28.8507 27.8211 28.2182C28.5263 26.5537 26.9773 24.8189 26.1174 23.7327Z" fill="white"/>
</svg>
