<svg width="18" height="20" viewBox="0 0 18 20" fill="none" xmlns="http://www.w3.org/2000/svg">
<path d="M13.4315 19.6324C12.9742 19.9734 12.479 20.0884 11.9516 19.9303C11.7237 19.862 11.4921 19.7344 11.3168 19.5741C10.3992 18.735 9.35313 18.111 8.20488 17.6497C7.63959 17.4226 7.03585 17.2788 6.54137 16.8987C6.07356 16.5391 5.60769 16.1764 5.15158 15.8022C4.42188 15.2035 3.63533 14.6979 2.78476 14.2882C2.17058 13.9924 2.14371 13.3786 2.71568 12.9797C3.24071 12.6135 3.81995 12.6285 4.38137 12.8125C4.81366 12.9542 5.21474 13.1957 5.62206 13.4075C5.94612 13.5761 6.25477 13.7741 6.57754 13.9453C6.81565 14.0716 6.9556 14.0258 7.05588 13.7754C7.22756 13.3468 7.16317 12.9077 6.99702 12.502C6.46505 11.203 5.90918 9.91376 5.35986 8.62191C4.97186 7.70945 4.57753 6.79969 4.18992 5.88707C3.99129 5.41942 4.14767 4.94937 4.53039 4.7191C4.95943 4.46096 5.59191 4.63974 5.82093 5.01632C6.58009 6.26459 7.36482 7.49732 8.13931 8.73628C8.22344 8.87088 8.28623 9.02539 8.39445 9.13585C8.45687 9.19957 8.59393 9.22426 8.6916 9.21357C9.15825 9.16247 9.62135 9.07434 10.0887 9.03572C10.5704 8.99592 11.0562 8.97437 11.5391 8.98695C12.466 9.0111 13.379 9.14723 14.2695 9.41593C14.3605 9.44341 14.4538 9.46679 14.5478 9.48076C15.1364 9.5683 15.2948 10.0426 15.4382 10.5039C15.7106 11.3804 15.9782 12.2597 16.2027 13.1492C16.3111 13.5789 16.2888 14.0401 16.3768 14.4768C16.4828 15.0029 16.6365 15.5199 16.7839 16.0368C16.8313 16.203 16.9312 16.3536 16.9943 16.5163C17.1471 16.9109 17.0095 17.2934 16.6178 17.5504C15.562 18.2431 14.5037 18.9318 13.4315 19.6324Z" fill="url(#paint0_linear_3334_673)"/>
<path d="M7.74932 5.6236C7.47183 5.17745 7.19391 4.75153 6.92479 4.32012C6.22214 3.19376 4.64922 2.93524 3.62672 3.77079C2.87595 4.3843 2.53796 5.46681 3.01595 6.47865C3.30376 7.08791 3.55333 7.71527 3.81831 8.33524C3.84512 8.39797 3.85971 8.46591 3.88116 8.53527C2.48929 8.52827 0.948912 7.45744 0.351613 6.00364C-0.479413 3.98096 0.256555 2.04187 1.57713 0.971991C3.17159 -0.319781 5.33158 -0.291319 6.89861 0.863286C8.13693 1.7757 9.23547 3.81255 8.14227 6.24539C8.00271 6.02889 7.8778 5.83511 7.74932 5.6236Z" fill="url(#paint1_linear_3334_673)"/>
<defs>
<linearGradient id="paint0_linear_3334_673" x1="9.67998" y1="4.59766" x2="9.67998" y2="20.0001" gradientUnits="userSpaceOnUse">
<stop stop-color="#FF8A00"/>
<stop offset="1" stop-color="#FFCF97"/>
</linearGradient>
<linearGradient id="paint1_linear_3334_673" x1="4.29522" y1="0" x2="4.29522" y2="8.53527" gradientUnits="userSpaceOnUse">
<stop stop-color="#FF8A00"/>
<stop offset="1" stop-color="#FFCF97"/>
</linearGradient>
</defs>
</svg>
