<svg width="51" height="51" viewBox="0 0 51 51" fill="none" xmlns="http://www.w3.org/2000/svg">
<g clip-path="url(#clip0_3819_908)">
<rect width="51" height="51" rx="25.5" fill="#2A2A2A"/>
<path d="M27.4477 27.2969C22.1849 27.2969 16.9721 27.2969 11.7593 27.2969C10.5545 27.2969 10.008 26.7049 10.1595 25.5034C10.3164 24.2584 10.6966 23.1067 11.4918 22.0877C12.4624 20.8438 13.6907 20.0603 15.2102 19.7009C16.0788 19.4954 16.9605 19.6273 17.8357 19.6082C18.1507 19.6013 18.2889 19.5353 18.2565 19.1961C18.2281 18.8991 18.2502 18.5971 18.2507 18.2973C18.252 17.5521 18.8053 17 19.5505 17C20.2944 17.0001 20.8349 17.5475 20.8522 18.3011C20.8616 18.7141 20.6749 19.2547 20.9223 19.5063C21.1933 19.782 21.7419 19.5937 22.1681 19.595C24.966 19.6032 27.764 19.5913 30.5618 19.6084C30.9525 19.6107 31.1016 19.5121 31.0522 19.1156C31.0216 18.8696 31.0465 18.6167 31.0466 18.3669C31.0469 17.5633 31.5696 17.0053 32.3269 17C33.1158 16.9946 33.6326 17.5472 33.6504 18.3814C33.6588 18.7745 33.4658 19.3086 33.7365 19.522C33.987 19.7196 34.4992 19.6111 34.8943 19.5945C35.9248 19.5511 36.9242 19.6489 37.8729 20.0951C39.7946 20.999 41.0764 22.4311 41.5402 24.5318C41.6728 25.1322 41.8761 25.7329 41.6585 26.3645C41.4333 27.0178 41.0734 27.2963 40.3882 27.2964C36.0914 27.2973 31.7945 27.2969 27.4477 27.2969Z" fill="url(#paint0_linear_3819_908)"/>
<path d="M11.4854 29.7812C21.145 29.8068 30.8052 29.8045 40.4648 29.7822C41.321 29.7804 41.9569 30.3562 41.9502 31.2832C41.9293 34.1477 41.9805 37.0133 41.9268 39.877C41.8986 41.379 41.7963 42.8819 41.7334 44.3848C41.6649 46.0213 41.0838 47.4896 39.9707 48.6895C39.0407 49.6918 37.8734 50.3626 36.5049 50.5811C35.4132 50.7554 34.3017 50.733 33.2002 50.8057C29.6171 51.0419 26.031 51.0133 22.4463 50.9736C20.728 50.9546 19.0062 50.8679 17.2891 50.7744C16.0396 50.7064 14.7661 50.6395 13.6348 49.9854C11.6542 48.8402 10.4502 47.1846 10.248 44.8574C10.1437 43.6562 10.0454 42.4558 10.0527 41.2002C9.84122 37.8788 10.0152 34.602 9.94531 31.3281C9.92584 30.4165 10.5008 29.7787 11.4854 29.7812ZM26.0186 40.0996C25.1371 39.9989 24.1925 40.8694 24.0527 41.9111C23.9405 42.7497 24.8531 43.7484 25.8594 43.8887C26.655 43.9995 27.6236 43.17 27.7773 42.2285C27.9159 41.142 27.1385 40.2277 26.0186 40.0996ZM32.418 40.0996C31.5365 39.9989 30.5919 40.8694 30.4521 41.9111C30.3399 42.7498 31.2525 43.7485 32.2588 43.8887C33.0544 43.9995 34.0231 43.17 34.1768 42.2285C34.3153 41.1421 33.5378 40.2277 32.418 40.0996ZM21.4336 41.9424C21.2687 40.6153 20.2417 39.9051 19.0342 40.2041C18.2852 40.3896 17.6172 41.2826 17.6514 42.0205C17.6944 42.9491 18.3128 43.6068 19.3809 43.8604C19.9736 44.001 20.8795 43.4486 21.2549 42.6816C21.3221 42.4084 21.4612 42.1651 21.4336 41.9424ZM33.8945 34.5879C33.4996 33.849 32.4198 33.4853 31.5039 33.918C30.8443 34.2296 30.2921 35.123 30.5449 36.0537C30.7595 36.8431 31.6236 37.5697 32.373 37.4824C33.6216 37.337 34.5934 36.2971 34.042 34.8262C33.9905 34.7208 33.9328 34.6594 33.8945 34.5879ZM26.79 33.916C26.3488 33.8176 25.971 33.6593 25.5225 33.7842C24.6276 34.0334 23.9091 34.9926 24.0791 35.7715C24.3426 36.9779 25.1658 37.635 26.3516 37.3896C27.2638 37.2008 27.9818 36.3937 27.748 35.1914C27.6372 34.6212 27.2964 34.2316 26.79 33.916ZM21.25 34.832C20.8937 33.9652 19.9019 33.5522 18.8584 33.8896C17.9385 34.1612 17.4502 35.4175 17.8359 36.3174C18.2246 37.224 19.3561 37.6484 20.1758 37.3408C21.1371 36.9799 21.6862 35.8934 21.25 34.832Z" fill="url(#paint1_linear_3819_908)"/>
</g>
<rect x="0.75" y="0.75" width="49.5" height="49.5" rx="24.75" stroke="#595959" stroke-width="1.5"/>
<defs>
<linearGradient id="paint0_linear_3819_908" x1="25.9445" y1="17" x2="25.9445" y2="27.297" gradientUnits="userSpaceOnUse">
<stop stop-color="#FF722D"/>
<stop offset="1" stop-color="#EEC7B4"/>
</linearGradient>
<linearGradient id="paint1_linear_3819_908" x1="25.9476" y1="29.7813" x2="25.9476" y2="41.5" gradientUnits="userSpaceOnUse">
<stop stop-color="#FF722D"/>
<stop offset="1" stop-color="#FFC2A4"/>
</linearGradient>
<clipPath id="clip0_3819_908">
<rect width="51" height="51" rx="25.5" fill="white"/>
</clipPath>
</defs>
</svg>
