<svg width="113" height="113" viewBox="0 0 113 113" fill="none" xmlns="http://www.w3.org/2000/svg">
<circle cx="56.5" cy="56.5" r="56.5" fill="#2B2A2A"/>
<path d="M46.0065 51.7441C42.8038 49.6962 40.7029 46.949 40.0582 43.2017C39.2453 38.4768 40.56 34.4254 44.1689 31.2741C47.0586 28.7509 50.4817 27.8248 54.3367 28.3583C57.0797 28.7379 59.413 29.9118 61.3189 31.7971C63.3521 33.8082 64.5811 36.2843 64.9594 39.2068C65.4048 42.6479 64.5638 45.7349 62.5587 48.4405C60.5651 51.1306 57.8289 52.7617 54.4448 53.2787C51.4559 53.7354 48.6896 53.1937 46.0065 51.7441Z" fill="url(#paint0_linear_3912_3855)"/>
<path d="M46.4569 57.024C48.5554 56.6927 50.5951 56.9125 52.6275 56.8698C53.5695 56.8499 54.2765 57.9643 53.9935 58.9104C53.6285 60.1308 52.7417 61.0719 52.2501 62.2317C51.4754 64.0594 50.9256 65.9223 50.6728 67.9047C50.1939 71.6599 51 75.1407 52.6692 78.4676C53.0028 79.1326 53.4353 79.7496 53.8415 80.3763C54.2975 81.0799 54.4088 81.7831 53.971 82.543C53.5822 83.2178 52.9683 83.368 52.2599 83.3674C47.6827 83.3639 43.1052 83.3912 38.5284 83.3447C37.5814 83.3351 36.6239 83.1988 35.6897 82.9033C32.9022 82.0215 31.2441 80.0953 30.592 77.3305C30.0956 75.2255 30.401 73.1005 30.907 71.0231C31.5341 68.4486 32.6877 66.0995 34.3139 64.0244C36.7078 60.9695 39.7977 58.8673 43.505 57.682C44.4477 57.3806 45.4179 57.2174 46.4569 57.024Z" fill="url(#paint1_linear_3912_3855)"/>
<path d="M65.9604 55.9248C69.0077 55.308 72.0828 55.5816 74.9331 56.9766C78.2875 58.6183 80.6991 61.1641 82.1265 64.6582C83.0058 66.8108 83.2553 69.0411 83.061 71.2988C82.8481 73.7734 82.0307 76.0868 80.5132 78.1709C78.3648 81.2309 75.4843 83.083 71.9058 83.8545C67.8133 84.7367 64.0289 83.9893 60.5962 81.5879C57.3255 79.2997 55.4072 76.1583 54.7798 72.2168C54.288 69.1268 54.6645 66.1465 56.1167 63.3828C58.2185 59.3828 61.5436 56.8189 65.9604 55.9248ZM75.4009 63.4893C74.5619 62.6125 73.3742 62.585 72.5054 63.4375C71.708 64.2201 70.8779 64.9767 70.146 65.8174C69.393 66.6823 68.2937 66.6534 67.5884 65.8418C66.8753 65.021 66.0704 64.2776 65.2847 63.5225C64.5205 62.7881 63.2378 62.673 62.5552 63.2451C61.6796 63.9793 61.5599 65.0312 62.2319 66.0352C62.9195 67.0623 63.8613 67.8581 64.7573 68.6758C65.5671 69.4147 65.6324 70.3991 64.7212 71.2334C63.9179 71.9688 63.1554 72.752 62.4048 73.542C61.6678 74.318 61.4954 75.6229 62.5093 76.4688C63.3548 77.1739 64.3388 77.1614 65.2056 76.2959C65.9384 75.5642 66.6567 74.8174 67.4048 74.1016C68.4648 73.0872 69.3362 73.1962 70.1841 74.1084C71.0294 75.0179 71.8346 75.9935 72.897 76.6758C73.7137 77.2001 74.6146 77.0579 75.3022 76.3447C75.9999 75.621 76.0642 74.7585 75.5493 73.9316C75.1981 73.3677 74.6916 72.9602 74.2124 72.4434C73.786 72.0174 73.4277 71.5992 73.0093 71.2539C72.0667 70.4759 71.9911 69.5494 73.022 68.4834C73.7984 67.6805 74.6051 66.9069 75.3872 66.1094C75.9615 65.5237 75.9597 64.074 75.4009 63.4893Z" fill="url(#paint2_linear_3912_3855)"/>
<defs>
<linearGradient id="paint0_linear_3912_3855" x1="52.4511" y1="28.2129" x2="52.4511" y2="53.4365" gradientUnits="userSpaceOnUse">
<stop stop-color="#FF722D"/>
<stop offset="1" stop-color="#FBC5AA"/>
</linearGradient>
<linearGradient id="paint1_linear_3912_3855" x1="42.2935" y1="56.8374" x2="42.2935" y2="83.3722" gradientUnits="userSpaceOnUse">
<stop stop-color="#FF722D"/>
<stop offset="1" stop-color="#FBC5AA"/>
</linearGradient>
<linearGradient id="paint2_linear_3912_3855" x1="68.8495" y1="55.6133" x2="68.8495" y2="84.2122" gradientUnits="userSpaceOnUse">
<stop stop-color="#FF722D"/>
<stop offset="1" stop-color="#FBC5AA"/>
</linearGradient>
</defs>
</svg>
