<svg width="125" height="125" viewBox="0 0 125 125" fill="none" xmlns="http://www.w3.org/2000/svg">
<circle cx="62.5" cy="62.5" r="62.5" fill="#2B2A2A"/>
<path d="M66.057 86.5971C66.0501 84.9568 65.3929 83.3863 64.2296 82.2299L48.7432 66.7434C46.8943 64.3207 45.5843 61.5311 44.9005 58.5612C44.2168 55.5913 44.1753 52.5097 44.7786 49.5224C45.8131 44.2294 48.7831 39.512 53.1089 36.2911C57.4346 33.0703 62.8055 31.5772 68.1729 32.1035C73.5403 32.6298 78.5188 35.1377 82.1366 39.1374C85.7543 43.1371 87.7515 48.3416 87.7381 53.7348C87.7411 58.6495 86.0574 63.4164 82.9683 67.239C86.3424 69.5048 89.1074 72.5659 91.0194 76.1524C92.9315 79.7389 93.932 83.7407 93.9327 87.805C93.9327 89.4479 93.2801 91.0236 92.1184 92.1853C90.9566 93.347 89.381 93.9996 87.7381 93.9996H69.1543C68.3329 93.9996 67.5451 93.6733 66.9642 93.0924C66.3834 92.5116 66.057 91.7238 66.057 90.9023V86.5971Z" fill="url(#paint0_linear_3912_5341)"/>
<path d="M41.5578 63.9249L62.0619 84.3981C62.6279 84.9916 62.9487 85.7771 62.9601 86.5972V90.9024C62.9601 91.7238 62.6338 92.5117 62.053 93.0925C61.4721 93.6734 60.6843 93.9997 59.8628 93.9997H55.5576C55.15 94.002 54.7459 93.9239 54.3685 93.7698C53.9912 93.6156 53.6479 93.3885 53.3585 93.1015L32.8854 72.5974C32.3179 72.0184 32 71.24 32 70.4293C32 69.6185 32.3179 68.8401 32.8854 68.2611L37.2216 63.9249C37.8006 63.3574 38.579 63.0396 39.3897 63.0396C40.2004 63.0396 40.9788 63.3574 41.5578 63.9249Z" fill="url(#paint1_linear_3912_5341)"/>
<defs>
<linearGradient id="paint0_linear_3912_5341" x1="69.1438" y1="32" x2="69.1438" y2="93.9996" gradientUnits="userSpaceOnUse">
<stop stop-color="#FF722D"/>
<stop offset="1" stop-color="#EDAB8B"/>
</linearGradient>
<linearGradient id="paint1_linear_3912_5341" x1="47.4801" y1="63.0396" x2="47.4801" y2="93.9997" gradientUnits="userSpaceOnUse">
<stop stop-color="#FF722D"/>
<stop offset="1" stop-color="#E2C8BC"/>
</linearGradient>
</defs>
</svg>
