<svg width="32" height="32" viewBox="0 0 32 32" fill="none" xmlns="http://www.w3.org/2000/svg">
<g clip-path="url(#clip0_3912_3925)">
<rect width="32" height="32" rx="16" fill="white"/>
<mask id="mask0_3912_3925" style="mask-type:luminance" maskUnits="userSpaceOnUse" x="-3" y="0" width="46" height="33">
<path d="M39.04 0.000183105H0.640003C-1.12731 0.000183105 -2.56 1.43287 -2.56 3.20018V28.8002C-2.56 30.5675 -1.12731 32.0002 0.640003 32.0002H39.04C40.8073 32.0002 42.24 30.5675 42.24 28.8002V3.20018C42.24 1.43287 40.8073 0.000183105 39.04 0.000183105Z" fill="white"/>
</mask>
<g mask="url(#mask0_3912_3925)">
<path d="M42.2396 0.000183105H-2.56049V32.0002H42.2396V0.000183105Z" fill="url(#paint0_linear_3912_3925)"/>
<path fill-rule="evenodd" clip-rule="evenodd" d="M-2.56049 0.000183105H42.2396V2.13351H-2.56049V0.000183105ZM-2.56049 4.26686H42.2396V6.40018H-2.56049V4.26686ZM-2.56049 8.53351H42.2396V10.6669H-2.56049V8.53351ZM-2.56049 12.8002H42.2396V14.9335H-2.56049V12.8002ZM-2.56049 17.0669H42.2396V19.2002H-2.56049V17.0669ZM-2.56049 21.3335H42.2396V23.4669H-2.56049V21.3335ZM-2.56049 25.6002H42.2396V27.7335H-2.56049V25.6002ZM-2.56049 29.8669H42.2396V32.0002H-2.56049V29.8669Z" fill="url(#paint1_linear_3912_3925)"/>
<path d="M16.6396 0.000183105H-2.56049V14.9335H16.6396V0.000183105Z" fill="url(#paint2_linear_3912_3925)"/>
<path fill-rule="evenodd" clip-rule="evenodd" d="M0.639731 4.26712C0.0506271 4.26712 -0.426941 3.78955 -0.426941 3.20045C-0.426941 2.61136 0.0506271 2.13379 0.639731 2.13379C1.22884 2.13379 1.7064 2.61136 1.7064 3.20045C1.7064 3.78955 1.22884 4.26712 0.639731 4.26712ZM4.9064 4.26712C4.3173 4.26712 3.83973 3.78955 3.83973 3.20045C3.83973 2.61136 4.3173 2.13379 4.9064 2.13379C5.49549 2.13379 5.97306 2.61136 5.97306 3.20045C5.97306 3.78955 5.49549 4.26712 4.9064 4.26712ZM9.17306 4.26712C8.58396 4.26712 8.10639 3.78955 8.10639 3.20045C8.10639 2.61136 8.58396 2.13379 9.17306 2.13379C9.76216 2.13379 10.2397 2.61136 10.2397 3.20045C10.2397 3.78955 9.76216 4.26712 9.17306 4.26712ZM13.4397 4.26712C12.8506 4.26712 12.3731 3.78955 12.3731 3.20045C12.3731 2.61136 12.8506 2.13379 13.4397 2.13379C14.0288 2.13379 14.5064 2.61136 14.5064 3.20045C14.5064 3.78955 14.0288 4.26712 13.4397 4.26712ZM2.77306 6.40044C2.18396 6.40044 1.7064 5.92289 1.7064 5.33379C1.7064 4.74469 2.18396 4.26712 2.77306 4.26712C3.36216 4.26712 3.83973 4.74469 3.83973 5.33379C3.83973 5.92289 3.36216 6.40044 2.77306 6.40044ZM7.03973 6.40044C6.45063 6.40044 5.97306 5.92289 5.97306 5.33379C5.97306 4.74469 6.45063 4.26712 7.03973 4.26712C7.62884 4.26712 8.10639 4.74469 8.10639 5.33379C8.10639 5.92289 7.62884 6.40044 7.03973 6.40044ZM11.3064 6.40044C10.7173 6.40044 10.2397 5.92289 10.2397 5.33379C10.2397 4.74469 10.7173 4.26712 11.3064 4.26712C11.8955 4.26712 12.3731 4.74469 12.3731 5.33379C12.3731 5.92289 11.8955 6.40044 11.3064 6.40044ZM13.4397 8.53379C12.8506 8.53379 12.3731 8.05622 12.3731 7.46712C12.3731 6.87801 12.8506 6.40044 13.4397 6.40044C14.0288 6.40044 14.5064 6.87801 14.5064 7.46712C14.5064 8.05622 14.0288 8.53379 13.4397 8.53379ZM9.17306 8.53379C8.58396 8.53379 8.10639 8.05622 8.10639 7.46712C8.10639 6.87801 8.58396 6.40044 9.17306 6.40044C9.76216 6.40044 10.2397 6.87801 10.2397 7.46712C10.2397 8.05622 9.76216 8.53379 9.17306 8.53379ZM4.9064 8.53379C4.3173 8.53379 3.83973 8.05622 3.83973 7.46712C3.83973 6.87801 4.3173 6.40044 4.9064 6.40044C5.49549 6.40044 5.97306 6.87801 5.97306 7.46712C5.97306 8.05622 5.49549 8.53379 4.9064 8.53379ZM0.639731 8.53379C0.0506271 8.53379 -0.426941 8.05622 -0.426941 7.46712C-0.426941 6.87801 0.0506271 6.40044 0.639731 6.40044C1.22884 6.40044 1.7064 6.87801 1.7064 7.46712C1.7064 8.05622 1.22884 8.53379 0.639731 8.53379ZM2.77306 10.6671C2.18396 10.6671 1.7064 10.1895 1.7064 9.60045C1.7064 9.01134 2.18396 8.53379 2.77306 8.53379C3.36216 8.53379 3.83973 9.01134 3.83973 9.60045C3.83973 10.1895 3.36216 10.6671 2.77306 10.6671ZM7.03973 10.6671C6.45063 10.6671 5.97306 10.1895 5.97306 9.60045C5.97306 9.01134 6.45063 8.53379 7.03973 8.53379C7.62884 8.53379 8.10639 9.01134 8.10639 9.60045C8.10639 10.1895 7.62884 10.6671 7.03973 10.6671ZM11.3064 10.6671C10.7173 10.6671 10.2397 10.1895 10.2397 9.60045C10.2397 9.01134 10.7173 8.53379 11.3064 8.53379C11.8955 8.53379 12.3731 9.01134 12.3731 9.60045C12.3731 10.1895 11.8955 10.6671 11.3064 10.6671ZM13.4397 12.8004C12.8506 12.8004 12.3731 12.3229 12.3731 11.7338C12.3731 11.1447 12.8506 10.6671 13.4397 10.6671C14.0288 10.6671 14.5064 11.1447 14.5064 11.7338C14.5064 12.3229 14.0288 12.8004 13.4397 12.8004ZM9.17306 12.8004C8.58396 12.8004 8.10639 12.3229 8.10639 11.7338C8.10639 11.1447 8.58396 10.6671 9.17306 10.6671C9.76216 10.6671 10.2397 11.1447 10.2397 11.7338C10.2397 12.3229 9.76216 12.8004 9.17306 12.8004ZM4.9064 12.8004C4.3173 12.8004 3.83973 12.3229 3.83973 11.7338C3.83973 11.1447 4.3173 10.6671 4.9064 10.6671C5.49549 10.6671 5.97306 11.1447 5.97306 11.7338C5.97306 12.3229 5.49549 12.8004 4.9064 12.8004ZM0.639731 12.8004C0.0506271 12.8004 -0.426941 12.3229 -0.426941 11.7338C-0.426941 11.1447 0.0506271 10.6671 0.639731 10.6671C1.22884 10.6671 1.7064 11.1447 1.7064 11.7338C1.7064 12.3229 1.22884 12.8004 0.639731 12.8004Z" fill="url(#paint3_linear_3912_3925)"/>
</g>
</g>
<defs>
<linearGradient id="paint0_linear_3912_3925" x1="19.8396" y1="0.000183105" x2="19.8396" y2="32.0002" gradientUnits="userSpaceOnUse">
<stop stop-color="white"/>
<stop offset="1" stop-color="#F0F0F0"/>
</linearGradient>
<linearGradient id="paint1_linear_3912_3925" x1="19.8396" y1="0.000183105" x2="19.8396" y2="32.0002" gradientUnits="userSpaceOnUse">
<stop stop-color="#D02F44"/>
<stop offset="1" stop-color="#FF8998"/>
</linearGradient>
<linearGradient id="paint2_linear_3912_3925" x1="7.03952" y1="0.000183105" x2="7.03952" y2="14.9335" gradientUnits="userSpaceOnUse">
<stop stop-color="#46467F"/>
<stop offset="1" stop-color="#6B6BF6"/>
</linearGradient>
<linearGradient id="paint3_linear_3912_3925" x1="7.03973" y1="2.13379" x2="7.03973" y2="12.8004" gradientUnits="userSpaceOnUse">
<stop stop-color="white"/>
<stop offset="1" stop-color="#F0F0F0"/>
</linearGradient>
<clipPath id="clip0_3912_3925">
<rect width="32" height="32" rx="16" fill="white"/>
</clipPath>
</defs>
</svg>
