<svg width="51" height="51" viewBox="0 0 51 51" fill="none" xmlns="http://www.w3.org/2000/svg">
<g clip-path="url(#clip0_3821_733)">
<rect width="51" height="51" rx="25.5" fill="#2A2A2A"/>
<path d="M9.00064 40.5281C9 39.6652 9 38.8559 9 38.0039C20.3796 38.0039 31.7347 38.0039 43.2076 38.0039C43.159 39.1138 43.1101 40.2284 43.0612 41.3431C42.9997 42.7476 42.5887 44.0612 42.0387 45.3424C41.4942 46.6108 40.7578 47.7522 39.8568 48.7953C38.6285 50.2174 37.1728 51.3441 35.4784 52.148C34.1734 52.7671 32.8104 53.2839 31.3585 53.3305C28.4835 53.4229 25.6053 53.4091 22.7289 53.4641C20.5745 53.5052 18.5333 53.0371 16.6116 52.099C14.2512 50.9468 12.4157 49.2031 11.0508 46.9562C10.06 45.3252 9.48311 43.5474 9.12458 41.6892C9.05444 41.3256 9.04092 40.9511 9.00064 40.5281Z" fill="url(#paint0_linear_3821_733)"/>
<path d="M16.3682 33.8153C17.1795 32.6444 18.2914 32.0499 19.6322 31.8568C20.1099 31.788 20.6006 31.8049 21.0755 31.7244C21.2697 31.6915 21.4942 31.5437 21.6085 31.3807C22.5422 30.0485 23.8709 29.5457 25.4322 29.4722C26.6278 29.416 27.7507 29.606 28.7797 30.259C29.1365 30.4854 29.3548 30.9916 29.9177 30.8371C30.2185 30.7545 30.5303 30.7087 30.8391 30.6585C32.383 30.4071 34.8703 31.0228 35.775 32.5569C35.8936 32.7581 35.9771 32.9871 36.038 33.2137C36.1906 33.7804 36.5287 33.9982 37.129 34.0159C38.5051 34.0565 39.7599 34.46 40.6888 35.5537C40.9286 35.836 41.1009 36.1758 41.3606 36.5761C31.7186 36.5761 22.2292 36.5761 12.6602 36.5761C13.2658 36.159 13.8779 35.9763 14.5406 35.9225C14.8722 35.8955 15.2396 35.9217 15.5205 35.7822C15.7403 35.6732 15.9036 35.3657 15.9998 35.1115C16.1535 34.7056 16.2306 34.2706 16.3682 33.8153Z" fill="url(#paint1_linear_3821_733)"/>
<path d="M20.1785 22.298C19.8011 21.6986 19.3828 21.1699 19.0943 20.5779C18.3651 19.0816 18.7497 17.4798 19.7563 16.2913C20.0343 15.9632 20.7573 15.9041 21.0425 16.1557C21.3296 16.4089 21.3861 16.9907 21.1037 17.3034C20.0498 18.4707 20.1888 19.613 21.177 20.7987C22.2491 22.0852 22.2344 24.0484 21.2643 25.373C21.0789 25.6261 20.6379 25.8234 20.3261 25.8087C20.1016 25.7981 19.7792 25.4203 19.7159 25.1549C19.6575 24.9097 19.8491 24.5755 19.995 24.3168C20.3541 23.6797 20.4272 23.0293 20.1785 22.298Z" fill="url(#paint2_linear_3821_733)"/>
<path d="M26.0799 23.4359C26.16 22.633 25.8501 22.0566 25.3924 21.4614C24.1078 19.791 24.2204 17.9083 25.4963 16.3209C25.7659 15.9855 26.4638 15.8959 26.7753 16.1338C27.0656 16.3557 27.1283 17.0128 26.8612 17.3193C25.8294 18.5035 25.8908 19.5226 26.8907 20.719C27.9928 22.0377 27.9961 24.0369 27.0573 25.3379C26.8705 25.5967 26.4498 25.8099 26.1357 25.8115C25.916 25.8127 25.6089 25.4529 25.5012 25.1889C25.4204 24.991 25.5722 24.6805 25.6616 24.4352C25.7799 24.111 25.9384 23.8015 26.0799 23.4359Z" fill="url(#paint3_linear_3821_733)"/>
<path d="M31.7031 16.0307C32.1089 16.0257 32.5089 15.9163 32.7115 16.3699C32.9199 16.8366 32.7222 17.1574 32.4409 17.5477C31.7341 18.5283 31.5639 19.3705 32.6723 20.7346C33.7962 22.1177 33.7517 23.9914 32.816 25.3534C32.6392 25.6108 32.2013 25.8156 31.8883 25.8098C31.6666 25.8057 31.3521 25.4385 31.2655 25.1727C31.1935 24.9514 31.3401 24.6095 31.4815 24.3768C32.0582 23.4275 31.9589 22.4281 31.2457 21.563C29.8702 19.8947 29.9778 17.8755 31.2954 16.2938C31.3862 16.1849 31.536 16.1252 31.7031 16.0307Z" fill="url(#paint4_linear_3821_733)"/>
</g>
<rect x="0.75" y="0.75" width="49.5" height="49.5" rx="24.75" stroke="#595959" stroke-width="1.5"/>
<defs>
<linearGradient id="paint0_linear_3821_733" x1="26.1038" y1="38.0039" x2="26.1038" y2="53.4666" gradientUnits="userSpaceOnUse">
<stop stop-color="#FF722D"/>
<stop offset="1" stop-color="#FFDBC9"/>
</linearGradient>
<linearGradient id="paint1_linear_3821_733" x1="27.0104" y1="29.4629" x2="27.0104" y2="36.5761" gradientUnits="userSpaceOnUse">
<stop stop-color="#FF722D"/>
<stop offset="1" stop-color="#FFDBC9"/>
</linearGradient>
<linearGradient id="paint2_linear_3821_733" x1="20.3518" y1="16" x2="20.3518" y2="25.8095" gradientUnits="userSpaceOnUse">
<stop stop-color="#FF722D"/>
<stop offset="1" stop-color="#FFDBC9"/>
</linearGradient>
<linearGradient id="paint3_linear_3821_733" x1="26.1115" y1="16" x2="26.1115" y2="25.8115" gradientUnits="userSpaceOnUse">
<stop stop-color="#FF722D"/>
<stop offset="1" stop-color="#FFDBC9"/>
</linearGradient>
<linearGradient id="paint4_linear_3821_733" x1="31.8884" y1="16.0156" x2="31.8884" y2="25.8099" gradientUnits="userSpaceOnUse">
<stop stop-color="#FF722D"/>
<stop offset="1" stop-color="#FFDBC9"/>
</linearGradient>
<clipPath id="clip0_3821_733">
<rect width="51" height="51" rx="25.5" fill="white"/>
</clipPath>
</defs>
</svg>
