<svg width="17" height="20" viewBox="0 0 17 20" fill="none" xmlns="http://www.w3.org/2000/svg">
<path d="M11.2138 17.7795C13.0006 17.8384 14.1553 16.3305 14.1098 15.0088C13.4733 14.9878 12.9428 14.7296 12.5283 14.2399C12.2405 13.8999 12.0452 13.5139 12.0427 13.0575C12.0368 11.9832 12.0519 10.9088 12.0374 9.83475C12.0249 8.90977 12.8439 8.04894 13.707 7.88212C14.3366 7.76042 14.8998 7.88698 15.4252 8.24186C15.6463 6.71814 14.5233 4.38357 13.1238 3.24121C10.6528 1.22415 7.94606 0.872467 5.1337 2.39197C2.86525 3.61759 1.71278 5.64604 1.47832 8.28037C1.72056 8.164 1.90541 8.06113 2.10027 7.98395C3.08378 7.59443 4.14888 7.969 4.69573 8.86501C4.85747 9.13 4.96135 9.47218 4.9709 9.78276C5.00392 10.856 4.97336 11.931 4.98664 13.0051C4.99883 13.9917 4.26936 14.7698 3.3394 14.9439C2.55094 15.0915 1.847 14.9147 1.27335 14.3384C0.937319 14.0009 0.757465 13.5733 0.742813 13.0912C0.738049 12.9345 0.688001 12.8656 0.538677 12.8307C0.223935 12.7571 0.0245245 12.502 0.0234472 12.1607C0.0190654 10.7716 -0.0341295 9.37963 0.0359549 7.9941C0.121302 6.30684 0.710862 4.77497 1.7241 3.41978C2.5742 2.28277 3.63807 1.40636 4.92032 0.809068C5.69016 0.450462 6.49076 0.183729 7.34238 0.105902C7.79398 0.064632 8.24853 -0.0175437 8.69787 0.00334314C10.2319 0.074651 11.6705 0.465669 12.9923 1.29915C14.5347 2.27178 15.6388 3.60391 16.3573 5.26836C16.6883 6.03518 16.9223 6.84215 16.9428 7.68523C16.9791 9.18136 16.9875 10.6782 17 12.1749C17.0023 12.4529 16.8024 12.7858 16.4726 12.8351C16.3375 12.8553 16.2909 12.9301 16.2804 13.0772C16.2474 13.5442 16.0726 13.9607 15.7409 14.2927C15.6129 14.4209 15.5552 14.5476 15.5672 14.7277C15.6346 15.7368 15.3939 16.6621 14.8003 17.4844C14.0781 18.4847 13.1103 19.0801 11.8882 19.2195C11.4272 19.272 10.9588 19.2551 10.4948 19.2852C10.3884 19.292 10.2599 19.3348 10.1862 19.4071C9.76796 19.818 9.26977 20.0206 8.69233 19.9983C8.30484 19.9834 7.91023 19.9663 7.53424 19.881C6.91313 19.7401 6.57903 19.2582 6.43588 18.6819C6.24175 17.9003 6.44114 17.1931 7.09702 16.6969C7.32022 16.528 7.63344 16.4553 7.91729 16.4001C8.1653 16.3519 8.43059 16.403 8.68693 16.3878C9.77243 16.3233 10.3443 16.9077 10.643 17.7795C10.8208 17.7795 11.0038 17.7795 11.2138 17.7795Z" fill="white"/>
</svg>
