<svg width="75" height="75" viewBox="0 0 75 75" fill="none" xmlns="http://www.w3.org/2000/svg">
<circle cx="37.5" cy="37.5" r="36.5578" stroke="#4D4D4D" stroke-width="1.88438"/>
<g clip-path="url(#clip0_3467_1502)">
<path d="M32.6675 38C32.6675 35.0546 35.0546 32.6662 38 32.6662C40.9454 32.6662 43.3338 35.0546 43.3338 38C43.3338 40.9454 40.9454 43.3338 38 43.3338C35.0546 43.3338 32.6675 40.9454 32.6675 38ZM29.7842 38C29.7842 42.5376 33.4624 46.2158 38 46.2158C42.5376 46.2158 46.2158 42.5376 46.2158 38C46.2158 33.4624 42.5376 29.7842 38 29.7842C33.4624 29.7842 29.7842 33.4624 29.7842 38ZM44.6211 29.4584C44.6209 29.8382 44.7334 30.2094 44.9442 30.5253C45.1551 30.8411 45.4548 31.0873 45.8056 31.2328C46.1564 31.3782 46.5424 31.4164 46.9149 31.3425C47.2873 31.2685 47.6295 31.0858 47.8982 30.8174C48.1668 30.549 48.3498 30.2069 48.424 29.8345C48.4982 29.4621 48.4604 29.076 48.3152 28.7252C48.17 28.3743 47.924 28.0743 47.6084 27.8632C47.2927 27.6521 46.9216 27.5394 46.5418 27.5392H46.5411C46.032 27.5394 45.5439 27.7417 45.1839 28.1015C44.8239 28.4614 44.6215 28.9494 44.6211 29.4584ZM31.536 51.0236C29.9761 50.9526 29.1282 50.6927 28.5647 50.4732C27.8177 50.1824 27.2847 49.836 26.7244 49.2764C26.164 48.7168 25.8171 48.1843 25.5276 47.4373C25.3079 46.8741 25.0481 46.026 24.9772 44.466C24.8996 42.7795 24.8841 42.2729 24.8841 38.0001C24.8841 33.7274 24.9009 33.2221 24.9772 31.5342C25.0482 29.9743 25.31 29.1278 25.5276 28.5629C25.8184 27.8159 26.1647 27.2829 26.7244 26.7226C27.284 26.1622 27.8164 25.8153 28.5647 25.5258C29.1279 25.3061 29.9761 25.0463 31.536 24.9754C33.2225 24.8978 33.7292 24.8823 38 24.8823C42.2708 24.8823 42.778 24.8991 44.4659 24.9754C46.0259 25.0464 46.8723 25.3082 47.4372 25.5258C48.1842 25.8153 48.7172 26.1629 49.2776 26.7226C49.838 27.2822 50.1836 27.8159 50.4744 28.5629C50.694 29.1261 50.9539 29.9743 51.0248 31.5342C51.1023 33.2221 51.1178 33.7274 51.1178 38.0001C51.1178 42.2729 51.1023 42.7781 51.0248 44.466C50.9537 46.026 50.6926 46.8739 50.4744 47.4373C50.1836 48.1843 49.8372 48.7173 49.2776 49.2764C48.718 49.8355 48.1842 50.1824 47.4372 50.4732C46.874 50.6929 46.0259 50.9527 44.4659 51.0236C42.7794 51.1012 42.2728 51.1167 38 51.1167C33.7272 51.1167 33.222 51.1012 31.536 51.0236ZM31.4035 22.0969C29.7002 22.1745 28.5363 22.4445 27.5199 22.8401C26.4672 23.2485 25.5761 23.7965 24.6856 24.6856C23.7951 25.5747 23.2485 26.4672 22.8401 27.5199C22.4445 28.537 22.1745 29.7002 22.0969 31.4035C22.018 33.1095 22 33.6549 22 38C22 42.3451 22.018 42.8905 22.0969 44.5965C22.1745 46.2999 22.4445 47.463 22.8401 48.4801C23.2485 49.5322 23.7952 50.4257 24.6856 51.3144C25.5759 52.2031 26.4672 52.7503 27.5199 53.1599C28.5382 53.5555 29.7002 53.8255 31.4035 53.9031C33.1104 53.9807 33.6549 54 38 54C42.3451 54 42.8905 53.982 44.5965 53.9031C46.2999 53.8255 47.463 53.5555 48.4801 53.1599C49.5322 52.7503 50.4239 52.2035 51.3144 51.3144C52.2049 50.4253 52.7503 49.5322 53.1599 48.4801C53.5555 47.463 53.8268 46.2998 53.9031 44.5965C53.9807 42.8892 53.9987 42.3451 53.9987 38C53.9987 33.6549 53.9807 33.1095 53.9031 31.4035C53.8255 29.7001 53.5555 28.5363 53.1599 27.5199C52.7503 26.4678 52.2035 25.5761 51.3144 24.6856C50.4253 23.7951 49.5322 23.2485 48.4814 22.8401C47.463 22.4445 46.2998 22.1732 44.5978 22.0969C42.8918 22.0193 42.3464 22 38.0013 22C33.6562 22 33.1104 22.018 31.4035 22.0969Z" fill="url(#paint0_radial_3467_1502)"/>
<path d="M32.6675 38C32.6675 35.0546 35.0546 32.6662 38 32.6662C40.9454 32.6662 43.3338 35.0546 43.3338 38C43.3338 40.9454 40.9454 43.3338 38 43.3338C35.0546 43.3338 32.6675 40.9454 32.6675 38ZM29.7842 38C29.7842 42.5376 33.4624 46.2158 38 46.2158C42.5376 46.2158 46.2158 42.5376 46.2158 38C46.2158 33.4624 42.5376 29.7842 38 29.7842C33.4624 29.7842 29.7842 33.4624 29.7842 38ZM44.6211 29.4584C44.6209 29.8382 44.7334 30.2094 44.9442 30.5253C45.1551 30.8411 45.4548 31.0873 45.8056 31.2328C46.1564 31.3782 46.5424 31.4164 46.9149 31.3425C47.2873 31.2685 47.6295 31.0858 47.8982 30.8174C48.1668 30.549 48.3498 30.2069 48.424 29.8345C48.4982 29.4621 48.4604 29.076 48.3152 28.7252C48.17 28.3743 47.924 28.0743 47.6084 27.8632C47.2927 27.6521 46.9216 27.5394 46.5418 27.5392H46.5411C46.032 27.5394 45.5439 27.7417 45.1839 28.1015C44.8239 28.4614 44.6215 28.9494 44.6211 29.4584ZM31.536 51.0236C29.9761 50.9526 29.1282 50.6927 28.5647 50.4732C27.8177 50.1824 27.2847 49.836 26.7244 49.2764C26.164 48.7168 25.8171 48.1843 25.5276 47.4373C25.3079 46.8741 25.0481 46.026 24.9772 44.466C24.8996 42.7795 24.8841 42.2729 24.8841 38.0001C24.8841 33.7274 24.9009 33.2221 24.9772 31.5342C25.0482 29.9743 25.31 29.1278 25.5276 28.5629C25.8184 27.8159 26.1647 27.2829 26.7244 26.7226C27.284 26.1622 27.8164 25.8153 28.5647 25.5258C29.1279 25.3061 29.9761 25.0463 31.536 24.9754C33.2225 24.8978 33.7292 24.8823 38 24.8823C42.2708 24.8823 42.778 24.8991 44.4659 24.9754C46.0259 25.0464 46.8723 25.3082 47.4372 25.5258C48.1842 25.8153 48.7172 26.1629 49.2776 26.7226C49.838 27.2822 50.1836 27.8159 50.4744 28.5629C50.694 29.1261 50.9539 29.9743 51.0248 31.5342C51.1023 33.2221 51.1178 33.7274 51.1178 38.0001C51.1178 42.2729 51.1023 42.7781 51.0248 44.466C50.9537 46.026 50.6926 46.8739 50.4744 47.4373C50.1836 48.1843 49.8372 48.7173 49.2776 49.2764C48.718 49.8355 48.1842 50.1824 47.4372 50.4732C46.874 50.6929 46.0259 50.9527 44.4659 51.0236C42.7794 51.1012 42.2728 51.1167 38 51.1167C33.7272 51.1167 33.222 51.1012 31.536 51.0236ZM31.4035 22.0969C29.7002 22.1745 28.5363 22.4445 27.5199 22.8401C26.4672 23.2485 25.5761 23.7965 24.6856 24.6856C23.7951 25.5747 23.2485 26.4672 22.8401 27.5199C22.4445 28.537 22.1745 29.7002 22.0969 31.4035C22.018 33.1095 22 33.6549 22 38C22 42.3451 22.018 42.8905 22.0969 44.5965C22.1745 46.2999 22.4445 47.463 22.8401 48.4801C23.2485 49.5322 23.7952 50.4257 24.6856 51.3144C25.5759 52.2031 26.4672 52.7503 27.5199 53.1599C28.5382 53.5555 29.7002 53.8255 31.4035 53.9031C33.1104 53.9807 33.6549 54 38 54C42.3451 54 42.8905 53.982 44.5965 53.9031C46.2999 53.8255 47.463 53.5555 48.4801 53.1599C49.5322 52.7503 50.4239 52.2035 51.3144 51.3144C52.2049 50.4253 52.7503 49.5322 53.1599 48.4801C53.5555 47.463 53.8268 46.2998 53.9031 44.5965C53.9807 42.8892 53.9987 42.3451 53.9987 38C53.9987 33.6549 53.9807 33.1095 53.9031 31.4035C53.8255 29.7001 53.5555 28.5363 53.1599 27.5199C52.7503 26.4678 52.2035 25.5761 51.3144 24.6856C50.4253 23.7951 49.5322 23.2485 48.4814 22.8401C47.463 22.4445 46.2998 22.1732 44.5978 22.0969C42.8918 22.0193 42.3464 22 38.0013 22C33.6562 22 33.1104 22.018 31.4035 22.0969Z" fill="url(#paint1_radial_3467_1502)"/>
</g>
<defs>
<radialGradient id="paint0_radial_3467_1502" cx="0" cy="0" r="1" gradientUnits="userSpaceOnUse" gradientTransform="translate(26.2514 54.1512) scale(41.7733 41.7733)">
<stop offset="0.09" stop-color="#FA8F21"/>
<stop offset="0.78" stop-color="#D82D7E"/>
</radialGradient>
<radialGradient id="paint1_radial_3467_1502" cx="0" cy="0" r="1" gradientUnits="userSpaceOnUse" gradientTransform="translate(41.4066 55.5848) scale(32.9231)">
<stop offset="0.64" stop-color="#8C3AAA" stop-opacity="0"/>
<stop offset="1" stop-color="#8C3AAA"/>
</radialGradient>
<clipPath id="clip0_3467_1502">
<rect width="32" height="32" fill="white" transform="translate(22 22)"/>
</clipPath>
</defs>
</svg>
