<svg width="125" height="125" viewBox="0 0 125 125" fill="none" xmlns="http://www.w3.org/2000/svg">
<circle cx="62.5" cy="62.5" r="62.5" fill="#2F2F2F"/>
<path d="M53.2158 80.9025C52.3263 78.7935 51.9001 76.65 51.6715 74.4294C51.2433 70.2694 52.1108 66.3824 54.0212 62.7361C55.8567 59.2329 58.5429 56.4799 61.9584 54.4526C64.4041 53.0009 67.0535 52.1208 69.8472 51.7055C72.3237 51.3374 74.7945 51.5341 77.2431 52.0463C80.1846 52.6616 82.8519 53.9182 85.2459 55.6867C87.5115 57.3605 89.378 59.438 90.8266 61.8824C92.2119 64.22 93.168 66.7326 93.5228 69.3984C94.2125 74.5813 93.3722 79.5008 90.4466 83.944C89.9415 84.7112 89.3656 85.4316 88.8337 86.1816C88.6946 86.3777 88.5981 86.6038 88.489 86.8036C90.0708 88.0475 91.6146 89.2193 93.1067 90.4536C93.7923 91.0208 93.879 91.7903 93.5924 92.5554C93.2716 93.412 92.6595 93.7074 91.7884 93.7061C84.9143 93.6957 78.0387 93.7829 71.1666 93.6632C68.0316 93.6086 65.0244 92.7033 62.3458 91.0082C60.7953 90.027 59.2549 88.9787 57.9006 87.7505C55.8303 85.8731 54.3856 83.4998 53.2158 80.9025ZM68.2753 74.6217C68.7617 75.5324 69.2482 76.4431 69.7649 77.4104C69.5775 77.4963 69.3364 77.6101 69.0927 77.7178C67.9558 78.22 66.7504 78.167 65.5466 78.1804C64.4643 78.1924 63.6211 78.9824 63.5715 79.9543C63.5373 80.6263 64.4024 81.6192 65.104 81.6692C67.638 81.8496 70.0218 81.3504 72.2437 80.0909C72.4544 79.9715 72.8426 79.9098 73.0184 80.023C75.1475 81.3945 77.495 81.7864 79.9714 81.6763C81.2083 81.6214 81.9514 80.5497 81.5397 79.3836C81.2954 78.6916 80.539 78.1497 79.7354 78.1801C78.2702 78.2356 76.8485 78.1087 75.4346 77.3698C76.9027 75.3955 77.839 73.2188 78.0607 70.7125C78.7021 70.7125 79.3074 70.7347 79.9105 70.7076C80.9568 70.6604 81.7122 69.8733 81.685 68.8953C81.6579 67.9245 80.8988 67.2187 79.86 67.213C78.6929 67.2067 77.5258 67.2116 76.3587 67.2116C75.7104 67.2116 75.0622 67.2116 74.3779 67.2116C74.3779 66.5719 74.3788 66.0415 74.3777 65.5111C74.3755 64.4341 73.5347 63.5412 72.5418 63.5601C71.7255 63.5756 70.8905 64.5391 70.8779 65.4896C70.8706 66.0407 70.8766 66.592 70.8766 67.2115C70.6319 67.2115 70.4597 67.2115 70.2874 67.2115C68.689 67.2115 67.0905 67.2055 65.4921 67.214C64.6012 67.2188 63.7854 67.8719 63.5797 68.7172C63.4343 69.3149 63.9686 70.2649 64.7635 70.5233C65.3406 70.7109 65.9965 70.7063 66.616 70.6981C67.1295 70.6914 67.2873 70.8868 67.3904 71.3682C67.6176 72.4288 67.9333 73.4704 68.2753 74.6217Z" fill="url(#paint0_linear_3912_3895)"/>
<path d="M47.3817 56.8628C49.5013 56.8605 51.5539 56.8605 53.8127 56.8605C50.2937 61.2263 48.3726 66.0849 48.0852 71.6263C47.7405 71.6263 47.4685 71.6263 47.1965 71.6263C42.6802 71.6263 38.164 71.6263 33.6477 71.6263C32.2449 71.6263 31.5955 71.2601 31.3213 70.3146C31.0655 69.4325 31.5088 68.5335 32.4788 67.8221C33.763 66.8801 35.0217 65.9034 36.2367 64.9831C35.2948 63.547 34.2888 62.2184 33.507 60.7689C32.5531 59 31.8671 57.0948 31.6136 55.0835C31.4383 53.6929 31.3438 52.2868 31.3073 50.8852C31.2428 48.4079 31.8427 46.0481 32.748 43.7601C33.9528 40.7153 35.8974 38.1842 38.3439 36.0601C40.8356 33.8969 43.7166 32.424 46.9665 31.7445C51.3417 30.8299 55.6012 31.1488 59.71 32.9963C63.8382 34.8524 66.9531 37.7978 69.1897 41.716C70.2089 43.5014 70.7892 45.4403 71.3165 47.4026C71.4498 47.8986 71.2023 48.1591 70.6961 48.1812C67.4066 48.3246 64.3496 49.3261 61.4395 50.7875C60.2249 51.3974 59.0982 52.1823 57.8667 52.9268C57.4816 52.2054 57.0864 51.5001 56.7234 50.7785C55.5245 48.3956 54.3451 46.0029 53.1424 43.6219C52.527 42.4035 51.5545 42.0478 50.5412 42.7077C50.2133 42.9212 49.9515 43.3046 49.7713 43.6661C47.4146 48.3934 45.0757 53.1296 42.7383 57.8666C42.2368 58.883 42.5656 59.8468 43.5542 60.3322C44.4252 60.7599 45.351 60.3979 45.8528 59.4156C46.1929 58.7498 46.4966 58.0653 46.8452 57.4043C46.9534 57.1991 47.1556 57.0434 47.3817 56.8628Z" fill="url(#paint1_linear_3912_3895)"/>
<path d="M50.9363 53.3583C50.2372 53.3583 49.6137 53.3583 48.8126 53.3583C49.7176 51.5419 50.553 49.8653 51.4508 48.0634C52.3961 49.8719 53.2744 51.5523 54.2185 53.3583C53.062 53.3583 52.037 53.3583 50.9363 53.3583Z" fill="url(#paint2_linear_3912_3895)"/>
<path d="M72.8534 74.9725C72.5975 74.8771 72.2729 74.7835 72.1247 74.5684C71.3398 73.429 70.92 72.1462 70.7672 70.7459C72.0066 70.7459 73.2401 70.7459 74.5434 70.7459C74.3426 72.316 73.8459 73.7109 72.8534 74.9725Z" fill="url(#paint3_linear_3912_3895)"/>
<defs>
<linearGradient id="paint0_linear_3912_3895" x1="72.6571" y1="51.5159" x2="72.6571" y2="93.7271" gradientUnits="userSpaceOnUse">
<stop stop-color="#FF722D"/>
<stop offset="1" stop-color="#B34712"/>
</linearGradient>
<linearGradient id="paint1_linear_3912_3895" x1="51.3011" y1="31.25" x2="51.3011" y2="71.6263" gradientUnits="userSpaceOnUse">
<stop stop-color="#FF722D"/>
<stop offset="1" stop-color="#B34712"/>
</linearGradient>
<linearGradient id="paint2_linear_3912_3895" x1="51.5156" y1="48.0634" x2="51.5156" y2="53.3583" gradientUnits="userSpaceOnUse">
<stop stop-color="#FE5200"/>
<stop offset="1" stop-color="#FFA174"/>
</linearGradient>
<linearGradient id="paint3_linear_3912_3895" x1="72.6553" y1="70.7459" x2="72.6553" y2="74.9725" gradientUnits="userSpaceOnUse">
<stop stop-color="#FE5200"/>
<stop offset="1" stop-color="#B34712"/>
</linearGradient>
</defs>
</svg>
