<svg width="20" height="20" viewBox="0 0 20 20" fill="none" xmlns="http://www.w3.org/2000/svg">
<path fill-rule="evenodd" clip-rule="evenodd" d="M13.2441 13.7005L13.1497 14.2622C12.5302 17.6695 11.2326 20 10 20C8.76739 20 7.46978 17.6695 6.85026 14.2622L6.75585 13.7005C6.63 12.8862 6.54258 12.0179 6.50279 11.1112H13.4972C13.4574 12.0179 13.37 12.8862 13.2441 13.7005ZM13.56 19.356C14.6797 17.3678 15.3834 14.4251 15.5123 11.1112L20 11.1112C19.5785 14.901 17.0261 18.0525 13.56 19.356ZM6.44001 19.3559C2.97389 18.0524 0.421535 14.901 6.8335e-08 11.1112L4.4877 11.1112C4.61663 14.4251 5.32033 17.3678 6.44001 19.3559ZM6.43991 0.644034C5.32031 2.63227 4.61662 5.57495 4.48769 8.88889L0 8.88883C0.421534 5.09904 2.97388 1.94755 6.43991 0.644034ZM10 0C11.2326 0 12.5302 2.33051 13.1497 5.73776L13.2441 6.29952C13.37 7.11382 13.4574 7.98211 13.4972 8.88887H6.50279C6.54258 7.98211 6.63 7.11382 6.75585 6.29952L6.85026 5.73776C7.46359 2.36458 8.74151 0.0467178 9.963 0.000697898L10 0ZM13.5601 0.644034C17.0261 1.94755 19.5785 5.09904 20 8.88883L15.5123 8.8889C15.3839 5.58839 14.6854 2.65615 13.5736 0.668389L13.5601 0.644034Z" fill="white"/>
</svg>
