<svg width="162" height="163" viewBox="0 0 162 163" fill="none" xmlns="http://www.w3.org/2000/svg">
<path d="M89.1195 4.39516C109.199 2.44666 144.34 18.5922 157.342 56.2627C169.556 91.6416 154.048 131.89 119.883 152.068C88.0544 170.863 44.9643 163.863 19.9034 135.968C-1.24987 112.422 -5.561 77.468 7.06129 55.2305C2.77033 79.6437 6.02387 101.205 20.3908 120.16C31.0635 134.244 45.2021 143.296 62.5019 146.982C97.0823 154.358 130.435 136.553 143.632 103.903C149.18 90.1742 149.642 76.0344 146.756 61.7068C143.842 47.2167 136.554 35.0775 126.112 24.7839C115.743 14.5635 102.937 8.56615 89.1195 4.39516Z" fill="white"/>
<path d="M106.432 134.199C106.24 134.289 106.045 134.379 105.851 134.469C105.645 134.564 105.439 134.654 105.229 134.744C100.519 136.838 95.5644 138.41 90.4357 139.421C86.8933 140.122 83.2671 140.555 79.5867 140.704L85.7263 137.175L86.304 136.838C87.9477 135.91 89.5724 134.969 91.1471 133.92C101.506 126.991 102.813 114.465 92.9385 106.892C83.4115 99.5895 72.4754 94.1539 62.7063 87.1297C51.6906 79.2199 40.3075 71.4153 30.9027 61.798C26.5363 57.334 23.3263 52.2668 21.5095 46.7557C19.2626 39.9333 19.1511 32.4323 21.6358 24.5438C23.3369 19.1485 26.3707 15.0094 30.1413 11.6295C30.2857 11.5031 30.4301 11.38 30.5745 11.2536C30.9249 10.9435 31.2817 10.6472 31.6428 10.3584C31.7118 10.2968 31.784 10.2384 31.8562 10.1843C35.3741 7.37885 39.4007 5.11394 43.5217 3.03375C45.1103 2.23523 46.7286 1.49194 48.3681 0.791107C48.3723 0.791107 48.3723 0.791107 48.3755 0.786865C48.8703 0.570251 49.3683 0.361053 49.8706 0.15506C49.878 0.151871 49.8812 0.151855 49.8886 0.148682C50.0193 0.097702 50.1488 0.0467224 50.2826 0C45.071 5.93791 41.9141 13.7203 41.9141 22.2406C41.9141 26.213 42.6011 30.023 43.8648 33.559C45.0636 37.6981 47.4804 41.7278 51.1671 45.4911C51.6981 46.0326 52.2545 46.5678 52.8364 47.0913C52.9765 47.2251 53.1178 47.3514 53.259 47.4746C53.414 47.6148 53.5722 47.7518 53.7315 47.8898C53.8834 48.0193 54.0352 48.15 54.1903 48.2763C60.6187 53.7109 67.73 58.3884 75.0578 62.7728C75.3828 62.9682 75.712 63.1625 76.0401 63.3579C80.9629 66.2801 85.9716 69.0749 90.9199 71.8889C102.383 78.4108 113.359 85.0559 119.051 97.624C125.656 112.194 120.502 127.427 106.432 134.199Z" fill="#FF722D"/>
<path d="M94.919 30.1898C94.919 35.2379 92.8717 39.8103 89.5629 43.1222C86.251 46.4309 81.6787 48.4782 76.6306 48.4782C66.5281 48.4782 58.3412 40.2913 58.3412 30.1898C58.3412 25.1407 60.3885 20.5683 63.6972 17.2564C67.0091 13.9476 71.5815 11.9004 76.6306 11.9004C81.6787 11.9004 86.251 13.9476 89.5629 17.2564C92.8717 20.5683 94.919 25.1407 94.919 30.1898Z" fill="#FF722D"/>
</svg>
