<svg width="22" height="18" viewBox="0 0 22 18" fill="none" xmlns="http://www.w3.org/2000/svg">
<path d="M9.22461 1.00781C10.3446 1.00781 11.2011 1.86439 11.2012 2.98438C11.2012 3.31366 11.1356 3.5774 11.0039 3.84082C12.6557 4.25381 14.1072 5.1887 15.1836 6.46582C12.7463 6.73987 10.8516 8.80783 10.8516 11.3184C10.8516 11.8603 10.9415 12.3811 11.1045 12.8682H0.65918C0.263867 12.8682 2.12116e-05 12.6043 0 12.209C0 11.8137 0.263851 11.5498 0.65918 11.5498H1.31836C1.45024 7.79439 4.01933 4.69743 7.44531 3.84082C7.31367 3.5774 7.24805 3.31365 7.24805 2.98438C7.24816 1.86439 8.1046 1.00782 9.22461 1.00781Z" fill="white"/>
<path d="M15.6107 16.288C15.532 16.4404 15.4625 16.5792 15.3861 16.7317C15.3217 16.7317 15.2508 16.7317 15.1799 16.7317C10.9384 16.7317 6.69687 16.7301 2.45535 16.7376C2.27903 16.7379 2.20729 16.6701 2.14035 16.5334C1.83659 15.9131 1.52734 15.2956 1.21496 14.6668C0.817013 14.6668 0.416206 14.6668 0 14.6668C0 14.3094 0 13.963 0 13.6035C5.8744 13.6035 11.7481 13.6035 17.6349 13.6035C17.6349 13.9527 17.6349 14.299 17.6349 14.6664C17.2847 14.6664 16.9421 14.6719 16.5998 14.6635C16.472 14.6604 16.4015 14.69 16.3419 14.8163C16.1104 15.3067 15.862 15.7891 15.6107 16.288Z" fill="white"/>
<circle cx="16.5516" cy="11.5887" r="4.61217" fill="#2ECC71"/>
<path d="M14.6504 11.4966L15.9165 12.7626L18.4486 10.2305" stroke="white" stroke-width="1.00737" stroke-linecap="round" stroke-linejoin="round"/>
</svg>
