<svg width="18" height="18" viewBox="0 0 18 18" fill="none" xmlns="http://www.w3.org/2000/svg">
<path d="M10.0712 17.3697C9.13042 17.0929 8.40933 16.472 7.63379 15.9459C7.08191 15.5716 6.53903 15.1837 5.99948 14.7917C5.92821 14.74 5.86885 14.6317 5.85909 14.5435C5.83796 14.3527 5.85258 14.158 5.85258 13.9408C7.96805 13.9408 10.0755 13.9408 12.2468 13.9408C12.1618 13.8499 12.1248 13.7943 12.074 13.7582C11.37 13.2579 10.657 12.7699 9.96139 12.2583C9.5395 11.948 9.4633 11.5566 9.59505 11.0543C9.72076 10.575 10.1266 10.3071 10.5765 10.2676C10.9982 10.2306 11.3039 10.4601 11.6351 10.633C12.1887 10.922 12.7305 11.2338 13.2772 11.5359C14.4078 12.1607 15.5379 12.7864 16.6695 13.4092C16.9341 13.5549 17.2016 13.6956 17.4726 13.8288C17.5906 13.8868 17.6357 13.9622 17.635 14.0945C17.6301 14.9758 17.6303 15.8571 17.6349 16.7384C17.6356 16.8594 17.5995 16.9268 17.478 16.9402C16.9524 16.9981 16.4262 17.0515 15.9012 17.1147C15.3563 17.1803 14.813 17.2596 14.268 17.3249C13.7359 17.3887 13.2024 17.4413 12.6698 17.501C12.3057 17.5418 11.9429 17.5976 11.5779 17.6268C11.062 17.668 10.5736 17.524 10.0712 17.3697Z" fill="#4285F4"/>
<path d="M15.1982 0C15.3315 0 15.4404 0.107985 15.4404 0.241211C15.4404 1.38038 15.4372 2.52006 15.4443 3.65918C15.4451 3.77069 15.4847 3.89611 15.5439 3.99121C16.2224 5.07984 16.9087 6.16366 17.5908 7.25C17.6152 7.28888 17.6308 7.34099 17.6309 7.38672C17.6329 9.15592 17.6328 10.9251 17.6328 12.7285C17.4114 12.6084 17.2094 12.4992 17.0078 12.3896C16.0768 11.8835 15.1449 11.379 14.2148 10.8711C13.3215 10.3833 12.4378 9.87706 11.5352 9.40723C10.8004 9.02482 9.86664 9.18977 9.25391 9.73047C8.73099 10.1921 8.46523 10.7616 8.47852 11.4541C8.48713 11.9004 8.63956 12.3047 8.90527 12.665C8.94241 12.7154 8.97357 12.7707 9.02539 12.8516H4.8252V14.7061H4.58301C3.79525 14.7061 3.00747 14.7032 2.21973 14.707C0.96795 14.7132 -0.00207307 13.7049 0.00390625 12.5039C0.0122482 10.8634 0.0097124 9.22253 0 7.58203C-0.0011623 7.38576 0.050562 7.22174 0.148438 7.06738C0.805531 6.03109 1.46819 4.99826 2.12207 3.95996C2.17429 3.87702 2.19487 3.76089 2.19531 3.66016C2.20029 2.52834 2.19824 1.39649 2.19824 0.264648C2.19824 0.11857 2.31681 0 2.46289 0H15.1982ZM4.49609 3.2168C4.61274 3.46594 4.87892 3.65407 5.16699 3.6543C7.60052 3.65544 10.0342 3.65488 12.4678 3.65625L12.4688 3.65527C10.0456 3.65418 7.6224 3.65538 5.19922 3.6543C4.84818 3.65414 4.52791 3.39809 4.45117 3.08789L4.49609 3.2168ZM5.16406 2.23633C4.81309 2.23673 4.51503 2.48983 4.44824 2.81055C4.51835 2.49046 4.83017 2.23848 5.19629 2.23828C7.63314 2.23698 10.07 2.23837 12.5068 2.2373C12.4933 2.23658 12.4797 2.23535 12.4658 2.23535C10.0321 2.23666 7.59775 2.23498 5.16406 2.23633Z" fill="#4285F4"/>
<path d="M6.22266 4.28914L7.91805 5.98454L11.3088 2.59375" stroke="white" stroke-width="1.3716" stroke-linecap="round" stroke-linejoin="round"/>
</svg>
