<svg width="26" height="26" viewBox="0 0 26 26" fill="none" xmlns="http://www.w3.org/2000/svg">
<path d="M12.3576 25.125C11.189 25.125 12.5715 23.2798 6.81024 20.4097C6.4946 20.2522 6.18831 20.0766 5.89288 19.8838C3.0263 18.0187 1.25586 14.6076 1.25586 10.9358C1.25586 4.89645 6.22593 0 12.3576 0C18.4893 0 23.4593 4.89645 23.4593 10.9346C23.4593 14.9803 21.3044 18.714 17.9143 20.405C12.1473 23.2786 13.5262 25.125 12.3576 25.125ZM12.3576 15.3204C14.8245 15.3204 16.7983 13.3665 16.7983 10.9907C16.7983 8.61495 14.8245 6.66105 12.3576 6.66105C9.89068 6.66105 7.91691 8.61495 7.91691 10.9907C7.91691 13.3665 9.89068 15.3204 12.3576 15.3204Z" fill="white"/>
</svg>
