<svg width="22" height="26" viewBox="0 0 22 26" fill="none" xmlns="http://www.w3.org/2000/svg">
<path d="M19.3946 0H1.76315C0.78945 0 0 0.774463 0 1.72965V23.3551C0 24.8243 1.69174 25.6485 2.84925 24.7436L9.48486 19.9002C9.79475 19.6579 10.1768 19.5262 10.5701 19.5261C10.9635 19.5259 11.3456 19.6573 11.6557 19.8993L18.3094 24.7484C19.4674 25.6521 21.1578 24.8273 21.1578 23.3586V1.72965C21.1578 0.774463 20.3683 0 19.3946 0ZM15.3059 9.02732L13.6904 10.6437C13.6112 10.7235 13.5521 10.8211 13.5182 10.9284C13.4842 11.0356 13.4763 11.1494 13.4951 11.2603L13.8764 13.5423C13.9716 14.1114 13.3898 14.5451 12.8917 14.2767L10.8949 13.1994C10.7979 13.1469 10.6894 13.1194 10.5791 13.1194C10.4688 13.1194 10.3603 13.1469 10.2633 13.1994L8.26652 14.2767C7.76843 14.5451 7.18659 14.1114 7.2818 13.5423L7.66309 11.2603C7.68191 11.1494 7.67401 11.0356 7.64005 10.9284C7.60609 10.8211 7.54705 10.7235 7.46782 10.6437L5.85233 9.02732C5.44945 8.62444 5.67161 7.92227 6.22832 7.8394L8.46091 7.50661C8.57076 7.4897 8.67478 7.44609 8.76385 7.37962C8.85292 7.31314 8.92432 7.22582 8.97178 7.12532L9.97017 5.04922C10.0241 4.93323 10.11 4.83507 10.2179 4.76628C10.3257 4.6975 10.451 4.66095 10.5789 4.66095C10.7068 4.66095 10.8321 4.6975 10.9399 4.76628C11.0477 4.83507 11.1337 4.93323 11.1876 5.04922L12.186 7.12532C12.2847 7.33073 12.476 7.47355 12.6969 7.50661L14.9295 7.8394C15.4862 7.92227 15.7083 8.62444 15.3059 9.02732Z" fill="white"/>
</svg>
