<svg width="364" height="268" viewBox="0 0 364 268" fill="none" xmlns="http://www.w3.org/2000/svg">
<path fill-rule="evenodd" clip-rule="evenodd" d="M291.646 32.7168C297.171 32.7168 301.649 37.1954 301.649 42.7201C301.649 48.2447 297.171 52.7233 291.646 52.7233H234.484C240.009 52.7233 244.488 57.2019 244.488 62.7266C244.488 68.2512 240.009 72.7298 234.484 72.7298H265.923C271.448 72.7298 275.927 77.2085 275.927 82.7331C275.927 88.2577 271.448 92.7364 265.923 92.7364H251.384C244.419 92.7364 238.772 97.215 238.772 102.74C238.772 106.423 241.63 109.757 247.346 112.743C252.87 112.743 257.349 117.221 257.349 122.746C257.349 128.271 252.87 132.749 247.346 132.749H128.736C123.211 132.749 118.732 128.271 118.732 122.746C118.732 117.221 123.211 112.743 128.736 112.743H73.0033C67.4786 112.743 63 108.264 63 102.74C63 97.215 67.4786 92.7364 73.0033 92.7364H130.165C135.689 92.7364 140.168 88.2577 140.168 82.7331C140.168 77.2085 135.689 72.7298 130.165 72.7298H94.4388C88.9142 72.7298 84.4356 68.2512 84.4356 62.7266C84.4356 57.2019 88.9142 52.7233 94.4388 52.7233H151.6C146.076 52.7233 141.597 48.2447 141.597 42.7201C141.597 37.1954 146.076 32.7168 151.6 32.7168H291.646ZM291.646 72.7298C297.171 72.7298 301.649 77.2085 301.649 82.7331C301.649 88.2577 297.171 92.7364 291.646 92.7364C286.121 92.7364 281.643 88.2577 281.643 82.7331C281.643 77.2085 286.121 72.7298 291.646 72.7298Z" fill="#272727"/>
<path fill-rule="evenodd" clip-rule="evenodd" d="M99.8253 74.1595H98.4707C89.8057 74.1595 82.7812 67.1454 82.7812 58.4931C82.7812 49.8407 89.8057 42.8266 98.4707 42.8266C98.5267 42.8266 98.5825 42.8269 98.6383 42.8274C100.033 30.6927 109.963 21.2852 122.005 21.2852C134.697 21.2852 145.043 31.736 145.522 44.8159C153.196 45.3113 159.949 52.7806 159.949 60.569C159.949 66.9639 155.213 74.1595 149.603 74.1595H110.588" fill="#525252"/>
<path d="M157.205 137.37C158.176 137.196 158.823 136.268 158.649 135.297C158.475 134.325 157.547 133.679 156.576 133.853L156.891 135.611L157.205 137.37ZM146.611 136.183C145.666 136.466 145.129 137.462 145.412 138.407C145.695 139.352 146.691 139.889 147.636 139.606L147.123 137.895L146.611 136.183ZM141.891 141.664C142.797 141.274 143.215 140.223 142.825 139.317C142.435 138.411 141.384 137.993 140.478 138.383L141.184 140.023L141.891 141.664ZM207.4 133.993C206.43 133.812 205.498 134.452 205.317 135.422C205.136 136.392 205.776 137.324 206.746 137.505L207.073 135.749L207.4 133.993ZM156.891 135.611L156.576 133.853C152.969 134.499 149.624 135.282 146.611 136.183L147.123 137.895L147.636 139.606C150.5 138.749 153.712 137.995 157.205 137.37L156.891 135.611ZM141.184 140.023L140.478 138.383C137.357 139.727 134.752 141.276 132.899 143.032C131.044 144.789 129.807 146.891 129.807 149.282H131.594H133.38C133.38 148.21 133.923 146.982 135.356 145.625C136.791 144.266 138.981 142.917 141.891 141.664L141.184 140.023ZM131.594 149.282H129.807C129.807 152.28 131.738 154.812 134.459 156.834C137.213 158.88 141.084 160.648 145.708 162.101C154.975 165.014 167.668 166.787 181.61 166.787V165.001V163.215C167.929 163.215 155.613 161.469 146.779 158.693C142.351 157.301 138.898 155.681 136.59 153.966C134.248 152.227 133.38 150.624 133.38 149.282H131.594ZM181.61 165.001V166.787C195.552 166.787 208.245 165.014 217.512 162.101C222.136 160.648 226.007 158.88 228.761 156.834C231.482 154.812 233.413 152.28 233.413 149.282H231.626H229.84C229.84 150.624 228.972 152.227 226.63 153.966C224.323 155.681 220.869 157.301 216.441 158.693C207.607 161.469 195.292 163.215 181.61 163.215V165.001ZM231.626 149.282H233.413C233.413 145.327 230.091 142.174 225.71 139.81C221.184 137.367 214.846 135.38 207.4 133.993L207.073 135.749L206.746 137.505C213.999 138.856 219.938 140.755 224.013 142.954C228.235 145.232 229.84 147.477 229.84 149.282H231.626Z" fill="#595959"/>
<path d="M258.534 50.1475L211.022 41.0431C208.916 40.6396 206.882 42.0195 206.478 44.1252L194.305 107.652C194.076 108.85 194.422 110.086 195.242 110.99L217.321 135.344C218.603 136.758 220.723 137.03 222.321 135.986L248.054 119.17C248.935 118.594 249.545 117.684 249.743 116.65L261.616 54.6908C262.019 52.5851 260.639 50.551 258.534 50.1475Z" fill="#363636" stroke="#666666" stroke-width="1.56564"/>
<path opacity="0.63" d="M234.024 65.634L236.336 74.0166L244.515 76.8408C244.724 76.9143 244.908 77.0445 245.047 77.2168C245.186 77.389 245.274 77.5966 245.302 77.8162C245.33 78.0358 245.296 78.2588 245.204 78.4603C245.113 78.6617 244.967 78.8337 244.783 78.9569L237.565 83.7369L237.409 92.3883C237.405 92.6107 237.339 92.8276 237.219 93.0145C237.098 93.2014 236.928 93.3509 236.727 93.4461C236.526 93.5413 236.302 93.5784 236.081 93.5532C235.86 93.528 235.651 93.4416 235.476 93.3036L228.713 87.8658L220.435 90.4018C220.223 90.4662 219.996 90.4698 219.781 90.4123C219.566 90.3547 219.372 90.2382 219.22 90.0759C219.068 89.9137 218.964 89.7121 218.92 89.494C218.877 89.276 218.895 89.05 218.973 88.8417L222.01 80.7373L217.051 73.6225C216.921 73.4414 216.845 73.2271 216.831 73.0044C216.817 72.7817 216.867 72.5596 216.974 72.3639C217.081 72.1682 217.242 72.0069 217.437 71.8985C217.632 71.7902 217.853 71.7393 218.076 71.7518L226.721 72.1225L231.945 65.171C232.085 65.0001 232.269 64.8714 232.478 64.7992C232.687 64.727 232.912 64.7142 233.127 64.7622C233.343 64.8103 233.541 64.9172 233.699 65.0711C233.858 65.225 233.97 65.4199 234.024 65.634Z" fill="white"/>
<circle cx="221.072" cy="119.508" r="5.04672" fill="#848484"/>
<path d="M169.366 20.5923C171.785 19.7162 174.456 20.9668 175.332 23.3857L204.716 104.51C205.146 105.698 205.076 107.01 204.521 108.145L185.702 146.597C184.695 148.654 182.342 149.674 180.153 149.003L136.403 135.588C135.003 135.159 133.887 134.097 133.389 132.721L103.244 49.4962C102.368 47.0773 103.619 44.4063 106.038 43.5301L169.366 20.5923Z" fill="url(#paint0_linear_3691_1466)" stroke="#666666" stroke-width="1.55284"/>
<path d="M146.457 54.4243L154.492 62.0864L165.303 59.8099C165.58 59.7534 165.867 59.775 166.132 59.8724C166.397 59.9698 166.63 60.1391 166.805 60.3614C166.98 60.5836 167.089 60.8501 167.121 61.1309C167.152 61.4117 167.105 61.6959 166.985 61.9515L162.219 71.924L167.728 81.5008C167.869 81.7468 167.94 82.0276 167.93 82.3114C167.921 82.5952 167.833 82.8708 167.675 83.107C167.517 83.3432 167.297 83.5306 167.038 83.6481C166.78 83.7656 166.494 83.8085 166.212 83.7719L155.236 82.257L147.836 90.4682C147.645 90.6785 147.399 90.8313 147.126 90.9092C146.853 90.9872 146.564 90.9873 146.291 90.9095C146.017 90.8317 145.772 90.679 145.581 90.4689C145.39 90.2587 145.261 89.9993 145.21 89.72L143.215 78.8512L133.115 74.3148C132.853 74.2021 132.629 74.0177 132.467 73.7828C132.306 73.5479 132.215 73.2722 132.204 72.9875C132.193 72.7028 132.262 72.4208 132.405 72.1741C132.547 71.9274 132.757 71.7261 133.009 71.5934L142.719 66.3243L143.876 55.2825C143.917 55.0035 144.035 54.7413 144.216 54.5252C144.397 54.3092 144.635 54.1476 144.903 54.0587C145.17 53.9697 145.457 53.9568 145.732 54.0213C146.006 54.0859 146.258 54.2254 146.457 54.4243Z" fill="#B5B5B5"/>
<circle cx="173.905" cy="127.077" r="6.40546" fill="#848484"/>
<path opacity="0.75" fill-rule="evenodd" clip-rule="evenodd" d="M239.075 20.198C239.434 16.697 238.343 13.2019 236.056 10.5271L234.279 8.44923L236.999 8.72819C240.5 9.08729 243.995 7.99607 246.67 5.70887L248.748 3.93206L248.469 6.65177C248.11 10.1527 249.201 13.6479 251.488 16.3226L253.265 18.4005L250.545 18.1216C247.044 17.7625 243.549 18.8537 240.874 21.1409L238.796 22.9177L239.075 20.198Z" stroke="url(#paint1_linear_3691_1466)" stroke-width="3.57259" stroke-linejoin="round"/>
<path opacity="0.75" fill-rule="evenodd" clip-rule="evenodd" d="M116.327 159.077C113.638 156.807 110.136 155.738 106.637 156.12L103.919 156.416L105.683 154.327C107.953 151.637 109.022 148.135 108.64 144.637L108.344 141.919L110.433 143.682C113.122 145.952 116.624 147.021 120.123 146.64L122.841 146.343L121.077 148.433C118.807 151.122 117.739 154.624 118.12 158.123L118.416 160.84L116.327 159.077Z" stroke="url(#paint2_linear_3691_1466)" stroke-width="3.57259" stroke-linejoin="round"/>
<path d="M80.2672 214.227V198.651H83.4792L90.6732 209.189V198.651H93.8192V214.227H90.6952L83.4132 203.799V214.227H80.2672ZM102.083 214.381C100.91 214.381 99.8829 214.146 99.0029 213.677C98.1229 213.193 97.4409 212.511 96.9569 211.631C96.4729 210.736 96.2309 209.68 96.2309 208.463C96.2309 207.216 96.4729 206.145 96.9569 205.251C97.4556 204.341 98.1449 203.645 99.0249 203.161C99.9049 202.677 100.917 202.435 102.061 202.435C103.234 202.435 104.254 202.684 105.119 203.183C105.984 203.681 106.659 204.378 107.143 205.273C107.627 206.167 107.869 207.238 107.869 208.485C107.869 209.702 107.627 210.758 107.143 211.653C106.674 212.533 106.006 213.207 105.141 213.677C104.29 214.146 103.271 214.381 102.083 214.381ZM102.039 211.565C102.714 211.565 103.256 211.418 103.667 211.125C104.078 210.831 104.371 210.45 104.547 209.981C104.738 209.497 104.833 208.991 104.833 208.463C104.833 207.935 104.738 207.429 104.547 206.945C104.371 206.461 104.078 206.065 103.667 205.757C103.271 205.434 102.728 205.273 102.039 205.273C101.379 205.273 100.844 205.434 100.433 205.757C100.022 206.065 99.7216 206.461 99.5309 206.945C99.3549 207.429 99.2669 207.935 99.2669 208.463C99.2669 209.005 99.3549 209.511 99.5309 209.981C99.7216 210.45 100.022 210.831 100.433 211.125C100.844 211.418 101.379 211.565 102.039 211.565ZM114.862 214.227L120.934 198.651H124.454L130.46 214.227H127.072L126.104 211.565H119.218L118.25 214.227H114.862ZM120.23 208.727H125.114L122.694 201.995L120.23 208.727ZM136.882 214.381C135.694 214.381 134.675 214.139 133.824 213.655C132.988 213.171 132.35 212.489 131.91 211.609C131.47 210.714 131.25 209.665 131.25 208.463C131.25 207.245 131.478 206.189 131.932 205.295C132.387 204.385 133.04 203.681 133.89 203.183C134.756 202.684 135.797 202.435 137.014 202.435C137.953 202.435 138.789 202.603 139.522 202.941C140.256 203.278 140.842 203.762 141.282 204.393C141.737 205.023 142.001 205.801 142.074 206.725H139.06C138.928 206.211 138.672 205.837 138.29 205.603C137.924 205.368 137.484 205.251 136.97 205.251C136.31 205.251 135.782 205.412 135.386 205.735C135.005 206.057 134.726 206.468 134.55 206.967C134.389 207.465 134.308 207.964 134.308 208.463C134.308 209.005 134.396 209.519 134.572 210.003C134.748 210.472 135.027 210.861 135.408 211.169C135.804 211.462 136.318 211.609 136.948 211.609C137.476 211.609 137.938 211.491 138.334 211.257C138.73 211.007 138.987 210.626 139.104 210.113H142.184C142.111 211.066 141.825 211.858 141.326 212.489C140.828 213.119 140.19 213.596 139.412 213.919C138.65 214.227 137.806 214.381 136.882 214.381ZM149.302 214.227C148.334 214.227 147.52 214.109 146.86 213.875C146.215 213.64 145.723 213.244 145.386 212.687C145.063 212.115 144.902 211.337 144.902 210.355V205.383H143.186V202.633H144.902V199.531H147.982V202.633H150.512V205.383H147.982V209.915C147.982 210.399 148.07 210.78 148.246 211.059C148.422 211.337 148.818 211.477 149.434 211.477H150.402V214.227H149.302ZM152.101 214.227V202.633H155.181V214.227H152.101ZM153.641 201.467C153.069 201.467 152.607 201.298 152.255 200.961C151.903 200.609 151.727 200.161 151.727 199.619C151.727 199.047 151.91 198.585 152.277 198.233C152.643 197.881 153.105 197.705 153.663 197.705C154.176 197.705 154.616 197.881 154.983 198.233C155.364 198.57 155.555 199.025 155.555 199.597C155.555 200.154 155.371 200.609 155.005 200.961C154.653 201.298 154.198 201.467 153.641 201.467ZM160.482 214.227L156.412 202.633H159.778L162.55 211.719L165.3 202.633H168.688L164.618 214.227H160.482ZM175.192 214.381C173.974 214.381 172.94 214.139 172.09 213.655C171.239 213.171 170.586 212.489 170.132 211.609C169.677 210.714 169.45 209.673 169.45 208.485C169.45 207.282 169.684 206.233 170.154 205.339C170.623 204.429 171.283 203.718 172.134 203.205C172.999 202.691 174.018 202.435 175.192 202.435C176.072 202.435 176.842 202.581 177.502 202.875C178.176 203.168 178.741 203.579 179.196 204.107C179.665 204.635 180.01 205.251 180.23 205.955C180.464 206.644 180.574 207.392 180.56 208.199C180.56 208.404 180.552 208.602 180.538 208.793C180.523 208.983 180.494 209.174 180.45 209.365H172.508C172.552 209.805 172.676 210.208 172.882 210.575C173.087 210.941 173.373 211.235 173.74 211.455C174.121 211.66 174.59 211.763 175.148 211.763C175.514 211.763 175.852 211.726 176.16 211.653C176.468 211.565 176.732 211.433 176.952 211.257C177.172 211.081 177.326 210.875 177.414 210.641H180.45C180.259 211.506 179.9 212.217 179.372 212.775C178.858 213.332 178.235 213.743 177.502 214.007C176.768 214.256 175.998 214.381 175.192 214.381ZM172.574 207.209H177.612C177.597 206.813 177.494 206.446 177.304 206.109C177.128 205.757 176.856 205.478 176.49 205.273C176.138 205.053 175.683 204.943 175.126 204.943C174.568 204.943 174.099 205.053 173.718 205.273C173.351 205.493 173.072 205.779 172.882 206.131C172.706 206.468 172.603 206.827 172.574 207.209ZM189.193 214.227V198.651H195.265C196.453 198.651 197.487 198.834 198.367 199.201C199.262 199.553 199.951 200.125 200.435 200.917C200.919 201.694 201.161 202.735 201.161 204.041C201.161 205.258 200.89 206.277 200.347 207.099C199.819 207.92 199.093 208.536 198.169 208.947C197.245 209.343 196.196 209.541 195.023 209.541H192.339V214.227H189.193ZM192.339 206.725H194.979C195.918 206.725 196.658 206.505 197.201 206.065C197.758 205.61 198.037 204.928 198.037 204.019C198.037 203.212 197.802 202.603 197.333 202.193C196.878 201.782 196.145 201.577 195.133 201.577H192.339V206.725ZM203.126 214.227V198.651H206.206V214.227H203.126ZM212.322 214.381C211.794 214.381 211.28 214.315 210.782 214.183C210.298 214.036 209.865 213.816 209.484 213.523C209.102 213.229 208.802 212.863 208.582 212.423C208.362 211.983 208.252 211.469 208.252 210.883C208.252 210.091 208.413 209.46 208.736 208.991C209.058 208.507 209.491 208.14 210.034 207.891C210.576 207.641 211.2 207.473 211.904 207.385C212.622 207.297 213.363 207.253 214.126 207.253H215.798C215.798 206.827 215.717 206.453 215.556 206.131C215.409 205.793 215.182 205.537 214.874 205.361C214.566 205.17 214.17 205.075 213.686 205.075C213.378 205.075 213.077 205.119 212.784 205.207C212.505 205.28 212.27 205.39 212.08 205.537C211.889 205.683 211.764 205.874 211.706 206.109H208.582C208.67 205.463 208.875 204.913 209.198 204.459C209.52 203.989 209.924 203.608 210.408 203.315C210.892 203.021 211.42 202.809 211.992 202.677C212.578 202.53 213.18 202.457 213.796 202.457C215.482 202.457 216.729 202.941 217.536 203.909C218.342 204.862 218.745 206.219 218.745 207.979V214.227H215.974L215.93 212.731C215.563 213.244 215.145 213.618 214.676 213.853C214.221 214.087 213.781 214.234 213.356 214.293C212.93 214.351 212.586 214.381 212.322 214.381ZM213.026 211.939C213.539 211.939 214.008 211.836 214.434 211.631C214.859 211.425 215.196 211.147 215.446 210.795C215.695 210.443 215.82 210.047 215.82 209.607V209.321H213.708C213.4 209.321 213.099 209.335 212.806 209.365C212.527 209.394 212.27 209.453 212.036 209.541C211.816 209.614 211.64 209.739 211.508 209.915C211.376 210.091 211.31 210.325 211.31 210.619C211.31 210.912 211.383 211.161 211.53 211.367C211.691 211.557 211.904 211.704 212.168 211.807C212.432 211.895 212.718 211.939 213.026 211.939ZM221.151 214.227V202.633H224.033L224.187 203.975C224.51 203.579 224.877 203.271 225.287 203.051C225.713 202.816 226.138 202.655 226.563 202.567C227.003 202.479 227.399 202.435 227.751 202.435C228.866 202.435 229.731 202.677 230.347 203.161C230.978 203.645 231.425 204.297 231.689 205.119C231.968 205.925 232.107 206.827 232.107 207.825V214.227H229.027V208.221C229.027 207.869 228.998 207.517 228.939 207.165C228.881 206.813 228.771 206.49 228.609 206.197C228.463 205.903 228.25 205.669 227.971 205.493C227.693 205.317 227.326 205.229 226.871 205.229C226.285 205.229 225.793 205.375 225.397 205.669C225.001 205.962 224.708 206.358 224.517 206.857C224.327 207.355 224.231 207.905 224.231 208.507V214.227H221.151ZM239.004 214.381C238.461 214.381 237.904 214.322 237.332 214.205C236.76 214.087 236.232 213.889 235.748 213.611C235.264 213.317 234.853 212.929 234.516 212.445C234.178 211.946 233.958 211.33 233.856 210.597H236.98C237.068 210.861 237.222 211.088 237.442 211.279C237.676 211.469 237.94 211.609 238.234 211.697C238.542 211.785 238.85 211.829 239.158 211.829C239.363 211.829 239.568 211.814 239.774 211.785C239.979 211.755 240.17 211.697 240.346 211.609C240.522 211.521 240.661 211.411 240.764 211.279C240.866 211.132 240.918 210.949 240.918 210.729C240.918 210.494 240.844 210.311 240.698 210.179C240.551 210.047 240.346 209.944 240.082 209.871C239.818 209.783 239.517 209.702 239.18 209.629C238.578 209.497 237.933 209.35 237.244 209.189C236.554 209.027 235.96 208.793 235.462 208.485C235.256 208.338 235.073 208.177 234.912 208.001C234.75 207.825 234.618 207.627 234.516 207.407C234.413 207.187 234.332 206.959 234.274 206.725C234.215 206.475 234.186 206.211 234.186 205.933C234.186 205.302 234.318 204.767 234.582 204.327C234.86 203.872 235.227 203.505 235.682 203.227C236.136 202.948 236.642 202.75 237.2 202.633C237.757 202.501 238.329 202.435 238.916 202.435C239.708 202.435 240.441 202.567 241.116 202.831C241.79 203.08 242.348 203.476 242.788 204.019C243.228 204.547 243.499 205.236 243.602 206.087H240.654C240.595 205.764 240.397 205.507 240.06 205.317C239.722 205.111 239.304 205.009 238.806 205.009C238.63 205.009 238.439 205.023 238.234 205.053C238.043 205.082 237.867 205.133 237.706 205.207C237.544 205.28 237.412 205.383 237.31 205.515C237.207 205.632 237.156 205.793 237.156 205.999C237.156 206.16 237.2 206.307 237.288 206.439C237.39 206.571 237.53 206.681 237.706 206.769C237.896 206.857 238.124 206.937 238.388 207.011C238.886 207.128 239.385 207.238 239.884 207.341C240.397 207.429 240.852 207.524 241.248 207.627C241.732 207.729 242.172 207.898 242.568 208.133C242.978 208.367 243.308 208.69 243.558 209.101C243.822 209.497 243.954 210.017 243.954 210.663C243.954 211.396 243.807 212.005 243.514 212.489C243.22 212.958 242.824 213.332 242.326 213.611C241.842 213.889 241.306 214.087 240.72 214.205C240.148 214.322 239.576 214.381 239.004 214.381ZM256.668 214.227V208.419L250.882 198.651H254.512L258.252 205.493L262.058 198.651H265.622L259.814 208.397V214.227H256.668ZM270.711 214.381C269.494 214.381 268.46 214.139 267.609 213.655C266.759 213.171 266.106 212.489 265.651 211.609C265.197 210.714 264.969 209.673 264.969 208.485C264.969 207.282 265.204 206.233 265.673 205.339C266.143 204.429 266.803 203.718 267.653 203.205C268.519 202.691 269.538 202.435 270.711 202.435C271.591 202.435 272.361 202.581 273.021 202.875C273.696 203.168 274.261 203.579 274.715 204.107C275.185 204.635 275.529 205.251 275.749 205.955C275.984 206.644 276.094 207.392 276.079 208.199C276.079 208.404 276.072 208.602 276.057 208.793C276.043 208.983 276.013 209.174 275.969 209.365H268.027C268.071 209.805 268.196 210.208 268.401 210.575C268.607 210.941 268.893 211.235 269.259 211.455C269.641 211.66 270.11 211.763 270.667 211.763C271.034 211.763 271.371 211.726 271.679 211.653C271.987 211.565 272.251 211.433 272.471 211.257C272.691 211.081 272.845 210.875 272.933 210.641H275.969C275.779 211.506 275.419 212.217 274.891 212.775C274.378 213.332 273.755 213.743 273.021 214.007C272.288 214.256 271.518 214.381 270.711 214.381ZM268.093 207.209H273.131C273.117 206.813 273.014 206.446 272.823 206.109C272.647 205.757 272.376 205.478 272.009 205.273C271.657 205.053 271.203 204.943 270.645 204.943C270.088 204.943 269.619 205.053 269.237 205.273C268.871 205.493 268.592 205.779 268.401 206.131C268.225 206.468 268.123 206.827 268.093 207.209ZM283.322 214.227C282.354 214.227 281.54 214.109 280.88 213.875C280.234 213.64 279.743 213.244 279.406 212.687C279.083 212.115 278.922 211.337 278.922 210.355V205.383H277.206V202.633H278.922V199.531H282.002V202.633H284.532V205.383H282.002V209.915C282.002 210.399 282.09 210.78 282.266 211.059C282.442 211.337 282.838 211.477 283.454 211.477H284.422V214.227H283.322ZM286.824 208.947L286.582 198.651H289.97L289.706 208.947H286.824ZM288.254 214.425C287.946 214.425 287.645 214.351 287.352 214.205C287.059 214.058 286.817 213.845 286.626 213.567C286.435 213.288 286.34 212.943 286.34 212.533C286.34 212.107 286.428 211.755 286.604 211.477C286.795 211.198 287.037 210.993 287.33 210.861C287.623 210.714 287.939 210.641 288.276 210.641C288.76 210.641 289.193 210.802 289.574 211.125C289.97 211.447 290.168 211.917 290.168 212.533C290.168 212.943 290.073 213.288 289.882 213.567C289.706 213.845 289.471 214.058 289.178 214.205C288.885 214.351 288.577 214.425 288.254 214.425Z" fill="white"/>
<path d="M37.038 243.227V233.329H43.856V234.687H38.522V237.655H43.24V238.999H38.522V241.869H43.856V243.227H37.038ZM44.6296 243.227L47.2476 239.461L44.7556 235.849H46.4776L48.2136 238.495L49.8936 235.849H51.5596L49.0816 239.503L51.7416 243.227H50.0336L48.1296 240.539L46.2536 243.227H44.6296ZM52.7814 245.915V235.849H54.1534L54.2234 236.899C54.4847 236.516 54.8254 236.231 55.2454 236.045C55.6654 235.849 56.1227 235.751 56.6174 235.751C57.3547 235.751 57.9614 235.919 58.4374 236.255C58.9134 236.581 59.2681 237.034 59.5014 237.613C59.7347 238.182 59.8514 238.821 59.8514 239.531C59.8514 240.259 59.7301 240.907 59.4874 241.477C59.2541 242.046 58.8901 242.494 58.3954 242.821C57.9101 243.147 57.2941 243.311 56.5474 243.311C56.1927 243.311 55.8661 243.273 55.5674 243.199C55.2781 243.124 55.0214 243.017 54.7974 242.877C54.5827 242.727 54.3914 242.555 54.2234 242.359V245.915H52.7814ZM56.3654 242.023C56.8694 242.023 57.2707 241.911 57.5694 241.687C57.8681 241.453 58.0827 241.15 58.2134 240.777C58.3441 240.403 58.4094 239.997 58.4094 239.559C58.4094 239.101 58.3394 238.686 58.1994 238.313C58.0687 237.93 57.8494 237.627 57.5414 237.403C57.2427 237.169 56.8414 237.053 56.3374 237.053C55.8801 237.053 55.4927 237.169 55.1754 237.403C54.8581 237.627 54.6154 237.93 54.4474 238.313C54.2887 238.695 54.2094 239.111 54.2094 239.559C54.2094 240.016 54.2841 240.436 54.4334 240.819C54.5921 241.192 54.8301 241.486 55.1474 241.701C55.4741 241.915 55.8801 242.023 56.3654 242.023ZM61.34 243.227V233.329H62.782V243.227H61.34ZM67.8566 243.311C67.0912 243.311 66.4426 243.157 65.9106 242.849C65.3786 242.531 64.9726 242.088 64.6926 241.519C64.4219 240.949 64.2866 240.291 64.2866 239.545C64.2866 238.789 64.4266 238.131 64.7066 237.571C64.9866 237.001 65.3926 236.558 65.9246 236.241C66.4566 235.914 67.1052 235.751 67.8706 235.751C68.6359 235.751 69.2846 235.914 69.8166 236.241C70.3486 236.558 70.7499 237.001 71.0206 237.571C71.2912 238.14 71.4266 238.803 71.4266 239.559C71.4266 240.296 71.2866 240.949 71.0066 241.519C70.7359 242.088 70.3346 242.531 69.8026 242.849C69.2799 243.157 68.6312 243.311 67.8566 243.311ZM67.8566 242.023C68.3606 242.023 68.7666 241.911 69.0746 241.687C69.3919 241.463 69.6252 241.164 69.7746 240.791C69.9239 240.408 69.9986 239.993 69.9986 239.545C69.9986 239.097 69.9239 238.686 69.7746 238.313C69.6252 237.939 69.3919 237.641 69.0746 237.417C68.7666 237.183 68.3606 237.067 67.8566 237.067C67.3619 237.067 66.9559 237.183 66.6386 237.417C66.3212 237.641 66.0879 237.939 65.9386 238.313C65.7986 238.686 65.7286 239.097 65.7286 239.545C65.7286 240.002 65.7986 240.417 65.9386 240.791C66.0879 241.164 66.3212 241.463 66.6386 241.687C66.9559 241.911 67.3619 242.023 67.8566 242.023ZM72.9064 243.227V235.849H74.2644L74.3344 236.913C74.5211 236.623 74.7357 236.395 74.9784 236.227C75.2211 236.059 75.4871 235.937 75.7764 235.863C76.0657 235.788 76.3691 235.751 76.6864 235.751C76.7704 235.751 76.8497 235.751 76.9244 235.751C76.9991 235.751 77.0691 235.751 77.1344 235.751V237.137H76.6864C76.1544 237.137 75.7111 237.244 75.3564 237.459C75.0111 237.673 74.7544 237.972 74.5864 238.355C74.4277 238.737 74.3484 239.176 74.3484 239.671V243.227H72.9064ZM81.3361 243.311C80.5614 243.311 79.9127 243.152 79.3901 242.835C78.8674 242.517 78.4707 242.079 78.2001 241.519C77.9387 240.949 77.8081 240.296 77.8081 239.559C77.8081 238.812 77.9434 238.154 78.2141 237.585C78.4941 237.015 78.8954 236.567 79.4181 236.241C79.9501 235.914 80.5894 235.751 81.3361 235.751C81.9054 235.751 82.4001 235.858 82.8201 236.073C83.2401 236.278 83.5854 236.558 83.8561 236.913C84.1361 237.267 84.3414 237.664 84.4721 238.103C84.6027 238.532 84.6587 238.98 84.6401 239.447C84.6401 239.549 84.6354 239.647 84.6261 239.741C84.6167 239.834 84.6074 239.932 84.5981 240.035H79.2641C79.2921 240.408 79.3854 240.749 79.5441 241.057C79.7121 241.365 79.9454 241.612 80.2441 241.799C80.5427 241.976 80.9114 242.065 81.3501 242.065C81.5927 242.065 81.8261 242.037 82.0501 241.981C82.2834 241.915 82.4887 241.817 82.6661 241.687C82.8527 241.547 82.9834 241.369 83.0581 241.155H84.5141C84.3927 241.649 84.1734 242.06 83.8561 242.387C83.5481 242.704 83.1701 242.937 82.7221 243.087C82.2834 243.236 81.8214 243.311 81.3361 243.311ZM79.2921 238.887H83.2121C83.2027 238.523 83.1187 238.201 82.9601 237.921C82.8014 237.631 82.5821 237.407 82.3021 237.249C82.0221 237.081 81.6861 236.997 81.2941 236.997C80.8647 236.997 80.5054 237.085 80.2161 237.263C79.9361 237.44 79.7167 237.673 79.5581 237.963C79.4087 238.243 79.3201 238.551 79.2921 238.887ZM93.2589 243.311C92.4936 243.311 91.8449 243.157 91.3129 242.849C90.7809 242.531 90.3749 242.088 90.0949 241.519C89.8242 240.949 89.6889 240.291 89.6889 239.545C89.6889 238.789 89.8289 238.131 90.1089 237.571C90.3889 237.001 90.7949 236.558 91.3269 236.241C91.8589 235.914 92.5076 235.751 93.2729 235.751C94.0382 235.751 94.6869 235.914 95.2189 236.241C95.7509 236.558 96.1522 237.001 96.4229 237.571C96.6936 238.14 96.8289 238.803 96.8289 239.559C96.8289 240.296 96.6889 240.949 96.4089 241.519C96.1382 242.088 95.7369 242.531 95.2049 242.849C94.6822 243.157 94.0336 243.311 93.2589 243.311ZM93.2589 242.023C93.7629 242.023 94.1689 241.911 94.4769 241.687C94.7942 241.463 95.0276 241.164 95.1769 240.791C95.3262 240.408 95.4009 239.993 95.4009 239.545C95.4009 239.097 95.3262 238.686 95.1769 238.313C95.0276 237.939 94.7942 237.641 94.4769 237.417C94.1689 237.183 93.7629 237.067 93.2589 237.067C92.7642 237.067 92.3582 237.183 92.0409 237.417C91.7236 237.641 91.4902 237.939 91.3409 238.313C91.2009 238.686 91.1309 239.097 91.1309 239.545C91.1309 240.002 91.2009 240.417 91.3409 240.791C91.4902 241.164 91.7236 241.463 92.0409 241.687C92.3582 241.911 92.7642 242.023 93.2589 242.023ZM101.473 243.311C100.437 243.311 99.6434 243.04 99.0928 242.499C98.5514 241.948 98.2808 241.113 98.2808 239.993V235.849H99.7228V239.909C99.7228 240.347 99.7834 240.725 99.9048 241.043C100.035 241.36 100.231 241.603 100.493 241.771C100.754 241.939 101.085 242.023 101.487 242.023C101.907 242.023 102.243 241.939 102.495 241.771C102.756 241.593 102.943 241.346 103.055 241.029C103.176 240.711 103.237 240.338 103.237 239.909V235.849H104.679V239.993C104.679 241.131 104.399 241.971 103.839 242.513C103.288 243.045 102.499 243.311 101.473 243.311ZM106.416 243.227V235.849H107.774L107.844 236.913C108.031 236.623 108.246 236.395 108.488 236.227C108.731 236.059 108.997 235.937 109.286 235.863C109.576 235.788 109.879 235.751 110.196 235.751C110.28 235.751 110.36 235.751 110.434 235.751C110.509 235.751 110.579 235.751 110.644 235.751V237.137H110.196C109.664 237.137 109.221 237.244 108.866 237.459C108.521 237.673 108.264 237.972 108.096 238.355C107.938 238.737 107.858 239.176 107.858 239.671V243.227H106.416ZM115.576 245.915V235.849H116.948L117.018 236.899C117.28 236.516 117.62 236.231 118.04 236.045C118.46 235.849 118.918 235.751 119.412 235.751C120.15 235.751 120.756 235.919 121.232 236.255C121.708 236.581 122.063 237.034 122.296 237.613C122.53 238.182 122.646 238.821 122.646 239.531C122.646 240.259 122.525 240.907 122.282 241.477C122.049 242.046 121.685 242.494 121.19 242.821C120.705 243.147 120.089 243.311 119.342 243.311C118.988 243.311 118.661 243.273 118.362 243.199C118.073 243.124 117.816 243.017 117.592 242.877C117.378 242.727 117.186 242.555 117.018 242.359V245.915H115.576ZM119.16 242.023C119.664 242.023 120.066 241.911 120.364 241.687C120.663 241.453 120.878 241.15 121.008 240.777C121.139 240.403 121.204 239.997 121.204 239.559C121.204 239.101 121.134 238.686 120.994 238.313C120.864 237.93 120.644 237.627 120.336 237.403C120.038 237.169 119.636 237.053 119.132 237.053C118.675 237.053 118.288 237.169 117.97 237.403C117.653 237.627 117.41 237.93 117.242 238.313C117.084 238.695 117.004 239.111 117.004 239.559C117.004 240.016 117.079 240.436 117.228 240.819C117.387 241.192 117.625 241.486 117.942 241.701C118.269 241.915 118.675 242.023 119.16 242.023ZM124.135 243.227V233.329H125.577V243.227H124.135ZM129.713 243.311C129.377 243.311 129.051 243.269 128.733 243.185C128.425 243.091 128.15 242.956 127.907 242.779C127.665 242.592 127.469 242.363 127.319 242.093C127.179 241.813 127.109 241.486 127.109 241.113C127.109 240.665 127.193 240.296 127.361 240.007C127.539 239.708 127.772 239.479 128.061 239.321C128.351 239.153 128.682 239.036 129.055 238.971C129.438 238.896 129.835 238.859 130.245 238.859H132.051C132.051 238.495 131.995 238.177 131.883 237.907C131.771 237.627 131.594 237.412 131.351 237.263C131.118 237.104 130.805 237.025 130.413 237.025C130.18 237.025 129.956 237.053 129.741 237.109C129.536 237.155 129.359 237.235 129.209 237.347C129.06 237.459 128.957 237.608 128.901 237.795H127.389C127.445 237.44 127.571 237.137 127.767 236.885C127.963 236.623 128.206 236.409 128.495 236.241C128.785 236.073 129.093 235.951 129.419 235.877C129.755 235.793 130.096 235.751 130.441 235.751C131.505 235.751 132.271 236.063 132.737 236.689C133.213 237.305 133.451 238.154 133.451 239.237V243.227H132.205L132.149 242.289C131.935 242.578 131.678 242.797 131.379 242.947C131.09 243.096 130.801 243.194 130.511 243.241C130.222 243.287 129.956 243.311 129.713 243.311ZM129.937 242.093C130.357 242.093 130.726 242.023 131.043 241.883C131.361 241.733 131.608 241.523 131.785 241.253C131.963 240.973 132.051 240.646 132.051 240.273V239.965H130.735C130.465 239.965 130.199 239.974 129.937 239.993C129.685 240.002 129.452 240.039 129.237 240.105C129.032 240.161 128.864 240.259 128.733 240.399C128.612 240.539 128.551 240.739 128.551 241.001C128.551 241.253 128.617 241.458 128.747 241.617C128.878 241.775 129.051 241.897 129.265 241.981C129.48 242.055 129.704 242.093 129.937 242.093ZM135.182 243.227V235.849H136.554L136.624 236.885C136.81 236.614 137.034 236.399 137.296 236.241C137.557 236.073 137.837 235.951 138.136 235.877C138.434 235.793 138.724 235.751 139.004 235.751C139.713 235.751 140.268 235.905 140.67 236.213C141.08 236.511 141.37 236.917 141.538 237.431C141.715 237.935 141.804 238.509 141.804 239.153V243.227H140.348V239.447C140.348 239.148 140.329 238.854 140.292 238.565C140.254 238.275 140.175 238.019 140.054 237.795C139.942 237.561 139.778 237.379 139.564 237.249C139.349 237.109 139.06 237.039 138.696 237.039C138.248 237.039 137.87 237.16 137.562 237.403C137.254 237.645 137.02 237.972 136.862 238.383C136.703 238.793 136.624 239.255 136.624 239.769V243.227H135.182ZM146.28 243.311C145.934 243.311 145.589 243.278 145.244 243.213C144.898 243.147 144.576 243.031 144.278 242.863C143.979 242.695 143.727 242.471 143.522 242.191C143.316 241.901 143.186 241.547 143.13 241.127H144.6C144.674 241.351 144.805 241.533 144.992 241.673C145.188 241.813 145.402 241.915 145.636 241.981C145.878 242.046 146.116 242.079 146.35 242.079C146.49 242.079 146.644 242.069 146.812 242.051C146.989 242.032 147.157 241.99 147.316 241.925C147.474 241.859 147.605 241.766 147.708 241.645C147.81 241.514 147.862 241.341 147.862 241.127C147.862 240.959 147.815 240.819 147.722 240.707C147.638 240.595 147.516 240.506 147.358 240.441C147.208 240.366 147.026 240.31 146.812 240.273C146.392 240.179 145.939 240.091 145.454 240.007C144.978 239.913 144.558 239.755 144.194 239.531C144.063 239.447 143.946 239.353 143.844 239.251C143.741 239.139 143.652 239.013 143.578 238.873C143.503 238.733 143.447 238.583 143.41 238.425C143.372 238.266 143.354 238.093 143.354 237.907C143.354 237.524 143.428 237.197 143.578 236.927C143.736 236.656 143.951 236.437 144.222 236.269C144.492 236.091 144.8 235.961 145.146 235.877C145.491 235.793 145.855 235.751 146.238 235.751C146.732 235.751 147.18 235.83 147.582 235.989C147.983 236.147 148.314 236.381 148.576 236.689C148.837 236.997 148.991 237.384 149.038 237.851H147.68C147.624 237.599 147.46 237.398 147.19 237.249C146.928 237.09 146.597 237.011 146.196 237.011C146.056 237.011 145.902 237.02 145.734 237.039C145.575 237.057 145.421 237.099 145.272 237.165C145.122 237.23 145.001 237.323 144.908 237.445C144.814 237.557 144.768 237.706 144.768 237.893C144.768 238.07 144.81 238.219 144.894 238.341C144.987 238.462 145.118 238.56 145.286 238.635C145.463 238.709 145.664 238.77 145.888 238.817C146.205 238.891 146.546 238.961 146.91 239.027C147.283 239.092 147.586 239.162 147.82 239.237C148.128 239.321 148.389 239.442 148.604 239.601C148.828 239.759 148.996 239.96 149.108 240.203C149.229 240.445 149.29 240.739 149.29 241.085C149.29 241.533 149.201 241.901 149.024 242.191C148.846 242.471 148.608 242.695 148.31 242.863C148.02 243.031 147.694 243.147 147.33 243.213C146.975 243.278 146.625 243.311 146.28 243.311ZM156.852 243.311C156.516 243.311 156.189 243.269 155.872 243.185C155.564 243.091 155.289 242.956 155.046 242.779C154.803 242.592 154.607 242.363 154.458 242.093C154.318 241.813 154.248 241.486 154.248 241.113C154.248 240.665 154.332 240.296 154.5 240.007C154.677 239.708 154.911 239.479 155.2 239.321C155.489 239.153 155.821 239.036 156.194 238.971C156.577 238.896 156.973 238.859 157.384 238.859H159.19C159.19 238.495 159.134 238.177 159.022 237.907C158.91 237.627 158.733 237.412 158.49 237.263C158.257 237.104 157.944 237.025 157.552 237.025C157.319 237.025 157.095 237.053 156.88 237.109C156.675 237.155 156.497 237.235 156.348 237.347C156.199 237.459 156.096 237.608 156.04 237.795H154.528C154.584 237.44 154.71 237.137 154.906 236.885C155.102 236.623 155.345 236.409 155.634 236.241C155.923 236.073 156.231 235.951 156.558 235.877C156.894 235.793 157.235 235.751 157.58 235.751C158.644 235.751 159.409 236.063 159.876 236.689C160.352 237.305 160.59 238.154 160.59 239.237V243.227H159.344L159.288 242.289C159.073 242.578 158.817 242.797 158.518 242.947C158.229 243.096 157.939 243.194 157.65 243.241C157.361 243.287 157.095 243.311 156.852 243.311ZM157.076 242.093C157.496 242.093 157.865 242.023 158.182 241.883C158.499 241.733 158.747 241.523 158.924 241.253C159.101 240.973 159.19 240.646 159.19 240.273V239.965H157.874C157.603 239.965 157.337 239.974 157.076 239.993C156.824 240.002 156.591 240.039 156.376 240.105C156.171 240.161 156.003 240.259 155.872 240.399C155.751 240.539 155.69 240.739 155.69 241.001C155.69 241.253 155.755 241.458 155.886 241.617C156.017 241.775 156.189 241.897 156.404 241.981C156.619 242.055 156.843 242.093 157.076 242.093ZM162.32 243.227V235.849H163.692L163.762 236.885C163.949 236.614 164.173 236.399 164.434 236.241C164.696 236.073 164.976 235.951 165.274 235.877C165.573 235.793 165.862 235.751 166.142 235.751C166.852 235.751 167.407 235.905 167.808 236.213C168.219 236.511 168.508 236.917 168.676 237.431C168.854 237.935 168.942 238.509 168.942 239.153V243.227H167.486V239.447C167.486 239.148 167.468 238.854 167.43 238.565C167.393 238.275 167.314 238.019 167.192 237.795C167.08 237.561 166.917 237.379 166.702 237.249C166.488 237.109 166.198 237.039 165.834 237.039C165.386 237.039 165.008 237.16 164.7 237.403C164.392 237.645 164.159 237.972 164 238.383C163.842 238.793 163.762 239.255 163.762 239.769V243.227H162.32ZM173.642 243.311C172.905 243.311 172.294 243.147 171.808 242.821C171.332 242.485 170.973 242.032 170.73 241.463C170.497 240.893 170.38 240.254 170.38 239.545C170.38 238.826 170.502 238.182 170.744 237.613C170.987 237.034 171.356 236.581 171.85 236.255C172.345 235.919 172.97 235.751 173.726 235.751C174.006 235.751 174.286 235.783 174.566 235.849C174.856 235.914 175.122 236.017 175.364 236.157C175.616 236.287 175.831 236.465 176.008 236.689V233.329H177.45V243.227H176.064L176.008 242.219C175.84 242.471 175.63 242.681 175.378 242.849C175.136 243.007 174.865 243.124 174.566 243.199C174.268 243.273 173.96 243.311 173.642 243.311ZM173.88 242.023C174.356 242.023 174.748 241.906 175.056 241.673C175.374 241.439 175.612 241.131 175.77 240.749C175.929 240.366 176.008 239.951 176.008 239.503C176.008 239.045 175.929 238.635 175.77 238.271C175.621 237.897 175.388 237.603 175.07 237.389C174.762 237.165 174.366 237.053 173.88 237.053C173.376 237.053 172.975 237.169 172.676 237.403C172.378 237.627 172.158 237.93 172.018 238.313C171.888 238.695 171.822 239.115 171.822 239.573C171.822 239.909 171.86 240.226 171.934 240.525C172.009 240.814 172.126 241.075 172.284 241.309C172.452 241.533 172.667 241.71 172.928 241.841C173.19 241.962 173.507 242.023 173.88 242.023ZM183.061 245.915V235.849H184.433L184.503 236.899C184.764 236.516 185.105 236.231 185.525 236.045C185.945 235.849 186.402 235.751 186.897 235.751C187.634 235.751 188.241 235.919 188.717 236.255C189.193 236.581 189.547 237.034 189.781 237.613C190.014 238.182 190.131 238.821 190.131 239.531C190.131 240.259 190.009 240.907 189.767 241.477C189.533 242.046 189.169 242.494 188.675 242.821C188.189 243.147 187.573 243.311 186.827 243.311C186.472 243.311 186.145 243.273 185.847 243.199C185.557 243.124 185.301 243.017 185.077 242.877C184.862 242.727 184.671 242.555 184.503 242.359V245.915H183.061ZM186.645 242.023C187.149 242.023 187.55 241.911 187.849 241.687C188.147 241.453 188.362 241.15 188.493 240.777C188.623 240.403 188.689 239.997 188.689 239.559C188.689 239.101 188.619 238.686 188.479 238.313C188.348 237.93 188.129 237.627 187.821 237.403C187.522 237.169 187.121 237.053 186.617 237.053C186.159 237.053 185.772 237.169 185.455 237.403C185.137 237.627 184.895 237.93 184.727 238.313C184.568 238.695 184.489 239.111 184.489 239.559C184.489 240.016 184.563 240.436 184.713 240.819C184.871 241.192 185.109 241.486 185.427 241.701C185.753 241.915 186.159 242.023 186.645 242.023ZM191.619 243.227V235.849H193.061V243.227H191.619ZM192.333 234.869C192.053 234.869 191.825 234.785 191.647 234.617C191.479 234.439 191.395 234.215 191.395 233.945C191.395 233.674 191.484 233.455 191.661 233.287C191.839 233.109 192.063 233.021 192.333 233.021C192.585 233.021 192.805 233.109 192.991 233.287C193.187 233.455 193.285 233.674 193.285 233.945C193.285 234.215 193.192 234.439 193.005 234.617C192.828 234.785 192.604 234.869 192.333 234.869ZM198.052 243.311C197.277 243.311 196.629 243.152 196.106 242.835C195.593 242.517 195.205 242.079 194.944 241.519C194.692 240.949 194.566 240.296 194.566 239.559C194.566 238.831 194.697 238.182 194.958 237.613C195.229 237.034 195.63 236.581 196.162 236.255C196.703 235.919 197.371 235.751 198.164 235.751C198.705 235.751 199.186 235.844 199.606 236.031C200.026 236.208 200.367 236.474 200.628 236.829C200.899 237.174 201.076 237.608 201.16 238.131H199.718C199.597 237.748 199.391 237.473 199.102 237.305C198.822 237.137 198.491 237.053 198.108 237.053C197.595 237.053 197.184 237.174 196.876 237.417C196.577 237.659 196.358 237.972 196.218 238.355C196.078 238.737 196.008 239.139 196.008 239.559C196.008 239.997 196.078 240.403 196.218 240.777C196.367 241.15 196.591 241.453 196.89 241.687C197.198 241.911 197.599 242.023 198.094 242.023C198.467 242.023 198.813 241.943 199.13 241.785C199.447 241.617 199.653 241.337 199.746 240.945H201.23C201.146 241.486 200.95 241.934 200.642 242.289C200.334 242.634 199.951 242.891 199.494 243.059C199.046 243.227 198.565 243.311 198.052 243.311ZM202.625 243.227V233.329H204.067V238.915H205.257L207.329 235.849H208.953L206.531 239.363L209.163 243.227H207.469L205.369 240.189H204.067V243.227H202.625ZM217.04 243.227C216.461 243.227 215.99 243.147 215.626 242.989C215.262 242.821 214.991 242.559 214.814 242.205C214.646 241.85 214.562 241.388 214.562 240.819V237.137H213.4V235.849H214.562V233.721H216.004V235.849H217.866V237.137H216.004V240.637C216.004 241.075 216.083 241.407 216.242 241.631C216.4 241.845 216.732 241.953 217.236 241.953H217.81V243.227H217.04ZM219.1 243.227V233.329H220.542V236.885C220.738 236.633 220.962 236.423 221.214 236.255C221.475 236.087 221.755 235.961 222.054 235.877C222.352 235.793 222.651 235.751 222.95 235.751C223.659 235.751 224.214 235.905 224.616 236.213C225.017 236.511 225.302 236.917 225.47 237.431C225.638 237.944 225.722 238.523 225.722 239.167V243.227H224.266V239.503C224.266 239.204 224.242 238.91 224.196 238.621C224.158 238.331 224.084 238.07 223.972 237.837C223.86 237.594 223.687 237.403 223.454 237.263C223.23 237.113 222.926 237.039 222.544 237.039C222.18 237.039 221.867 237.118 221.606 237.277C221.354 237.435 221.148 237.65 220.99 237.921C220.84 238.182 220.728 238.471 220.654 238.789C220.579 239.097 220.542 239.405 220.542 239.713V243.227H219.1ZM230.688 243.311C229.913 243.311 229.264 243.152 228.742 242.835C228.219 242.517 227.822 242.079 227.552 241.519C227.29 240.949 227.16 240.296 227.16 239.559C227.16 238.812 227.295 238.154 227.566 237.585C227.846 237.015 228.247 236.567 228.77 236.241C229.302 235.914 229.941 235.751 230.688 235.751C231.257 235.751 231.752 235.858 232.172 236.073C232.592 236.278 232.937 236.558 233.208 236.913C233.488 237.267 233.693 237.664 233.824 238.103C233.954 238.532 234.01 238.98 233.992 239.447C233.992 239.549 233.987 239.647 233.978 239.741C233.968 239.834 233.959 239.932 233.95 240.035H228.616C228.644 240.408 228.737 240.749 228.896 241.057C229.064 241.365 229.297 241.612 229.596 241.799C229.894 241.976 230.263 242.065 230.702 242.065C230.944 242.065 231.178 242.037 231.402 241.981C231.635 241.915 231.84 241.817 232.018 241.687C232.204 241.547 232.335 241.369 232.41 241.155H233.866C233.744 241.649 233.525 242.06 233.208 242.387C232.9 242.704 232.522 242.937 232.074 243.087C231.635 243.236 231.173 243.311 230.688 243.311ZM228.644 238.887H232.564C232.554 238.523 232.47 238.201 232.312 237.921C232.153 237.631 231.934 237.407 231.654 237.249C231.374 237.081 231.038 236.997 230.646 236.997C230.216 236.997 229.857 237.085 229.568 237.263C229.288 237.44 229.068 237.673 228.91 237.963C228.76 238.243 228.672 238.551 228.644 238.887ZM242.61 243.311C241.845 243.311 241.196 243.157 240.664 242.849C240.132 242.531 239.726 242.088 239.446 241.519C239.176 240.949 239.04 240.291 239.04 239.545C239.04 238.789 239.18 238.131 239.46 237.571C239.74 237.001 240.146 236.558 240.678 236.241C241.21 235.914 241.859 235.751 242.624 235.751C243.39 235.751 244.038 235.914 244.57 236.241C245.102 236.558 245.504 237.001 245.774 237.571C246.045 238.14 246.18 238.803 246.18 239.559C246.18 240.296 246.04 240.949 245.76 241.519C245.49 242.088 245.088 242.531 244.556 242.849C244.034 243.157 243.385 243.311 242.61 243.311ZM242.61 242.023C243.114 242.023 243.52 241.911 243.828 241.687C244.146 241.463 244.379 241.164 244.528 240.791C244.678 240.408 244.752 239.993 244.752 239.545C244.752 239.097 244.678 238.686 244.528 238.313C244.379 237.939 244.146 237.641 243.828 237.417C243.52 237.183 243.114 237.067 242.61 237.067C242.116 237.067 241.71 237.183 241.392 237.417C241.075 237.641 240.842 237.939 240.692 238.313C240.552 238.686 240.482 239.097 240.482 239.545C240.482 240.002 240.552 240.417 240.692 240.791C240.842 241.164 241.075 241.463 241.392 241.687C241.71 241.911 242.116 242.023 242.61 242.023ZM247.66 243.227V235.849H249.032L249.102 236.885C249.289 236.614 249.513 236.399 249.774 236.241C250.036 236.073 250.316 235.951 250.614 235.877C250.913 235.793 251.202 235.751 251.482 235.751C252.192 235.751 252.747 235.905 253.148 236.213C253.559 236.511 253.848 236.917 254.016 237.431C254.194 237.935 254.282 238.509 254.282 239.153V243.227H252.826V239.447C252.826 239.148 252.808 238.854 252.77 238.565C252.733 238.275 252.654 238.019 252.532 237.795C252.42 237.561 252.257 237.379 252.042 237.249C251.828 237.109 251.538 237.039 251.174 237.039C250.726 237.039 250.348 237.16 250.04 237.403C249.732 237.645 249.499 237.972 249.34 238.383C249.182 238.793 249.102 239.255 249.102 239.769V243.227H247.66ZM259.248 243.311C258.473 243.311 257.825 243.152 257.302 242.835C256.779 242.517 256.383 242.079 256.112 241.519C255.851 240.949 255.72 240.296 255.72 239.559C255.72 238.812 255.855 238.154 256.126 237.585C256.406 237.015 256.807 236.567 257.33 236.241C257.862 235.914 258.501 235.751 259.248 235.751C259.817 235.751 260.312 235.858 260.732 236.073C261.152 236.278 261.497 236.558 261.768 236.913C262.048 237.267 262.253 237.664 262.384 238.103C262.515 238.532 262.571 238.98 262.552 239.447C262.552 239.549 262.547 239.647 262.538 239.741C262.529 239.834 262.519 239.932 262.51 240.035H257.176C257.204 240.408 257.297 240.749 257.456 241.057C257.624 241.365 257.857 241.612 258.156 241.799C258.455 241.976 258.823 242.065 259.262 242.065C259.505 242.065 259.738 242.037 259.962 241.981C260.195 241.915 260.401 241.817 260.578 241.687C260.765 241.547 260.895 241.369 260.97 241.155H262.426C262.305 241.649 262.085 242.06 261.768 242.387C261.46 242.704 261.082 242.937 260.634 243.087C260.195 243.236 259.733 243.311 259.248 243.311ZM257.204 238.887H261.124C261.115 238.523 261.031 238.201 260.872 237.921C260.713 237.631 260.494 237.407 260.214 237.249C259.934 237.081 259.598 236.997 259.206 236.997C258.777 236.997 258.417 237.085 258.128 237.263C257.848 237.44 257.629 237.673 257.47 237.963C257.321 238.243 257.232 238.551 257.204 238.887ZM270.989 243.227C270.41 243.227 269.939 243.147 269.575 242.989C269.211 242.821 268.94 242.559 268.763 242.205C268.595 241.85 268.511 241.388 268.511 240.819V237.137H267.349V235.849H268.511V233.721H269.953V235.849H271.815V237.137H269.953V240.637C269.953 241.075 270.032 241.407 270.191 241.631C270.35 241.845 270.681 241.953 271.185 241.953H271.759V243.227H270.989ZM273.049 243.227V233.329H274.491V236.885C274.687 236.633 274.911 236.423 275.163 236.255C275.424 236.087 275.704 235.961 276.003 235.877C276.302 235.793 276.6 235.751 276.899 235.751C277.608 235.751 278.164 235.905 278.565 236.213C278.966 236.511 279.251 236.917 279.419 237.431C279.587 237.944 279.671 238.523 279.671 239.167V243.227H278.215V239.503C278.215 239.204 278.192 238.91 278.145 238.621C278.108 238.331 278.033 238.07 277.921 237.837C277.809 237.594 277.636 237.403 277.403 237.263C277.179 237.113 276.876 237.039 276.493 237.039C276.129 237.039 275.816 237.118 275.555 237.277C275.303 237.435 275.098 237.65 274.939 237.921C274.79 238.182 274.678 238.471 274.603 238.789C274.528 239.097 274.491 239.405 274.491 239.713V243.227H273.049ZM283.741 243.311C283.405 243.311 283.078 243.269 282.761 243.185C282.453 243.091 282.178 242.956 281.935 242.779C281.692 242.592 281.496 242.363 281.347 242.093C281.207 241.813 281.137 241.486 281.137 241.113C281.137 240.665 281.221 240.296 281.389 240.007C281.566 239.708 281.8 239.479 282.089 239.321C282.378 239.153 282.71 239.036 283.083 238.971C283.466 238.896 283.862 238.859 284.273 238.859H286.079C286.079 238.495 286.023 238.177 285.911 237.907C285.799 237.627 285.622 237.412 285.379 237.263C285.146 237.104 284.833 237.025 284.441 237.025C284.208 237.025 283.984 237.053 283.769 237.109C283.564 237.155 283.386 237.235 283.237 237.347C283.088 237.459 282.985 237.608 282.929 237.795H281.417C281.473 237.44 281.599 237.137 281.795 236.885C281.991 236.623 282.234 236.409 282.523 236.241C282.812 236.073 283.12 235.951 283.447 235.877C283.783 235.793 284.124 235.751 284.469 235.751C285.533 235.751 286.298 236.063 286.765 236.689C287.241 237.305 287.479 238.154 287.479 239.237V243.227H286.233L286.177 242.289C285.962 242.578 285.706 242.797 285.407 242.947C285.118 243.096 284.828 243.194 284.539 243.241C284.25 243.287 283.984 243.311 283.741 243.311ZM283.965 242.093C284.385 242.093 284.754 242.023 285.071 241.883C285.388 241.733 285.636 241.523 285.813 241.253C285.99 240.973 286.079 240.646 286.079 240.273V239.965H284.763C284.492 239.965 284.226 239.974 283.965 239.993C283.713 240.002 283.48 240.039 283.265 240.105C283.06 240.161 282.892 240.259 282.761 240.399C282.64 240.539 282.579 240.739 282.579 241.001C282.579 241.253 282.644 241.458 282.775 241.617C282.906 241.775 283.078 241.897 283.293 241.981C283.508 242.055 283.732 242.093 283.965 242.093ZM292.065 243.311C291.272 243.311 290.702 243.096 290.357 242.667C290.021 242.228 289.853 241.617 289.853 240.833V237.137H288.677V235.849H289.853V233.707H291.295V235.849H293.549V237.137H291.295V240.595C291.295 240.856 291.318 241.094 291.365 241.309C291.421 241.523 291.524 241.691 291.673 241.813C291.822 241.934 292.037 241.999 292.317 242.009C292.532 242.009 292.718 241.971 292.877 241.897C293.045 241.822 293.18 241.738 293.283 241.645L293.843 242.723C293.666 242.863 293.479 242.979 293.283 243.073C293.096 243.157 292.9 243.217 292.695 243.255C292.49 243.292 292.28 243.311 292.065 243.311ZM301.483 243.311C301.137 243.311 300.792 243.278 300.447 243.213C300.101 243.147 299.779 243.031 299.481 242.863C299.182 242.695 298.93 242.471 298.725 242.191C298.519 241.901 298.389 241.547 298.333 241.127H299.803C299.877 241.351 300.008 241.533 300.195 241.673C300.391 241.813 300.605 241.915 300.839 241.981C301.081 242.046 301.319 242.079 301.553 242.079C301.693 242.079 301.847 242.069 302.015 242.051C302.192 242.032 302.36 241.99 302.519 241.925C302.677 241.859 302.808 241.766 302.911 241.645C303.013 241.514 303.065 241.341 303.065 241.127C303.065 240.959 303.018 240.819 302.925 240.707C302.841 240.595 302.719 240.506 302.561 240.441C302.411 240.366 302.229 240.31 302.015 240.273C301.595 240.179 301.142 240.091 300.657 240.007C300.181 239.913 299.761 239.755 299.397 239.531C299.266 239.447 299.149 239.353 299.047 239.251C298.944 239.139 298.855 239.013 298.781 238.873C298.706 238.733 298.65 238.583 298.613 238.425C298.575 238.266 298.557 238.093 298.557 237.907C298.557 237.524 298.631 237.197 298.781 236.927C298.939 236.656 299.154 236.437 299.425 236.269C299.695 236.091 300.003 235.961 300.349 235.877C300.694 235.793 301.058 235.751 301.441 235.751C301.935 235.751 302.383 235.83 302.785 235.989C303.186 236.147 303.517 236.381 303.779 236.689C304.04 236.997 304.194 237.384 304.241 237.851H302.883C302.827 237.599 302.663 237.398 302.393 237.249C302.131 237.09 301.8 237.011 301.399 237.011C301.259 237.011 301.105 237.02 300.937 237.039C300.778 237.057 300.624 237.099 300.475 237.165C300.325 237.23 300.204 237.323 300.111 237.445C300.017 237.557 299.971 237.706 299.971 237.893C299.971 238.07 300.013 238.219 300.097 238.341C300.19 238.462 300.321 238.56 300.489 238.635C300.666 238.709 300.867 238.77 301.091 238.817C301.408 238.891 301.749 238.961 302.113 239.027C302.486 239.092 302.789 239.162 303.023 239.237C303.331 239.321 303.592 239.442 303.807 239.601C304.031 239.759 304.199 239.96 304.311 240.203C304.432 240.445 304.493 240.739 304.493 241.085C304.493 241.533 304.404 241.901 304.227 242.191C304.049 242.471 303.811 242.695 303.513 242.863C303.223 243.031 302.897 243.147 302.533 243.213C302.178 243.278 301.828 243.311 301.483 243.311ZM309.025 243.311C307.989 243.311 307.196 243.04 306.645 242.499C306.104 241.948 305.833 241.113 305.833 239.993V235.849H307.275V239.909C307.275 240.347 307.336 240.725 307.457 241.043C307.588 241.36 307.784 241.603 308.045 241.771C308.307 241.939 308.638 242.023 309.039 242.023C309.459 242.023 309.795 241.939 310.047 241.771C310.309 241.593 310.495 241.346 310.607 241.029C310.729 240.711 310.789 240.338 310.789 239.909V235.849H312.231V239.993C312.231 241.131 311.951 241.971 311.391 242.513C310.841 243.045 310.052 243.311 309.025 243.311ZM313.969 243.227V235.849H315.411V243.227H313.969ZM314.683 234.869C314.403 234.869 314.174 234.785 313.997 234.617C313.829 234.439 313.745 234.215 313.745 233.945C313.745 233.674 313.834 233.455 314.011 233.287C314.188 233.109 314.412 233.021 314.683 233.021C314.935 233.021 315.154 233.109 315.341 233.287C315.537 233.455 315.635 233.674 315.635 233.945C315.635 234.215 315.542 234.439 315.355 234.617C315.178 234.785 314.954 234.869 314.683 234.869ZM320.051 243.311C319.258 243.311 318.689 243.096 318.343 242.667C318.007 242.228 317.839 241.617 317.839 240.833V237.137H316.663V235.849H317.839V233.707H319.281V235.849H321.535V237.137H319.281V240.595C319.281 240.856 319.305 241.094 319.351 241.309C319.407 241.523 319.51 241.691 319.659 241.813C319.809 241.934 320.023 241.999 320.303 242.009C320.518 242.009 320.705 241.971 320.863 241.897C321.031 241.822 321.167 241.738 321.269 241.645L321.829 242.723C321.652 242.863 321.465 242.979 321.269 243.073C321.083 243.157 320.887 243.217 320.681 243.255C320.476 243.292 320.266 243.311 320.051 243.311ZM325.627 243.311C325.282 243.311 324.937 243.278 324.591 243.213C324.246 243.147 323.924 243.031 323.625 242.863C323.327 242.695 323.075 242.471 322.869 242.191C322.664 241.901 322.533 241.547 322.477 241.127H323.947C324.022 241.351 324.153 241.533 324.339 241.673C324.535 241.813 324.75 241.915 324.983 241.981C325.226 242.046 325.464 242.079 325.697 242.079C325.837 242.079 325.991 242.069 326.159 242.051C326.337 242.032 326.505 241.99 326.663 241.925C326.822 241.859 326.953 241.766 327.055 241.645C327.158 241.514 327.209 241.341 327.209 241.127C327.209 240.959 327.163 240.819 327.069 240.707C326.985 240.595 326.864 240.506 326.705 240.441C326.556 240.366 326.374 240.31 326.159 240.273C325.739 240.179 325.287 240.091 324.801 240.007C324.325 239.913 323.905 239.755 323.541 239.531C323.411 239.447 323.294 239.353 323.191 239.251C323.089 239.139 323 239.013 322.925 238.873C322.851 238.733 322.795 238.583 322.757 238.425C322.72 238.266 322.701 238.093 322.701 237.907C322.701 237.524 322.776 237.197 322.925 236.927C323.084 236.656 323.299 236.437 323.569 236.269C323.84 236.091 324.148 235.961 324.493 235.877C324.839 235.793 325.203 235.751 325.585 235.751C326.08 235.751 326.528 235.83 326.929 235.989C327.331 236.147 327.662 236.381 327.923 236.689C328.185 236.997 328.339 237.384 328.385 237.851H327.027C326.971 237.599 326.808 237.398 326.537 237.249C326.276 237.09 325.945 237.011 325.543 237.011C325.403 237.011 325.249 237.02 325.081 237.039C324.923 237.057 324.769 237.099 324.619 237.165C324.47 237.23 324.349 237.323 324.255 237.445C324.162 237.557 324.115 237.706 324.115 237.893C324.115 238.07 324.157 238.219 324.241 238.341C324.335 238.462 324.465 238.56 324.633 238.635C324.811 238.709 325.011 238.77 325.235 238.817C325.553 238.891 325.893 238.961 326.257 239.027C326.631 239.092 326.934 239.162 327.167 239.237C327.475 239.321 327.737 239.442 327.951 239.601C328.175 239.759 328.343 239.96 328.455 240.203C328.577 240.445 328.637 240.739 328.637 241.085C328.637 241.533 328.549 241.901 328.371 242.191C328.194 242.471 327.956 242.695 327.657 242.863C327.368 243.031 327.041 243.147 326.677 243.213C326.323 243.278 325.973 243.311 325.627 243.311ZM156.046 265.559C155.477 265.559 154.926 265.479 154.394 265.321C153.862 265.171 153.377 264.905 152.938 264.523L153.512 263.375C153.848 263.645 154.217 263.86 154.618 264.019C155.029 264.177 155.463 264.257 155.92 264.257C156.676 264.257 157.222 264.051 157.558 263.641C157.894 263.23 158.062 262.693 158.062 262.031V261.317C157.894 261.55 157.684 261.746 157.432 261.905C157.189 262.054 156.919 262.161 156.62 262.227C156.321 262.301 156.018 262.339 155.71 262.339C154.991 262.339 154.417 262.194 153.988 261.905C153.568 261.606 153.265 261.2 153.078 260.687C152.901 260.173 152.812 259.581 152.812 258.909V254.849H154.268V258.559C154.268 258.857 154.287 259.156 154.324 259.455C154.361 259.753 154.441 260.024 154.562 260.267C154.683 260.5 154.861 260.691 155.094 260.841C155.327 260.981 155.645 261.051 156.046 261.051C156.55 261.051 156.947 260.929 157.236 260.687C157.525 260.435 157.731 260.108 157.852 259.707C157.973 259.296 158.034 258.853 158.034 258.377V254.849H159.476V261.877C159.476 262.455 159.406 262.973 159.266 263.431C159.135 263.888 158.925 264.275 158.636 264.593C158.356 264.91 158.001 265.148 157.572 265.307C157.152 265.475 156.643 265.559 156.046 265.559ZM164.524 262.311C163.758 262.311 163.11 262.157 162.578 261.849C162.046 261.531 161.64 261.088 161.36 260.519C161.089 259.949 160.954 259.291 160.954 258.545C160.954 257.789 161.094 257.131 161.374 256.571C161.654 256.001 162.06 255.558 162.592 255.241C163.124 254.914 163.772 254.751 164.538 254.751C165.303 254.751 165.952 254.914 166.484 255.241C167.016 255.558 167.417 256.001 167.688 256.571C167.958 257.14 168.094 257.803 168.094 258.559C168.094 259.296 167.954 259.949 167.674 260.519C167.403 261.088 167.002 261.531 166.47 261.849C165.947 262.157 165.298 262.311 164.524 262.311ZM164.524 261.023C165.028 261.023 165.434 260.911 165.742 260.687C166.059 260.463 166.292 260.164 166.442 259.791C166.591 259.408 166.666 258.993 166.666 258.545C166.666 258.097 166.591 257.686 166.442 257.313C166.292 256.939 166.059 256.641 165.742 256.417C165.434 256.183 165.028 256.067 164.524 256.067C164.029 256.067 163.623 256.183 163.306 256.417C162.988 256.641 162.755 256.939 162.606 257.313C162.466 257.686 162.396 258.097 162.396 258.545C162.396 259.002 162.466 259.417 162.606 259.791C162.755 260.164 162.988 260.463 163.306 260.687C163.623 260.911 164.029 261.023 164.524 261.023ZM172.737 262.311C171.701 262.311 170.908 262.04 170.357 261.499C169.816 260.948 169.545 260.113 169.545 258.993V254.849H170.987V258.909C170.987 259.347 171.048 259.725 171.169 260.043C171.3 260.36 171.496 260.603 171.757 260.771C172.019 260.939 172.35 261.023 172.751 261.023C173.171 261.023 173.507 260.939 173.759 260.771C174.021 260.593 174.207 260.346 174.319 260.029C174.441 259.711 174.501 259.338 174.501 258.909V254.849H175.943V258.993C175.943 260.131 175.663 260.971 175.103 261.513C174.553 262.045 173.764 262.311 172.737 262.311ZM185.247 262.311C184.939 262.311 184.645 262.278 184.365 262.213C184.094 262.147 183.837 262.045 183.595 261.905C183.361 261.755 183.151 261.573 182.965 261.359L182.923 262.227H181.523V252.329H182.965V255.843C183.226 255.488 183.576 255.217 184.015 255.031C184.453 254.844 184.906 254.751 185.373 254.751C186.11 254.751 186.717 254.919 187.193 255.255C187.669 255.581 188.019 256.029 188.243 256.599C188.476 257.159 188.593 257.798 188.593 258.517C188.593 259.226 188.471 259.87 188.229 260.449C187.986 261.018 187.617 261.471 187.123 261.807C186.637 262.143 186.012 262.311 185.247 262.311ZM185.093 261.037C185.606 261.037 186.012 260.92 186.311 260.687C186.609 260.453 186.824 260.145 186.955 259.763C187.085 259.38 187.151 258.969 187.151 258.531C187.151 258.073 187.081 257.658 186.941 257.285C186.81 256.911 186.591 256.613 186.283 256.389C185.984 256.165 185.583 256.053 185.079 256.053C184.621 256.053 184.234 256.179 183.917 256.431C183.599 256.673 183.357 256.986 183.189 257.369C183.03 257.751 182.951 258.148 182.951 258.559C182.951 258.988 183.021 259.394 183.161 259.777C183.31 260.15 183.543 260.453 183.861 260.687C184.178 260.92 184.589 261.037 185.093 261.037ZM193.329 262.311C192.555 262.311 191.906 262.152 191.383 261.835C190.861 261.517 190.464 261.079 190.193 260.519C189.932 259.949 189.801 259.296 189.801 258.559C189.801 257.812 189.937 257.154 190.207 256.585C190.487 256.015 190.889 255.567 191.411 255.241C191.943 254.914 192.583 254.751 193.329 254.751C193.899 254.751 194.393 254.858 194.813 255.073C195.233 255.278 195.579 255.558 195.849 255.913C196.129 256.267 196.335 256.664 196.465 257.103C196.596 257.532 196.652 257.98 196.633 258.447C196.633 258.549 196.629 258.647 196.619 258.741C196.61 258.834 196.601 258.932 196.591 259.035H191.257C191.285 259.408 191.379 259.749 191.537 260.057C191.705 260.365 191.939 260.612 192.237 260.799C192.536 260.976 192.905 261.065 193.343 261.065C193.586 261.065 193.819 261.037 194.043 260.981C194.277 260.915 194.482 260.817 194.659 260.687C194.846 260.547 194.977 260.369 195.051 260.155H196.507C196.386 260.649 196.167 261.06 195.849 261.387C195.541 261.704 195.163 261.937 194.715 262.087C194.277 262.236 193.815 262.311 193.329 262.311ZM191.285 257.887H195.205C195.196 257.523 195.112 257.201 194.953 256.921C194.795 256.631 194.575 256.407 194.295 256.249C194.015 256.081 193.679 255.997 193.287 255.997C192.858 255.997 192.499 256.085 192.209 256.263C191.929 256.44 191.71 256.673 191.551 256.963C191.402 257.243 191.313 257.551 191.285 257.887ZM200.878 262.311C200.533 262.311 200.188 262.278 199.842 262.213C199.497 262.147 199.175 262.031 198.876 261.863C198.578 261.695 198.326 261.471 198.12 261.191C197.915 260.901 197.784 260.547 197.728 260.127H199.198C199.273 260.351 199.404 260.533 199.59 260.673C199.786 260.813 200.001 260.915 200.234 260.981C200.477 261.046 200.715 261.079 200.948 261.079C201.088 261.079 201.242 261.069 201.41 261.051C201.588 261.032 201.756 260.99 201.914 260.925C202.073 260.859 202.204 260.766 202.306 260.645C202.409 260.514 202.46 260.341 202.46 260.127C202.46 259.959 202.414 259.819 202.32 259.707C202.236 259.595 202.115 259.506 201.956 259.441C201.807 259.366 201.625 259.31 201.41 259.273C200.99 259.179 200.538 259.091 200.052 259.007C199.576 258.913 199.156 258.755 198.792 258.531C198.662 258.447 198.545 258.353 198.442 258.251C198.34 258.139 198.251 258.013 198.176 257.873C198.102 257.733 198.046 257.583 198.008 257.425C197.971 257.266 197.952 257.093 197.952 256.907C197.952 256.524 198.027 256.197 198.176 255.927C198.335 255.656 198.55 255.437 198.82 255.269C199.091 255.091 199.399 254.961 199.744 254.877C200.09 254.793 200.454 254.751 200.836 254.751C201.331 254.751 201.779 254.83 202.18 254.989C202.582 255.147 202.913 255.381 203.174 255.689C203.436 255.997 203.59 256.384 203.636 256.851H202.278C202.222 256.599 202.059 256.398 201.788 256.249C201.527 256.09 201.196 256.011 200.794 256.011C200.654 256.011 200.5 256.02 200.332 256.039C200.174 256.057 200.02 256.099 199.87 256.165C199.721 256.23 199.6 256.323 199.506 256.445C199.413 256.557 199.366 256.706 199.366 256.893C199.366 257.07 199.408 257.219 199.492 257.341C199.586 257.462 199.716 257.56 199.884 257.635C200.062 257.709 200.262 257.77 200.486 257.817C200.804 257.891 201.144 257.961 201.508 258.027C201.882 258.092 202.185 258.162 202.418 258.237C202.726 258.321 202.988 258.442 203.202 258.601C203.426 258.759 203.594 258.96 203.706 259.203C203.828 259.445 203.888 259.739 203.888 260.085C203.888 260.533 203.8 260.901 203.622 261.191C203.445 261.471 203.207 261.695 202.908 261.863C202.619 262.031 202.292 262.147 201.928 262.213C201.574 262.278 201.224 262.311 200.878 262.311ZM208.228 262.227C207.65 262.227 207.178 262.147 206.814 261.989C206.45 261.821 206.18 261.559 206.002 261.205C205.834 260.85 205.75 260.388 205.75 259.819V256.137H204.588V254.849H205.75V252.721H207.192V254.849H209.054V256.137H207.192V259.637C207.192 260.075 207.272 260.407 207.43 260.631C207.589 260.845 207.92 260.953 208.424 260.953H208.998V262.227H208.228ZM211.254 262.367C210.974 262.367 210.741 262.278 210.554 262.101C210.377 261.923 210.288 261.69 210.288 261.401C210.288 261.111 210.382 260.878 210.568 260.701C210.755 260.514 210.984 260.421 211.254 260.421C211.525 260.421 211.749 260.514 211.926 260.701C212.113 260.878 212.206 261.111 212.206 261.401C212.206 261.69 212.113 261.923 211.926 262.101C211.749 262.278 211.525 262.367 211.254 262.367Z" fill="#7A7A7A"/>
<defs>
<linearGradient id="paint0_linear_3691_1466" x1="137.967" y1="32.7911" x2="180.537" y2="150.323" gradientUnits="userSpaceOnUse">
<stop stop-color="#363636"/>
<stop offset="1" stop-color="#414141"/>
</linearGradient>
<linearGradient id="paint1_linear_3691_1466" x1="254.003" y1="10.2308" x2="233.541" y2="16.619" gradientUnits="userSpaceOnUse">
<stop stop-color="#FF722D"/>
<stop offset="1" stop-color="#E2AE95"/>
</linearGradient>
<linearGradient id="paint2_linear_3691_1466" x1="116.509" y1="141.129" x2="110.251" y2="161.631" gradientUnits="userSpaceOnUse">
<stop stop-color="#FF722D"/>
<stop offset="1" stop-color="#E2AE95"/>
</linearGradient>
</defs>
</svg>
