<svg width="364" height="263" viewBox="0 0 364 263" fill="none" xmlns="http://www.w3.org/2000/svg">
<path fill-rule="evenodd" clip-rule="evenodd" d="M291.646 32.7168C297.171 32.7168 301.649 37.1954 301.649 42.7201C301.649 48.2447 297.171 52.7233 291.646 52.7233H234.484C240.009 52.7233 244.488 57.2019 244.488 62.7266C244.488 68.2512 240.009 72.7298 234.484 72.7298H265.923C271.448 72.7298 275.927 77.2085 275.927 82.7331C275.927 88.2577 271.448 92.7364 265.923 92.7364H251.384C244.419 92.7364 238.772 97.215 238.772 102.74C238.772 106.423 241.63 109.757 247.346 112.743C252.87 112.743 257.349 117.221 257.349 122.746C257.349 128.271 252.87 132.749 247.346 132.749H128.736C123.211 132.749 118.732 128.271 118.732 122.746C118.732 117.221 123.211 112.743 128.736 112.743H73.0033C67.4786 112.743 63 108.264 63 102.74C63 97.215 67.4786 92.7364 73.0033 92.7364H130.165C135.689 92.7364 140.168 88.2577 140.168 82.7331C140.168 77.2085 135.689 72.7298 130.165 72.7298H94.4388C88.9142 72.7298 84.4356 68.2512 84.4356 62.7266C84.4356 57.2019 88.9142 52.7233 94.4388 52.7233H151.6C146.076 52.7233 141.597 48.2447 141.597 42.7201C141.597 37.1954 146.076 32.7168 151.6 32.7168H291.646ZM291.646 72.7298C297.171 72.7298 301.649 77.2085 301.649 82.7331C301.649 88.2577 297.171 92.7364 291.646 92.7364C286.121 92.7364 281.643 88.2577 281.643 82.7331C281.643 77.2085 286.121 72.7298 291.646 72.7298Z" fill="#272727"/>
<path fill-rule="evenodd" clip-rule="evenodd" d="M99.8253 74.1595H98.4707C89.8057 74.1595 82.7812 67.1454 82.7812 58.4931C82.7812 49.8407 89.8057 42.8266 98.4707 42.8266C98.5267 42.8266 98.5825 42.8269 98.6383 42.8274C100.033 30.6927 109.963 21.2852 122.005 21.2852C134.697 21.2852 145.043 31.736 145.522 44.8159C153.196 45.3113 159.949 52.7806 159.949 60.569C159.949 66.9639 155.213 74.1595 149.603 74.1595H110.588" fill="#525252"/>
<path d="M181.61 8.78027C208.216 8.78044 229.84 30.7653 229.84 57.9551C229.84 66.3303 226.323 77.255 219.007 90.8262C211.711 104.359 200.733 120.351 186.039 138.811C185.788 139.126 185.506 139.413 185.198 139.668C182.756 141.686 179.172 141.313 177.181 138.811C162.487 120.351 151.51 104.359 144.214 90.8262C136.898 77.2549 133.38 66.3304 133.38 57.9551C133.38 30.7652 155.005 8.78027 181.61 8.78027Z" fill="#363636" stroke="#808080" stroke-width="3.57259"/>
<path d="M199.142 18.0156C214.049 24.9433 224.48 40.4363 224.48 58.5342C224.48 65.8542 221.415 75.8593 214.53 88.8115C207.7 101.661 197.365 116.946 183.432 134.699C183.324 134.836 183.205 134.96 183.076 135.068C182.079 135.904 180.624 135.766 179.787 134.699C165.854 116.946 155.519 101.66 148.689 88.8115C147.084 85.7914 145.688 82.9305 144.488 80.2275C150.5 77.5868 156.194 74.3572 161.501 70.6152C165.484 77.6948 172.997 82.4677 181.609 82.4678C194.387 82.4678 204.746 71.9616 204.746 59.002C204.746 49.4485 199.117 41.2294 191.039 37.5684C194.41 31.4219 197.141 24.8747 199.142 18.0156Z" fill="#414141"/>
<path d="M157.205 137.37C158.176 137.196 158.823 136.268 158.649 135.297C158.475 134.325 157.547 133.679 156.576 133.853L156.891 135.611L157.205 137.37ZM146.611 136.183C145.666 136.466 145.129 137.462 145.412 138.407C145.695 139.352 146.691 139.889 147.636 139.606L147.123 137.895L146.611 136.183ZM141.891 141.664C142.797 141.274 143.215 140.223 142.825 139.317C142.435 138.411 141.384 137.993 140.478 138.383L141.184 140.023L141.891 141.664ZM207.4 133.993C206.43 133.812 205.498 134.452 205.317 135.422C205.136 136.392 205.776 137.324 206.746 137.505L207.073 135.749L207.4 133.993ZM156.891 135.611L156.576 133.853C152.969 134.499 149.624 135.282 146.611 136.183L147.123 137.895L147.636 139.606C150.5 138.749 153.712 137.995 157.205 137.37L156.891 135.611ZM141.184 140.023L140.478 138.383C137.357 139.727 134.752 141.276 132.899 143.032C131.044 144.789 129.807 146.891 129.807 149.282H131.594H133.38C133.38 148.21 133.923 146.982 135.356 145.625C136.791 144.266 138.981 142.917 141.891 141.664L141.184 140.023ZM131.594 149.282H129.807C129.807 152.28 131.738 154.812 134.459 156.834C137.213 158.88 141.084 160.648 145.708 162.101C154.975 165.014 167.668 166.787 181.61 166.787V165.001V163.215C167.929 163.215 155.613 161.469 146.779 158.693C142.351 157.301 138.898 155.681 136.59 153.966C134.248 152.227 133.38 150.624 133.38 149.282H131.594ZM181.61 165.001V166.787C195.552 166.787 208.245 165.014 217.512 162.101C222.136 160.648 226.007 158.88 228.761 156.834C231.482 154.812 233.413 152.28 233.413 149.282H231.626H229.84C229.84 150.624 228.972 152.227 226.63 153.966C224.323 155.681 220.869 157.301 216.441 158.693C207.607 161.469 195.292 163.215 181.61 163.215V165.001ZM231.626 149.282H233.413C233.413 145.327 230.091 142.174 225.71 139.81C221.184 137.367 214.846 135.38 207.4 133.993L207.073 135.749L206.746 137.505C213.999 138.856 219.938 140.755 224.013 142.954C228.235 145.232 229.84 147.477 229.84 149.282H231.626Z" fill="#595959"/>
<circle cx="181.61" cy="58.4401" r="22.5073" stroke="white" stroke-width="3.57259"/>
<path opacity="0.75" fill-rule="evenodd" clip-rule="evenodd" d="M239.075 20.198C239.434 16.697 238.343 13.2019 236.056 10.5271L234.279 8.44923L236.999 8.72819C240.5 9.08729 243.995 7.99607 246.67 5.70887L248.748 3.93206L248.469 6.65177C248.11 10.1527 249.201 13.6479 251.488 16.3226L253.265 18.4005L250.545 18.1216C247.044 17.7625 243.549 18.8537 240.874 21.1409L238.796 22.9177L239.075 20.198Z" stroke="url(#paint0_linear_3681_1325)" stroke-width="3.57259" stroke-linejoin="round"/>
<path d="M63.8531 209.227V193.651H67.0651L74.2591 204.189V193.651H77.4051V209.227H74.2811L66.9991 198.799V209.227H63.8531ZM85.6689 209.381C84.4955 209.381 83.4689 209.146 82.5889 208.677C81.7089 208.193 81.0269 207.511 80.5429 206.631C80.0589 205.736 79.8169 204.68 79.8169 203.463C79.8169 202.216 80.0589 201.145 80.5429 200.251C81.0415 199.341 81.7309 198.645 82.6109 198.161C83.4909 197.677 84.5029 197.435 85.6469 197.435C86.8202 197.435 87.8395 197.684 88.7049 198.183C89.5702 198.681 90.2449 199.378 90.7289 200.273C91.2129 201.167 91.4549 202.238 91.4549 203.485C91.4549 204.702 91.2129 205.758 90.7289 206.653C90.2595 207.533 89.5922 208.207 88.7269 208.677C87.8762 209.146 86.8569 209.381 85.6689 209.381ZM85.6249 206.565C86.2995 206.565 86.8422 206.418 87.2529 206.125C87.6635 205.831 87.9569 205.45 88.1329 204.981C88.3235 204.497 88.4189 203.991 88.4189 203.463C88.4189 202.935 88.3235 202.429 88.1329 201.945C87.9569 201.461 87.6635 201.065 87.2529 200.757C86.8569 200.434 86.3142 200.273 85.6249 200.273C84.9649 200.273 84.4295 200.434 84.0189 200.757C83.6082 201.065 83.3075 201.461 83.1169 201.945C82.9409 202.429 82.8529 202.935 82.8529 203.463C82.8529 204.005 82.9409 204.511 83.1169 204.981C83.3075 205.45 83.6082 205.831 84.0189 206.125C84.4295 206.418 84.9649 206.565 85.6249 206.565ZM98.4478 209.227L104.52 193.651H108.04L114.046 209.227H110.658L109.69 206.565H102.804L101.836 209.227H98.4478ZM103.816 203.727H108.7L106.28 196.995L103.816 203.727ZM120.05 209.381C118.877 209.381 117.902 209.117 117.124 208.589C116.362 208.046 115.79 207.327 115.408 206.433C115.027 205.523 114.836 204.519 114.836 203.419C114.836 202.26 115.042 201.233 115.452 200.339C115.863 199.429 116.472 198.718 117.278 198.205C118.085 197.691 119.09 197.435 120.292 197.435C120.703 197.435 121.106 197.486 121.502 197.589C121.913 197.677 122.287 197.816 122.624 198.007C122.976 198.183 123.277 198.417 123.526 198.711V193.651H126.606V209.227H123.614L123.57 207.929C123.306 208.266 122.984 208.545 122.602 208.765C122.236 208.97 121.84 209.124 121.414 209.227C120.989 209.329 120.534 209.381 120.05 209.381ZM120.666 206.609C121.326 206.609 121.862 206.455 122.272 206.147C122.698 205.839 123.013 205.443 123.218 204.959C123.424 204.475 123.526 203.954 123.526 203.397C123.526 202.825 123.424 202.304 123.218 201.835C123.028 201.351 122.72 200.969 122.294 200.691C121.884 200.397 121.341 200.251 120.666 200.251C119.992 200.251 119.449 200.405 119.038 200.713C118.628 201.021 118.334 201.424 118.158 201.923C117.997 202.407 117.916 202.927 117.916 203.485C117.916 203.895 117.96 204.291 118.048 204.673C118.151 205.039 118.312 205.369 118.532 205.663C118.752 205.956 119.038 206.191 119.39 206.367C119.742 206.528 120.168 206.609 120.666 206.609ZM133.8 209.381C132.627 209.381 131.652 209.117 130.874 208.589C130.112 208.046 129.54 207.327 129.158 206.433C128.777 205.523 128.586 204.519 128.586 203.419C128.586 202.26 128.792 201.233 129.202 200.339C129.613 199.429 130.222 198.718 131.028 198.205C131.835 197.691 132.84 197.435 134.042 197.435C134.453 197.435 134.856 197.486 135.252 197.589C135.663 197.677 136.037 197.816 136.374 198.007C136.726 198.183 137.027 198.417 137.276 198.711V193.651H140.356V209.227H137.364L137.32 207.929C137.056 208.266 136.734 208.545 136.352 208.765C135.986 208.97 135.59 209.124 135.164 209.227C134.739 209.329 134.284 209.381 133.8 209.381ZM134.416 206.609C135.076 206.609 135.612 206.455 136.022 206.147C136.448 205.839 136.763 205.443 136.968 204.959C137.174 204.475 137.276 203.954 137.276 203.397C137.276 202.825 137.174 202.304 136.968 201.835C136.778 201.351 136.47 200.969 136.044 200.691C135.634 200.397 135.091 200.251 134.416 200.251C133.742 200.251 133.199 200.405 132.788 200.713C132.378 201.021 132.084 201.424 131.908 201.923C131.747 202.407 131.666 202.927 131.666 203.485C131.666 203.895 131.71 204.291 131.798 204.673C131.901 205.039 132.062 205.369 132.282 205.663C132.502 205.956 132.788 206.191 133.14 206.367C133.492 206.528 133.918 206.609 134.416 206.609ZM142.776 209.227V197.633H145.548L145.746 199.019C146.04 198.579 146.37 198.249 146.736 198.029C147.103 197.794 147.484 197.64 147.88 197.567C148.276 197.479 148.68 197.435 149.09 197.435C149.281 197.435 149.457 197.442 149.618 197.457C149.78 197.457 149.897 197.457 149.97 197.457V200.427H149.244C148.555 200.427 147.954 200.544 147.44 200.779C146.927 201.013 146.531 201.38 146.252 201.879C145.988 202.377 145.856 203.015 145.856 203.793V209.227H142.776ZM156.5 209.381C155.283 209.381 154.249 209.139 153.398 208.655C152.548 208.171 151.895 207.489 151.44 206.609C150.986 205.714 150.758 204.673 150.758 203.485C150.758 202.282 150.993 201.233 151.462 200.339C151.932 199.429 152.592 198.718 153.442 198.205C154.308 197.691 155.327 197.435 156.5 197.435C157.38 197.435 158.15 197.581 158.81 197.875C159.485 198.168 160.05 198.579 160.504 199.107C160.974 199.635 161.318 200.251 161.538 200.955C161.773 201.644 161.883 202.392 161.868 203.199C161.868 203.404 161.861 203.602 161.846 203.793C161.832 203.983 161.802 204.174 161.758 204.365H153.816C153.86 204.805 153.985 205.208 154.19 205.575C154.396 205.941 154.682 206.235 155.048 206.455C155.43 206.66 155.899 206.763 156.456 206.763C156.823 206.763 157.16 206.726 157.468 206.653C157.776 206.565 158.04 206.433 158.26 206.257C158.48 206.081 158.634 205.875 158.722 205.641H161.758C161.568 206.506 161.208 207.217 160.68 207.775C160.167 208.332 159.544 208.743 158.81 209.007C158.077 209.256 157.307 209.381 156.5 209.381ZM153.882 202.209H158.92C158.906 201.813 158.803 201.446 158.612 201.109C158.436 200.757 158.165 200.478 157.798 200.273C157.446 200.053 156.992 199.943 156.434 199.943C155.877 199.943 155.408 200.053 155.026 200.273C154.66 200.493 154.381 200.779 154.19 201.131C154.014 201.468 153.912 201.827 153.882 202.209ZM168.385 209.381C167.842 209.381 167.285 209.322 166.713 209.205C166.141 209.087 165.613 208.889 165.129 208.611C164.645 208.317 164.234 207.929 163.897 207.445C163.559 206.946 163.339 206.33 163.237 205.597H166.361C166.449 205.861 166.603 206.088 166.823 206.279C167.057 206.469 167.321 206.609 167.615 206.697C167.923 206.785 168.231 206.829 168.539 206.829C168.744 206.829 168.949 206.814 169.155 206.785C169.36 206.755 169.551 206.697 169.727 206.609C169.903 206.521 170.042 206.411 170.145 206.279C170.247 206.132 170.299 205.949 170.299 205.729C170.299 205.494 170.225 205.311 170.079 205.179C169.932 205.047 169.727 204.944 169.463 204.871C169.199 204.783 168.898 204.702 168.561 204.629C167.959 204.497 167.314 204.35 166.625 204.189C165.935 204.027 165.341 203.793 164.843 203.485C164.637 203.338 164.454 203.177 164.293 203.001C164.131 202.825 163.999 202.627 163.897 202.407C163.794 202.187 163.713 201.959 163.655 201.725C163.596 201.475 163.567 201.211 163.567 200.933C163.567 200.302 163.699 199.767 163.963 199.327C164.241 198.872 164.608 198.505 165.063 198.227C165.517 197.948 166.023 197.75 166.581 197.633C167.138 197.501 167.71 197.435 168.297 197.435C169.089 197.435 169.822 197.567 170.497 197.831C171.171 198.08 171.729 198.476 172.169 199.019C172.609 199.547 172.88 200.236 172.983 201.087H170.035C169.976 200.764 169.778 200.507 169.441 200.317C169.103 200.111 168.685 200.009 168.187 200.009C168.011 200.009 167.82 200.023 167.615 200.053C167.424 200.082 167.248 200.133 167.087 200.207C166.925 200.28 166.793 200.383 166.691 200.515C166.588 200.632 166.537 200.793 166.537 200.999C166.537 201.16 166.581 201.307 166.669 201.439C166.771 201.571 166.911 201.681 167.087 201.769C167.277 201.857 167.505 201.937 167.769 202.011C168.267 202.128 168.766 202.238 169.265 202.341C169.778 202.429 170.233 202.524 170.629 202.627C171.113 202.729 171.553 202.898 171.949 203.133C172.359 203.367 172.689 203.69 172.939 204.101C173.203 204.497 173.335 205.017 173.335 205.663C173.335 206.396 173.188 207.005 172.895 207.489C172.601 207.958 172.205 208.332 171.707 208.611C171.223 208.889 170.687 209.087 170.101 209.205C169.529 209.322 168.957 209.381 168.385 209.381ZM179.664 209.381C179.121 209.381 178.564 209.322 177.992 209.205C177.42 209.087 176.892 208.889 176.408 208.611C175.924 208.317 175.513 207.929 175.176 207.445C174.839 206.946 174.619 206.33 174.516 205.597H177.64C177.728 205.861 177.882 206.088 178.102 206.279C178.337 206.469 178.601 206.609 178.894 206.697C179.202 206.785 179.51 206.829 179.818 206.829C180.023 206.829 180.229 206.814 180.434 206.785C180.639 206.755 180.83 206.697 181.006 206.609C181.182 206.521 181.321 206.411 181.424 206.279C181.527 206.132 181.578 205.949 181.578 205.729C181.578 205.494 181.505 205.311 181.358 205.179C181.211 205.047 181.006 204.944 180.742 204.871C180.478 204.783 180.177 204.702 179.84 204.629C179.239 204.497 178.593 204.35 177.904 204.189C177.215 204.027 176.621 203.793 176.122 203.485C175.917 203.338 175.733 203.177 175.572 203.001C175.411 202.825 175.279 202.627 175.176 202.407C175.073 202.187 174.993 201.959 174.934 201.725C174.875 201.475 174.846 201.211 174.846 200.933C174.846 200.302 174.978 199.767 175.242 199.327C175.521 198.872 175.887 198.505 176.342 198.227C176.797 197.948 177.303 197.75 177.86 197.633C178.417 197.501 178.989 197.435 179.576 197.435C180.368 197.435 181.101 197.567 181.776 197.831C182.451 198.08 183.008 198.476 183.448 199.019C183.888 199.547 184.159 200.236 184.262 201.087H181.314C181.255 200.764 181.057 200.507 180.72 200.317C180.383 200.111 179.965 200.009 179.466 200.009C179.29 200.009 179.099 200.023 178.894 200.053C178.703 200.082 178.527 200.133 178.366 200.207C178.205 200.28 178.073 200.383 177.97 200.515C177.867 200.632 177.816 200.793 177.816 200.999C177.816 201.16 177.86 201.307 177.948 201.439C178.051 201.571 178.19 201.681 178.366 201.769C178.557 201.857 178.784 201.937 179.048 202.011C179.547 202.128 180.045 202.238 180.544 202.341C181.057 202.429 181.512 202.524 181.908 202.627C182.392 202.729 182.832 202.898 183.228 203.133C183.639 203.367 183.969 203.69 184.218 204.101C184.482 204.497 184.614 205.017 184.614 205.663C184.614 206.396 184.467 207.005 184.174 207.489C183.881 207.958 183.485 208.332 182.986 208.611C182.502 208.889 181.967 209.087 181.38 209.205C180.808 209.322 180.236 209.381 179.664 209.381ZM191.432 209.227L197.504 193.651H201.024L207.03 209.227H203.642L202.674 206.565H195.788L194.82 209.227H191.432ZM196.8 203.727H201.684L199.264 196.995L196.8 203.727ZM213.035 209.381C211.861 209.381 210.886 209.117 210.109 208.589C209.346 208.046 208.774 207.327 208.393 206.433C208.011 205.523 207.821 204.519 207.821 203.419C207.821 202.26 208.026 201.233 208.437 200.339C208.847 199.429 209.456 198.718 210.263 198.205C211.069 197.691 212.074 197.435 213.277 197.435C213.687 197.435 214.091 197.486 214.487 197.589C214.897 197.677 215.271 197.816 215.609 198.007C215.961 198.183 216.261 198.417 216.511 198.711V193.651H219.591V209.227H216.599L216.555 207.929C216.291 208.266 215.968 208.545 215.587 208.765C215.22 208.97 214.824 209.124 214.399 209.227C213.973 209.329 213.519 209.381 213.035 209.381ZM213.651 206.609C214.311 206.609 214.846 206.455 215.257 206.147C215.682 205.839 215.997 205.443 216.203 204.959C216.408 204.475 216.511 203.954 216.511 203.397C216.511 202.825 216.408 202.304 216.203 201.835C216.012 201.351 215.704 200.969 215.279 200.691C214.868 200.397 214.325 200.251 213.651 200.251C212.976 200.251 212.433 200.405 212.023 200.713C211.612 201.021 211.319 201.424 211.143 201.923C210.981 202.407 210.901 202.927 210.901 203.485C210.901 203.895 210.945 204.291 211.033 204.673C211.135 205.039 211.297 205.369 211.517 205.663C211.737 205.956 212.023 206.191 212.375 206.367C212.727 206.528 213.152 206.609 213.651 206.609ZM226.785 209.381C225.611 209.381 224.636 209.117 223.859 208.589C223.096 208.046 222.524 207.327 222.143 206.433C221.761 205.523 221.571 204.519 221.571 203.419C221.571 202.26 221.776 201.233 222.187 200.339C222.597 199.429 223.206 198.718 224.013 198.205C224.819 197.691 225.824 197.435 227.027 197.435C227.437 197.435 227.841 197.486 228.237 197.589C228.647 197.677 229.021 197.816 229.359 198.007C229.711 198.183 230.011 198.417 230.261 198.711V193.651H233.341V209.227H230.349L230.305 207.929C230.041 208.266 229.718 208.545 229.337 208.765C228.97 208.97 228.574 209.124 228.149 209.227C227.723 209.329 227.269 209.381 226.785 209.381ZM227.401 206.609C228.061 206.609 228.596 206.455 229.007 206.147C229.432 205.839 229.747 205.443 229.953 204.959C230.158 204.475 230.261 203.954 230.261 203.397C230.261 202.825 230.158 202.304 229.953 201.835C229.762 201.351 229.454 200.969 229.029 200.691C228.618 200.397 228.075 200.251 227.401 200.251C226.726 200.251 226.183 200.405 225.773 200.713C225.362 201.021 225.069 201.424 224.893 201.923C224.731 202.407 224.651 202.927 224.651 203.485C224.651 203.895 224.695 204.291 224.783 204.673C224.885 205.039 225.047 205.369 225.267 205.663C225.487 205.956 225.773 206.191 226.125 206.367C226.477 206.528 226.902 206.609 227.401 206.609ZM241.063 209.381C239.845 209.381 238.811 209.139 237.961 208.655C237.11 208.171 236.457 207.489 236.003 206.609C235.548 205.714 235.321 204.673 235.321 203.485C235.321 202.282 235.555 201.233 236.025 200.339C236.494 199.429 237.154 198.718 238.005 198.205C238.87 197.691 239.889 197.435 241.063 197.435C241.943 197.435 242.713 197.581 243.373 197.875C244.047 198.168 244.612 198.579 245.067 199.107C245.536 199.635 245.881 200.251 246.101 200.955C246.335 201.644 246.445 202.392 246.431 203.199C246.431 203.404 246.423 203.602 246.409 203.793C246.394 203.983 246.365 204.174 246.321 204.365H238.379C238.423 204.805 238.547 205.208 238.753 205.575C238.958 205.941 239.244 206.235 239.611 206.455C239.992 206.66 240.461 206.763 241.019 206.763C241.385 206.763 241.723 206.726 242.031 206.653C242.339 206.565 242.603 206.433 242.823 206.257C243.043 206.081 243.197 205.875 243.285 205.641H246.321C246.13 206.506 245.771 207.217 245.243 207.775C244.729 208.332 244.106 208.743 243.373 209.007C242.639 209.256 241.869 209.381 241.063 209.381ZM238.445 202.209H243.483C243.468 201.813 243.365 201.446 243.175 201.109C242.999 200.757 242.727 200.478 242.361 200.273C242.009 200.053 241.554 199.943 240.997 199.943C240.439 199.943 239.97 200.053 239.589 200.273C239.222 200.493 238.943 200.779 238.753 201.131C238.577 201.468 238.474 201.827 238.445 202.209ZM253.189 209.381C252.016 209.381 251.04 209.117 250.263 208.589C249.5 208.046 248.928 207.327 248.547 206.433C248.166 205.523 247.975 204.519 247.975 203.419C247.975 202.26 248.18 201.233 248.591 200.339C249.002 199.429 249.61 198.718 250.417 198.205C251.224 197.691 252.228 197.435 253.431 197.435C253.842 197.435 254.245 197.486 254.641 197.589C255.052 197.677 255.426 197.816 255.763 198.007C256.115 198.183 256.416 198.417 256.665 198.711V193.651H259.745V209.227H256.753L256.709 207.929C256.445 208.266 256.122 208.545 255.741 208.765C255.374 208.97 254.978 209.124 254.553 209.227C254.128 209.329 253.673 209.381 253.189 209.381ZM253.805 206.609C254.465 206.609 255 206.455 255.411 206.147C255.836 205.839 256.152 205.443 256.357 204.959C256.562 204.475 256.665 203.954 256.665 203.397C256.665 202.825 256.562 202.304 256.357 201.835C256.166 201.351 255.858 200.969 255.433 200.691C255.022 200.397 254.48 200.251 253.805 200.251C253.13 200.251 252.588 200.405 252.177 200.713C251.766 201.021 251.473 201.424 251.297 201.923C251.136 202.407 251.055 202.927 251.055 203.485C251.055 203.895 251.099 204.291 251.187 204.673C251.29 205.039 251.451 205.369 251.671 205.663C251.891 205.956 252.177 206.191 252.529 206.367C252.881 206.528 253.306 206.609 253.805 206.609ZM273.082 209.227V203.419L267.296 193.651H270.926L274.666 200.493L278.472 193.651H282.036L276.228 203.397V209.227H273.082ZM287.125 209.381C285.908 209.381 284.874 209.139 284.023 208.655C283.173 208.171 282.52 207.489 282.065 206.609C281.611 205.714 281.383 204.673 281.383 203.485C281.383 202.282 281.618 201.233 282.087 200.339C282.557 199.429 283.217 198.718 284.067 198.205C284.933 197.691 285.952 197.435 287.125 197.435C288.005 197.435 288.775 197.581 289.435 197.875C290.11 198.168 290.675 198.579 291.129 199.107C291.599 199.635 291.943 200.251 292.163 200.955C292.398 201.644 292.508 202.392 292.493 203.199C292.493 203.404 292.486 203.602 292.471 203.793C292.457 203.983 292.427 204.174 292.383 204.365H284.441C284.485 204.805 284.61 205.208 284.815 205.575C285.021 205.941 285.307 206.235 285.673 206.455C286.055 206.66 286.524 206.763 287.081 206.763C287.448 206.763 287.785 206.726 288.093 206.653C288.401 206.565 288.665 206.433 288.885 206.257C289.105 206.081 289.259 205.875 289.347 205.641H292.383C292.193 206.506 291.833 207.217 291.305 207.775C290.792 208.332 290.169 208.743 289.435 209.007C288.702 209.256 287.932 209.381 287.125 209.381ZM284.507 202.209H289.545C289.531 201.813 289.428 201.446 289.237 201.109C289.061 200.757 288.79 200.478 288.423 200.273C288.071 200.053 287.617 199.943 287.059 199.943C286.502 199.943 286.033 200.053 285.651 200.273C285.285 200.493 285.006 200.779 284.815 201.131C284.639 201.468 284.537 201.827 284.507 202.209ZM299.736 209.227C298.768 209.227 297.954 209.109 297.294 208.875C296.648 208.64 296.157 208.244 295.82 207.687C295.497 207.115 295.336 206.337 295.336 205.355V200.383H293.62V197.633H295.336V194.531H298.416V197.633H300.946V200.383H298.416V204.915C298.416 205.399 298.504 205.78 298.68 206.059C298.856 206.337 299.252 206.477 299.868 206.477H300.836V209.227H299.736ZM303.238 203.947L302.996 193.651H306.384L306.12 203.947H303.238ZM304.668 209.425C304.36 209.425 304.06 209.351 303.766 209.205C303.473 209.058 303.231 208.845 303.04 208.567C302.85 208.288 302.754 207.943 302.754 207.533C302.754 207.107 302.842 206.755 303.018 206.477C303.209 206.198 303.451 205.993 303.744 205.861C304.038 205.714 304.353 205.641 304.69 205.641C305.174 205.641 305.607 205.802 305.988 206.125C306.384 206.447 306.582 206.917 306.582 207.533C306.582 207.943 306.487 208.288 306.296 208.567C306.12 208.845 305.886 209.058 305.592 209.205C305.299 209.351 304.991 209.425 304.668 209.425Z" fill="white"/>
<path d="M52.8587 238.227L56.5967 228.329H58.5147L62.2387 238.227H60.6427L59.9147 236.239H55.1827L54.4547 238.227H52.8587ZM55.6727 234.909H59.4247L57.5487 229.743L55.6727 234.909ZM66.1951 238.311C65.4577 238.311 64.8464 238.147 64.3611 237.821C63.8851 237.485 63.5257 237.032 63.2831 236.463C63.0497 235.893 62.9331 235.254 62.9331 234.545C62.9331 233.826 63.0544 233.182 63.2971 232.613C63.5397 232.034 63.9084 231.581 64.4031 231.255C64.8977 230.919 65.5231 230.751 66.2791 230.751C66.5591 230.751 66.8391 230.783 67.1191 230.849C67.4084 230.914 67.6744 231.017 67.9171 231.157C68.1691 231.287 68.3837 231.465 68.5611 231.689V228.329H70.0031V238.227H68.6171L68.5611 237.219C68.3931 237.471 68.1831 237.681 67.9311 237.849C67.6884 238.007 67.4177 238.124 67.1191 238.199C66.8204 238.273 66.5124 238.311 66.1951 238.311ZM66.4331 237.023C66.9091 237.023 67.3011 236.906 67.6091 236.673C67.9264 236.439 68.1644 236.131 68.3231 235.749C68.4817 235.366 68.5611 234.951 68.5611 234.503C68.5611 234.045 68.4817 233.635 68.3231 233.271C68.1737 232.897 67.9404 232.603 67.6231 232.389C67.3151 232.165 66.9184 232.053 66.4331 232.053C65.9291 232.053 65.5277 232.169 65.2291 232.403C64.9304 232.627 64.7111 232.93 64.5711 233.313C64.4404 233.695 64.3751 234.115 64.3751 234.573C64.3751 234.909 64.4124 235.226 64.4871 235.525C64.5617 235.814 64.6784 236.075 64.8371 236.309C65.0051 236.533 65.2197 236.71 65.4811 236.841C65.7424 236.962 66.0597 237.023 66.4331 237.023ZM74.7536 238.311C74.0163 238.311 73.405 238.147 72.9196 237.821C72.4436 237.485 72.0843 237.032 71.8416 236.463C71.6083 235.893 71.4916 235.254 71.4916 234.545C71.4916 233.826 71.613 233.182 71.8556 232.613C72.0983 232.034 72.467 231.581 72.9616 231.255C73.4563 230.919 74.0816 230.751 74.8376 230.751C75.1176 230.751 75.3976 230.783 75.6776 230.849C75.967 230.914 76.233 231.017 76.4756 231.157C76.7276 231.287 76.9423 231.465 77.1196 231.689V228.329H78.5616V238.227H77.1756L77.1196 237.219C76.9516 237.471 76.7416 237.681 76.4896 237.849C76.247 238.007 75.9763 238.124 75.6776 238.199C75.379 238.273 75.071 238.311 74.7536 238.311ZM74.9916 237.023C75.4676 237.023 75.8596 236.906 76.1676 236.673C76.485 236.439 76.723 236.131 76.8816 235.749C77.0403 235.366 77.1196 234.951 77.1196 234.503C77.1196 234.045 77.0403 233.635 76.8816 233.271C76.7323 232.897 76.499 232.603 76.1816 232.389C75.8736 232.165 75.477 232.053 74.9916 232.053C74.4876 232.053 74.0863 232.169 73.7876 232.403C73.489 232.627 73.2696 232.93 73.1296 233.313C72.999 233.695 72.9336 234.115 72.9336 234.573C72.9336 234.909 72.971 235.226 73.0456 235.525C73.1203 235.814 73.237 236.075 73.3956 236.309C73.5636 236.533 73.7783 236.71 74.0396 236.841C74.301 236.962 74.6183 237.023 74.9916 237.023ZM87.42 241.559C86.8507 241.559 86.3 241.479 85.768 241.321C85.236 241.171 84.7507 240.905 84.312 240.523L84.886 239.375C85.222 239.645 85.5907 239.86 85.992 240.019C86.4027 240.177 86.8367 240.257 87.294 240.257C88.05 240.257 88.596 240.051 88.932 239.641C89.268 239.23 89.436 238.693 89.436 238.031V237.317C89.268 237.55 89.058 237.746 88.806 237.905C88.5634 238.054 88.2927 238.161 87.994 238.227C87.6954 238.301 87.392 238.339 87.084 238.339C86.3654 238.339 85.7914 238.194 85.362 237.905C84.942 237.606 84.6387 237.2 84.452 236.687C84.2747 236.173 84.186 235.581 84.186 234.909V230.849H85.642V234.559C85.642 234.857 85.6607 235.156 85.698 235.455C85.7354 235.753 85.8147 236.024 85.936 236.267C86.0574 236.5 86.2347 236.691 86.468 236.841C86.7014 236.981 87.0187 237.051 87.42 237.051C87.924 237.051 88.3207 236.929 88.61 236.687C88.8994 236.435 89.1047 236.108 89.226 235.707C89.3474 235.296 89.408 234.853 89.408 234.377V230.849H90.85V237.877C90.85 238.455 90.78 238.973 90.64 239.431C90.5094 239.888 90.2994 240.275 90.01 240.593C89.73 240.91 89.3754 241.148 88.946 241.307C88.526 241.475 88.0174 241.559 87.42 241.559ZM95.8976 238.311C95.1323 238.311 94.4836 238.157 93.9516 237.849C93.4196 237.531 93.0136 237.088 92.7336 236.519C92.4629 235.949 92.3276 235.291 92.3276 234.545C92.3276 233.789 92.4676 233.131 92.7476 232.571C93.0276 232.001 93.4336 231.558 93.9656 231.241C94.4976 230.914 95.1463 230.751 95.9116 230.751C96.6769 230.751 97.3256 230.914 97.8576 231.241C98.3896 231.558 98.7909 232.001 99.0616 232.571C99.3323 233.14 99.4676 233.803 99.4676 234.559C99.4676 235.296 99.3276 235.949 99.0476 236.519C98.7769 237.088 98.3756 237.531 97.8436 237.849C97.3209 238.157 96.6723 238.311 95.8976 238.311ZM95.8976 237.023C96.4016 237.023 96.8076 236.911 97.1156 236.687C97.4329 236.463 97.6663 236.164 97.8156 235.791C97.9649 235.408 98.0396 234.993 98.0396 234.545C98.0396 234.097 97.9649 233.686 97.8156 233.313C97.6663 232.939 97.4329 232.641 97.1156 232.417C96.8076 232.183 96.4016 232.067 95.8976 232.067C95.4029 232.067 94.9969 232.183 94.6796 232.417C94.3623 232.641 94.1289 232.939 93.9796 233.313C93.8396 233.686 93.7696 234.097 93.7696 234.545C93.7696 235.002 93.8396 235.417 93.9796 235.791C94.1289 236.164 94.3623 236.463 94.6796 236.687C94.9969 236.911 95.4029 237.023 95.8976 237.023ZM104.111 238.311C103.075 238.311 102.282 238.04 101.731 237.499C101.19 236.948 100.919 236.113 100.919 234.993V230.849H102.361V234.909C102.361 235.347 102.422 235.725 102.543 236.043C102.674 236.36 102.87 236.603 103.131 236.771C103.393 236.939 103.724 237.023 104.125 237.023C104.545 237.023 104.881 236.939 105.133 236.771C105.395 236.593 105.581 236.346 105.693 236.029C105.815 235.711 105.875 235.338 105.875 234.909V230.849H107.317V234.993C107.317 236.131 107.037 236.971 106.477 237.513C105.927 238.045 105.138 238.311 104.111 238.311ZM109.055 238.227V230.849H110.413L110.483 231.913C110.67 231.623 110.884 231.395 111.127 231.227C111.37 231.059 111.636 230.937 111.925 230.863C112.214 230.788 112.518 230.751 112.835 230.751C112.919 230.751 112.998 230.751 113.073 230.751C113.148 230.751 113.218 230.751 113.283 230.751V232.137H112.835C112.303 232.137 111.86 232.244 111.505 232.459C111.16 232.673 110.903 232.972 110.735 233.355C110.576 233.737 110.497 234.176 110.497 234.671V238.227H109.055ZM118.901 238.227V232.137H117.725V230.849H118.901V230.107C118.901 229.547 118.98 229.094 119.139 228.749C119.307 228.394 119.564 228.133 119.909 227.965C120.264 227.797 120.726 227.713 121.295 227.713H122.261V228.987H121.463C121.174 228.987 120.945 229.038 120.777 229.141C120.618 229.234 120.506 229.379 120.441 229.575C120.376 229.761 120.343 229.99 120.343 230.261V230.849H122.261V232.137H120.343V238.227H118.901ZM123.424 238.227V230.849H124.866V238.227H123.424ZM124.138 229.869C123.858 229.869 123.629 229.785 123.452 229.617C123.284 229.439 123.2 229.215 123.2 228.945C123.2 228.674 123.289 228.455 123.466 228.287C123.643 228.109 123.867 228.021 124.138 228.021C124.39 228.021 124.609 228.109 124.796 228.287C124.992 228.455 125.09 228.674 125.09 228.945C125.09 229.215 124.997 229.439 124.81 229.617C124.633 229.785 124.409 229.869 124.138 229.869ZM126.651 238.227V230.849H128.009L128.079 231.913C128.265 231.623 128.48 231.395 128.723 231.227C128.965 231.059 129.231 230.937 129.521 230.863C129.81 230.788 130.113 230.751 130.431 230.751C130.515 230.751 130.594 230.751 130.669 230.751C130.743 230.751 130.813 230.751 130.879 230.751V232.137H130.431C129.899 232.137 129.455 232.244 129.101 232.459C128.755 232.673 128.499 232.972 128.331 233.355C128.172 233.737 128.093 234.176 128.093 234.671V238.227H126.651ZM134.59 238.311C134.245 238.311 133.9 238.278 133.554 238.213C133.209 238.147 132.887 238.031 132.588 237.863C132.29 237.695 132.038 237.471 131.832 237.191C131.627 236.901 131.496 236.547 131.44 236.127H132.91C132.985 236.351 133.116 236.533 133.302 236.673C133.498 236.813 133.713 236.915 133.946 236.981C134.189 237.046 134.427 237.079 134.66 237.079C134.8 237.079 134.954 237.069 135.122 237.051C135.3 237.032 135.468 236.99 135.626 236.925C135.785 236.859 135.916 236.766 136.018 236.645C136.121 236.514 136.172 236.341 136.172 236.127C136.172 235.959 136.126 235.819 136.032 235.707C135.948 235.595 135.827 235.506 135.668 235.441C135.519 235.366 135.337 235.31 135.122 235.273C134.702 235.179 134.25 235.091 133.764 235.007C133.288 234.913 132.868 234.755 132.504 234.531C132.374 234.447 132.257 234.353 132.154 234.251C132.052 234.139 131.963 234.013 131.888 233.873C131.814 233.733 131.758 233.583 131.72 233.425C131.683 233.266 131.664 233.093 131.664 232.907C131.664 232.524 131.739 232.197 131.888 231.927C132.047 231.656 132.262 231.437 132.532 231.269C132.803 231.091 133.111 230.961 133.456 230.877C133.802 230.793 134.166 230.751 134.548 230.751C135.043 230.751 135.491 230.83 135.892 230.989C136.294 231.147 136.625 231.381 136.886 231.689C137.148 231.997 137.302 232.384 137.348 232.851H135.99C135.934 232.599 135.771 232.398 135.5 232.249C135.239 232.09 134.908 232.011 134.506 232.011C134.366 232.011 134.212 232.02 134.044 232.039C133.886 232.057 133.732 232.099 133.582 232.165C133.433 232.23 133.312 232.323 133.218 232.445C133.125 232.557 133.078 232.706 133.078 232.893C133.078 233.07 133.12 233.219 133.204 233.341C133.298 233.462 133.428 233.56 133.596 233.635C133.774 233.709 133.974 233.77 134.198 233.817C134.516 233.891 134.856 233.961 135.22 234.027C135.594 234.092 135.897 234.162 136.13 234.237C136.438 234.321 136.7 234.442 136.914 234.601C137.138 234.759 137.306 234.96 137.418 235.203C137.54 235.445 137.6 235.739 137.6 236.085C137.6 236.533 137.512 236.901 137.334 237.191C137.157 237.471 136.919 237.695 136.62 237.863C136.331 238.031 136.004 238.147 135.64 238.213C135.286 238.278 134.936 238.311 134.59 238.311ZM141.825 238.311C141.032 238.311 140.462 238.096 140.117 237.667C139.781 237.228 139.613 236.617 139.613 235.833V232.137H138.437V230.849H139.613V228.707H141.055V230.849H143.309V232.137H141.055V235.595C141.055 235.856 141.078 236.094 141.125 236.309C141.181 236.523 141.284 236.691 141.433 236.813C141.582 236.934 141.797 236.999 142.077 237.009C142.292 237.009 142.478 236.971 142.637 236.897C142.805 236.822 142.94 236.738 143.043 236.645L143.603 237.723C143.426 237.863 143.239 237.979 143.043 238.073C142.856 238.157 142.66 238.217 142.455 238.255C142.25 238.292 142.04 238.311 141.825 238.311ZM150.837 238.311C150.501 238.311 150.174 238.269 149.857 238.185C149.549 238.091 149.273 237.956 149.031 237.779C148.788 237.592 148.592 237.363 148.443 237.093C148.303 236.813 148.233 236.486 148.233 236.113C148.233 235.665 148.317 235.296 148.485 235.007C148.662 234.708 148.895 234.479 149.185 234.321C149.474 234.153 149.805 234.036 150.179 233.971C150.561 233.896 150.958 233.859 151.369 233.859H153.175C153.175 233.495 153.119 233.177 153.007 232.907C152.895 232.627 152.717 232.412 152.475 232.263C152.241 232.104 151.929 232.025 151.537 232.025C151.303 232.025 151.079 232.053 150.865 232.109C150.659 232.155 150.482 232.235 150.333 232.347C150.183 232.459 150.081 232.608 150.025 232.795H148.513C148.569 232.44 148.695 232.137 148.891 231.885C149.087 231.623 149.329 231.409 149.619 231.241C149.908 231.073 150.216 230.951 150.543 230.877C150.879 230.793 151.219 230.751 151.565 230.751C152.629 230.751 153.394 231.063 153.861 231.689C154.337 232.305 154.575 233.154 154.575 234.237V238.227H153.329L153.273 237.289C153.058 237.578 152.801 237.797 152.503 237.947C152.213 238.096 151.924 238.194 151.635 238.241C151.345 238.287 151.079 238.311 150.837 238.311ZM151.061 237.093C151.481 237.093 151.849 237.023 152.167 236.883C152.484 236.733 152.731 236.523 152.909 236.253C153.086 235.973 153.175 235.646 153.175 235.273V234.965H151.859C151.588 234.965 151.322 234.974 151.061 234.993C150.809 235.002 150.575 235.039 150.361 235.105C150.155 235.161 149.987 235.259 149.857 235.399C149.735 235.539 149.675 235.739 149.675 236.001C149.675 236.253 149.74 236.458 149.871 236.617C150.001 236.775 150.174 236.897 150.389 236.981C150.603 237.055 150.827 237.093 151.061 237.093ZM159.287 238.311C158.55 238.311 157.938 238.147 157.453 237.821C156.977 237.485 156.618 237.032 156.375 236.463C156.142 235.893 156.025 235.254 156.025 234.545C156.025 233.826 156.146 233.182 156.389 232.613C156.632 232.034 157 231.581 157.495 231.255C157.99 230.919 158.615 230.751 159.371 230.751C159.651 230.751 159.931 230.783 160.211 230.849C160.5 230.914 160.766 231.017 161.009 231.157C161.261 231.287 161.476 231.465 161.653 231.689V228.329H163.095V238.227H161.709L161.653 237.219C161.485 237.471 161.275 237.681 161.023 237.849C160.78 238.007 160.51 238.124 160.211 238.199C159.912 238.273 159.604 238.311 159.287 238.311ZM159.525 237.023C160.001 237.023 160.393 236.906 160.701 236.673C161.018 236.439 161.256 236.131 161.415 235.749C161.574 235.366 161.653 234.951 161.653 234.503C161.653 234.045 161.574 233.635 161.415 233.271C161.266 232.897 161.032 232.603 160.715 232.389C160.407 232.165 160.01 232.053 159.525 232.053C159.021 232.053 158.62 232.169 158.321 232.403C158.022 232.627 157.803 232.93 157.663 233.313C157.532 233.695 157.467 234.115 157.467 234.573C157.467 234.909 157.504 235.226 157.579 235.525C157.654 235.814 157.77 236.075 157.929 236.309C158.097 236.533 158.312 236.71 158.573 236.841C158.834 236.962 159.152 237.023 159.525 237.023ZM167.845 238.311C167.108 238.311 166.497 238.147 166.011 237.821C165.535 237.485 165.176 237.032 164.933 236.463C164.7 235.893 164.583 235.254 164.583 234.545C164.583 233.826 164.705 233.182 164.947 232.613C165.19 232.034 165.559 231.581 166.053 231.255C166.548 230.919 167.173 230.751 167.929 230.751C168.209 230.751 168.489 230.783 168.769 230.849C169.059 230.914 169.325 231.017 169.567 231.157C169.819 231.287 170.034 231.465 170.211 231.689V228.329H171.653V238.227H170.267L170.211 237.219C170.043 237.471 169.833 237.681 169.581 237.849C169.339 238.007 169.068 238.124 168.769 238.199C168.471 238.273 168.163 238.311 167.845 238.311ZM168.083 237.023C168.559 237.023 168.951 236.906 169.259 236.673C169.577 236.439 169.815 236.131 169.973 235.749C170.132 235.366 170.211 234.951 170.211 234.503C170.211 234.045 170.132 233.635 169.973 233.271C169.824 232.897 169.591 232.603 169.273 232.389C168.965 232.165 168.569 232.053 168.083 232.053C167.579 232.053 167.178 232.169 166.879 232.403C166.581 232.627 166.361 232.93 166.221 233.313C166.091 233.695 166.025 234.115 166.025 234.573C166.025 234.909 166.063 235.226 166.137 235.525C166.212 235.814 166.329 236.075 166.487 236.309C166.655 236.533 166.87 236.71 167.131 236.841C167.393 236.962 167.71 237.023 168.083 237.023ZM173.422 238.227V230.849H174.78L174.85 231.913C175.037 231.623 175.251 231.395 175.494 231.227C175.737 231.059 176.003 230.937 176.292 230.863C176.581 230.788 176.885 230.751 177.202 230.751C177.286 230.751 177.365 230.751 177.44 230.751C177.515 230.751 177.585 230.751 177.65 230.751V232.137H177.202C176.67 232.137 176.227 232.244 175.872 232.459C175.527 232.673 175.27 232.972 175.102 233.355C174.943 233.737 174.864 234.176 174.864 234.671V238.227H173.422ZM181.852 238.311C181.077 238.311 180.428 238.152 179.906 237.835C179.383 237.517 178.986 237.079 178.716 236.519C178.454 235.949 178.324 235.296 178.324 234.559C178.324 233.812 178.459 233.154 178.73 232.585C179.01 232.015 179.411 231.567 179.934 231.241C180.466 230.914 181.105 230.751 181.852 230.751C182.421 230.751 182.916 230.858 183.336 231.073C183.756 231.278 184.101 231.558 184.372 231.913C184.652 232.267 184.857 232.664 184.988 233.103C185.118 233.532 185.174 233.98 185.156 234.447C185.156 234.549 185.151 234.647 185.142 234.741C185.132 234.834 185.123 234.932 185.114 235.035H179.78C179.808 235.408 179.901 235.749 180.06 236.057C180.228 236.365 180.461 236.612 180.76 236.799C181.058 236.976 181.427 237.065 181.866 237.065C182.108 237.065 182.342 237.037 182.566 236.981C182.799 236.915 183.004 236.817 183.182 236.687C183.368 236.547 183.499 236.369 183.574 236.155H185.03C184.908 236.649 184.689 237.06 184.372 237.387C184.064 237.704 183.686 237.937 183.238 238.087C182.799 238.236 182.337 238.311 181.852 238.311ZM179.808 233.887H183.728C183.718 233.523 183.634 233.201 183.476 232.921C183.317 232.631 183.098 232.407 182.818 232.249C182.538 232.081 182.202 231.997 181.81 231.997C181.38 231.997 181.021 232.085 180.732 232.263C180.452 232.44 180.232 232.673 180.074 232.963C179.924 233.243 179.836 233.551 179.808 233.887ZM189.401 238.311C189.055 238.311 188.71 238.278 188.365 238.213C188.019 238.147 187.697 238.031 187.399 237.863C187.1 237.695 186.848 237.471 186.643 237.191C186.437 236.901 186.307 236.547 186.251 236.127H187.721C187.795 236.351 187.926 236.533 188.113 236.673C188.309 236.813 188.523 236.915 188.757 236.981C188.999 237.046 189.237 237.079 189.471 237.079C189.611 237.079 189.765 237.069 189.933 237.051C190.11 237.032 190.278 236.99 190.437 236.925C190.595 236.859 190.726 236.766 190.829 236.645C190.931 236.514 190.983 236.341 190.983 236.127C190.983 235.959 190.936 235.819 190.843 235.707C190.759 235.595 190.637 235.506 190.479 235.441C190.329 235.366 190.147 235.31 189.933 235.273C189.513 235.179 189.06 235.091 188.575 235.007C188.099 234.913 187.679 234.755 187.315 234.531C187.184 234.447 187.067 234.353 186.965 234.251C186.862 234.139 186.773 234.013 186.699 233.873C186.624 233.733 186.568 233.583 186.531 233.425C186.493 233.266 186.475 233.093 186.475 232.907C186.475 232.524 186.549 232.197 186.699 231.927C186.857 231.656 187.072 231.437 187.343 231.269C187.613 231.091 187.921 230.961 188.267 230.877C188.612 230.793 188.976 230.751 189.359 230.751C189.853 230.751 190.301 230.83 190.703 230.989C191.104 231.147 191.435 231.381 191.697 231.689C191.958 231.997 192.112 232.384 192.159 232.851H190.801C190.745 232.599 190.581 232.398 190.311 232.249C190.049 232.09 189.718 232.011 189.317 232.011C189.177 232.011 189.023 232.02 188.855 232.039C188.696 232.057 188.542 232.099 188.393 232.165C188.243 232.23 188.122 232.323 188.029 232.445C187.935 232.557 187.889 232.706 187.889 232.893C187.889 233.07 187.931 233.219 188.015 233.341C188.108 233.462 188.239 233.56 188.407 233.635C188.584 233.709 188.785 233.77 189.009 233.817C189.326 233.891 189.667 233.961 190.031 234.027C190.404 234.092 190.707 234.162 190.941 234.237C191.249 234.321 191.51 234.442 191.725 234.601C191.949 234.759 192.117 234.96 192.229 235.203C192.35 235.445 192.411 235.739 192.411 236.085C192.411 236.533 192.322 236.901 192.145 237.191C191.967 237.471 191.729 237.695 191.431 237.863C191.141 238.031 190.815 238.147 190.451 238.213C190.096 238.278 189.746 238.311 189.401 238.311ZM196.537 238.311C196.192 238.311 195.847 238.278 195.501 238.213C195.156 238.147 194.834 238.031 194.535 237.863C194.237 237.695 193.985 237.471 193.779 237.191C193.574 236.901 193.443 236.547 193.387 236.127H194.857C194.932 236.351 195.063 236.533 195.249 236.673C195.445 236.813 195.66 236.915 195.893 236.981C196.136 237.046 196.374 237.079 196.607 237.079C196.747 237.079 196.901 237.069 197.069 237.051C197.247 237.032 197.415 236.99 197.573 236.925C197.732 236.859 197.863 236.766 197.965 236.645C198.068 236.514 198.119 236.341 198.119 236.127C198.119 235.959 198.073 235.819 197.979 235.707C197.895 235.595 197.774 235.506 197.615 235.441C197.466 235.366 197.284 235.31 197.069 235.273C196.649 235.179 196.197 235.091 195.711 235.007C195.235 234.913 194.815 234.755 194.451 234.531C194.321 234.447 194.204 234.353 194.101 234.251C193.999 234.139 193.91 234.013 193.835 233.873C193.761 233.733 193.705 233.583 193.667 233.425C193.63 233.266 193.611 233.093 193.611 232.907C193.611 232.524 193.686 232.197 193.835 231.927C193.994 231.656 194.209 231.437 194.479 231.269C194.75 231.091 195.058 230.961 195.403 230.877C195.749 230.793 196.113 230.751 196.495 230.751C196.99 230.751 197.438 230.83 197.839 230.989C198.241 231.147 198.572 231.381 198.833 231.689C199.095 231.997 199.249 232.384 199.295 232.851H197.937C197.881 232.599 197.718 232.398 197.447 232.249C197.186 232.09 196.855 232.011 196.453 232.011C196.313 232.011 196.159 232.02 195.991 232.039C195.833 232.057 195.679 232.099 195.529 232.165C195.38 232.23 195.259 232.323 195.165 232.445C195.072 232.557 195.025 232.706 195.025 232.893C195.025 233.07 195.067 233.219 195.151 233.341C195.245 233.462 195.375 233.56 195.543 233.635C195.721 233.709 195.921 233.77 196.145 233.817C196.463 233.891 196.803 233.961 197.167 234.027C197.541 234.092 197.844 234.162 198.077 234.237C198.385 234.321 198.647 234.442 198.861 234.601C199.085 234.759 199.253 234.96 199.365 235.203C199.487 235.445 199.547 235.739 199.547 236.085C199.547 236.533 199.459 236.901 199.281 237.191C199.104 237.471 198.866 237.695 198.567 237.863C198.278 238.031 197.951 238.147 197.587 238.213C197.233 238.278 196.883 238.311 196.537 238.311ZM207.614 238.311C206.821 238.311 206.251 238.096 205.906 237.667C205.57 237.228 205.402 236.617 205.402 235.833V232.137H204.226V230.849H205.402V228.707H206.844V230.849H209.098V232.137H206.844V235.595C206.844 235.856 206.867 236.094 206.914 236.309C206.97 236.523 207.073 236.691 207.222 236.813C207.371 236.934 207.586 236.999 207.866 237.009C208.081 237.009 208.267 236.971 208.426 236.897C208.594 236.822 208.729 236.738 208.832 236.645L209.392 237.723C209.215 237.863 209.028 237.979 208.832 238.073C208.645 238.157 208.449 238.217 208.244 238.255C208.039 238.292 207.829 238.311 207.614 238.311ZM213.722 238.311C212.956 238.311 212.308 238.157 211.776 237.849C211.244 237.531 210.838 237.088 210.558 236.519C210.287 235.949 210.152 235.291 210.152 234.545C210.152 233.789 210.292 233.131 210.572 232.571C210.852 232.001 211.258 231.558 211.79 231.241C212.322 230.914 212.97 230.751 213.736 230.751C214.501 230.751 215.15 230.914 215.682 231.241C216.214 231.558 216.615 232.001 216.886 232.571C217.156 233.14 217.292 233.803 217.292 234.559C217.292 235.296 217.152 235.949 216.872 236.519C216.601 237.088 216.2 237.531 215.668 237.849C215.145 238.157 214.496 238.311 213.722 238.311ZM213.722 237.023C214.226 237.023 214.632 236.911 214.94 236.687C215.257 236.463 215.49 236.164 215.64 235.791C215.789 235.408 215.864 234.993 215.864 234.545C215.864 234.097 215.789 233.686 215.64 233.313C215.49 232.939 215.257 232.641 214.94 232.417C214.632 232.183 214.226 232.067 213.722 232.067C213.227 232.067 212.821 232.183 212.504 232.417C212.186 232.641 211.953 232.939 211.804 233.313C211.664 233.686 211.594 234.097 211.594 234.545C211.594 235.002 211.664 235.417 211.804 235.791C211.953 236.164 212.186 236.463 212.504 236.687C212.821 236.911 213.227 237.023 213.722 237.023ZM222.613 238.227V230.849H223.971L224.055 231.717C224.223 231.474 224.41 231.287 224.615 231.157C224.83 231.017 225.059 230.914 225.301 230.849C225.544 230.783 225.791 230.751 226.043 230.751C226.538 230.751 226.944 230.853 227.261 231.059C227.588 231.264 227.84 231.544 228.017 231.899C228.195 231.647 228.395 231.437 228.619 231.269C228.843 231.091 229.091 230.961 229.361 230.877C229.632 230.793 229.921 230.751 230.229 230.751C230.78 230.751 231.223 230.872 231.559 231.115C231.905 231.348 232.152 231.665 232.301 232.067C232.46 232.468 232.539 232.93 232.539 233.453V238.227H231.083V234.027C231.083 233.803 231.074 233.579 231.055 233.355C231.037 233.131 230.981 232.921 230.887 232.725C230.803 232.519 230.677 232.356 230.509 232.235C230.351 232.104 230.122 232.039 229.823 232.039C229.534 232.039 229.291 232.104 229.095 232.235C228.909 232.365 228.755 232.543 228.633 232.767C228.521 232.981 228.437 233.215 228.381 233.467C228.335 233.719 228.311 233.971 228.311 234.223V238.227H226.855V234.013C226.855 233.798 226.846 233.579 226.827 233.355C226.809 233.131 226.762 232.921 226.687 232.725C226.613 232.519 226.487 232.356 226.309 232.235C226.141 232.104 225.913 232.039 225.623 232.039C225.203 232.039 224.877 232.16 224.643 232.403C224.419 232.636 224.265 232.925 224.181 233.271C224.097 233.607 224.055 233.929 224.055 234.237V238.227H222.613ZM236.587 238.311C236.251 238.311 235.924 238.269 235.607 238.185C235.299 238.091 235.023 237.956 234.781 237.779C234.538 237.592 234.342 237.363 234.193 237.093C234.053 236.813 233.983 236.486 233.983 236.113C233.983 235.665 234.067 235.296 234.235 235.007C234.412 234.708 234.645 234.479 234.935 234.321C235.224 234.153 235.555 234.036 235.929 233.971C236.311 233.896 236.708 233.859 237.119 233.859H238.925C238.925 233.495 238.869 233.177 238.757 232.907C238.645 232.627 238.467 232.412 238.225 232.263C237.991 232.104 237.679 232.025 237.287 232.025C237.053 232.025 236.829 232.053 236.615 232.109C236.409 232.155 236.232 232.235 236.083 232.347C235.933 232.459 235.831 232.608 235.775 232.795H234.263C234.319 232.44 234.445 232.137 234.641 231.885C234.837 231.623 235.079 231.409 235.369 231.241C235.658 231.073 235.966 230.951 236.293 230.877C236.629 230.793 236.969 230.751 237.315 230.751C238.379 230.751 239.144 231.063 239.611 231.689C240.087 232.305 240.325 233.154 240.325 234.237V238.227H239.079L239.023 237.289C238.808 237.578 238.551 237.797 238.253 237.947C237.963 238.096 237.674 238.194 237.385 238.241C237.095 238.287 236.829 238.311 236.587 238.311ZM236.811 237.093C237.231 237.093 237.599 237.023 237.917 236.883C238.234 236.733 238.481 236.523 238.659 236.253C238.836 235.973 238.925 235.646 238.925 235.273V234.965H237.609C237.338 234.965 237.072 234.974 236.811 234.993C236.559 235.002 236.325 235.039 236.111 235.105C235.905 235.161 235.737 235.259 235.607 235.399C235.485 235.539 235.425 235.739 235.425 236.001C235.425 236.253 235.49 236.458 235.621 236.617C235.751 236.775 235.924 236.897 236.139 236.981C236.353 237.055 236.577 237.093 236.811 237.093ZM242.055 238.227V228.329H243.497V233.915H244.687L246.759 230.849H248.383L245.961 234.363L248.593 238.227H246.899L244.799 235.189H243.497V238.227H242.055ZM252.768 238.311C251.993 238.311 251.344 238.152 250.822 237.835C250.299 237.517 249.902 237.079 249.632 236.519C249.37 235.949 249.24 235.296 249.24 234.559C249.24 233.812 249.375 233.154 249.646 232.585C249.926 232.015 250.327 231.567 250.85 231.241C251.382 230.914 252.021 230.751 252.768 230.751C253.337 230.751 253.832 230.858 254.252 231.073C254.672 231.278 255.017 231.558 255.288 231.913C255.568 232.267 255.773 232.664 255.904 233.103C256.034 233.532 256.09 233.98 256.072 234.447C256.072 234.549 256.067 234.647 256.058 234.741C256.048 234.834 256.039 234.932 256.03 235.035H250.696C250.724 235.408 250.817 235.749 250.976 236.057C251.144 236.365 251.377 236.612 251.676 236.799C251.974 236.976 252.343 237.065 252.782 237.065C253.024 237.065 253.258 237.037 253.482 236.981C253.715 236.915 253.92 236.817 254.098 236.687C254.284 236.547 254.415 236.369 254.49 236.155H255.946C255.824 236.649 255.605 237.06 255.288 237.387C254.98 237.704 254.602 237.937 254.154 238.087C253.715 238.236 253.253 238.311 252.768 238.311ZM250.724 233.887H254.644C254.634 233.523 254.55 233.201 254.392 232.921C254.233 232.631 254.014 232.407 253.734 232.249C253.454 232.081 253.118 231.997 252.726 231.997C252.296 231.997 251.937 232.085 251.648 232.263C251.368 232.44 251.148 232.673 250.99 232.963C250.84 233.243 250.752 233.551 250.724 233.887ZM264.691 238.311C263.925 238.311 263.277 238.157 262.745 237.849C262.213 237.531 261.807 237.088 261.527 236.519C261.256 235.949 261.121 235.291 261.121 234.545C261.121 233.789 261.261 233.131 261.541 232.571C261.821 232.001 262.227 231.558 262.759 231.241C263.291 230.914 263.939 230.751 264.705 230.751C265.47 230.751 266.119 230.914 266.651 231.241C267.183 231.558 267.584 232.001 267.855 232.571C268.125 233.14 268.261 233.803 268.261 234.559C268.261 235.296 268.121 235.949 267.841 236.519C267.57 237.088 267.169 237.531 266.637 237.849C266.114 238.157 265.465 238.311 264.691 238.311ZM264.691 237.023C265.195 237.023 265.601 236.911 265.909 236.687C266.226 236.463 266.459 236.164 266.609 235.791C266.758 235.408 266.833 234.993 266.833 234.545C266.833 234.097 266.758 233.686 266.609 233.313C266.459 232.939 266.226 232.641 265.909 232.417C265.601 232.183 265.195 232.067 264.691 232.067C264.196 232.067 263.79 232.183 263.473 232.417C263.155 232.641 262.922 232.939 262.773 233.313C262.633 233.686 262.563 234.097 262.563 234.545C262.563 235.002 262.633 235.417 262.773 235.791C262.922 236.164 263.155 236.463 263.473 236.687C263.79 236.911 264.196 237.023 264.691 237.023ZM269.74 238.227V230.849H271.098L271.168 231.913C271.355 231.623 271.57 231.395 271.812 231.227C272.055 231.059 272.321 230.937 272.61 230.863C272.9 230.788 273.203 230.751 273.52 230.751C273.604 230.751 273.684 230.751 273.758 230.751C273.833 230.751 273.903 230.751 273.968 230.751V232.137H273.52C272.988 232.137 272.545 232.244 272.19 232.459C271.845 232.673 271.588 232.972 271.42 233.355C271.262 233.737 271.182 234.176 271.182 234.671V238.227H269.74ZM277.904 238.311C277.167 238.311 276.555 238.147 276.07 237.821C275.594 237.485 275.235 237.032 274.992 236.463C274.759 235.893 274.642 235.254 274.642 234.545C274.642 233.826 274.763 233.182 275.006 232.613C275.249 232.034 275.617 231.581 276.112 231.255C276.607 230.919 277.232 230.751 277.988 230.751C278.268 230.751 278.548 230.783 278.828 230.849C279.117 230.914 279.383 231.017 279.626 231.157C279.878 231.287 280.093 231.465 280.27 231.689V228.329H281.712V238.227H280.326L280.27 237.219C280.102 237.471 279.892 237.681 279.64 237.849C279.397 238.007 279.127 238.124 278.828 238.199C278.529 238.273 278.221 238.311 277.904 238.311ZM278.142 237.023C278.618 237.023 279.01 236.906 279.318 236.673C279.635 236.439 279.873 236.131 280.032 235.749C280.191 235.366 280.27 234.951 280.27 234.503C280.27 234.045 280.191 233.635 280.032 233.271C279.883 232.897 279.649 232.603 279.332 232.389C279.024 232.165 278.627 232.053 278.142 232.053C277.638 232.053 277.237 232.169 276.938 232.403C276.639 232.627 276.42 232.93 276.28 233.313C276.149 233.695 276.084 234.115 276.084 234.573C276.084 234.909 276.121 235.226 276.196 235.525C276.271 235.814 276.387 236.075 276.546 236.309C276.714 236.533 276.929 236.71 277.19 236.841C277.451 236.962 277.769 237.023 278.142 237.023ZM286.729 238.311C285.954 238.311 285.305 238.152 284.783 237.835C284.26 237.517 283.863 237.079 283.593 236.519C283.331 235.949 283.201 235.296 283.201 234.559C283.201 233.812 283.336 233.154 283.607 232.585C283.887 232.015 284.288 231.567 284.811 231.241C285.343 230.914 285.982 230.751 286.729 230.751C287.298 230.751 287.793 230.858 288.213 231.073C288.633 231.278 288.978 231.558 289.249 231.913C289.529 232.267 289.734 232.664 289.865 233.103C289.995 233.532 290.051 233.98 290.033 234.447C290.033 234.549 290.028 234.647 290.019 234.741C290.009 234.834 290 234.932 289.991 235.035H284.657C284.685 235.408 284.778 235.749 284.937 236.057C285.105 236.365 285.338 236.612 285.637 236.799C285.935 236.976 286.304 237.065 286.743 237.065C286.985 237.065 287.219 237.037 287.443 236.981C287.676 236.915 287.881 236.817 288.059 236.687C288.245 236.547 288.376 236.369 288.451 236.155H289.907C289.785 236.649 289.566 237.06 289.249 237.387C288.941 237.704 288.563 237.937 288.115 238.087C287.676 238.236 287.214 238.311 286.729 238.311ZM284.685 233.887H288.605C288.595 233.523 288.511 233.201 288.353 232.921C288.194 232.631 287.975 232.407 287.695 232.249C287.415 232.081 287.079 231.997 286.687 231.997C286.257 231.997 285.898 232.085 285.609 232.263C285.329 232.44 285.109 232.673 284.951 232.963C284.801 233.243 284.713 233.551 284.685 233.887ZM291.52 238.227V230.849H292.878L292.948 231.913C293.134 231.623 293.349 231.395 293.592 231.227C293.834 231.059 294.1 230.937 294.39 230.863C294.679 230.788 294.982 230.751 295.3 230.751C295.384 230.751 295.463 230.751 295.538 230.751C295.612 230.751 295.682 230.751 295.748 230.751V232.137H295.3C294.768 232.137 294.324 232.244 293.97 232.459C293.624 232.673 293.368 232.972 293.2 233.355C293.041 233.737 292.962 234.176 292.962 234.671V238.227H291.52ZM296.838 238.227V230.849H298.28V238.227H296.838ZM297.552 229.869C297.272 229.869 297.043 229.785 296.866 229.617C296.698 229.439 296.614 229.215 296.614 228.945C296.614 228.674 296.703 228.455 296.88 228.287C297.057 228.109 297.281 228.021 297.552 228.021C297.804 228.021 298.023 228.109 298.21 228.287C298.406 228.455 298.504 228.674 298.504 228.945C298.504 229.215 298.411 229.439 298.224 229.617C298.047 229.785 297.823 229.869 297.552 229.869ZM300.065 238.227V230.849H301.437L301.507 231.885C301.693 231.614 301.917 231.399 302.179 231.241C302.44 231.073 302.72 230.951 303.019 230.877C303.317 230.793 303.607 230.751 303.887 230.751C304.596 230.751 305.151 230.905 305.553 231.213C305.963 231.511 306.253 231.917 306.421 232.431C306.598 232.935 306.687 233.509 306.687 234.153V238.227H305.231V234.447C305.231 234.148 305.212 233.854 305.175 233.565C305.137 233.275 305.058 233.019 304.937 232.795C304.825 232.561 304.661 232.379 304.447 232.249C304.232 232.109 303.943 232.039 303.579 232.039C303.131 232.039 302.753 232.16 302.445 232.403C302.137 232.645 301.903 232.972 301.745 233.383C301.586 233.793 301.507 234.255 301.507 234.769V238.227H300.065ZM311.722 241.573C311.2 241.573 310.714 241.489 310.266 241.321C309.818 241.162 309.436 240.905 309.118 240.551C308.81 240.205 308.6 239.762 308.488 239.221H309.986C310.052 239.473 310.178 239.673 310.364 239.823C310.551 239.981 310.77 240.093 311.022 240.159C311.274 240.224 311.526 240.257 311.778 240.257C312.254 240.257 312.637 240.159 312.926 239.963C313.216 239.767 313.421 239.501 313.542 239.165C313.673 238.838 313.738 238.465 313.738 238.045V237.191C313.58 237.461 313.37 237.681 313.108 237.849C312.847 238.017 312.567 238.138 312.268 238.213C311.979 238.278 311.68 238.311 311.372 238.311C310.616 238.311 310 238.143 309.524 237.807C309.048 237.471 308.694 237.023 308.46 236.463C308.236 235.893 308.124 235.263 308.124 234.573C308.124 233.863 308.241 233.219 308.474 232.641C308.717 232.062 309.086 231.605 309.58 231.269C310.075 230.923 310.7 230.751 311.456 230.751C311.895 230.751 312.32 230.83 312.73 230.989C313.141 231.138 313.482 231.381 313.752 231.717L313.836 230.849H315.194V237.877C315.194 238.633 315.073 239.286 314.83 239.837C314.588 240.397 314.21 240.826 313.696 241.125C313.183 241.423 312.525 241.573 311.722 241.573ZM311.638 237.023C312.105 237.023 312.492 236.911 312.8 236.687C313.118 236.453 313.356 236.145 313.514 235.763C313.673 235.38 313.752 234.96 313.752 234.503C313.752 234.036 313.673 233.621 313.514 233.257C313.356 232.883 313.122 232.589 312.814 232.375C312.506 232.16 312.11 232.053 311.624 232.053C311.12 232.053 310.719 232.169 310.42 232.403C310.122 232.627 309.902 232.93 309.762 233.313C309.632 233.686 309.566 234.101 309.566 234.559C309.566 235.025 309.636 235.445 309.776 235.819C309.916 236.192 310.136 236.486 310.434 236.701C310.742 236.915 311.144 237.023 311.638 237.023ZM126.988 257.227V251.137H125.812V249.849H126.988V249.107C126.988 248.547 127.067 248.094 127.226 247.749C127.394 247.394 127.651 247.133 127.996 246.965C128.351 246.797 128.813 246.713 129.382 246.713H130.348V247.987H129.55C129.261 247.987 129.032 248.038 128.864 248.141C128.705 248.234 128.593 248.379 128.528 248.575C128.463 248.761 128.43 248.99 128.43 249.261V249.849H130.348V251.137H128.43V257.227H126.988ZM133.863 257.311C133.527 257.311 133.2 257.269 132.883 257.185C132.575 257.091 132.3 256.956 132.057 256.779C131.814 256.592 131.618 256.363 131.469 256.093C131.329 255.813 131.259 255.486 131.259 255.113C131.259 254.665 131.343 254.296 131.511 254.007C131.688 253.708 131.922 253.479 132.211 253.321C132.5 253.153 132.832 253.036 133.205 252.971C133.588 252.896 133.984 252.859 134.395 252.859H136.201C136.201 252.495 136.145 252.177 136.033 251.907C135.921 251.627 135.744 251.412 135.501 251.263C135.268 251.104 134.955 251.025 134.563 251.025C134.33 251.025 134.106 251.053 133.891 251.109C133.686 251.155 133.508 251.235 133.359 251.347C133.21 251.459 133.107 251.608 133.051 251.795H131.539C131.595 251.44 131.721 251.137 131.917 250.885C132.113 250.623 132.356 250.409 132.645 250.241C132.934 250.073 133.242 249.951 133.569 249.877C133.905 249.793 134.246 249.751 134.591 249.751C135.655 249.751 136.42 250.063 136.887 250.689C137.363 251.305 137.601 252.154 137.601 253.237V257.227H136.355L136.299 256.289C136.084 256.578 135.828 256.797 135.529 256.947C135.24 257.096 134.95 257.194 134.661 257.241C134.372 257.287 134.106 257.311 133.863 257.311ZM134.087 256.093C134.507 256.093 134.876 256.023 135.193 255.883C135.51 255.733 135.758 255.523 135.935 255.253C136.112 254.973 136.201 254.646 136.201 254.273V253.965H134.885C134.614 253.965 134.348 253.974 134.087 253.993C133.835 254.002 133.602 254.039 133.387 254.105C133.182 254.161 133.014 254.259 132.883 254.399C132.762 254.539 132.701 254.739 132.701 255.001C132.701 255.253 132.766 255.458 132.897 255.617C133.028 255.775 133.2 255.897 133.415 255.981C133.63 256.055 133.854 256.093 134.087 256.093ZM142.089 257.311C141.744 257.311 141.399 257.278 141.053 257.213C140.708 257.147 140.386 257.031 140.087 256.863C139.789 256.695 139.537 256.471 139.331 256.191C139.126 255.901 138.995 255.547 138.939 255.127H140.409C140.484 255.351 140.615 255.533 140.801 255.673C140.997 255.813 141.212 255.915 141.445 255.981C141.688 256.046 141.926 256.079 142.159 256.079C142.299 256.079 142.453 256.069 142.621 256.051C142.799 256.032 142.967 255.99 143.125 255.925C143.284 255.859 143.415 255.766 143.517 255.645C143.62 255.514 143.671 255.341 143.671 255.127C143.671 254.959 143.625 254.819 143.531 254.707C143.447 254.595 143.326 254.506 143.167 254.441C143.018 254.366 142.836 254.31 142.621 254.273C142.201 254.179 141.749 254.091 141.263 254.007C140.787 253.913 140.367 253.755 140.003 253.531C139.873 253.447 139.756 253.353 139.653 253.251C139.551 253.139 139.462 253.013 139.387 252.873C139.313 252.733 139.257 252.583 139.219 252.425C139.182 252.266 139.163 252.093 139.163 251.907C139.163 251.524 139.238 251.197 139.387 250.927C139.546 250.656 139.761 250.437 140.031 250.269C140.302 250.091 140.61 249.961 140.955 249.877C141.301 249.793 141.665 249.751 142.047 249.751C142.542 249.751 142.99 249.83 143.391 249.989C143.793 250.147 144.124 250.381 144.385 250.689C144.647 250.997 144.801 251.384 144.847 251.851H143.489C143.433 251.599 143.27 251.398 142.999 251.249C142.738 251.09 142.407 251.011 142.005 251.011C141.865 251.011 141.711 251.02 141.543 251.039C141.385 251.057 141.231 251.099 141.081 251.165C140.932 251.23 140.811 251.323 140.717 251.445C140.624 251.557 140.577 251.706 140.577 251.893C140.577 252.07 140.619 252.219 140.703 252.341C140.797 252.462 140.927 252.56 141.095 252.635C141.273 252.709 141.473 252.77 141.697 252.817C142.015 252.891 142.355 252.961 142.719 253.027C143.093 253.092 143.396 253.162 143.629 253.237C143.937 253.321 144.199 253.442 144.413 253.601C144.637 253.759 144.805 253.96 144.917 254.203C145.039 254.445 145.099 254.739 145.099 255.085C145.099 255.533 145.011 255.901 144.833 256.191C144.656 256.471 144.418 256.695 144.119 256.863C143.83 257.031 143.503 257.147 143.139 257.213C142.785 257.278 142.435 257.311 142.089 257.311ZM149.324 257.311C148.531 257.311 147.961 257.096 147.616 256.667C147.28 256.228 147.112 255.617 147.112 254.833V251.137H145.936V249.849H147.112V247.707H148.554V249.849H150.808V251.137H148.554V254.595C148.554 254.856 148.577 255.094 148.624 255.309C148.68 255.523 148.783 255.691 148.932 255.813C149.081 255.934 149.296 255.999 149.576 256.009C149.791 256.009 149.977 255.971 150.136 255.897C150.304 255.822 150.439 255.738 150.542 255.645L151.102 256.723C150.925 256.863 150.738 256.979 150.542 257.073C150.355 257.157 150.159 257.217 149.954 257.255C149.749 257.292 149.539 257.311 149.324 257.311ZM155.39 257.311C154.615 257.311 153.966 257.152 153.444 256.835C152.921 256.517 152.524 256.079 152.254 255.519C151.992 254.949 151.862 254.296 151.862 253.559C151.862 252.812 151.997 252.154 152.268 251.585C152.548 251.015 152.949 250.567 153.472 250.241C154.004 249.914 154.643 249.751 155.39 249.751C155.959 249.751 156.454 249.858 156.874 250.073C157.294 250.278 157.639 250.558 157.91 250.913C158.19 251.267 158.395 251.664 158.526 252.103C158.656 252.532 158.712 252.98 158.694 253.447C158.694 253.549 158.689 253.647 158.68 253.741C158.67 253.834 158.661 253.932 158.652 254.035H153.318C153.346 254.408 153.439 254.749 153.598 255.057C153.766 255.365 153.999 255.612 154.298 255.799C154.596 255.976 154.965 256.065 155.404 256.065C155.646 256.065 155.88 256.037 156.104 255.981C156.337 255.915 156.542 255.817 156.72 255.687C156.906 255.547 157.037 255.369 157.112 255.155H158.568C158.446 255.649 158.227 256.06 157.91 256.387C157.602 256.704 157.224 256.937 156.776 257.087C156.337 257.236 155.875 257.311 155.39 257.311ZM153.346 252.887H157.266C157.256 252.523 157.172 252.201 157.014 251.921C156.855 251.631 156.636 251.407 156.356 251.249C156.076 251.081 155.74 250.997 155.348 250.997C154.918 250.997 154.559 251.085 154.27 251.263C153.99 251.44 153.77 251.673 153.612 251.963C153.462 252.243 153.374 252.551 153.346 252.887ZM160.181 257.227V249.849H161.539L161.609 250.913C161.795 250.623 162.01 250.395 162.253 250.227C162.495 250.059 162.761 249.937 163.051 249.863C163.34 249.788 163.643 249.751 163.961 249.751C164.045 249.751 164.124 249.751 164.199 249.751C164.273 249.751 164.343 249.751 164.409 249.751V251.137H163.961C163.429 251.137 162.985 251.244 162.631 251.459C162.285 251.673 162.029 251.972 161.861 252.355C161.702 252.737 161.623 253.176 161.623 253.671V257.227H160.181ZM171.693 257.311C171.357 257.311 171.03 257.269 170.713 257.185C170.405 257.091 170.13 256.956 169.887 256.779C169.644 256.592 169.448 256.363 169.299 256.093C169.159 255.813 169.089 255.486 169.089 255.113C169.089 254.665 169.173 254.296 169.341 254.007C169.518 253.708 169.752 253.479 170.041 253.321C170.33 253.153 170.662 253.036 171.035 252.971C171.418 252.896 171.814 252.859 172.225 252.859H174.031C174.031 252.495 173.975 252.177 173.863 251.907C173.751 251.627 173.574 251.412 173.331 251.263C173.098 251.104 172.785 251.025 172.393 251.025C172.16 251.025 171.936 251.053 171.721 251.109C171.516 251.155 171.338 251.235 171.189 251.347C171.04 251.459 170.937 251.608 170.881 251.795H169.369C169.425 251.44 169.551 251.137 169.747 250.885C169.943 250.623 170.186 250.409 170.475 250.241C170.764 250.073 171.072 249.951 171.399 249.877C171.735 249.793 172.076 249.751 172.421 249.751C173.485 249.751 174.25 250.063 174.717 250.689C175.193 251.305 175.431 252.154 175.431 253.237V257.227H174.185L174.129 256.289C173.914 256.578 173.658 256.797 173.359 256.947C173.07 257.096 172.78 257.194 172.491 257.241C172.202 257.287 171.936 257.311 171.693 257.311ZM171.917 256.093C172.337 256.093 172.706 256.023 173.023 255.883C173.34 255.733 173.588 255.523 173.765 255.253C173.942 254.973 174.031 254.646 174.031 254.273V253.965H172.715C172.444 253.965 172.178 253.974 171.917 253.993C171.665 254.002 171.432 254.039 171.217 254.105C171.012 254.161 170.844 254.259 170.713 254.399C170.592 254.539 170.531 254.739 170.531 255.001C170.531 255.253 170.596 255.458 170.727 255.617C170.858 255.775 171.03 255.897 171.245 255.981C171.46 256.055 171.684 256.093 171.917 256.093ZM177.161 257.227V249.849H178.533L178.603 250.885C178.79 250.614 179.014 250.399 179.275 250.241C179.537 250.073 179.817 249.951 180.115 249.877C180.414 249.793 180.703 249.751 180.983 249.751C181.693 249.751 182.248 249.905 182.649 250.213C183.06 250.511 183.349 250.917 183.517 251.431C183.695 251.935 183.783 252.509 183.783 253.153V257.227H182.327V253.447C182.327 253.148 182.309 252.854 182.271 252.565C182.234 252.275 182.155 252.019 182.033 251.795C181.921 251.561 181.758 251.379 181.543 251.249C181.329 251.109 181.039 251.039 180.675 251.039C180.227 251.039 179.849 251.16 179.541 251.403C179.233 251.645 179 251.972 178.841 252.383C178.683 252.793 178.603 253.255 178.603 253.769V257.227H177.161ZM188.483 257.311C187.746 257.311 187.134 257.147 186.649 256.821C186.173 256.485 185.814 256.032 185.571 255.463C185.338 254.893 185.221 254.254 185.221 253.545C185.221 252.826 185.342 252.182 185.585 251.613C185.828 251.034 186.196 250.581 186.691 250.255C187.186 249.919 187.811 249.751 188.567 249.751C188.847 249.751 189.127 249.783 189.407 249.849C189.696 249.914 189.962 250.017 190.205 250.157C190.457 250.287 190.672 250.465 190.849 250.689V247.329H192.291V257.227H190.905L190.849 256.219C190.681 256.471 190.471 256.681 190.219 256.849C189.976 257.007 189.706 257.124 189.407 257.199C189.108 257.273 188.8 257.311 188.483 257.311ZM188.721 256.023C189.197 256.023 189.589 255.906 189.897 255.673C190.214 255.439 190.452 255.131 190.611 254.749C190.77 254.366 190.849 253.951 190.849 253.503C190.849 253.045 190.77 252.635 190.611 252.271C190.462 251.897 190.228 251.603 189.911 251.389C189.603 251.165 189.206 251.053 188.721 251.053C188.217 251.053 187.816 251.169 187.517 251.403C187.218 251.627 186.999 251.93 186.859 252.313C186.728 252.695 186.663 253.115 186.663 253.573C186.663 253.909 186.7 254.226 186.775 254.525C186.85 254.814 186.966 255.075 187.125 255.309C187.293 255.533 187.508 255.71 187.769 255.841C188.03 255.962 188.348 256.023 188.721 256.023ZM201.15 257.311C200.375 257.311 199.726 257.152 199.204 256.835C198.681 256.517 198.284 256.079 198.014 255.519C197.752 254.949 197.622 254.296 197.622 253.559C197.622 252.812 197.757 252.154 198.028 251.585C198.308 251.015 198.709 250.567 199.232 250.241C199.764 249.914 200.403 249.751 201.15 249.751C201.719 249.751 202.214 249.858 202.634 250.073C203.054 250.278 203.399 250.558 203.67 250.913C203.95 251.267 204.155 251.664 204.286 252.103C204.416 252.532 204.472 252.98 204.454 253.447C204.454 253.549 204.449 253.647 204.44 253.741C204.43 253.834 204.421 253.932 204.412 254.035H199.078C199.106 254.408 199.199 254.749 199.358 255.057C199.526 255.365 199.759 255.612 200.058 255.799C200.356 255.976 200.725 256.065 201.164 256.065C201.406 256.065 201.64 256.037 201.864 255.981C202.097 255.915 202.302 255.817 202.48 255.687C202.666 255.547 202.797 255.369 202.872 255.155H204.328C204.206 255.649 203.987 256.06 203.67 256.387C203.362 256.704 202.984 256.937 202.536 257.087C202.097 257.236 201.635 257.311 201.15 257.311ZM199.106 252.887H203.026C203.016 252.523 202.932 252.201 202.774 251.921C202.615 251.631 202.396 251.407 202.116 251.249C201.836 251.081 201.5 250.997 201.108 250.997C200.678 250.997 200.319 251.085 200.03 251.263C199.75 251.44 199.53 251.673 199.372 251.963C199.222 252.243 199.134 252.551 199.106 252.887ZM208.293 257.311C207.957 257.311 207.63 257.269 207.313 257.185C207.005 257.091 206.729 256.956 206.487 256.779C206.244 256.592 206.048 256.363 205.899 256.093C205.759 255.813 205.689 255.486 205.689 255.113C205.689 254.665 205.773 254.296 205.941 254.007C206.118 253.708 206.351 253.479 206.641 253.321C206.93 253.153 207.261 253.036 207.635 252.971C208.017 252.896 208.414 252.859 208.825 252.859H210.631C210.631 252.495 210.575 252.177 210.463 251.907C210.351 251.627 210.173 251.412 209.931 251.263C209.697 251.104 209.385 251.025 208.993 251.025C208.759 251.025 208.535 251.053 208.321 251.109C208.115 251.155 207.938 251.235 207.789 251.347C207.639 251.459 207.537 251.608 207.481 251.795H205.969C206.025 251.44 206.151 251.137 206.347 250.885C206.543 250.623 206.785 250.409 207.075 250.241C207.364 250.073 207.672 249.951 207.999 249.877C208.335 249.793 208.675 249.751 209.021 249.751C210.085 249.751 210.85 250.063 211.317 250.689C211.793 251.305 212.031 252.154 212.031 253.237V257.227H210.785L210.729 256.289C210.514 256.578 210.257 256.797 209.959 256.947C209.669 257.096 209.38 257.194 209.091 257.241C208.801 257.287 208.535 257.311 208.293 257.311ZM208.517 256.093C208.937 256.093 209.305 256.023 209.623 255.883C209.94 255.733 210.187 255.523 210.365 255.253C210.542 254.973 210.631 254.646 210.631 254.273V253.965H209.315C209.044 253.965 208.778 253.974 208.517 253.993C208.265 254.002 208.031 254.039 207.817 254.105C207.611 254.161 207.443 254.259 207.313 254.399C207.191 254.539 207.131 254.739 207.131 255.001C207.131 255.253 207.196 255.458 207.327 255.617C207.457 255.775 207.63 255.897 207.845 255.981C208.059 256.055 208.283 256.093 208.517 256.093ZM216.519 257.311C216.174 257.311 215.828 257.278 215.483 257.213C215.138 257.147 214.816 257.031 214.517 256.863C214.218 256.695 213.966 256.471 213.761 256.191C213.556 255.901 213.425 255.547 213.369 255.127H214.839C214.914 255.351 215.044 255.533 215.231 255.673C215.427 255.813 215.642 255.915 215.875 255.981C216.118 256.046 216.356 256.079 216.589 256.079C216.729 256.079 216.883 256.069 217.051 256.051C217.228 256.032 217.396 255.99 217.555 255.925C217.714 255.859 217.844 255.766 217.947 255.645C218.05 255.514 218.101 255.341 218.101 255.127C218.101 254.959 218.054 254.819 217.961 254.707C217.877 254.595 217.756 254.506 217.597 254.441C217.448 254.366 217.266 254.31 217.051 254.273C216.631 254.179 216.178 254.091 215.693 254.007C215.217 253.913 214.797 253.755 214.433 253.531C214.302 253.447 214.186 253.353 214.083 253.251C213.98 253.139 213.892 253.013 213.817 252.873C213.742 252.733 213.686 252.583 213.649 252.425C213.612 252.266 213.593 252.093 213.593 251.907C213.593 251.524 213.668 251.197 213.817 250.927C213.976 250.656 214.19 250.437 214.461 250.269C214.732 250.091 215.04 249.961 215.385 249.877C215.73 249.793 216.094 249.751 216.477 249.751C216.972 249.751 217.42 249.83 217.821 249.989C218.222 250.147 218.554 250.381 218.815 250.689C219.076 250.997 219.23 251.384 219.277 251.851H217.919C217.863 251.599 217.7 251.398 217.429 251.249C217.168 251.09 216.836 251.011 216.435 251.011C216.295 251.011 216.141 251.02 215.973 251.039C215.814 251.057 215.66 251.099 215.511 251.165C215.362 251.23 215.24 251.323 215.147 251.445C215.054 251.557 215.007 251.706 215.007 251.893C215.007 252.07 215.049 252.219 215.133 252.341C215.226 252.462 215.357 252.56 215.525 252.635C215.702 252.709 215.903 252.77 216.127 252.817C216.444 252.891 216.785 252.961 217.149 253.027C217.522 253.092 217.826 253.162 218.059 253.237C218.367 253.321 218.628 253.442 218.843 253.601C219.067 253.759 219.235 253.96 219.347 254.203C219.468 254.445 219.529 254.739 219.529 255.085C219.529 255.533 219.44 255.901 219.263 256.191C219.086 256.471 218.848 256.695 218.549 256.863C218.26 257.031 217.933 257.147 217.569 257.213C217.214 257.278 216.864 257.311 216.519 257.311ZM220.898 257.227V249.849H222.34V257.227H220.898ZM221.612 248.869C221.332 248.869 221.103 248.785 220.926 248.617C220.758 248.439 220.674 248.215 220.674 247.945C220.674 247.674 220.762 247.455 220.94 247.287C221.117 247.109 221.341 247.021 221.612 247.021C221.864 247.021 222.083 247.109 222.27 247.287C222.466 247.455 222.564 247.674 222.564 247.945C222.564 248.215 222.47 248.439 222.284 248.617C222.106 248.785 221.882 248.869 221.612 248.869ZM227.372 257.311C226.598 257.311 225.949 257.152 225.426 256.835C224.904 256.517 224.507 256.079 224.236 255.519C223.975 254.949 223.844 254.296 223.844 253.559C223.844 252.812 223.98 252.154 224.25 251.585C224.53 251.015 224.932 250.567 225.454 250.241C225.986 249.914 226.626 249.751 227.372 249.751C227.942 249.751 228.436 249.858 228.856 250.073C229.276 250.278 229.622 250.558 229.892 250.913C230.172 251.267 230.378 251.664 230.508 252.103C230.639 252.532 230.695 252.98 230.676 253.447C230.676 253.549 230.672 253.647 230.662 253.741C230.653 253.834 230.644 253.932 230.634 254.035H225.3C225.328 254.408 225.422 254.749 225.58 255.057C225.748 255.365 225.982 255.612 226.28 255.799C226.579 255.976 226.948 256.065 227.386 256.065C227.629 256.065 227.862 256.037 228.086 255.981C228.32 255.915 228.525 255.817 228.702 255.687C228.889 255.547 229.02 255.369 229.094 255.155H230.55C230.429 255.649 230.21 256.06 229.892 256.387C229.584 256.704 229.206 256.937 228.758 257.087C228.32 257.236 227.858 257.311 227.372 257.311ZM225.328 252.887H229.248C229.239 252.523 229.155 252.201 228.996 251.921C228.838 251.631 228.618 251.407 228.338 251.249C228.058 251.081 227.722 250.997 227.33 250.997C226.901 250.997 226.542 251.085 226.252 251.263C225.972 251.44 225.753 251.673 225.594 251.963C225.445 252.243 225.356 252.551 225.328 252.887ZM232.163 257.227V249.849H233.521L233.591 250.913C233.778 250.623 233.993 250.395 234.235 250.227C234.478 250.059 234.744 249.937 235.033 249.863C235.323 249.788 235.626 249.751 235.943 249.751C236.027 249.751 236.107 249.751 236.181 249.751C236.256 249.751 236.326 249.751 236.391 249.751V251.137H235.943C235.411 251.137 234.968 251.244 234.613 251.459C234.268 251.673 234.011 251.972 233.843 252.355C233.685 252.737 233.605 253.176 233.605 253.671V257.227H232.163ZM237.75 257.367C237.47 257.367 237.237 257.278 237.05 257.101C236.873 256.923 236.784 256.69 236.784 256.401C236.784 256.111 236.878 255.878 237.064 255.701C237.251 255.514 237.48 255.421 237.75 255.421C238.021 255.421 238.245 255.514 238.422 255.701C238.609 255.878 238.702 256.111 238.702 256.401C238.702 256.69 238.609 256.923 238.422 257.101C238.245 257.278 238.021 257.367 237.75 257.367Z" fill="#7A7A7A"/>
<defs>
<linearGradient id="paint0_linear_3681_1325" x1="254.003" y1="10.2308" x2="233.541" y2="16.619" gradientUnits="userSpaceOnUse">
<stop stop-color="#FF722D"/>
<stop offset="1" stop-color="#E2AE95"/>
</linearGradient>
</defs>
</svg>
