<svg width="364" height="268" viewBox="0 0 364 268" fill="none" xmlns="http://www.w3.org/2000/svg">
<path fill-rule="evenodd" clip-rule="evenodd" d="M291.646 32.7168C297.171 32.7168 301.649 37.1954 301.649 42.7201C301.649 48.2447 297.171 52.7233 291.646 52.7233H234.484C240.009 52.7233 244.488 57.2019 244.488 62.7266C244.488 68.2512 240.009 72.7298 234.484 72.7298H265.923C271.448 72.7298 275.927 77.2085 275.927 82.7331C275.927 88.2577 271.448 92.7364 265.923 92.7364H251.384C244.419 92.7364 238.772 97.215 238.772 102.74C238.772 106.423 241.63 109.757 247.346 112.743C252.87 112.743 257.349 117.221 257.349 122.746C257.349 128.271 252.87 132.749 247.346 132.749H128.736C123.211 132.749 118.732 128.271 118.732 122.746C118.732 117.221 123.211 112.743 128.736 112.743H73.0033C67.4786 112.743 63 108.264 63 102.74C63 97.215 67.4786 92.7364 73.0033 92.7364H130.165C135.689 92.7364 140.168 88.2577 140.168 82.7331C140.168 77.2085 135.689 72.7298 130.165 72.7298H94.4388C88.9142 72.7298 84.4356 68.2512 84.4356 62.7266C84.4356 57.2019 88.9142 52.7233 94.4388 52.7233H151.6C146.076 52.7233 141.597 48.2447 141.597 42.7201C141.597 37.1954 146.076 32.7168 151.6 32.7168H291.646ZM291.646 72.7298C297.171 72.7298 301.649 77.2085 301.649 82.7331C301.649 88.2577 297.171 92.7364 291.646 92.7364C286.121 92.7364 281.643 88.2577 281.643 82.7331C281.643 77.2085 286.121 72.7298 291.646 72.7298Z" fill="#272727"/>
<path fill-rule="evenodd" clip-rule="evenodd" d="M99.8253 74.1595H98.4707C89.8057 74.1595 82.7812 67.1454 82.7812 58.4931C82.7812 49.8407 89.8057 42.8266 98.4707 42.8266C98.5267 42.8266 98.5825 42.8269 98.6383 42.8274C100.033 30.6927 109.963 21.2852 122.005 21.2852C134.697 21.2852 145.043 31.736 145.522 44.8159C153.196 45.3113 159.949 52.7806 159.949 60.569C159.949 66.9639 155.213 74.1595 149.603 74.1595H110.588" fill="#525252"/>
<path d="M157.205 137.37C158.176 137.196 158.823 136.268 158.649 135.297C158.475 134.325 157.547 133.679 156.576 133.853L156.891 135.611L157.205 137.37ZM146.611 136.183C145.666 136.466 145.129 137.462 145.412 138.407C145.695 139.352 146.691 139.889 147.636 139.606L147.123 137.895L146.611 136.183ZM141.891 141.664C142.797 141.274 143.215 140.223 142.825 139.317C142.435 138.411 141.384 137.993 140.478 138.383L141.184 140.023L141.891 141.664ZM207.4 133.993C206.43 133.812 205.498 134.452 205.317 135.422C205.136 136.392 205.776 137.324 206.746 137.505L207.073 135.749L207.4 133.993ZM156.891 135.611L156.576 133.853C152.969 134.499 149.624 135.282 146.611 136.183L147.123 137.895L147.636 139.606C150.5 138.749 153.712 137.995 157.205 137.37L156.891 135.611ZM141.184 140.023L140.478 138.383C137.357 139.727 134.752 141.276 132.899 143.032C131.044 144.789 129.807 146.891 129.807 149.282H131.594H133.38C133.38 148.21 133.923 146.982 135.356 145.625C136.791 144.266 138.981 142.917 141.891 141.664L141.184 140.023ZM131.594 149.282H129.807C129.807 152.28 131.738 154.812 134.459 156.834C137.213 158.88 141.084 160.648 145.708 162.101C154.975 165.014 167.668 166.787 181.61 166.787V165.001V163.215C167.929 163.215 155.613 161.469 146.779 158.693C142.351 157.301 138.898 155.681 136.59 153.966C134.248 152.227 133.38 150.624 133.38 149.282H131.594ZM181.61 165.001V166.787C195.552 166.787 208.245 165.014 217.512 162.101C222.136 160.648 226.007 158.88 228.761 156.834C231.482 154.812 233.413 152.28 233.413 149.282H231.626H229.84C229.84 150.624 228.972 152.227 226.63 153.966C224.323 155.681 220.869 157.301 216.441 158.693C207.607 161.469 195.292 163.215 181.61 163.215V165.001ZM231.626 149.282H233.413C233.413 145.327 230.091 142.174 225.71 139.81C221.184 137.367 214.846 135.38 207.4 133.993L207.073 135.749L206.746 137.505C213.999 138.856 219.938 140.755 224.013 142.954C228.235 145.232 229.84 147.477 229.84 149.282H231.626Z" fill="#595959"/>
<path d="M169.819 35.9609C175.131 34.6178 180.571 34.2437 185.972 34.6641C194.281 35.3108 202.055 37.8159 209.182 42.2734C213.147 44.7539 216.782 47.6574 219.946 51.125C225.902 57.6517 229.979 65.2483 232.11 73.835C233.428 79.143 233.837 84.5786 233.396 89.9873C232.697 98.5746 230.1 106.609 225.317 113.914C222.943 117.541 220.245 120.917 217.025 123.873C210.446 129.914 202.768 134.009 194.108 136.16C188.845 137.468 183.501 137.603 178.267 137.45C177.898 137.439 177.554 137.385 177.273 137.337C176.973 137.285 176.748 137.241 176.483 137.206C172.201 136.793 168.016 135.966 164.073 134.312C160.467 132.799 156.931 131 153.601 128.929C148.045 125.472 143.552 120.883 139.832 115.553C136.128 110.244 133.543 104.472 131.955 98.25C130.597 92.9291 130.262 87.4967 130.651 82.1113C131.324 72.8184 134.393 64.2599 139.692 56.6143C143.17 51.596 147.459 47.3375 152.514 43.8311C157.827 40.1453 163.59 37.536 169.819 35.9609ZM198.327 65.2949C193.222 63.9586 188.966 65.5408 185.348 69.5156C184.634 70.2991 183.878 71.0765 183.109 71.8916L182.013 73.0547L180.922 71.8867C179.882 70.7735 178.995 69.7888 178.054 68.8193C173.244 63.8664 165.85 63.5025 160.627 67.9326C154.293 73.3057 153.737 83.5351 159.577 89.8789C166.749 97.669 173.949 105.431 181.142 113.209C181.445 113.537 181.672 113.719 181.833 113.815C181.909 113.861 181.961 113.881 181.99 113.89C182.017 113.898 182.029 113.898 182.03 113.898C182.032 113.898 182.043 113.898 182.067 113.891C182.095 113.882 182.144 113.863 182.219 113.819C182.376 113.727 182.601 113.549 182.902 113.225C185.607 110.309 188.301 107.391 191.122 104.345C195.5 99.6058 199.879 94.8686 204.255 90.1289C208.155 85.9043 209.394 81.0141 208.017 75.5088C206.701 70.252 203.561 66.6652 198.327 65.2949Z" fill="#363636" stroke="#666666" stroke-width="3"/>
<path d="M192.164 105.426C189.405 108.407 186.707 111.329 184.002 114.244C182.569 115.789 181.478 115.781 180.041 114.227C172.85 106.451 165.647 98.6865 158.474 90.8948C152.08 83.9498 152.646 72.735 159.657 66.788C165.486 61.8434 173.775 62.259 179.13 67.7741C180.085 68.7568 181.003 69.7742 182.019 70.8622C182.81 70.0243 183.537 69.2762 184.239 68.505C188.173 64.1836 192.981 62.3441 198.707 63.843C204.541 65.37 208.043 69.4285 209.473 75.1442C210.973 81.1417 209.6 86.5514 205.358 91.1465C200.981 95.8867 196.602 100.625 192.164 105.426Z" fill="#B5B5B5"/>
<path opacity="0.75" fill-rule="evenodd" clip-rule="evenodd" d="M239.075 20.198C239.434 16.697 238.343 13.2019 236.056 10.5271L234.279 8.44923L236.999 8.72819C240.5 9.08729 243.995 7.99607 246.67 5.70887L248.748 3.93206L248.469 6.65177C248.11 10.1527 249.201 13.6479 251.488 16.3226L253.265 18.4005L250.545 18.1216C247.044 17.7625 243.549 18.8537 240.874 21.1409L238.796 22.9177L239.075 20.198Z" stroke="url(#paint0_linear_3681_1347)" stroke-width="3.57259" stroke-linejoin="round"/>
<path opacity="0.75" fill-rule="evenodd" clip-rule="evenodd" d="M116.327 159.077C113.638 156.807 110.136 155.738 106.637 156.12L103.919 156.416L105.683 154.327C107.953 151.637 109.022 148.135 108.64 144.637L108.344 141.919L110.433 143.682C113.122 145.952 116.624 147.021 120.123 146.64L122.841 146.343L121.077 148.433C118.807 151.122 117.739 154.624 118.12 158.123L118.416 160.84L116.327 159.077Z" stroke="url(#paint1_linear_3681_1347)" stroke-width="3.57259" stroke-linejoin="round"/>
<path d="M57.959 214.227V208.419L52.173 198.651H55.803L59.543 205.493L63.349 198.651H66.913L61.105 208.397V214.227H57.959ZM72.1122 214.381C70.9389 214.381 69.9122 214.146 69.0322 213.677C68.1522 213.193 67.4702 212.511 66.9862 211.631C66.5022 210.736 66.2602 209.68 66.2602 208.463C66.2602 207.216 66.5022 206.145 66.9862 205.251C67.4849 204.341 68.1742 203.645 69.0542 203.161C69.9342 202.677 70.9462 202.435 72.0902 202.435C73.2636 202.435 74.2829 202.684 75.1482 203.183C76.0136 203.681 76.6882 204.378 77.1722 205.273C77.6562 206.167 77.8982 207.238 77.8982 208.485C77.8982 209.702 77.6562 210.758 77.1722 211.653C76.7029 212.533 76.0356 213.207 75.1702 213.677C74.3196 214.146 73.3002 214.381 72.1122 214.381ZM72.0682 211.565C72.7429 211.565 73.2856 211.418 73.6962 211.125C74.1069 210.831 74.4002 210.45 74.5762 209.981C74.7669 209.497 74.8622 208.991 74.8622 208.463C74.8622 207.935 74.7669 207.429 74.5762 206.945C74.4002 206.461 74.1069 206.065 73.6962 205.757C73.3002 205.434 72.7576 205.273 72.0682 205.273C71.4082 205.273 70.8729 205.434 70.4622 205.757C70.0516 206.065 69.7509 206.461 69.5602 206.945C69.3842 207.429 69.2962 207.935 69.2962 208.463C69.2962 209.005 69.3842 209.511 69.5602 209.981C69.7509 210.45 70.0516 210.831 70.4622 211.125C70.8729 211.418 71.4082 211.565 72.0682 211.565ZM85.1282 214.381C83.4268 214.381 82.1142 213.948 81.1902 213.083C80.2808 212.203 79.8262 210.883 79.8262 209.123V202.633H82.9062V208.903C82.9062 209.431 82.9795 209.9 83.1262 210.311C83.2875 210.707 83.5295 211.022 83.8522 211.257C84.1895 211.491 84.6222 211.609 85.1502 211.609C85.7222 211.609 86.1622 211.484 86.4702 211.235C86.7782 210.985 86.9908 210.655 87.1082 210.245C87.2255 209.819 87.2842 209.372 87.2842 208.903V202.633H90.3422V209.123C90.3422 210.956 89.8802 212.291 88.9562 213.127C88.0468 213.963 86.7708 214.381 85.1282 214.381ZM92.7393 214.227V202.633H95.5113L95.7093 204.019C96.0026 203.579 96.3326 203.249 96.6993 203.029C97.066 202.794 97.4473 202.64 97.8433 202.567C98.2393 202.479 98.6426 202.435 99.0533 202.435C99.244 202.435 99.42 202.442 99.5813 202.457C99.7426 202.457 99.86 202.457 99.9333 202.457V205.427H99.2073C98.518 205.427 97.9166 205.544 97.4033 205.779C96.89 206.013 96.494 206.38 96.2153 206.879C95.9513 207.377 95.8193 208.015 95.8193 208.793V214.227H92.7393ZM108.025 214.227V198.651H114.097C115.285 198.651 116.319 198.834 117.199 199.201C118.094 199.553 118.783 200.125 119.267 200.917C119.751 201.694 119.993 202.735 119.993 204.041C119.993 205.258 119.722 206.277 119.179 207.099C118.651 207.92 117.925 208.536 117.001 208.947C116.077 209.343 115.028 209.541 113.855 209.541H111.171V214.227H108.025ZM111.171 206.725H113.811C114.75 206.725 115.49 206.505 116.033 206.065C116.59 205.61 116.869 204.928 116.869 204.019C116.869 203.212 116.634 202.603 116.165 202.193C115.71 201.782 114.977 201.577 113.965 201.577H111.171V206.725ZM121.958 214.227V198.651H125.038V214.227H121.958ZM131.154 214.381C130.626 214.381 130.112 214.315 129.614 214.183C129.13 214.036 128.697 213.816 128.316 213.523C127.934 213.229 127.634 212.863 127.414 212.423C127.194 211.983 127.084 211.469 127.084 210.883C127.084 210.091 127.245 209.46 127.568 208.991C127.89 208.507 128.323 208.14 128.866 207.891C129.408 207.641 130.032 207.473 130.736 207.385C131.454 207.297 132.195 207.253 132.958 207.253H134.63C134.63 206.827 134.549 206.453 134.388 206.131C134.241 205.793 134.014 205.537 133.706 205.361C133.398 205.17 133.002 205.075 132.518 205.075C132.21 205.075 131.909 205.119 131.616 205.207C131.337 205.28 131.102 205.39 130.912 205.537C130.721 205.683 130.596 205.874 130.538 206.109H127.414C127.502 205.463 127.707 204.913 128.03 204.459C128.352 203.989 128.756 203.608 129.24 203.315C129.724 203.021 130.252 202.809 130.824 202.677C131.41 202.53 132.012 202.457 132.628 202.457C134.314 202.457 135.561 202.941 136.368 203.909C137.174 204.862 137.578 206.219 137.578 207.979V214.227H134.806L134.762 212.731C134.395 213.244 133.977 213.618 133.508 213.853C133.053 214.087 132.613 214.234 132.188 214.293C131.762 214.351 131.418 214.381 131.154 214.381ZM131.858 211.939C132.371 211.939 132.84 211.836 133.266 211.631C133.691 211.425 134.028 211.147 134.278 210.795C134.527 210.443 134.652 210.047 134.652 209.607V209.321H132.54C132.232 209.321 131.931 209.335 131.638 209.365C131.359 209.394 131.102 209.453 130.868 209.541C130.648 209.614 130.472 209.739 130.34 209.915C130.208 210.091 130.142 210.325 130.142 210.619C130.142 210.912 130.215 211.161 130.362 211.367C130.523 211.557 130.736 211.704 131 211.807C131.264 211.895 131.55 211.939 131.858 211.939ZM144.713 214.381C143.408 214.381 142.44 214.014 141.809 213.281C141.193 212.547 140.885 211.543 140.885 210.267V205.383H139.147V202.633H140.885V199.509H143.965V202.633H147.485V205.383H143.965V209.629C143.965 210.01 144.009 210.34 144.097 210.619C144.2 210.897 144.361 211.117 144.581 211.279C144.816 211.425 145.131 211.499 145.527 211.499C145.879 211.499 146.173 211.447 146.407 211.345C146.657 211.227 146.862 211.103 147.023 210.971L147.991 213.347C147.683 213.596 147.339 213.801 146.957 213.963C146.591 214.109 146.217 214.212 145.835 214.271C145.454 214.344 145.08 214.381 144.713 214.381ZM154.567 214.381C153.349 214.381 152.315 214.139 151.465 213.655C150.614 213.171 149.961 212.489 149.507 211.609C149.052 210.714 148.825 209.673 148.825 208.485C148.825 207.282 149.059 206.233 149.529 205.339C149.998 204.429 150.658 203.718 151.509 203.205C152.374 202.691 153.393 202.435 154.567 202.435C155.447 202.435 156.217 202.581 156.877 202.875C157.551 203.168 158.116 203.579 158.571 204.107C159.04 204.635 159.385 205.251 159.605 205.955C159.839 206.644 159.949 207.392 159.935 208.199C159.935 208.404 159.927 208.602 159.913 208.793C159.898 208.983 159.869 209.174 159.825 209.365H151.883C151.927 209.805 152.051 210.208 152.257 210.575C152.462 210.941 152.748 211.235 153.115 211.455C153.496 211.66 153.965 211.763 154.523 211.763C154.889 211.763 155.227 211.726 155.535 211.653C155.843 211.565 156.107 211.433 156.327 211.257C156.547 211.081 156.701 210.875 156.789 210.641H159.825C159.634 211.506 159.275 212.217 158.747 212.775C158.233 213.332 157.61 213.743 156.877 214.007C156.143 214.256 155.373 214.381 154.567 214.381ZM151.949 207.209H156.987C156.972 206.813 156.869 206.446 156.679 206.109C156.503 205.757 156.231 205.478 155.865 205.273C155.513 205.053 155.058 204.943 154.501 204.943C153.943 204.943 153.474 205.053 153.093 205.273C152.726 205.493 152.447 205.779 152.257 206.131C152.081 206.468 151.978 206.827 151.949 207.209ZM168.568 214.227V198.651H171.714V211.323H179.612V214.227H168.568ZM186.817 214.381C185.644 214.381 184.617 214.146 183.737 213.677C182.857 213.193 182.175 212.511 181.691 211.631C181.207 210.736 180.965 209.68 180.965 208.463C180.965 207.216 181.207 206.145 181.691 205.251C182.19 204.341 182.879 203.645 183.759 203.161C184.639 202.677 185.651 202.435 186.795 202.435C187.969 202.435 188.988 202.684 189.853 203.183C190.719 203.681 191.393 204.378 191.877 205.273C192.361 206.167 192.603 207.238 192.603 208.485C192.603 209.702 192.361 210.758 191.877 211.653C191.408 212.533 190.741 213.207 189.875 213.677C189.025 214.146 188.005 214.381 186.817 214.381ZM186.773 211.565C187.448 211.565 187.991 211.418 188.401 211.125C188.812 210.831 189.105 210.45 189.281 209.981C189.472 209.497 189.567 208.991 189.567 208.463C189.567 207.935 189.472 207.429 189.281 206.945C189.105 206.461 188.812 206.065 188.401 205.757C188.005 205.434 187.463 205.273 186.773 205.273C186.113 205.273 185.578 205.434 185.167 205.757C184.757 206.065 184.456 206.461 184.265 206.945C184.089 207.429 184.001 207.935 184.001 208.463C184.001 209.005 184.089 209.511 184.265 209.981C184.456 210.45 184.757 210.831 185.167 211.125C185.578 211.418 186.113 211.565 186.773 211.565ZM199.987 214.381C198.814 214.381 197.787 214.146 196.907 213.677C196.027 213.193 195.345 212.511 194.861 211.631C194.377 210.736 194.135 209.68 194.135 208.463C194.135 207.216 194.377 206.145 194.861 205.251C195.36 204.341 196.049 203.645 196.929 203.161C197.809 202.677 198.821 202.435 199.965 202.435C201.139 202.435 202.158 202.684 203.023 203.183C203.889 203.681 204.563 204.378 205.047 205.273C205.531 206.167 205.773 207.238 205.773 208.485C205.773 209.702 205.531 210.758 205.047 211.653C204.578 212.533 203.911 213.207 203.045 213.677C202.195 214.146 201.175 214.381 199.987 214.381ZM199.943 211.565C200.618 211.565 201.161 211.418 201.571 211.125C201.982 210.831 202.275 210.45 202.451 209.981C202.642 209.497 202.737 208.991 202.737 208.463C202.737 207.935 202.642 207.429 202.451 206.945C202.275 206.461 201.982 206.065 201.571 205.757C201.175 205.434 200.633 205.273 199.943 205.273C199.283 205.273 198.748 205.434 198.337 205.757C197.927 206.065 197.626 206.461 197.435 206.945C197.259 207.429 197.171 207.935 197.171 208.463C197.171 209.005 197.259 209.511 197.435 209.981C197.626 210.45 197.927 210.831 198.337 211.125C198.748 211.418 199.283 211.565 199.943 211.565ZM207.745 214.227V198.651H210.825V207.077H212.343L215.181 202.633H218.635L214.939 208.155L218.943 214.227H215.379L212.475 209.827H210.825V214.227H207.745ZM224.566 214.381C224.024 214.381 223.466 214.322 222.894 214.205C222.322 214.087 221.794 213.889 221.31 213.611C220.826 213.317 220.416 212.929 220.078 212.445C219.741 211.946 219.521 211.33 219.418 210.597H222.542C222.63 210.861 222.784 211.088 223.004 211.279C223.239 211.469 223.503 211.609 223.796 211.697C224.104 211.785 224.412 211.829 224.72 211.829C224.926 211.829 225.131 211.814 225.336 211.785C225.542 211.755 225.732 211.697 225.908 211.609C226.084 211.521 226.224 211.411 226.326 211.279C226.429 211.132 226.48 210.949 226.48 210.729C226.48 210.494 226.407 210.311 226.26 210.179C226.114 210.047 225.908 209.944 225.644 209.871C225.38 209.783 225.08 209.702 224.742 209.629C224.141 209.497 223.496 209.35 222.806 209.189C222.117 209.027 221.523 208.793 221.024 208.485C220.819 208.338 220.636 208.177 220.474 208.001C220.313 207.825 220.181 207.627 220.078 207.407C219.976 207.187 219.895 206.959 219.836 206.725C219.778 206.475 219.748 206.211 219.748 205.933C219.748 205.302 219.88 204.767 220.144 204.327C220.423 203.872 220.79 203.505 221.244 203.227C221.699 202.948 222.205 202.75 222.762 202.633C223.32 202.501 223.892 202.435 224.478 202.435C225.27 202.435 226.004 202.567 226.678 202.831C227.353 203.08 227.91 203.476 228.35 204.019C228.79 204.547 229.062 205.236 229.164 206.087H226.216C226.158 205.764 225.96 205.507 225.622 205.317C225.285 205.111 224.867 205.009 224.368 205.009C224.192 205.009 224.002 205.023 223.796 205.053C223.606 205.082 223.43 205.133 223.268 205.207C223.107 205.28 222.975 205.383 222.872 205.515C222.77 205.632 222.718 205.793 222.718 205.999C222.718 206.16 222.762 206.307 222.85 206.439C222.953 206.571 223.092 206.681 223.268 206.769C223.459 206.857 223.686 206.937 223.95 207.011C224.449 207.128 224.948 207.238 225.446 207.341C225.96 207.429 226.414 207.524 226.81 207.627C227.294 207.729 227.734 207.898 228.13 208.133C228.541 208.367 228.871 208.69 229.12 209.101C229.384 209.497 229.516 210.017 229.516 210.663C229.516 211.396 229.37 212.005 229.076 212.489C228.783 212.958 228.387 213.332 227.888 213.611C227.404 213.889 226.869 214.087 226.282 214.205C225.71 214.322 225.138 214.381 224.566 214.381ZM237.963 214.227V198.651H249.183V201.577H241.109V205.097H248.039V207.913H241.109V211.323H249.183V214.227H237.963ZM251.187 214.227V202.633H253.959L254.223 203.931C254.516 203.52 254.839 203.212 255.191 203.007C255.557 202.787 255.924 202.64 256.291 202.567C256.657 202.493 256.995 202.457 257.303 202.457C257.992 202.457 258.601 202.589 259.129 202.853C259.657 203.117 260.082 203.542 260.405 204.129C260.713 203.703 261.05 203.373 261.417 203.139C261.783 202.889 262.172 202.713 262.583 202.611C262.993 202.508 263.411 202.457 263.837 202.457C264.731 202.457 265.45 202.647 265.993 203.029C266.55 203.395 266.953 203.909 267.203 204.569C267.467 205.229 267.599 205.999 267.599 206.879V214.227H264.519V207.693C264.519 207.429 264.504 207.157 264.475 206.879C264.445 206.6 264.372 206.336 264.255 206.087C264.152 205.837 263.991 205.632 263.771 205.471C263.565 205.309 263.272 205.229 262.891 205.229C262.524 205.229 262.216 205.309 261.967 205.471C261.717 205.632 261.519 205.852 261.373 206.131C261.226 206.395 261.116 206.688 261.043 207.011C260.984 207.319 260.955 207.634 260.955 207.957V214.227H257.875V207.671C257.875 207.421 257.86 207.157 257.831 206.879C257.801 206.6 257.735 206.336 257.633 206.087C257.53 205.837 257.361 205.632 257.127 205.471C256.907 205.309 256.599 205.229 256.203 205.229C255.66 205.229 255.242 205.39 254.949 205.713C254.67 206.021 254.487 206.395 254.399 206.835C254.311 207.26 254.267 207.656 254.267 208.023V214.227H251.187ZM269.921 218.561V202.633H272.803L272.957 204.085C273.426 203.513 273.962 203.095 274.563 202.831C275.179 202.567 275.854 202.435 276.587 202.435C277.731 202.435 278.677 202.699 279.425 203.227C280.173 203.755 280.73 204.473 281.097 205.383C281.478 206.277 281.669 207.282 281.669 208.397C281.669 209.541 281.471 210.567 281.075 211.477C280.694 212.371 280.114 213.083 279.337 213.611C278.56 214.124 277.592 214.381 276.433 214.381C275.934 214.381 275.465 214.322 275.025 214.205C274.585 214.087 274.196 213.933 273.859 213.743C273.522 213.537 273.236 213.31 273.001 213.061V218.561H269.921ZM275.905 211.609C276.594 211.609 277.137 211.455 277.533 211.147C277.929 210.839 278.208 210.45 278.369 209.981C278.53 209.497 278.611 208.998 278.611 208.485C278.611 207.927 278.523 207.399 278.347 206.901C278.171 206.402 277.878 206.006 277.467 205.713C277.071 205.405 276.528 205.251 275.839 205.251C275.223 205.251 274.702 205.405 274.277 205.713C273.852 206.006 273.529 206.395 273.309 206.879C273.089 207.363 272.979 207.883 272.979 208.441C272.979 208.998 273.082 209.519 273.287 210.003C273.507 210.487 273.83 210.875 274.255 211.169C274.695 211.462 275.245 211.609 275.905 211.609ZM288.379 214.381C287.074 214.381 286.106 214.014 285.475 213.281C284.859 212.547 284.551 211.543 284.551 210.267V205.383H282.813V202.633H284.551V199.509H287.631V202.633H291.151V205.383H287.631V209.629C287.631 210.01 287.675 210.34 287.763 210.619C287.866 210.897 288.027 211.117 288.247 211.279C288.482 211.425 288.797 211.499 289.193 211.499C289.545 211.499 289.839 211.447 290.073 211.345C290.323 211.227 290.528 211.103 290.689 210.971L291.657 213.347C291.349 213.596 291.005 213.801 290.623 213.963C290.257 214.109 289.883 214.212 289.501 214.271C289.12 214.344 288.746 214.381 288.379 214.381ZM298.057 219.573C297.162 219.573 296.289 219.455 295.439 219.221C294.588 218.986 293.789 218.59 293.041 218.033L294.075 215.569C294.544 215.921 295.079 216.199 295.681 216.405C296.282 216.625 296.949 216.735 297.683 216.735C298.812 216.735 299.648 216.471 300.191 215.943C300.748 215.415 301.027 214.652 301.027 213.655V213.039C300.777 213.376 300.462 213.647 300.081 213.853C299.714 214.043 299.318 214.183 298.893 214.271C298.467 214.359 298.042 214.403 297.617 214.403C296.502 214.403 295.607 214.168 294.933 213.699C294.258 213.229 293.767 212.591 293.459 211.785C293.165 210.963 293.019 210.032 293.019 208.991V202.633H296.099V208.353C296.099 208.734 296.121 209.115 296.165 209.497C296.209 209.878 296.311 210.23 296.473 210.553C296.634 210.875 296.876 211.139 297.199 211.345C297.521 211.535 297.954 211.631 298.497 211.631C299.201 211.631 299.729 211.462 300.081 211.125C300.433 210.773 300.667 210.333 300.785 209.805C300.917 209.277 300.983 208.727 300.983 208.155V202.633H304.063V212.555C304.063 213.611 303.96 214.571 303.755 215.437C303.564 216.302 303.234 217.043 302.765 217.659C302.31 218.275 301.694 218.744 300.917 219.067C300.154 219.404 299.201 219.573 298.057 219.573ZM307.191 208.947L306.949 198.651H310.337L310.073 208.947H307.191ZM308.621 214.425C308.313 214.425 308.013 214.351 307.719 214.205C307.426 214.058 307.184 213.845 306.993 213.567C306.803 213.288 306.707 212.943 306.707 212.533C306.707 212.107 306.795 211.755 306.971 211.477C307.162 211.198 307.404 210.993 307.697 210.861C307.991 210.714 308.306 210.641 308.643 210.641C309.127 210.641 309.56 210.802 309.941 211.125C310.337 211.447 310.535 211.917 310.535 212.533C310.535 212.943 310.44 213.288 310.249 213.567C310.073 213.845 309.839 214.058 309.545 214.205C309.252 214.351 308.944 214.425 308.621 214.425Z" fill="white"/>
<path d="M53.037 243.339C52.393 243.339 51.7864 243.245 51.217 243.059C50.6477 242.872 50.167 242.569 49.775 242.149C49.383 241.729 49.1217 241.173 48.991 240.483H50.517C50.6384 240.875 50.8344 241.183 51.105 241.407C51.3757 241.621 51.6884 241.771 52.043 241.855C52.407 241.939 52.771 241.981 53.135 241.981C53.4804 241.981 53.8024 241.934 54.101 241.841C54.409 241.747 54.661 241.593 54.857 241.379C55.053 241.164 55.151 240.884 55.151 240.539C55.151 240.277 55.0997 240.063 54.997 239.895C54.8944 239.727 54.7497 239.591 54.563 239.489C54.3857 239.377 54.171 239.288 53.919 239.223C53.6297 239.129 53.317 239.05 52.981 238.985C52.6544 238.919 52.3277 238.845 52.001 238.761C51.6837 238.677 51.385 238.569 51.105 238.439C50.8717 238.345 50.643 238.233 50.419 238.103C50.2044 237.963 50.0177 237.799 49.859 237.613C49.7004 237.417 49.5697 237.188 49.467 236.927C49.3737 236.665 49.327 236.367 49.327 236.031C49.327 235.583 49.397 235.2 49.537 234.883C49.6864 234.565 49.8777 234.299 50.111 234.085C50.3537 233.87 50.629 233.702 50.937 233.581C51.2544 233.45 51.5857 233.357 51.931 233.301C52.2764 233.245 52.6124 233.217 52.939 233.217C53.5364 233.217 54.087 233.31 54.591 233.497C55.095 233.683 55.5104 233.982 55.837 234.393C56.173 234.794 56.355 235.326 56.383 235.989H54.941C54.9037 235.634 54.7824 235.354 54.577 235.149C54.381 234.934 54.1337 234.785 53.835 234.701C53.5364 234.607 53.219 234.561 52.883 234.561C52.6404 234.561 52.3977 234.584 52.155 234.631C51.9124 234.668 51.6884 234.743 51.483 234.855C51.287 234.957 51.1284 235.097 51.007 235.275C50.895 235.452 50.839 235.671 50.839 235.933C50.839 236.157 50.8857 236.357 50.979 236.535C51.0724 236.703 51.203 236.847 51.371 236.969C51.5484 237.081 51.7444 237.179 51.959 237.263C52.351 237.412 52.7804 237.529 53.247 237.613C53.7137 237.687 54.1524 237.795 54.563 237.935C54.8617 238.028 55.1417 238.145 55.403 238.285C55.6644 238.415 55.8884 238.579 56.075 238.775C56.2617 238.961 56.4064 239.185 56.509 239.447C56.6117 239.699 56.663 239.993 56.663 240.329C56.663 240.879 56.565 241.351 56.369 241.743C56.173 242.125 55.907 242.433 55.571 242.667C55.235 242.9 54.8477 243.073 54.409 243.185C53.9704 243.287 53.513 243.339 53.037 243.339ZM61.1609 243.311C60.3675 243.311 59.7982 243.096 59.4529 242.667C59.1169 242.228 58.9489 241.617 58.9489 240.833V237.137H57.7729V235.849H58.9489V233.707H60.3909V235.849H62.6449V237.137H60.3909V240.595C60.3909 240.856 60.4142 241.094 60.4609 241.309C60.5169 241.523 60.6195 241.691 60.7689 241.813C60.9182 241.934 61.1329 241.999 61.4129 242.009C61.6275 242.009 61.8142 241.971 61.9729 241.897C62.1409 241.822 62.2762 241.738 62.3789 241.645L62.9389 242.723C62.7615 242.863 62.5749 242.979 62.3789 243.073C62.1922 243.157 61.9962 243.217 61.7909 243.255C61.5855 243.292 61.3755 243.311 61.1609 243.311ZM66.3307 243.311C65.9947 243.311 65.668 243.269 65.3507 243.185C65.0427 243.091 64.7673 242.956 64.5247 242.779C64.282 242.592 64.086 242.363 63.9367 242.093C63.7967 241.813 63.7267 241.486 63.7267 241.113C63.7267 240.665 63.8107 240.296 63.9787 240.007C64.156 239.708 64.3893 239.479 64.6787 239.321C64.968 239.153 65.2993 239.036 65.6727 238.971C66.0553 238.896 66.452 238.859 66.8627 238.859H68.6687C68.6687 238.495 68.6127 238.177 68.5007 237.907C68.3887 237.627 68.2113 237.412 67.9687 237.263C67.7353 237.104 67.4227 237.025 67.0307 237.025C66.7973 237.025 66.5733 237.053 66.3587 237.109C66.1533 237.155 65.976 237.235 65.8267 237.347C65.6773 237.459 65.5747 237.608 65.5187 237.795H64.0067C64.0627 237.44 64.1887 237.137 64.3847 236.885C64.5807 236.623 64.8233 236.409 65.1127 236.241C65.402 236.073 65.71 235.951 66.0367 235.877C66.3727 235.793 66.7133 235.751 67.0587 235.751C68.1227 235.751 68.888 236.063 69.3547 236.689C69.8307 237.305 70.0687 238.154 70.0687 239.237V243.227H68.8227L68.7667 242.289C68.552 242.578 68.2953 242.797 67.9967 242.947C67.7073 243.096 67.418 243.194 67.1287 243.241C66.8393 243.287 66.5733 243.311 66.3307 243.311ZM66.5547 242.093C66.9747 242.093 67.3433 242.023 67.6607 241.883C67.978 241.733 68.2253 241.523 68.4027 241.253C68.58 240.973 68.6687 240.646 68.6687 240.273V239.965H67.3527C67.082 239.965 66.816 239.974 66.5547 239.993C66.3027 240.002 66.0693 240.039 65.8547 240.105C65.6493 240.161 65.4813 240.259 65.3507 240.399C65.2293 240.539 65.1687 240.739 65.1687 241.001C65.1687 241.253 65.234 241.458 65.3647 241.617C65.4953 241.775 65.668 241.897 65.8827 241.981C66.0973 242.055 66.3213 242.093 66.5547 242.093ZM71.799 243.227V235.849H73.157L73.227 236.913C73.4137 236.623 73.6283 236.395 73.871 236.227C74.1137 236.059 74.3797 235.937 74.669 235.863C74.9583 235.788 75.2617 235.751 75.579 235.751C75.663 235.751 75.7423 235.751 75.817 235.751C75.8917 235.751 75.9617 235.751 76.027 235.751V237.137H75.579C75.047 237.137 74.6037 237.244 74.249 237.459C73.9037 237.673 73.647 237.972 73.479 238.355C73.3203 238.737 73.241 239.176 73.241 239.671V243.227H71.799ZM79.9734 243.311C79.18 243.311 78.6107 243.096 78.2654 242.667C77.9294 242.228 77.7614 241.617 77.7614 240.833V237.137H76.5854V235.849H77.7614V233.707H79.2034V235.849H81.4574V237.137H79.2034V240.595C79.2034 240.856 79.2267 241.094 79.2734 241.309C79.3294 241.523 79.432 241.691 79.5814 241.813C79.7307 241.934 79.9454 241.999 80.2254 242.009C80.44 242.009 80.6267 241.971 80.7854 241.897C80.9534 241.822 81.0887 241.738 81.1914 241.645L81.7514 242.723C81.574 242.863 81.3874 242.979 81.1914 243.073C81.0047 243.157 80.8087 243.217 80.6034 243.255C80.398 243.292 80.188 243.311 79.9734 243.311ZM88.985 243.311C88.649 243.311 88.3223 243.269 88.005 243.185C87.697 243.091 87.4216 242.956 87.179 242.779C86.9363 242.592 86.7403 242.363 86.591 242.093C86.451 241.813 86.381 241.486 86.381 241.113C86.381 240.665 86.465 240.296 86.633 240.007C86.8103 239.708 87.0436 239.479 87.333 239.321C87.6223 239.153 87.9536 239.036 88.327 238.971C88.7096 238.896 89.1063 238.859 89.517 238.859H91.323C91.323 238.495 91.267 238.177 91.155 237.907C91.043 237.627 90.8656 237.412 90.623 237.263C90.3896 237.104 90.077 237.025 89.685 237.025C89.4516 237.025 89.2276 237.053 89.013 237.109C88.8076 237.155 88.6303 237.235 88.481 237.347C88.3316 237.459 88.229 237.608 88.173 237.795H86.661C86.717 237.44 86.843 237.137 87.039 236.885C87.235 236.623 87.4776 236.409 87.767 236.241C88.0563 236.073 88.3643 235.951 88.691 235.877C89.027 235.793 89.3676 235.751 89.713 235.751C90.777 235.751 91.5423 236.063 92.009 236.689C92.485 237.305 92.723 238.154 92.723 239.237V243.227H91.477L91.421 242.289C91.2063 242.578 90.9496 242.797 90.651 242.947C90.3616 243.096 90.0723 243.194 89.783 243.241C89.4936 243.287 89.2276 243.311 88.985 243.311ZM89.209 242.093C89.629 242.093 89.9976 242.023 90.315 241.883C90.6323 241.733 90.8796 241.523 91.057 241.253C91.2343 240.973 91.323 240.646 91.323 240.273V239.965H90.007C89.7363 239.965 89.4703 239.974 89.209 239.993C88.957 240.002 88.7236 240.039 88.509 240.105C88.3036 240.161 88.1356 240.259 88.005 240.399C87.8836 240.539 87.823 240.739 87.823 241.001C87.823 241.253 87.8883 241.458 88.019 241.617C88.1496 241.775 88.3223 241.897 88.537 241.981C88.7516 242.055 88.9756 242.093 89.209 242.093ZM97.4353 243.311C96.698 243.311 96.0866 243.147 95.6013 242.821C95.1253 242.485 94.766 242.032 94.5233 241.463C94.29 240.893 94.1733 240.254 94.1733 239.545C94.1733 238.826 94.2946 238.182 94.5373 237.613C94.78 237.034 95.1486 236.581 95.6433 236.255C96.138 235.919 96.7633 235.751 97.5193 235.751C97.7993 235.751 98.0793 235.783 98.3593 235.849C98.6486 235.914 98.9146 236.017 99.1573 236.157C99.4093 236.287 99.624 236.465 99.8013 236.689V233.329H101.243V243.227H99.8573L99.8013 242.219C99.6333 242.471 99.4233 242.681 99.1713 242.849C98.9286 243.007 98.658 243.124 98.3593 243.199C98.0606 243.273 97.7526 243.311 97.4353 243.311ZM97.6733 242.023C98.1493 242.023 98.5413 241.906 98.8493 241.673C99.1666 241.439 99.4046 241.131 99.5633 240.749C99.722 240.366 99.8013 239.951 99.8013 239.503C99.8013 239.045 99.722 238.635 99.5633 238.271C99.414 237.897 99.1806 237.603 98.8633 237.389C98.5553 237.165 98.1586 237.053 97.6733 237.053C97.1693 237.053 96.768 237.169 96.4693 237.403C96.1706 237.627 95.9513 237.93 95.8113 238.313C95.6806 238.695 95.6153 239.115 95.6153 239.573C95.6153 239.909 95.6526 240.226 95.7273 240.525C95.802 240.814 95.9186 241.075 96.0773 241.309C96.2453 241.533 96.46 241.71 96.7213 241.841C96.9826 241.962 97.3 242.023 97.6733 242.023ZM105.994 243.311C105.257 243.311 104.645 243.147 104.16 242.821C103.684 242.485 103.325 242.032 103.082 241.463C102.849 240.893 102.732 240.254 102.732 239.545C102.732 238.826 102.853 238.182 103.096 237.613C103.339 237.034 103.707 236.581 104.202 236.255C104.697 235.919 105.322 235.751 106.078 235.751C106.358 235.751 106.638 235.783 106.918 235.849C107.207 235.914 107.473 236.017 107.716 236.157C107.968 236.287 108.183 236.465 108.36 236.689V233.329H109.802V243.227H108.416L108.36 242.219C108.192 242.471 107.982 242.681 107.73 242.849C107.487 243.007 107.217 243.124 106.918 243.199C106.619 243.273 106.311 243.311 105.994 243.311ZM106.232 242.023C106.708 242.023 107.1 241.906 107.408 241.673C107.725 241.439 107.963 241.131 108.122 240.749C108.281 240.366 108.36 239.951 108.36 239.503C108.36 239.045 108.281 238.635 108.122 238.271C107.973 237.897 107.739 237.603 107.422 237.389C107.114 237.165 106.717 237.053 106.232 237.053C105.728 237.053 105.327 237.169 105.028 237.403C104.729 237.627 104.51 237.93 104.37 238.313C104.239 238.695 104.174 239.115 104.174 239.573C104.174 239.909 104.211 240.226 104.286 240.525C104.361 240.814 104.477 241.075 104.636 241.309C104.804 241.533 105.019 241.71 105.28 241.841C105.541 241.962 105.859 242.023 106.232 242.023ZM111.57 243.227V235.849H113.012V243.227H111.57ZM112.284 234.869C112.004 234.869 111.776 234.785 111.598 234.617C111.43 234.439 111.346 234.215 111.346 233.945C111.346 233.674 111.435 233.455 111.612 233.287C111.79 233.109 112.014 233.021 112.284 233.021C112.536 233.021 112.756 233.109 112.942 233.287C113.138 233.455 113.236 233.674 113.236 233.945C113.236 234.215 113.143 234.439 112.956 234.617C112.779 234.785 112.555 234.869 112.284 234.869ZM114.797 243.227V235.849H116.169L116.239 236.885C116.426 236.614 116.65 236.399 116.911 236.241C117.172 236.073 117.452 235.951 117.751 235.877C118.05 235.793 118.339 235.751 118.619 235.751C119.328 235.751 119.884 235.905 120.285 236.213C120.696 236.511 120.985 236.917 121.153 237.431C121.33 237.935 121.419 238.509 121.419 239.153V243.227H119.963V239.447C119.963 239.148 119.944 238.854 119.907 238.565C119.87 238.275 119.79 238.019 119.669 237.795C119.557 237.561 119.394 237.379 119.179 237.249C118.964 237.109 118.675 237.039 118.311 237.039C117.863 237.039 117.485 237.16 117.177 237.403C116.869 237.645 116.636 237.972 116.477 238.383C116.318 238.793 116.239 239.255 116.239 239.769V243.227H114.797ZM126.455 246.573C125.932 246.573 125.447 246.489 124.999 246.321C124.551 246.162 124.168 245.905 123.851 245.551C123.543 245.205 123.333 244.762 123.221 244.221H124.719C124.784 244.473 124.91 244.673 125.097 244.823C125.284 244.981 125.503 245.093 125.755 245.159C126.007 245.224 126.259 245.257 126.511 245.257C126.987 245.257 127.37 245.159 127.659 244.963C127.948 244.767 128.154 244.501 128.275 244.165C128.406 243.838 128.471 243.465 128.471 243.045V242.191C128.312 242.461 128.102 242.681 127.841 242.849C127.58 243.017 127.3 243.138 127.001 243.213C126.712 243.278 126.413 243.311 126.105 243.311C125.349 243.311 124.733 243.143 124.257 242.807C123.781 242.471 123.426 242.023 123.193 241.463C122.969 240.893 122.857 240.263 122.857 239.573C122.857 238.863 122.974 238.219 123.207 237.641C123.45 237.062 123.818 236.605 124.313 236.269C124.808 235.923 125.433 235.751 126.189 235.751C126.628 235.751 127.052 235.83 127.463 235.989C127.874 236.138 128.214 236.381 128.485 236.717L128.569 235.849H129.927V242.877C129.927 243.633 129.806 244.286 129.563 244.837C129.32 245.397 128.942 245.826 128.429 246.125C127.916 246.423 127.258 246.573 126.455 246.573ZM126.371 242.023C126.838 242.023 127.225 241.911 127.533 241.687C127.85 241.453 128.088 241.145 128.247 240.763C128.406 240.38 128.485 239.96 128.485 239.503C128.485 239.036 128.406 238.621 128.247 238.257C128.088 237.883 127.855 237.589 127.547 237.375C127.239 237.16 126.842 237.053 126.357 237.053C125.853 237.053 125.452 237.169 125.153 237.403C124.854 237.627 124.635 237.93 124.495 238.313C124.364 238.686 124.299 239.101 124.299 239.559C124.299 240.025 124.369 240.445 124.509 240.819C124.649 241.192 124.868 241.486 125.167 241.701C125.475 241.915 125.876 242.023 126.371 242.023ZM138.785 246.559C138.216 246.559 137.665 246.479 137.133 246.321C136.601 246.171 136.116 245.905 135.677 245.523L136.251 244.375C136.587 244.645 136.956 244.86 137.357 245.019C137.768 245.177 138.202 245.257 138.659 245.257C139.415 245.257 139.961 245.051 140.297 244.641C140.633 244.23 140.801 243.693 140.801 243.031V242.317C140.633 242.55 140.423 242.746 140.171 242.905C139.929 243.054 139.658 243.161 139.359 243.227C139.061 243.301 138.757 243.339 138.449 243.339C137.731 243.339 137.157 243.194 136.727 242.905C136.307 242.606 136.004 242.2 135.817 241.687C135.64 241.173 135.551 240.581 135.551 239.909V235.849H137.007V239.559C137.007 239.857 137.026 240.156 137.063 240.455C137.101 240.753 137.18 241.024 137.301 241.267C137.423 241.5 137.6 241.691 137.833 241.841C138.067 241.981 138.384 242.051 138.785 242.051C139.289 242.051 139.686 241.929 139.975 241.687C140.265 241.435 140.47 241.108 140.591 240.707C140.713 240.296 140.773 239.853 140.773 239.377V235.849H142.215V242.877C142.215 243.455 142.145 243.973 142.005 244.431C141.875 244.888 141.665 245.275 141.375 245.593C141.095 245.91 140.741 246.148 140.311 246.307C139.891 246.475 139.383 246.559 138.785 246.559ZM147.263 243.311C146.497 243.311 145.849 243.157 145.317 242.849C144.785 242.531 144.379 242.088 144.099 241.519C143.828 240.949 143.693 240.291 143.693 239.545C143.693 238.789 143.833 238.131 144.113 237.571C144.393 237.001 144.799 236.558 145.331 236.241C145.863 235.914 146.511 235.751 147.277 235.751C148.042 235.751 148.691 235.914 149.223 236.241C149.755 236.558 150.156 237.001 150.427 237.571C150.697 238.14 150.833 238.803 150.833 239.559C150.833 240.296 150.693 240.949 150.413 241.519C150.142 242.088 149.741 242.531 149.209 242.849C148.686 243.157 148.037 243.311 147.263 243.311ZM147.263 242.023C147.767 242.023 148.173 241.911 148.481 241.687C148.798 241.463 149.031 241.164 149.181 240.791C149.33 240.408 149.405 239.993 149.405 239.545C149.405 239.097 149.33 238.686 149.181 238.313C149.031 237.939 148.798 237.641 148.481 237.417C148.173 237.183 147.767 237.067 147.263 237.067C146.768 237.067 146.362 237.183 146.045 237.417C145.727 237.641 145.494 237.939 145.345 238.313C145.205 238.686 145.135 239.097 145.135 239.545C145.135 240.002 145.205 240.417 145.345 240.791C145.494 241.164 145.727 241.463 146.045 241.687C146.362 241.911 146.768 242.023 147.263 242.023ZM155.477 243.311C154.441 243.311 153.647 243.04 153.097 242.499C152.555 241.948 152.285 241.113 152.285 239.993V235.849H153.727V239.909C153.727 240.347 153.787 240.725 153.909 241.043C154.039 241.36 154.235 241.603 154.497 241.771C154.758 241.939 155.089 242.023 155.491 242.023C155.911 242.023 156.247 241.939 156.499 241.771C156.76 241.593 156.947 241.346 157.059 241.029C157.18 240.711 157.241 240.338 157.241 239.909V235.849H158.683V239.993C158.683 241.131 158.403 241.971 157.843 242.513C157.292 243.045 156.503 243.311 155.477 243.311ZM160.42 243.227V235.849H161.778L161.848 236.913C162.035 236.623 162.249 236.395 162.492 236.227C162.735 236.059 163.001 235.937 163.29 235.863C163.579 235.788 163.883 235.751 164.2 235.751C164.284 235.751 164.363 235.751 164.438 235.751C164.513 235.751 164.583 235.751 164.648 235.751V237.137H164.2C163.668 237.137 163.225 237.244 162.87 237.459C162.525 237.673 162.268 237.972 162.1 238.355C161.941 238.737 161.862 239.176 161.862 239.671V243.227H160.42ZM170.266 243.227V237.137H169.09V235.849H170.266V235.107C170.266 234.547 170.346 234.094 170.504 233.749C170.672 233.394 170.929 233.133 171.274 232.965C171.629 232.797 172.091 232.713 172.66 232.713H173.626V233.987H172.828C172.539 233.987 172.31 234.038 172.142 234.141C171.984 234.234 171.872 234.379 171.806 234.575C171.741 234.761 171.708 234.99 171.708 235.261V235.849H173.626V237.137H171.708V243.227H170.266ZM177.141 243.311C176.805 243.311 176.479 243.269 176.161 243.185C175.853 243.091 175.578 242.956 175.335 242.779C175.093 242.592 174.897 242.363 174.747 242.093C174.607 241.813 174.537 241.486 174.537 241.113C174.537 240.665 174.621 240.296 174.789 240.007C174.967 239.708 175.2 239.479 175.489 239.321C175.779 239.153 176.11 239.036 176.483 238.971C176.866 238.896 177.263 238.859 177.673 238.859H179.479C179.479 238.495 179.423 238.177 179.311 237.907C179.199 237.627 179.022 237.412 178.779 237.263C178.546 237.104 178.233 237.025 177.841 237.025C177.608 237.025 177.384 237.053 177.169 237.109C176.964 237.155 176.787 237.235 176.637 237.347C176.488 237.459 176.385 237.608 176.329 237.795H174.817C174.873 237.44 174.999 237.137 175.195 236.885C175.391 236.623 175.634 236.409 175.923 236.241C176.213 236.073 176.521 235.951 176.847 235.877C177.183 235.793 177.524 235.751 177.869 235.751C178.933 235.751 179.699 236.063 180.165 236.689C180.641 237.305 180.879 238.154 180.879 239.237V243.227H179.633L179.577 242.289C179.363 242.578 179.106 242.797 178.807 242.947C178.518 243.096 178.229 243.194 177.939 243.241C177.65 243.287 177.384 243.311 177.141 243.311ZM177.365 242.093C177.785 242.093 178.154 242.023 178.471 241.883C178.789 241.733 179.036 241.523 179.213 241.253C179.391 240.973 179.479 240.646 179.479 240.273V239.965H178.163C177.893 239.965 177.627 239.974 177.365 239.993C177.113 240.002 176.88 240.039 176.665 240.105C176.46 240.161 176.292 240.259 176.161 240.399C176.04 240.539 175.979 240.739 175.979 241.001C175.979 241.253 176.045 241.458 176.175 241.617C176.306 241.775 176.479 241.897 176.693 241.981C176.908 242.055 177.132 242.093 177.365 242.093ZM184.556 243.227L181.798 235.849H183.408L185.536 241.925L187.65 235.849H189.274L186.516 243.227H184.556ZM193.501 243.311C192.736 243.311 192.087 243.157 191.555 242.849C191.023 242.531 190.617 242.088 190.337 241.519C190.066 240.949 189.931 240.291 189.931 239.545C189.931 238.789 190.071 238.131 190.351 237.571C190.631 237.001 191.037 236.558 191.569 236.241C192.101 235.914 192.75 235.751 193.515 235.751C194.28 235.751 194.929 235.914 195.461 236.241C195.993 236.558 196.394 237.001 196.665 237.571C196.936 238.14 197.071 238.803 197.071 239.559C197.071 240.296 196.931 240.949 196.651 241.519C196.38 242.088 195.979 242.531 195.447 242.849C194.924 243.157 194.276 243.311 193.501 243.311ZM193.501 242.023C194.005 242.023 194.411 241.911 194.719 241.687C195.036 241.463 195.27 241.164 195.419 240.791C195.568 240.408 195.643 239.993 195.643 239.545C195.643 239.097 195.568 238.686 195.419 238.313C195.27 237.939 195.036 237.641 194.719 237.417C194.411 237.183 194.005 237.067 193.501 237.067C193.006 237.067 192.6 237.183 192.283 237.417C191.966 237.641 191.732 237.939 191.583 238.313C191.443 238.686 191.373 239.097 191.373 239.545C191.373 240.002 191.443 240.417 191.583 240.791C191.732 241.164 191.966 241.463 192.283 241.687C192.6 241.911 193.006 242.023 193.501 242.023ZM201.715 243.311C200.679 243.311 199.886 243.04 199.335 242.499C198.794 241.948 198.523 241.113 198.523 239.993V235.849H199.965V239.909C199.965 240.347 200.026 240.725 200.147 241.043C200.278 241.36 200.474 241.603 200.735 241.771C200.996 241.939 201.328 242.023 201.729 242.023C202.149 242.023 202.485 241.939 202.737 241.771C202.998 241.593 203.185 241.346 203.297 241.029C203.418 240.711 203.479 240.338 203.479 239.909V235.849H204.921V239.993C204.921 241.131 204.641 241.971 204.081 242.513C203.53 243.045 202.742 243.311 201.715 243.311ZM206.658 243.227V235.849H208.016L208.086 236.913C208.273 236.623 208.488 236.395 208.73 236.227C208.973 236.059 209.239 235.937 209.528 235.863C209.818 235.788 210.121 235.751 210.438 235.751C210.522 235.751 210.602 235.751 210.676 235.751C210.751 235.751 210.821 235.751 210.886 235.751V237.137H210.438C209.906 237.137 209.463 237.244 209.108 237.459C208.763 237.673 208.506 237.972 208.338 238.355C208.18 238.737 208.1 239.176 208.1 239.671V243.227H206.658ZM211.977 243.227V235.849H213.419V243.227H211.977ZM212.691 234.869C212.411 234.869 212.182 234.785 212.005 234.617C211.837 234.439 211.753 234.215 211.753 233.945C211.753 233.674 211.841 233.455 212.019 233.287C212.196 233.109 212.42 233.021 212.691 233.021C212.943 233.021 213.162 233.109 213.349 233.287C213.545 233.455 213.643 233.674 213.643 233.945C213.643 234.215 213.549 234.439 213.363 234.617C213.185 234.785 212.961 234.869 212.691 234.869ZM218.059 243.311C217.266 243.311 216.697 243.096 216.351 242.667C216.015 242.228 215.847 241.617 215.847 240.833V237.137H214.671V235.849H215.847V233.707H217.289V235.849H219.543V237.137H217.289V240.595C217.289 240.856 217.313 241.094 217.359 241.309C217.415 241.523 217.518 241.691 217.667 241.813C217.817 241.934 218.031 241.999 218.311 242.009C218.526 242.009 218.713 241.971 218.871 241.897C219.039 241.822 219.175 241.738 219.277 241.645L219.837 242.723C219.66 242.863 219.473 242.979 219.277 243.073C219.091 243.157 218.895 243.217 218.689 243.255C218.484 243.292 218.274 243.311 218.059 243.311ZM224.125 243.311C223.35 243.311 222.702 243.152 222.179 242.835C221.656 242.517 221.26 242.079 220.989 241.519C220.728 240.949 220.597 240.296 220.597 239.559C220.597 238.812 220.732 238.154 221.003 237.585C221.283 237.015 221.684 236.567 222.207 236.241C222.739 235.914 223.378 235.751 224.125 235.751C224.694 235.751 225.189 235.858 225.609 236.073C226.029 236.278 226.374 236.558 226.645 236.913C226.925 237.267 227.13 237.664 227.261 238.103C227.392 238.532 227.448 238.98 227.429 239.447C227.429 239.549 227.424 239.647 227.415 239.741C227.406 239.834 227.396 239.932 227.387 240.035H222.053C222.081 240.408 222.174 240.749 222.333 241.057C222.501 241.365 222.734 241.612 223.033 241.799C223.332 241.976 223.7 242.065 224.139 242.065C224.382 242.065 224.615 242.037 224.839 241.981C225.072 241.915 225.278 241.817 225.455 241.687C225.642 241.547 225.772 241.369 225.847 241.155H227.303C227.182 241.649 226.962 242.06 226.645 242.387C226.337 242.704 225.959 242.937 225.511 243.087C225.072 243.236 224.61 243.311 224.125 243.311ZM222.081 238.887H226.001C225.992 238.523 225.908 238.201 225.749 237.921C225.59 237.631 225.371 237.407 225.091 237.249C224.811 237.081 224.475 236.997 224.083 236.997C223.654 236.997 223.294 237.085 223.005 237.263C222.725 237.44 222.506 237.673 222.347 237.963C222.198 238.243 222.109 238.551 222.081 238.887ZM232.758 243.227V235.849H234.116L234.2 236.717C234.368 236.474 234.555 236.287 234.76 236.157C234.975 236.017 235.203 235.914 235.446 235.849C235.689 235.783 235.936 235.751 236.188 235.751C236.683 235.751 237.089 235.853 237.406 236.059C237.733 236.264 237.985 236.544 238.162 236.899C238.339 236.647 238.54 236.437 238.764 236.269C238.988 236.091 239.235 235.961 239.506 235.877C239.777 235.793 240.066 235.751 240.374 235.751C240.925 235.751 241.368 235.872 241.704 236.115C242.049 236.348 242.297 236.665 242.446 237.067C242.605 237.468 242.684 237.93 242.684 238.453V243.227H241.228V239.027C241.228 238.803 241.219 238.579 241.2 238.355C241.181 238.131 241.125 237.921 241.032 237.725C240.948 237.519 240.822 237.356 240.654 237.235C240.495 237.104 240.267 237.039 239.968 237.039C239.679 237.039 239.436 237.104 239.24 237.235C239.053 237.365 238.899 237.543 238.778 237.767C238.666 237.981 238.582 238.215 238.526 238.467C238.479 238.719 238.456 238.971 238.456 239.223V243.227H237V239.013C237 238.798 236.991 238.579 236.972 238.355C236.953 238.131 236.907 237.921 236.832 237.725C236.757 237.519 236.631 237.356 236.454 237.235C236.286 237.104 236.057 237.039 235.768 237.039C235.348 237.039 235.021 237.16 234.788 237.403C234.564 237.636 234.41 237.925 234.326 238.271C234.242 238.607 234.2 238.929 234.2 239.237V243.227H232.758ZM247.627 243.311C246.852 243.311 246.204 243.152 245.681 242.835C245.158 242.517 244.762 242.079 244.491 241.519C244.23 240.949 244.099 240.296 244.099 239.559C244.099 238.812 244.234 238.154 244.505 237.585C244.785 237.015 245.186 236.567 245.709 236.241C246.241 235.914 246.88 235.751 247.627 235.751C248.196 235.751 248.691 235.858 249.111 236.073C249.531 236.278 249.876 236.558 250.147 236.913C250.427 237.267 250.632 237.664 250.763 238.103C250.894 238.532 250.95 238.98 250.931 239.447C250.931 239.549 250.926 239.647 250.917 239.741C250.908 239.834 250.898 239.932 250.889 240.035H245.555C245.583 240.408 245.676 240.749 245.835 241.057C246.003 241.365 246.236 241.612 246.535 241.799C246.834 241.976 247.202 242.065 247.641 242.065C247.884 242.065 248.117 242.037 248.341 241.981C248.574 241.915 248.78 241.817 248.957 241.687C249.144 241.547 249.274 241.369 249.349 241.155H250.805C250.684 241.649 250.464 242.06 250.147 242.387C249.839 242.704 249.461 242.937 249.013 243.087C248.574 243.236 248.112 243.311 247.627 243.311ZM245.583 238.887H249.503C249.494 238.523 249.41 238.201 249.251 237.921C249.092 237.631 248.873 237.407 248.593 237.249C248.313 237.081 247.977 236.997 247.585 236.997C247.156 236.997 246.796 237.085 246.507 237.263C246.227 237.44 246.008 237.673 245.849 237.963C245.7 238.243 245.611 238.551 245.583 238.887ZM254.77 243.311C254.434 243.311 254.107 243.269 253.79 243.185C253.482 243.091 253.207 242.956 252.964 242.779C252.721 242.592 252.525 242.363 252.376 242.093C252.236 241.813 252.166 241.486 252.166 241.113C252.166 240.665 252.25 240.296 252.418 240.007C252.595 239.708 252.829 239.479 253.118 239.321C253.407 239.153 253.739 239.036 254.112 238.971C254.495 238.896 254.891 238.859 255.302 238.859H257.108C257.108 238.495 257.052 238.177 256.94 237.907C256.828 237.627 256.651 237.412 256.408 237.263C256.175 237.104 255.862 237.025 255.47 237.025C255.237 237.025 255.013 237.053 254.798 237.109C254.593 237.155 254.415 237.235 254.266 237.347C254.117 237.459 254.014 237.608 253.958 237.795H252.446C252.502 237.44 252.628 237.137 252.824 236.885C253.02 236.623 253.263 236.409 253.552 236.241C253.841 236.073 254.149 235.951 254.476 235.877C254.812 235.793 255.153 235.751 255.498 235.751C256.562 235.751 257.327 236.063 257.794 236.689C258.27 237.305 258.508 238.154 258.508 239.237V243.227H257.262L257.206 242.289C256.991 242.578 256.735 242.797 256.436 242.947C256.147 243.096 255.857 243.194 255.568 243.241C255.279 243.287 255.013 243.311 254.77 243.311ZM254.994 242.093C255.414 242.093 255.783 242.023 256.1 241.883C256.417 241.733 256.665 241.523 256.842 241.253C257.019 240.973 257.108 240.646 257.108 240.273V239.965H255.792C255.521 239.965 255.255 239.974 254.994 239.993C254.742 240.002 254.509 240.039 254.294 240.105C254.089 240.161 253.921 240.259 253.79 240.399C253.669 240.539 253.608 240.739 253.608 241.001C253.608 241.253 253.673 241.458 253.804 241.617C253.935 241.775 254.107 241.897 254.322 241.981C254.537 242.055 254.761 242.093 254.994 242.093ZM260.238 243.227V233.329H261.68V243.227H260.238ZM266.223 243.311C265.878 243.311 265.532 243.278 265.187 243.213C264.842 243.147 264.52 243.031 264.221 242.863C263.922 242.695 263.67 242.471 263.465 242.191C263.26 241.901 263.129 241.547 263.073 241.127H264.543C264.618 241.351 264.748 241.533 264.935 241.673C265.131 241.813 265.346 241.915 265.579 241.981C265.822 242.046 266.06 242.079 266.293 242.079C266.433 242.079 266.587 242.069 266.755 242.051C266.932 242.032 267.1 241.99 267.259 241.925C267.418 241.859 267.548 241.766 267.651 241.645C267.754 241.514 267.805 241.341 267.805 241.127C267.805 240.959 267.758 240.819 267.665 240.707C267.581 240.595 267.46 240.506 267.301 240.441C267.152 240.366 266.97 240.31 266.755 240.273C266.335 240.179 265.882 240.091 265.397 240.007C264.921 239.913 264.501 239.755 264.137 239.531C264.006 239.447 263.89 239.353 263.787 239.251C263.684 239.139 263.596 239.013 263.521 238.873C263.446 238.733 263.39 238.583 263.353 238.425C263.316 238.266 263.297 238.093 263.297 237.907C263.297 237.524 263.372 237.197 263.521 236.927C263.68 236.656 263.894 236.437 264.165 236.269C264.436 236.091 264.744 235.961 265.089 235.877C265.434 235.793 265.798 235.751 266.181 235.751C266.676 235.751 267.124 235.83 267.525 235.989C267.926 236.147 268.258 236.381 268.519 236.689C268.78 236.997 268.934 237.384 268.981 237.851H267.623C267.567 237.599 267.404 237.398 267.133 237.249C266.872 237.09 266.54 237.011 266.139 237.011C265.999 237.011 265.845 237.02 265.677 237.039C265.518 237.057 265.364 237.099 265.215 237.165C265.066 237.23 264.944 237.323 264.851 237.445C264.758 237.557 264.711 237.706 264.711 237.893C264.711 238.07 264.753 238.219 264.837 238.341C264.93 238.462 265.061 238.56 265.229 238.635C265.406 238.709 265.607 238.77 265.831 238.817C266.148 238.891 266.489 238.961 266.853 239.027C267.226 239.092 267.53 239.162 267.763 239.237C268.071 239.321 268.332 239.442 268.547 239.601C268.771 239.759 268.939 239.96 269.051 240.203C269.172 240.445 269.233 240.739 269.233 241.085C269.233 241.533 269.144 241.901 268.967 242.191C268.79 242.471 268.552 242.695 268.253 242.863C267.964 243.031 267.637 243.147 267.273 243.213C266.918 243.278 266.568 243.311 266.223 243.311ZM277.3 243.311C276.506 243.311 275.937 243.096 275.592 242.667C275.256 242.228 275.088 241.617 275.088 240.833V237.137H273.912V235.849H275.088V233.707H276.53V235.849H278.784V237.137H276.53V240.595C276.53 240.856 276.553 241.094 276.6 241.309C276.656 241.523 276.758 241.691 276.908 241.813C277.057 241.934 277.272 241.999 277.552 242.009C277.766 242.009 277.953 241.971 278.112 241.897C278.28 241.822 278.415 241.738 278.518 241.645L279.078 242.723C278.9 242.863 278.714 242.979 278.518 243.073C278.331 243.157 278.135 243.217 277.93 243.255C277.724 243.292 277.514 243.311 277.3 243.311ZM283.407 243.311C282.642 243.311 281.993 243.157 281.461 242.849C280.929 242.531 280.523 242.088 280.243 241.519C279.973 240.949 279.837 240.291 279.837 239.545C279.837 238.789 279.977 238.131 280.257 237.571C280.537 237.001 280.943 236.558 281.475 236.241C282.007 235.914 282.656 235.751 283.421 235.751C284.187 235.751 284.835 235.914 285.367 236.241C285.899 236.558 286.301 237.001 286.571 237.571C286.842 238.14 286.977 238.803 286.977 239.559C286.977 240.296 286.837 240.949 286.557 241.519C286.287 242.088 285.885 242.531 285.353 242.849C284.831 243.157 284.182 243.311 283.407 243.311ZM283.407 242.023C283.911 242.023 284.317 241.911 284.625 241.687C284.943 241.463 285.176 241.164 285.325 240.791C285.475 240.408 285.549 239.993 285.549 239.545C285.549 239.097 285.475 238.686 285.325 238.313C285.176 237.939 284.943 237.641 284.625 237.417C284.317 237.183 283.911 237.067 283.407 237.067C282.913 237.067 282.507 237.183 282.189 237.417C281.872 237.641 281.639 237.939 281.489 238.313C281.349 238.686 281.279 239.097 281.279 239.545C281.279 240.002 281.349 240.417 281.489 240.791C281.639 241.164 281.872 241.463 282.189 241.687C282.507 241.911 282.913 242.023 283.407 242.023ZM292.985 243.227V237.137H291.809V235.849H292.985V235.107C292.985 234.547 293.064 234.094 293.223 233.749C293.391 233.394 293.648 233.133 293.993 232.965C294.348 232.797 294.81 232.713 295.379 232.713H296.345V233.987H295.547C295.258 233.987 295.029 234.038 294.861 234.141C294.702 234.234 294.59 234.379 294.525 234.575C294.46 234.761 294.427 234.99 294.427 235.261V235.849H296.345V237.137H294.427V243.227H292.985ZM297.508 243.227V235.849H298.95V243.227H297.508ZM298.222 234.869C297.942 234.869 297.713 234.785 297.536 234.617C297.368 234.439 297.284 234.215 297.284 233.945C297.284 233.674 297.373 233.455 297.55 233.287C297.727 233.109 297.951 233.021 298.222 233.021C298.474 233.021 298.693 233.109 298.88 233.287C299.076 233.455 299.174 233.674 299.174 233.945C299.174 234.215 299.081 234.439 298.894 234.617C298.717 234.785 298.493 234.869 298.222 234.869ZM300.735 243.227V235.849H302.107L302.177 236.885C302.363 236.614 302.587 236.399 302.849 236.241C303.11 236.073 303.39 235.951 303.689 235.877C303.987 235.793 304.277 235.751 304.557 235.751C305.266 235.751 305.821 235.905 306.223 236.213C306.633 236.511 306.923 236.917 307.091 237.431C307.268 237.935 307.357 238.509 307.357 239.153V243.227H305.901V239.447C305.901 239.148 305.882 238.854 305.845 238.565C305.807 238.275 305.728 238.019 305.607 237.795C305.495 237.561 305.331 237.379 305.117 237.249C304.902 237.109 304.613 237.039 304.249 237.039C303.801 237.039 303.423 237.16 303.115 237.403C302.807 237.645 302.573 237.972 302.415 238.383C302.256 238.793 302.177 239.255 302.177 239.769V243.227H300.735ZM312.056 243.311C311.319 243.311 310.708 243.147 310.222 242.821C309.746 242.485 309.387 242.032 309.144 241.463C308.911 240.893 308.794 240.254 308.794 239.545C308.794 238.826 308.916 238.182 309.158 237.613C309.401 237.034 309.77 236.581 310.264 236.255C310.759 235.919 311.384 235.751 312.14 235.751C312.42 235.751 312.7 235.783 312.98 235.849C313.27 235.914 313.536 236.017 313.778 236.157C314.03 236.287 314.245 236.465 314.422 236.689V233.329H315.864V243.227H314.478L314.422 242.219C314.254 242.471 314.044 242.681 313.792 242.849C313.55 243.007 313.279 243.124 312.98 243.199C312.682 243.273 312.374 243.311 312.056 243.311ZM312.294 242.023C312.77 242.023 313.162 241.906 313.47 241.673C313.788 241.439 314.026 241.131 314.184 240.749C314.343 240.366 314.422 239.951 314.422 239.503C314.422 239.045 314.343 238.635 314.184 238.271C314.035 237.897 313.802 237.603 313.484 237.389C313.176 237.165 312.78 237.053 312.294 237.053C311.79 237.053 311.389 237.169 311.09 237.403C310.792 237.627 310.572 237.93 310.432 238.313C310.302 238.695 310.236 239.115 310.236 239.573C310.236 239.909 310.274 240.226 310.348 240.525C310.423 240.814 310.54 241.075 310.698 241.309C310.866 241.533 311.081 241.71 311.342 241.841C311.604 241.962 311.921 242.023 312.294 242.023ZM114.665 262.227C114.086 262.227 113.615 262.147 113.251 261.989C112.887 261.821 112.616 261.559 112.439 261.205C112.271 260.85 112.187 260.388 112.187 259.819V256.137H111.025V254.849H112.187V252.721H113.629V254.849H115.491V256.137H113.629V259.637C113.629 260.075 113.708 260.407 113.867 260.631C114.025 260.845 114.357 260.953 114.861 260.953H115.435V262.227H114.665ZM116.725 262.227V252.329H118.167V255.885C118.363 255.633 118.587 255.423 118.839 255.255C119.1 255.087 119.38 254.961 119.679 254.877C119.977 254.793 120.276 254.751 120.575 254.751C121.284 254.751 121.839 254.905 122.241 255.213C122.642 255.511 122.927 255.917 123.095 256.431C123.263 256.944 123.347 257.523 123.347 258.167V262.227H121.891V258.503C121.891 258.204 121.867 257.91 121.821 257.621C121.783 257.331 121.709 257.07 121.597 256.837C121.485 256.594 121.312 256.403 121.079 256.263C120.855 256.113 120.551 256.039 120.169 256.039C119.805 256.039 119.492 256.118 119.231 256.277C118.979 256.435 118.773 256.65 118.615 256.921C118.465 257.182 118.353 257.471 118.279 257.789C118.204 258.097 118.167 258.405 118.167 258.713V262.227H116.725ZM128.313 262.311C127.538 262.311 126.889 262.152 126.367 261.835C125.844 261.517 125.447 261.079 125.177 260.519C124.915 259.949 124.785 259.296 124.785 258.559C124.785 257.812 124.92 257.154 125.191 256.585C125.471 256.015 125.872 255.567 126.395 255.241C126.927 254.914 127.566 254.751 128.313 254.751C128.882 254.751 129.377 254.858 129.797 255.073C130.217 255.278 130.562 255.558 130.833 255.913C131.113 256.267 131.318 256.664 131.449 257.103C131.579 257.532 131.635 257.98 131.617 258.447C131.617 258.549 131.612 258.647 131.603 258.741C131.593 258.834 131.584 258.932 131.575 259.035H126.241C126.269 259.408 126.362 259.749 126.521 260.057C126.689 260.365 126.922 260.612 127.221 260.799C127.519 260.976 127.888 261.065 128.327 261.065C128.569 261.065 128.803 261.037 129.027 260.981C129.26 260.915 129.465 260.817 129.643 260.687C129.829 260.547 129.96 260.369 130.035 260.155H131.491C131.369 260.649 131.15 261.06 130.833 261.387C130.525 261.704 130.147 261.937 129.699 262.087C129.26 262.236 128.798 262.311 128.313 262.311ZM126.269 257.887H130.189C130.179 257.523 130.095 257.201 129.937 256.921C129.778 256.631 129.559 256.407 129.279 256.249C128.999 256.081 128.663 255.997 128.271 255.997C127.841 255.997 127.482 256.085 127.193 256.263C126.913 256.44 126.693 256.673 126.535 256.963C126.385 257.243 126.297 257.551 126.269 257.887ZM133.104 262.227V254.849H134.462L134.546 255.717C134.714 255.474 134.9 255.287 135.106 255.157C135.32 255.017 135.549 254.914 135.792 254.849C136.034 254.783 136.282 254.751 136.534 254.751C137.028 254.751 137.434 254.853 137.752 255.059C138.078 255.264 138.33 255.544 138.508 255.899C138.685 255.647 138.886 255.437 139.11 255.269C139.334 255.091 139.581 254.961 139.852 254.877C140.122 254.793 140.412 254.751 140.72 254.751C141.27 254.751 141.714 254.872 142.05 255.115C142.395 255.348 142.642 255.665 142.792 256.067C142.95 256.468 143.03 256.93 143.03 257.453V262.227H141.574V258.027C141.574 257.803 141.564 257.579 141.546 257.355C141.527 257.131 141.471 256.921 141.378 256.725C141.294 256.519 141.168 256.356 141 256.235C140.841 256.104 140.612 256.039 140.314 256.039C140.024 256.039 139.782 256.104 139.586 256.235C139.399 256.365 139.245 256.543 139.124 256.767C139.012 256.981 138.928 257.215 138.872 257.467C138.825 257.719 138.802 257.971 138.802 258.223V262.227H137.346V258.013C137.346 257.798 137.336 257.579 137.318 257.355C137.299 257.131 137.252 256.921 137.178 256.725C137.103 256.519 136.977 256.356 136.8 256.235C136.632 256.104 136.403 256.039 136.114 256.039C135.694 256.039 135.367 256.16 135.134 256.403C134.91 256.636 134.756 256.925 134.672 257.271C134.588 257.607 134.546 257.929 134.546 258.237V262.227H133.104ZM151.815 262.311C151.04 262.311 150.391 262.152 149.869 261.835C149.346 261.517 148.949 261.079 148.679 260.519C148.417 259.949 148.287 259.296 148.287 258.559C148.287 257.812 148.422 257.154 148.693 256.585C148.973 256.015 149.374 255.567 149.897 255.241C150.429 254.914 151.068 254.751 151.815 254.751C152.384 254.751 152.879 254.858 153.299 255.073C153.719 255.278 154.064 255.558 154.335 255.913C154.615 256.267 154.82 256.664 154.951 257.103C155.081 257.532 155.137 257.98 155.119 258.447C155.119 258.549 155.114 258.647 155.105 258.741C155.095 258.834 155.086 258.932 155.077 259.035H149.743C149.771 259.408 149.864 259.749 150.023 260.057C150.191 260.365 150.424 260.612 150.723 260.799C151.021 260.976 151.39 261.065 151.829 261.065C152.071 261.065 152.305 261.037 152.529 260.981C152.762 260.915 152.967 260.817 153.145 260.687C153.331 260.547 153.462 260.369 153.537 260.155H154.993C154.871 260.649 154.652 261.06 154.335 261.387C154.027 261.704 153.649 261.937 153.201 262.087C152.762 262.236 152.3 262.311 151.815 262.311ZM149.771 257.887H153.691C153.681 257.523 153.597 257.201 153.439 256.921C153.28 256.631 153.061 256.407 152.781 256.249C152.501 256.081 152.165 255.997 151.773 255.997C151.343 255.997 150.984 256.085 150.695 256.263C150.415 256.44 150.195 256.673 150.037 256.963C149.887 257.243 149.799 257.551 149.771 257.887ZM158.958 262.311C158.622 262.311 158.295 262.269 157.978 262.185C157.67 262.091 157.394 261.956 157.152 261.779C156.909 261.592 156.713 261.363 156.564 261.093C156.424 260.813 156.354 260.486 156.354 260.113C156.354 259.665 156.438 259.296 156.606 259.007C156.783 258.708 157.016 258.479 157.306 258.321C157.595 258.153 157.926 258.036 158.3 257.971C158.682 257.896 159.079 257.859 159.49 257.859H161.296C161.296 257.495 161.24 257.177 161.128 256.907C161.016 256.627 160.838 256.412 160.596 256.263C160.362 256.104 160.05 256.025 159.658 256.025C159.424 256.025 159.2 256.053 158.986 256.109C158.78 256.155 158.603 256.235 158.454 256.347C158.304 256.459 158.202 256.608 158.146 256.795H156.634C156.69 256.44 156.816 256.137 157.012 255.885C157.208 255.623 157.45 255.409 157.74 255.241C158.029 255.073 158.337 254.951 158.664 254.877C159 254.793 159.34 254.751 159.686 254.751C160.75 254.751 161.515 255.063 161.982 255.689C162.458 256.305 162.696 257.154 162.696 258.237V262.227H161.45L161.394 261.289C161.179 261.578 160.922 261.797 160.624 261.947C160.334 262.096 160.045 262.194 159.756 262.241C159.466 262.287 159.2 262.311 158.958 262.311ZM159.182 261.093C159.602 261.093 159.97 261.023 160.288 260.883C160.605 260.733 160.852 260.523 161.03 260.253C161.207 259.973 161.296 259.646 161.296 259.273V258.965H159.98C159.709 258.965 159.443 258.974 159.182 258.993C158.93 259.002 158.696 259.039 158.482 259.105C158.276 259.161 158.108 259.259 157.978 259.399C157.856 259.539 157.796 259.739 157.796 260.001C157.796 260.253 157.861 260.458 157.992 260.617C158.122 260.775 158.295 260.897 158.51 260.981C158.724 261.055 158.948 261.093 159.182 261.093ZM167.184 262.311C166.839 262.311 166.493 262.278 166.148 262.213C165.803 262.147 165.481 262.031 165.182 261.863C164.883 261.695 164.631 261.471 164.426 261.191C164.221 260.901 164.09 260.547 164.034 260.127H165.504C165.579 260.351 165.709 260.533 165.896 260.673C166.092 260.813 166.307 260.915 166.54 260.981C166.783 261.046 167.021 261.079 167.254 261.079C167.394 261.079 167.548 261.069 167.716 261.051C167.893 261.032 168.061 260.99 168.22 260.925C168.379 260.859 168.509 260.766 168.612 260.645C168.715 260.514 168.766 260.341 168.766 260.127C168.766 259.959 168.719 259.819 168.626 259.707C168.542 259.595 168.421 259.506 168.262 259.441C168.113 259.366 167.931 259.31 167.716 259.273C167.296 259.179 166.843 259.091 166.358 259.007C165.882 258.913 165.462 258.755 165.098 258.531C164.967 258.447 164.851 258.353 164.748 258.251C164.645 258.139 164.557 258.013 164.482 257.873C164.407 257.733 164.351 257.583 164.314 257.425C164.277 257.266 164.258 257.093 164.258 256.907C164.258 256.524 164.333 256.197 164.482 255.927C164.641 255.656 164.855 255.437 165.126 255.269C165.397 255.091 165.705 254.961 166.05 254.877C166.395 254.793 166.759 254.751 167.142 254.751C167.637 254.751 168.085 254.83 168.486 254.989C168.887 255.147 169.219 255.381 169.48 255.689C169.741 255.997 169.895 256.384 169.942 256.851H168.584C168.528 256.599 168.365 256.398 168.094 256.249C167.833 256.09 167.501 256.011 167.1 256.011C166.96 256.011 166.806 256.02 166.638 256.039C166.479 256.057 166.325 256.099 166.176 256.165C166.027 256.23 165.905 256.323 165.812 256.445C165.719 256.557 165.672 256.706 165.672 256.893C165.672 257.07 165.714 257.219 165.798 257.341C165.891 257.462 166.022 257.56 166.19 257.635C166.367 257.709 166.568 257.77 166.792 257.817C167.109 257.891 167.45 257.961 167.814 258.027C168.187 258.092 168.491 258.162 168.724 258.237C169.032 258.321 169.293 258.442 169.508 258.601C169.732 258.759 169.9 258.96 170.012 259.203C170.133 259.445 170.194 259.739 170.194 260.085C170.194 260.533 170.105 260.901 169.928 261.191C169.751 261.471 169.513 261.695 169.214 261.863C168.925 262.031 168.598 262.147 168.234 262.213C167.879 262.278 167.529 262.311 167.184 262.311ZM171.563 262.227V254.849H173.005V262.227H171.563ZM172.277 253.869C171.997 253.869 171.768 253.785 171.591 253.617C171.423 253.439 171.339 253.215 171.339 252.945C171.339 252.674 171.427 252.455 171.605 252.287C171.782 252.109 172.006 252.021 172.277 252.021C172.529 252.021 172.748 252.109 172.935 252.287C173.131 252.455 173.229 252.674 173.229 252.945C173.229 253.215 173.135 253.439 172.949 253.617C172.771 253.785 172.547 253.869 172.277 253.869ZM174.789 262.227V252.329H176.231V262.227H174.789ZM181.264 265.559C180.694 265.559 180.144 265.479 179.612 265.321C179.08 265.171 178.594 264.905 178.156 264.523L178.73 263.375C179.066 263.645 179.434 263.86 179.836 264.019C180.246 264.177 180.68 264.257 181.138 264.257C181.894 264.257 182.44 264.051 182.776 263.641C183.112 263.23 183.28 262.693 183.28 262.031V261.317C183.112 261.55 182.902 261.746 182.65 261.905C182.407 262.054 182.136 262.161 181.838 262.227C181.539 262.301 181.236 262.339 180.928 262.339C180.209 262.339 179.635 262.194 179.206 261.905C178.786 261.606 178.482 261.2 178.296 260.687C178.118 260.173 178.03 259.581 178.03 258.909V254.849H179.486V258.559C179.486 258.857 179.504 259.156 179.542 259.455C179.579 259.753 179.658 260.024 179.78 260.267C179.901 260.5 180.078 260.691 180.312 260.841C180.545 260.981 180.862 261.051 181.264 261.051C181.768 261.051 182.164 260.929 182.454 260.687C182.743 260.435 182.948 260.108 183.07 259.707C183.191 259.296 183.252 258.853 183.252 258.377V254.849H184.694V261.877C184.694 262.455 184.624 262.973 184.484 263.431C184.353 263.888 184.143 264.275 183.854 264.593C183.574 264.91 183.219 265.148 182.79 265.307C182.37 265.475 181.861 265.559 181.264 265.559ZM190.293 262.227V254.849H191.665L191.735 255.885C191.922 255.614 192.146 255.399 192.407 255.241C192.668 255.073 192.948 254.951 193.247 254.877C193.546 254.793 193.835 254.751 194.115 254.751C194.824 254.751 195.38 254.905 195.781 255.213C196.192 255.511 196.481 255.917 196.649 256.431C196.826 256.935 196.915 257.509 196.915 258.153V262.227H195.459V258.447C195.459 258.148 195.44 257.854 195.403 257.565C195.366 257.275 195.286 257.019 195.165 256.795C195.053 256.561 194.89 256.379 194.675 256.249C194.46 256.109 194.171 256.039 193.807 256.039C193.359 256.039 192.981 256.16 192.673 256.403C192.365 256.645 192.132 256.972 191.973 257.383C191.814 257.793 191.735 258.255 191.735 258.769V262.227H190.293ZM201.881 262.311C201.106 262.311 200.458 262.152 199.935 261.835C199.412 261.517 199.016 261.079 198.745 260.519C198.484 259.949 198.353 259.296 198.353 258.559C198.353 257.812 198.488 257.154 198.759 256.585C199.039 256.015 199.44 255.567 199.963 255.241C200.495 254.914 201.134 254.751 201.881 254.751C202.45 254.751 202.945 254.858 203.365 255.073C203.785 255.278 204.13 255.558 204.401 255.913C204.681 256.267 204.886 256.664 205.017 257.103C205.148 257.532 205.204 257.98 205.185 258.447C205.185 258.549 205.18 258.647 205.171 258.741C205.162 258.834 205.152 258.932 205.143 259.035H199.809C199.837 259.408 199.93 259.749 200.089 260.057C200.257 260.365 200.49 260.612 200.789 260.799C201.088 260.976 201.456 261.065 201.895 261.065C202.138 261.065 202.371 261.037 202.595 260.981C202.828 260.915 203.034 260.817 203.211 260.687C203.398 260.547 203.528 260.369 203.603 260.155H205.059C204.938 260.649 204.718 261.06 204.401 261.387C204.093 261.704 203.715 261.937 203.267 262.087C202.828 262.236 202.366 262.311 201.881 262.311ZM199.837 257.887H203.757C203.748 257.523 203.664 257.201 203.505 256.921C203.346 256.631 203.127 256.407 202.847 256.249C202.567 256.081 202.231 255.997 201.839 255.997C201.41 255.997 201.05 256.085 200.761 256.263C200.481 256.44 200.262 256.673 200.103 256.963C199.954 257.243 199.865 257.551 199.837 257.887ZM205.807 262.227L208.425 258.461L205.933 254.849H207.655L209.391 257.495L211.071 254.849H212.737L210.259 258.503L212.919 262.227H211.211L209.307 259.539L207.431 262.227H205.807ZM216.815 262.311C216.022 262.311 215.452 262.096 215.107 261.667C214.771 261.228 214.603 260.617 214.603 259.833V256.137H213.427V254.849H214.603V252.707H216.045V254.849H218.299V256.137H216.045V259.595C216.045 259.856 216.068 260.094 216.115 260.309C216.171 260.523 216.274 260.691 216.423 260.813C216.572 260.934 216.787 260.999 217.067 261.009C217.282 261.009 217.468 260.971 217.627 260.897C217.795 260.822 217.93 260.738 218.033 260.645L218.593 261.723C218.416 261.863 218.229 261.979 218.033 262.073C217.846 262.157 217.65 262.217 217.445 262.255C217.24 262.292 217.03 262.311 216.815 262.311ZM226.583 262.227C226.004 262.227 225.533 262.147 225.169 261.989C224.805 261.821 224.534 261.559 224.357 261.205C224.189 260.85 224.105 260.388 224.105 259.819V256.137H222.943V254.849H224.105V252.721H225.547V254.849H227.409V256.137H225.547V259.637C225.547 260.075 225.626 260.407 225.785 260.631C225.943 260.845 226.275 260.953 226.779 260.953H227.353V262.227H226.583ZM228.643 262.227V254.849H230.085V262.227H228.643ZM229.357 253.869C229.077 253.869 228.848 253.785 228.671 253.617C228.503 253.439 228.419 253.215 228.419 252.945C228.419 252.674 228.507 252.455 228.685 252.287C228.862 252.109 229.086 252.021 229.357 252.021C229.609 252.021 229.828 252.109 230.015 252.287C230.211 252.455 230.309 252.674 230.309 252.945C230.309 253.215 230.215 253.439 230.029 253.617C229.851 253.785 229.627 253.869 229.357 253.869ZM231.869 262.227V254.849H233.227L233.311 255.717C233.479 255.474 233.666 255.287 233.871 255.157C234.086 255.017 234.315 254.914 234.557 254.849C234.8 254.783 235.047 254.751 235.299 254.751C235.794 254.751 236.2 254.853 236.517 255.059C236.844 255.264 237.096 255.544 237.273 255.899C237.451 255.647 237.651 255.437 237.875 255.269C238.099 255.091 238.347 254.961 238.617 254.877C238.888 254.793 239.177 254.751 239.485 254.751C240.036 254.751 240.479 254.872 240.815 255.115C241.161 255.348 241.408 255.665 241.557 256.067C241.716 256.468 241.795 256.93 241.795 257.453V262.227H240.339V258.027C240.339 257.803 240.33 257.579 240.311 257.355C240.293 257.131 240.237 256.921 240.143 256.725C240.059 256.519 239.933 256.356 239.765 256.235C239.607 256.104 239.378 256.039 239.079 256.039C238.79 256.039 238.547 256.104 238.351 256.235C238.165 256.365 238.011 256.543 237.889 256.767C237.777 256.981 237.693 257.215 237.637 257.467C237.591 257.719 237.567 257.971 237.567 258.223V262.227H236.111V258.013C236.111 257.798 236.102 257.579 236.083 257.355C236.065 257.131 236.018 256.921 235.943 256.725C235.869 256.519 235.743 256.356 235.565 256.235C235.397 256.104 235.169 256.039 234.879 256.039C234.459 256.039 234.133 256.16 233.899 256.403C233.675 256.636 233.521 256.925 233.437 257.271C233.353 257.607 233.311 257.929 233.311 258.237V262.227H231.869ZM246.738 262.311C245.964 262.311 245.315 262.152 244.792 261.835C244.27 261.517 243.873 261.079 243.602 260.519C243.341 259.949 243.21 259.296 243.21 258.559C243.21 257.812 243.346 257.154 243.616 256.585C243.896 256.015 244.298 255.567 244.82 255.241C245.352 254.914 245.992 254.751 246.738 254.751C247.308 254.751 247.802 254.858 248.222 255.073C248.642 255.278 248.988 255.558 249.258 255.913C249.538 256.267 249.744 256.664 249.874 257.103C250.005 257.532 250.061 257.98 250.042 258.447C250.042 258.549 250.038 258.647 250.028 258.741C250.019 258.834 250.01 258.932 250 259.035H244.666C244.694 259.408 244.788 259.749 244.946 260.057C245.114 260.365 245.348 260.612 245.646 260.799C245.945 260.976 246.314 261.065 246.752 261.065C246.995 261.065 247.228 261.037 247.452 260.981C247.686 260.915 247.891 260.817 248.068 260.687C248.255 260.547 248.386 260.369 248.46 260.155H249.916C249.795 260.649 249.576 261.06 249.258 261.387C248.95 261.704 248.572 261.937 248.124 262.087C247.686 262.236 247.224 262.311 246.738 262.311ZM244.694 257.887H248.614C248.605 257.523 248.521 257.201 248.362 256.921C248.204 256.631 247.984 256.407 247.704 256.249C247.424 256.081 247.088 255.997 246.696 255.997C246.267 255.997 245.908 256.085 245.618 256.263C245.338 256.44 245.119 256.673 244.96 256.963C244.811 257.243 244.722 257.551 244.694 257.887ZM252.495 262.367C252.215 262.367 251.982 262.278 251.795 262.101C251.618 261.923 251.529 261.69 251.529 261.401C251.529 261.111 251.623 260.878 251.809 260.701C251.996 260.514 252.225 260.421 252.495 260.421C252.766 260.421 252.99 260.514 253.167 260.701C253.354 260.878 253.447 261.111 253.447 261.401C253.447 261.69 253.354 261.923 253.167 262.101C252.99 262.278 252.766 262.367 252.495 262.367Z" fill="#7A7A7A"/>
<defs>
<linearGradient id="paint0_linear_3681_1347" x1="254.003" y1="10.2308" x2="233.541" y2="16.619" gradientUnits="userSpaceOnUse">
<stop stop-color="#FF722D"/>
<stop offset="1" stop-color="#E2AE95"/>
</linearGradient>
<linearGradient id="paint1_linear_3681_1347" x1="116.509" y1="141.129" x2="110.251" y2="161.631" gradientUnits="userSpaceOnUse">
<stop stop-color="#FF722D"/>
<stop offset="1" stop-color="#E2AE95"/>
</linearGradient>
</defs>
</svg>
