<svg width="370" height="272" viewBox="0 0 370 272" fill="none" xmlns="http://www.w3.org/2000/svg">
<path fill-rule="evenodd" clip-rule="evenodd" d="M294.646 32C300.171 32 304.649 36.4786 304.649 42.0033C304.649 47.5279 300.171 52.0065 294.646 52.0065H237.484C243.009 52.0065 247.488 56.4851 247.488 62.0098C247.488 67.5344 243.009 72.013 237.484 72.013H268.923C274.448 72.013 278.927 76.4917 278.927 82.0163C278.927 87.541 274.448 92.0196 268.923 92.0196H254.384C247.419 92.0196 241.772 96.4982 241.772 102.023C241.772 105.706 244.63 109.04 250.346 112.026C255.87 112.026 260.349 116.505 260.349 122.029C260.349 127.554 255.87 132.033 250.346 132.033H131.736C126.211 132.033 121.732 127.554 121.732 122.029C121.732 116.505 126.211 112.026 131.736 112.026H76.0033C70.4786 112.026 66 107.547 66 102.023C66 96.4982 70.4786 92.0196 76.0033 92.0196H133.165C138.689 92.0196 143.168 87.541 143.168 82.0163C143.168 76.4917 138.689 72.013 133.165 72.013H97.4388C91.9142 72.013 87.4356 67.5344 87.4356 62.0098C87.4356 56.4851 91.9142 52.0065 97.4388 52.0065H154.6C149.076 52.0065 144.597 47.5279 144.597 42.0033C144.597 36.4786 149.076 32 154.6 32H294.646ZM294.646 72.013C300.171 72.013 304.649 76.4917 304.649 82.0163C304.649 87.541 300.171 92.0196 294.646 92.0196C289.121 92.0196 284.643 87.541 284.643 82.0163C284.643 76.4917 289.121 72.013 294.646 72.013Z" fill="#272727"/>
<path d="M160.205 137.37C161.176 137.196 161.823 136.268 161.649 135.297C161.475 134.325 160.547 133.679 159.576 133.853L159.891 135.611L160.205 137.37ZM149.611 136.183C148.666 136.466 148.129 137.462 148.412 138.407C148.695 139.352 149.691 139.889 150.636 139.606L150.123 137.895L149.611 136.183ZM144.891 141.664C145.797 141.274 146.215 140.223 145.825 139.317C145.435 138.411 144.384 137.993 143.478 138.383L144.184 140.023L144.891 141.664ZM210.4 133.993C209.43 133.812 208.498 134.452 208.317 135.422C208.136 136.392 208.776 137.324 209.746 137.505L210.073 135.749L210.4 133.993ZM159.891 135.611L159.576 133.853C155.969 134.499 152.624 135.282 149.611 136.183L150.123 137.895L150.636 139.606C153.5 138.749 156.712 137.995 160.205 137.37L159.891 135.611ZM144.184 140.023L143.478 138.383C140.357 139.727 137.752 141.276 135.899 143.032C134.044 144.789 132.807 146.891 132.807 149.282H134.594H136.38C136.38 148.21 136.923 146.982 138.356 145.625C139.791 144.266 141.981 142.917 144.891 141.664L144.184 140.023ZM134.594 149.282H132.807C132.807 152.28 134.738 154.812 137.459 156.834C140.213 158.88 144.084 160.648 148.708 162.101C157.975 165.014 170.668 166.787 184.61 166.787V165.001V163.215C170.929 163.215 158.613 161.469 149.779 158.693C145.351 157.301 141.898 155.681 139.59 153.966C137.248 152.227 136.38 150.624 136.38 149.282H134.594ZM184.61 165.001V166.787C198.552 166.787 211.245 165.014 220.512 162.101C225.136 160.648 229.007 158.88 231.761 156.834C234.482 154.812 236.413 152.28 236.413 149.282H234.626H232.84C232.84 150.624 231.972 152.227 229.63 153.966C227.323 155.681 223.869 157.301 219.441 158.693C210.607 161.469 198.292 163.215 184.61 163.215V165.001ZM234.626 149.282H236.413C236.413 145.327 233.091 142.174 228.71 139.81C224.184 137.367 217.846 135.38 210.4 133.993L210.073 135.749L209.746 137.505C216.999 138.856 222.938 140.755 227.013 142.954C231.235 145.232 232.84 147.477 232.84 149.282H234.626Z" fill="#595959"/>
<path d="M134.35 64.1328C134.433 65.5132 134.498 66.8168 134.635 68.1289C134.872 70.3951 135.193 72.5237 135.453 74.8281C135.848 78.3325 136.228 81.8398 136.583 85.3496C136.698 86.483 136.79 87.618 136.883 88.7432C136.976 89.8709 137.069 90.9898 137.187 92.1045C137.532 95.3865 137.938 98.6014 138.298 101.9C138.52 103.935 138.692 106.082 138.901 108.09C139.266 111.579 139.668 115.103 140.022 118.605C140.251 120.864 140.428 123.13 140.618 125.377C140.909 128.82 141.211 131.859 143.862 134.025C145.504 135.367 147.183 136.221 149.238 136.213C156.162 136.186 163.088 136.203 170.008 136.203H170.742C170.272 134.358 169.818 132.585 169.32 130.735H169.319L169.316 130.722C168.755 128.468 168.326 126.454 167.786 124.354C166.473 119.247 169.294 114.557 173.718 112.66C174.154 112.473 174.273 112.333 174.315 112.259C174.36 112.181 174.404 112.036 174.373 111.643C174.133 108.572 174.772 105.676 175.957 102.914C178.191 97.7056 181.959 93.9641 187.147 91.7686C187.591 91.5809 187.714 91.4281 187.763 91.3369C187.823 91.2233 187.861 91.0382 187.844 90.6025C187.722 87.4692 188.169 84.4056 189.398 81.4668C190.815 78.0804 192.811 75.0027 195.961 72.8477C196.825 72.2565 197.508 71.7458 197.975 71.1299C198.415 70.5483 198.68 69.8452 198.624 68.8174C198.573 67.8755 198.652 66.9409 198.761 66.0303C198.839 65.375 198.929 64.7597 199.007 64.1328H134.35Z" fill="#3C3C3C" stroke="#666666" stroke-width="1.5"/>
<path d="M177.911 118.463C176.848 118.459 175.74 118.87 174.995 119.628C174.277 120.359 173.847 121.459 174.18 122.986C174.978 126.646 175.992 130.263 176.993 133.908C177.204 134.677 177.605 135.238 178.123 135.611C178.645 135.987 179.329 136.203 180.15 136.203C193.231 136.205 206.312 136.204 219.536 136.204C225.586 136.204 231.526 136.128 237.453 136.249C238.971 136.28 240.458 135.245 240.858 133.582C241.737 129.938 242.669 126.348 243.449 122.713C243.748 121.319 243.404 120.302 242.814 119.627C242.208 118.932 241.286 118.534 240.339 118.51C239.158 118.479 237.993 118.505 236.777 118.505C217.158 118.505 197.534 118.537 177.911 118.463Z" fill="#3D3D3D" stroke="#666666" stroke-width="1.5"/>
<path opacity="0.8" d="M236.019 72.5498C234.541 71.9054 232.58 72.4309 231.487 74.0625C226.191 81.9752 220.957 89.9793 215.626 97.8838C215.218 98.4882 214.665 98.9556 214.165 99.3535C213.636 99.7738 213.178 100.108 212.789 100.51C211.618 101.718 210.553 102.998 209.351 104.351L208.712 105.067L208.171 104.274C205.694 100.648 202.819 98.2349 199.589 97.1904C196.371 96.1501 192.695 96.4332 188.534 98.3984C183.607 100.726 180.522 105.72 181.053 111.751H236.83C236.918 108.344 236.015 105.277 234.026 102.466C232.423 100.2 230.18 98.7669 227.519 97.543C227.023 97.3974 226.621 97.2606 226.067 97.0693L225.255 96.7881L225.643 96.0215C225.851 95.6105 226.106 94.9842 226.428 94.5C230.047 89.0484 233.692 83.5992 237.312 78.1523C238.798 75.9174 238.103 73.4591 236.019 72.5498Z" fill="white" stroke="#666666" stroke-width="1.5"/>
<path opacity="0.8" d="M135.002 49.8364C133.618 49.8364 132.374 49.8823 131.135 49.8263C128.973 49.7285 127.247 51.3734 127.012 53.9245C126.823 55.9743 128.906 58.072 131.045 58.1456C131.236 58.1522 131.427 58.1468 131.618 58.1468C154.968 58.1468 178.317 58.147 201.666 58.1464C204.209 58.1463 205.275 57.3609 206.084 55.0599C207.075 52.2444 204.433 49.7797 202.261 49.7983C192.187 49.8846 182.111 49.8167 172.036 49.8609C170.746 49.8665 170.068 49.7559 169.794 48.1853C168.83 42.6684 167.593 37.1998 166.547 31.6963C166.202 29.8802 164.535 27.9338 162.336 28.0017C156.85 28.1713 151.353 28.148 145.866 28.0125C143.714 27.9594 141.717 30.0027 141.84 31.9915C141.997 34.5338 143.569 36.3607 145.982 36.3658C149.85 36.3739 153.718 36.3993 157.585 36.347C158.61 36.3331 158.927 36.6936 159.104 37.6849C159.743 41.2693 160.51 44.8308 161.221 48.4024C161.303 48.8127 161.338 49.2324 161.42 49.8364C152.59 49.8364 143.868 49.8364 135.002 49.8364Z" fill="white"/>
<path opacity="0.8" d="M219.736 79.9746C215.981 75.4146 209.374 73.5172 203.073 76.1182C198.003 78.2115 194.237 83.5198 194.524 90.0244C199.362 89.94 203.809 91.3652 207.861 94.2871L207.874 94.2959L207.887 94.3057C208.26 94.5989 208.599 94.858 208.922 95.1035C210.293 94.0648 211.322 92.7623 212.268 91.3369C212.792 90.5463 213.279 89.7391 213.793 88.9121C214.302 88.0933 214.833 87.2662 215.425 86.4775C216.977 84.4077 218.292 82.2018 219.736 79.9746Z" fill="white" stroke="#666666" stroke-width="1.5"/>
<path opacity="0.75" fill-rule="evenodd" clip-rule="evenodd" d="M242.075 20.198C242.434 16.697 241.343 13.2019 239.056 10.5271L237.279 8.44923L239.999 8.72819C243.5 9.08729 246.995 7.99607 249.67 5.70887L251.748 3.93206L251.469 6.65177C251.11 10.1527 252.201 13.6479 254.488 16.3226L256.265 18.4005L253.545 18.1216C250.044 17.7625 246.549 18.8537 243.874 21.1409L241.796 22.9177L242.075 20.198Z" stroke="url(#paint0_linear_3694_2235)" stroke-width="3.57259" stroke-linejoin="round"/>
<path opacity="0.75" fill-rule="evenodd" clip-rule="evenodd" d="M119.327 159.077C116.638 156.807 113.136 155.738 109.637 156.12L106.919 156.416L108.683 154.327C110.953 151.637 112.022 148.135 111.64 144.637L111.344 141.919L113.433 143.682C116.122 145.952 119.624 147.021 123.123 146.64L125.841 146.343L124.077 148.433C121.807 151.122 120.739 154.624 121.12 158.123L121.416 160.84L119.327 159.077Z" stroke="url(#paint1_linear_3694_2235)" stroke-width="3.57259" stroke-linejoin="round"/>
<path d="M83.6217 214.227V198.651H86.8337L94.0277 209.189V198.651H97.1737V214.227H94.0497L86.7677 203.799V214.227H83.6217ZM105.437 214.381C104.264 214.381 103.237 214.146 102.357 213.677C101.477 213.193 100.795 212.511 100.311 211.631C99.8274 210.736 99.5854 209.68 99.5854 208.463C99.5854 207.216 99.8274 206.145 100.311 205.251C100.81 204.341 101.499 203.645 102.379 203.161C103.259 202.677 104.271 202.435 105.415 202.435C106.589 202.435 107.608 202.684 108.473 203.183C109.339 203.681 110.013 204.378 110.497 205.273C110.981 206.167 111.223 207.238 111.223 208.485C111.223 209.702 110.981 210.758 110.497 211.653C110.028 212.533 109.361 213.207 108.495 213.677C107.645 214.146 106.625 214.381 105.437 214.381ZM105.393 211.565C106.068 211.565 106.611 211.418 107.021 211.125C107.432 210.831 107.725 210.45 107.901 209.981C108.092 209.497 108.187 208.991 108.187 208.463C108.187 207.935 108.092 207.429 107.901 206.945C107.725 206.461 107.432 206.065 107.021 205.757C106.625 205.434 106.083 205.273 105.393 205.273C104.733 205.273 104.198 205.434 103.787 205.757C103.377 206.065 103.076 206.461 102.885 206.945C102.709 207.429 102.621 207.935 102.621 208.463C102.621 209.005 102.709 209.511 102.885 209.981C103.076 210.45 103.377 210.831 103.787 211.125C104.198 211.418 104.733 211.565 105.393 211.565ZM119.844 214.227V198.651H124.024L128.182 206.175L132.296 198.651H136.322V214.227H133.176V202.853L128.754 210.751H127.478L122.99 202.853V214.227H119.844ZM144.493 214.381C143.276 214.381 142.242 214.139 141.391 213.655C140.541 213.171 139.888 212.489 139.433 211.609C138.979 210.714 138.751 209.673 138.751 208.485C138.751 207.282 138.986 206.233 139.455 205.339C139.925 204.429 140.585 203.718 141.435 203.205C142.301 202.691 143.32 202.435 144.493 202.435C145.373 202.435 146.143 202.581 146.803 202.875C147.478 203.168 148.043 203.579 148.497 204.107C148.967 204.635 149.311 205.251 149.531 205.955C149.766 206.644 149.876 207.392 149.861 208.199C149.861 208.404 149.854 208.602 149.839 208.793C149.825 208.983 149.795 209.174 149.751 209.365H141.809C141.853 209.805 141.978 210.208 142.183 210.575C142.389 210.941 142.675 211.235 143.041 211.455C143.423 211.66 143.892 211.763 144.449 211.763C144.816 211.763 145.153 211.726 145.461 211.653C145.769 211.565 146.033 211.433 146.253 211.257C146.473 211.081 146.627 210.875 146.715 210.641H149.751C149.561 211.506 149.201 212.217 148.673 212.775C148.16 213.332 147.537 213.743 146.803 214.007C146.07 214.256 145.3 214.381 144.493 214.381ZM141.875 207.209H146.913C146.899 206.813 146.796 206.446 146.605 206.109C146.429 205.757 146.158 205.478 145.791 205.273C145.439 205.053 144.985 204.943 144.427 204.943C143.87 204.943 143.401 205.053 143.019 205.273C142.653 205.493 142.374 205.779 142.183 206.131C142.007 206.468 141.905 206.827 141.875 207.209ZM155.52 214.381C154.992 214.381 154.478 214.315 153.98 214.183C153.496 214.036 153.063 213.816 152.682 213.523C152.3 213.229 152 212.863 151.78 212.423C151.56 211.983 151.45 211.469 151.45 210.883C151.45 210.091 151.611 209.46 151.934 208.991C152.256 208.507 152.689 208.14 153.232 207.891C153.774 207.641 154.398 207.473 155.102 207.385C155.82 207.297 156.561 207.253 157.324 207.253H158.996C158.996 206.827 158.915 206.453 158.754 206.131C158.607 205.793 158.38 205.537 158.072 205.361C157.764 205.17 157.368 205.075 156.884 205.075C156.576 205.075 156.275 205.119 155.982 205.207C155.703 205.28 155.468 205.39 155.278 205.537C155.087 205.683 154.962 205.874 154.904 206.109H151.78C151.868 205.463 152.073 204.913 152.396 204.459C152.718 203.989 153.122 203.608 153.606 203.315C154.09 203.021 154.618 202.809 155.19 202.677C155.776 202.53 156.378 202.457 156.994 202.457C158.68 202.457 159.927 202.941 160.734 203.909C161.54 204.862 161.944 206.219 161.944 207.979V214.227H159.172L159.128 212.731C158.761 213.244 158.343 213.618 157.874 213.853C157.419 214.087 156.979 214.234 156.554 214.293C156.128 214.351 155.784 214.381 155.52 214.381ZM156.224 211.939C156.737 211.939 157.206 211.836 157.632 211.631C158.057 211.425 158.394 211.147 158.644 210.795C158.893 210.443 159.018 210.047 159.018 209.607V209.321H156.906C156.598 209.321 156.297 209.335 156.004 209.365C155.725 209.394 155.468 209.453 155.234 209.541C155.014 209.614 154.838 209.739 154.706 209.915C154.574 210.091 154.508 210.325 154.508 210.619C154.508 210.912 154.581 211.161 154.728 211.367C154.889 211.557 155.102 211.704 155.366 211.807C155.63 211.895 155.916 211.939 156.224 211.939ZM164.35 214.227V198.651H167.43V214.227H164.35ZM174.403 214.381C173.86 214.381 173.303 214.322 172.731 214.205C172.159 214.087 171.631 213.889 171.147 213.611C170.663 213.317 170.252 212.929 169.915 212.445C169.578 211.946 169.358 211.33 169.255 210.597H172.379C172.467 210.861 172.621 211.088 172.841 211.279C173.076 211.469 173.34 211.609 173.633 211.697C173.941 211.785 174.249 211.829 174.557 211.829C174.762 211.829 174.968 211.814 175.173 211.785C175.378 211.755 175.569 211.697 175.745 211.609C175.921 211.521 176.06 211.411 176.163 211.279C176.266 211.132 176.317 210.949 176.317 210.729C176.317 210.494 176.244 210.311 176.097 210.179C175.95 210.047 175.745 209.944 175.481 209.871C175.217 209.783 174.916 209.702 174.579 209.629C173.978 209.497 173.332 209.35 172.643 209.189C171.954 209.027 171.36 208.793 170.861 208.485C170.656 208.338 170.472 208.177 170.311 208.001C170.15 207.825 170.018 207.627 169.915 207.407C169.812 207.187 169.732 206.959 169.673 206.725C169.614 206.475 169.585 206.211 169.585 205.933C169.585 205.302 169.717 204.767 169.981 204.327C170.26 203.872 170.626 203.505 171.081 203.227C171.536 202.948 172.042 202.75 172.599 202.633C173.156 202.501 173.728 202.435 174.315 202.435C175.107 202.435 175.84 202.567 176.515 202.831C177.19 203.08 177.747 203.476 178.187 204.019C178.627 204.547 178.898 205.236 179.001 206.087H176.053C175.994 205.764 175.796 205.507 175.459 205.317C175.122 205.111 174.704 205.009 174.205 205.009C174.029 205.009 173.838 205.023 173.633 205.053C173.442 205.082 173.266 205.133 173.105 205.207C172.944 205.28 172.812 205.383 172.709 205.515C172.606 205.632 172.555 205.793 172.555 205.999C172.555 206.16 172.599 206.307 172.687 206.439C172.79 206.571 172.929 206.681 173.105 206.769C173.296 206.857 173.523 206.937 173.787 207.011C174.286 207.128 174.784 207.238 175.283 207.341C175.796 207.429 176.251 207.524 176.647 207.627C177.131 207.729 177.571 207.898 177.967 208.133C178.378 208.367 178.708 208.69 178.957 209.101C179.221 209.497 179.353 210.017 179.353 210.663C179.353 211.396 179.206 212.005 178.913 212.489C178.62 212.958 178.224 213.332 177.725 213.611C177.241 213.889 176.706 214.087 176.119 214.205C175.547 214.322 174.975 214.381 174.403 214.381ZM186.171 214.227L192.243 198.651H195.763L201.769 214.227H198.381L197.413 211.565H190.527L189.559 214.227H186.171ZM191.539 208.727H196.423L194.003 201.995L191.539 208.727ZM205.194 214.227L201.124 202.633H204.49L207.262 211.719L210.012 202.633H213.4L209.33 214.227H205.194ZM218.276 214.381C217.748 214.381 217.234 214.315 216.736 214.183C216.252 214.036 215.819 213.816 215.438 213.523C215.056 213.229 214.756 212.863 214.536 212.423C214.316 211.983 214.206 211.469 214.206 210.883C214.206 210.091 214.367 209.46 214.69 208.991C215.012 208.507 215.445 208.14 215.988 207.891C216.53 207.641 217.154 207.473 217.858 207.385C218.576 207.297 219.317 207.253 220.08 207.253H221.752C221.752 206.827 221.671 206.453 221.51 206.131C221.363 205.793 221.136 205.537 220.828 205.361C220.52 205.17 220.124 205.075 219.64 205.075C219.332 205.075 219.031 205.119 218.738 205.207C218.459 205.28 218.224 205.39 218.034 205.537C217.843 205.683 217.718 205.874 217.66 206.109H214.536C214.624 205.463 214.829 204.913 215.152 204.459C215.474 203.989 215.878 203.608 216.362 203.315C216.846 203.021 217.374 202.809 217.946 202.677C218.532 202.53 219.134 202.457 219.75 202.457C221.436 202.457 222.683 202.941 223.49 203.909C224.296 204.862 224.7 206.219 224.7 207.979V214.227H221.928L221.884 212.731C221.517 213.244 221.099 213.618 220.63 213.853C220.175 214.087 219.735 214.234 219.31 214.293C218.884 214.351 218.54 214.381 218.276 214.381ZM218.98 211.939C219.493 211.939 219.962 211.836 220.388 211.631C220.813 211.425 221.15 211.147 221.4 210.795C221.649 210.443 221.774 210.047 221.774 209.607V209.321H219.662C219.354 209.321 219.053 209.335 218.76 209.365C218.481 209.394 218.224 209.453 217.99 209.541C217.77 209.614 217.594 209.739 217.462 209.915C217.33 210.091 217.264 210.325 217.264 210.619C217.264 210.912 217.337 211.161 217.484 211.367C217.645 211.557 217.858 211.704 218.122 211.807C218.386 211.895 218.672 211.939 218.98 211.939ZM227.106 214.227V202.633H230.186V214.227H227.106ZM228.646 201.467C228.074 201.467 227.612 201.298 227.26 200.961C226.908 200.609 226.732 200.161 226.732 199.619C226.732 199.047 226.915 198.585 227.282 198.233C227.648 197.881 228.11 197.705 228.668 197.705C229.181 197.705 229.621 197.881 229.988 198.233C230.369 198.57 230.56 199.025 230.56 199.597C230.56 200.154 230.376 200.609 230.01 200.961C229.658 201.298 229.203 201.467 228.646 201.467ZM232.627 214.227V198.651H235.707V214.227H232.627ZM241.822 214.381C241.294 214.381 240.781 214.315 240.282 214.183C239.798 214.036 239.366 213.816 238.984 213.523C238.603 213.229 238.302 212.863 238.082 212.423C237.862 211.983 237.752 211.469 237.752 210.883C237.752 210.091 237.914 209.46 238.236 208.991C238.559 208.507 238.992 208.14 239.534 207.891C240.077 207.641 240.7 207.473 241.404 207.385C242.123 207.297 242.864 207.253 243.626 207.253H245.298C245.298 206.827 245.218 206.453 245.056 206.131C244.91 205.793 244.682 205.537 244.374 205.361C244.066 205.17 243.67 205.075 243.186 205.075C242.878 205.075 242.578 205.119 242.284 205.207C242.006 205.28 241.771 205.39 241.58 205.537C241.39 205.683 241.265 205.874 241.206 206.109H238.082C238.17 205.463 238.376 204.913 238.698 204.459C239.021 203.989 239.424 203.608 239.908 203.315C240.392 203.021 240.92 202.809 241.492 202.677C242.079 202.53 242.68 202.457 243.296 202.457C244.983 202.457 246.23 202.941 247.036 203.909C247.843 204.862 248.246 206.219 248.246 207.979V214.227H245.474L245.43 212.731C245.064 213.244 244.646 213.618 244.176 213.853C243.722 214.087 243.282 214.234 242.856 214.293C242.431 214.351 242.086 214.381 241.822 214.381ZM242.526 211.939C243.04 211.939 243.509 211.836 243.934 211.631C244.36 211.425 244.697 211.147 244.946 210.795C245.196 210.443 245.32 210.047 245.32 209.607V209.321H243.208C242.9 209.321 242.6 209.335 242.306 209.365C242.028 209.394 241.771 209.453 241.536 209.541C241.316 209.614 241.14 209.739 241.008 209.915C240.876 210.091 240.81 210.325 240.81 210.619C240.81 210.912 240.884 211.161 241.03 211.367C241.192 211.557 241.404 211.704 241.668 211.807C241.932 211.895 242.218 211.939 242.526 211.939ZM257.252 214.381C256.871 214.381 256.468 214.344 256.042 214.271C255.632 214.197 255.221 214.058 254.81 213.853C254.414 213.633 254.04 213.325 253.688 212.929L253.666 214.227H250.652V198.651H253.732V203.997C254.172 203.469 254.715 203.08 255.36 202.831C256.02 202.567 256.702 202.435 257.406 202.435C258.55 202.435 259.489 202.699 260.222 203.227C260.956 203.74 261.498 204.444 261.85 205.339C262.217 206.233 262.4 207.26 262.4 208.419C262.4 209.548 262.217 210.567 261.85 211.477C261.484 212.371 260.919 213.083 260.156 213.611C259.408 214.124 258.44 214.381 257.252 214.381ZM256.592 211.631C257.311 211.631 257.868 211.469 258.264 211.147C258.66 210.824 258.939 210.413 259.1 209.915C259.262 209.416 259.342 208.895 259.342 208.353C259.342 207.81 259.254 207.304 259.078 206.835C258.902 206.351 258.609 205.969 258.198 205.691C257.802 205.397 257.267 205.251 256.592 205.251C255.976 205.251 255.448 205.405 255.008 205.713C254.583 206.006 254.26 206.395 254.04 206.879C253.82 207.363 253.71 207.883 253.71 208.441C253.71 208.998 253.806 209.526 253.996 210.025C254.202 210.509 254.517 210.897 254.942 211.191C255.368 211.484 255.918 211.631 256.592 211.631ZM264.381 214.227V198.651H267.461V214.227H264.381ZM275.204 214.381C273.987 214.381 272.953 214.139 272.102 213.655C271.252 213.171 270.599 212.489 270.144 211.609C269.69 210.714 269.462 209.673 269.462 208.485C269.462 207.282 269.697 206.233 270.166 205.339C270.636 204.429 271.296 203.718 272.146 203.205C273.012 202.691 274.031 202.435 275.204 202.435C276.084 202.435 276.854 202.581 277.514 202.875C278.189 203.168 278.754 203.579 279.208 204.107C279.678 204.635 280.022 205.251 280.242 205.955C280.477 206.644 280.587 207.392 280.572 208.199C280.572 208.404 280.565 208.602 280.55 208.793C280.536 208.983 280.506 209.174 280.462 209.365H272.52C272.564 209.805 272.689 210.208 272.894 210.575C273.1 210.941 273.386 211.235 273.752 211.455C274.134 211.66 274.603 211.763 275.16 211.763C275.527 211.763 275.864 211.726 276.172 211.653C276.48 211.565 276.744 211.433 276.964 211.257C277.184 211.081 277.338 210.875 277.426 210.641H280.462C280.272 211.506 279.912 212.217 279.384 212.775C278.871 213.332 278.248 213.743 277.514 214.007C276.781 214.256 276.011 214.381 275.204 214.381ZM272.586 207.209H277.624C277.61 206.813 277.507 206.446 277.316 206.109C277.14 205.757 276.869 205.478 276.502 205.273C276.15 205.053 275.696 204.943 275.138 204.943C274.581 204.943 274.112 205.053 273.73 205.273C273.364 205.493 273.085 205.779 272.894 206.131C272.718 206.468 272.616 206.827 272.586 207.209ZM283.261 208.947L283.019 198.651H286.407L286.143 208.947H283.261ZM284.691 214.425C284.383 214.425 284.082 214.351 283.789 214.205C283.495 214.058 283.253 213.845 283.063 213.567C282.872 213.288 282.777 212.943 282.777 212.533C282.777 212.107 282.865 211.755 283.041 211.477C283.231 211.198 283.473 210.993 283.767 210.861C284.06 210.714 284.375 210.641 284.713 210.641C285.197 210.641 285.629 210.802 286.011 211.125C286.407 211.447 286.605 211.917 286.605 212.533C286.605 212.943 286.509 213.288 286.319 213.567C286.143 213.845 285.908 214.058 285.615 214.205C285.321 214.351 285.013 214.425 284.691 214.425Z" fill="white"/>
<path d="M18.1947 246V242.29L14.6247 236.102H16.3467L18.9507 240.848L21.5407 236.102H23.2207L19.6647 242.276V246H18.1947ZM26.5724 246.084C25.8071 246.084 25.1584 245.93 24.6264 245.622C24.0944 245.305 23.6884 244.861 23.4084 244.292C23.1377 243.723 23.0024 243.065 23.0024 242.318C23.0024 241.562 23.1424 240.904 23.4224 240.344C23.7024 239.775 24.1084 239.331 24.6404 239.014C25.1724 238.687 25.8211 238.524 26.5864 238.524C27.3517 238.524 28.0004 238.687 28.5324 239.014C29.0644 239.331 29.4657 239.775 29.7364 240.344C30.0071 240.913 30.1424 241.576 30.1424 242.332C30.1424 243.069 30.0024 243.723 29.7224 244.292C29.4517 244.861 29.0504 245.305 28.5184 245.622C27.9957 245.93 27.3471 246.084 26.5724 246.084ZM26.5724 244.796C27.0764 244.796 27.4824 244.684 27.7904 244.46C28.1077 244.236 28.3411 243.937 28.4904 243.564C28.6397 243.181 28.7144 242.766 28.7144 242.318C28.7144 241.87 28.6397 241.459 28.4904 241.086C28.3411 240.713 28.1077 240.414 27.7904 240.19C27.4824 239.957 27.0764 239.84 26.5724 239.84C26.0777 239.84 25.6717 239.957 25.3544 240.19C25.0371 240.414 24.8037 240.713 24.6544 241.086C24.5144 241.459 24.4444 241.87 24.4444 242.318C24.4444 242.775 24.5144 243.191 24.6544 243.564C24.8037 243.937 25.0371 244.236 25.3544 244.46C25.6717 244.684 26.0777 244.796 26.5724 244.796ZM34.7862 246.084C33.7502 246.084 32.9569 245.813 32.4062 245.272C31.8649 244.721 31.5942 243.886 31.5942 242.766V238.622H33.0362V242.682C33.0362 243.121 33.0969 243.499 33.2182 243.816C33.3489 244.133 33.5449 244.376 33.8062 244.544C34.0676 244.712 34.3989 244.796 34.8002 244.796C35.2202 244.796 35.5562 244.712 35.8082 244.544C36.0696 244.367 36.2562 244.119 36.3682 243.802C36.4896 243.485 36.5502 243.111 36.5502 242.682V238.622H37.9922V242.766C37.9922 243.905 37.7122 244.745 37.1522 245.286C36.6016 245.818 35.8129 246.084 34.7862 246.084ZM39.7297 246V238.622H41.0877L41.1577 239.686C41.3443 239.397 41.559 239.168 41.8017 239C42.0443 238.832 42.3103 238.711 42.5997 238.636C42.889 238.561 43.1923 238.524 43.5097 238.524C43.5937 238.524 43.673 238.524 43.7477 238.524C43.8223 238.524 43.8923 238.524 43.9577 238.524V239.91H43.5097C42.9777 239.91 42.5343 240.017 42.1797 240.232C41.8343 240.447 41.5777 240.745 41.4097 241.128C41.251 241.511 41.1717 241.949 41.1717 242.444V246H39.7297ZM48.8898 246V238.622H50.2478L50.3318 239.49C50.4998 239.247 50.6865 239.061 50.8918 238.93C51.1065 238.79 51.3351 238.687 51.5778 238.622C51.8205 238.557 52.0678 238.524 52.3198 238.524C52.8145 238.524 53.2205 238.627 53.5378 238.832C53.8645 239.037 54.1165 239.317 54.2938 239.672C54.4711 239.42 54.6718 239.21 54.8958 239.042C55.1198 238.865 55.3671 238.734 55.6378 238.65C55.9085 238.566 56.1978 238.524 56.5058 238.524C57.0565 238.524 57.4998 238.645 57.8358 238.888C58.1811 239.121 58.4285 239.439 58.5778 239.84C58.7365 240.241 58.8158 240.703 58.8158 241.226V246H57.3598V241.8C57.3598 241.576 57.3505 241.352 57.3318 241.128C57.3131 240.904 57.2571 240.694 57.1638 240.498C57.0798 240.293 56.9538 240.129 56.7858 240.008C56.6271 239.877 56.3985 239.812 56.0998 239.812C55.8105 239.812 55.5678 239.877 55.3718 240.008C55.1851 240.139 55.0311 240.316 54.9098 240.54C54.7978 240.755 54.7138 240.988 54.6578 241.24C54.6111 241.492 54.5878 241.744 54.5878 241.996V246H53.1318V241.786C53.1318 241.571 53.1225 241.352 53.1038 241.128C53.0851 240.904 53.0385 240.694 52.9638 240.498C52.8891 240.293 52.7631 240.129 52.5858 240.008C52.4178 239.877 52.1891 239.812 51.8998 239.812C51.4798 239.812 51.1531 239.933 50.9198 240.176C50.6958 240.409 50.5418 240.699 50.4578 241.044C50.3738 241.38 50.3318 241.702 50.3318 242.01V246H48.8898ZM63.7589 246.084C62.9842 246.084 62.3356 245.925 61.8129 245.608C61.2902 245.291 60.8936 244.852 60.6229 244.292C60.3616 243.723 60.2309 243.069 60.2309 242.332C60.2309 241.585 60.3662 240.927 60.6369 240.358C60.9169 239.789 61.3182 239.341 61.8409 239.014C62.3729 238.687 63.0122 238.524 63.7589 238.524C64.3282 238.524 64.8229 238.631 65.2429 238.846C65.6629 239.051 66.0082 239.331 66.2789 239.686C66.5589 240.041 66.7642 240.437 66.8949 240.876C67.0256 241.305 67.0816 241.753 67.0629 242.22C67.0629 242.323 67.0582 242.421 67.0489 242.514C67.0396 242.607 67.0302 242.705 67.0209 242.808H61.6869C61.7149 243.181 61.8082 243.522 61.9669 243.83C62.1349 244.138 62.3682 244.385 62.6669 244.572C62.9656 244.749 63.3342 244.838 63.7729 244.838C64.0156 244.838 64.2489 244.81 64.4729 244.754C64.7062 244.689 64.9116 244.591 65.0889 244.46C65.2756 244.32 65.4062 244.143 65.4809 243.928H66.9369C66.8156 244.423 66.5962 244.833 66.2789 245.16C65.9709 245.477 65.5929 245.711 65.1449 245.86C64.7062 246.009 64.2442 246.084 63.7589 246.084ZM61.7149 241.66H65.6349C65.6256 241.296 65.5416 240.974 65.3829 240.694C65.2242 240.405 65.0049 240.181 64.7249 240.022C64.4449 239.854 64.1089 239.77 63.7169 239.77C63.2876 239.77 62.9282 239.859 62.6389 240.036C62.3589 240.213 62.1396 240.447 61.9809 240.736C61.8316 241.016 61.7429 241.324 61.7149 241.66ZM70.902 246.084C70.566 246.084 70.2393 246.042 69.922 245.958C69.614 245.865 69.3386 245.729 69.096 245.552C68.8533 245.365 68.6573 245.137 68.508 244.866C68.368 244.586 68.298 244.259 68.298 243.886C68.298 243.438 68.382 243.069 68.55 242.78C68.7273 242.481 68.9606 242.253 69.25 242.094C69.5393 241.926 69.8706 241.809 70.244 241.744C70.6266 241.669 71.0233 241.632 71.434 241.632H73.24C73.24 241.268 73.184 240.951 73.072 240.68C72.96 240.4 72.7826 240.185 72.54 240.036C72.3066 239.877 71.994 239.798 71.602 239.798C71.3686 239.798 71.1446 239.826 70.93 239.882C70.7246 239.929 70.5473 240.008 70.398 240.12C70.2486 240.232 70.146 240.381 70.09 240.568H68.578C68.634 240.213 68.76 239.91 68.956 239.658C69.152 239.397 69.3946 239.182 69.684 239.014C69.9733 238.846 70.2813 238.725 70.608 238.65C70.944 238.566 71.2846 238.524 71.63 238.524C72.694 238.524 73.4593 238.837 73.926 239.462C74.402 240.078 74.64 240.927 74.64 242.01V246H73.394L73.338 245.062C73.1233 245.351 72.8666 245.571 72.568 245.72C72.2786 245.869 71.9893 245.967 71.7 246.014C71.4106 246.061 71.1446 246.084 70.902 246.084ZM71.126 244.866C71.546 244.866 71.9146 244.796 72.232 244.656C72.5493 244.507 72.7966 244.297 72.974 244.026C73.1513 243.746 73.24 243.419 73.24 243.046V242.738H71.924C71.6533 242.738 71.3873 242.747 71.126 242.766C70.874 242.775 70.6406 242.813 70.426 242.878C70.2206 242.934 70.0526 243.032 69.922 243.172C69.8006 243.312 69.74 243.513 69.74 243.774C69.74 244.026 69.8053 244.231 69.936 244.39C70.0666 244.549 70.2393 244.67 70.454 244.754C70.6686 244.829 70.8926 244.866 71.126 244.866ZM76.3703 246V236.102H77.8123V246H76.3703ZM82.3548 246.084C82.0095 246.084 81.6642 246.051 81.3188 245.986C80.9735 245.921 80.6515 245.804 80.3528 245.636C80.0542 245.468 79.8022 245.244 79.5968 244.964C79.3915 244.675 79.2608 244.32 79.2048 243.9H80.6748C80.7495 244.124 80.8802 244.306 81.0668 244.446C81.2628 244.586 81.4775 244.689 81.7108 244.754C81.9535 244.819 82.1915 244.852 82.4248 244.852C82.5648 244.852 82.7188 244.843 82.8868 244.824C83.0642 244.805 83.2322 244.763 83.3908 244.698C83.5495 244.633 83.6802 244.539 83.7828 244.418C83.8855 244.287 83.9368 244.115 83.9368 243.9C83.9368 243.732 83.8902 243.592 83.7968 243.48C83.7128 243.368 83.5915 243.279 83.4328 243.214C83.2835 243.139 83.1015 243.083 82.8868 243.046C82.4668 242.953 82.0142 242.864 81.5288 242.78C81.0528 242.687 80.6328 242.528 80.2688 242.304C80.1382 242.22 80.0215 242.127 79.9188 242.024C79.8162 241.912 79.7275 241.786 79.6528 241.646C79.5782 241.506 79.5222 241.357 79.4848 241.198C79.4475 241.039 79.4288 240.867 79.4288 240.68C79.4288 240.297 79.5035 239.971 79.6528 239.7C79.8115 239.429 80.0262 239.21 80.2968 239.042C80.5675 238.865 80.8755 238.734 81.2208 238.65C81.5662 238.566 81.9302 238.524 82.3128 238.524C82.8075 238.524 83.2555 238.603 83.6568 238.762C84.0582 238.921 84.3895 239.154 84.6508 239.462C84.9122 239.77 85.0662 240.157 85.1128 240.624H83.7548C83.6988 240.372 83.5355 240.171 83.2648 240.022C83.0035 239.863 82.6722 239.784 82.2708 239.784C82.1308 239.784 81.9768 239.793 81.8088 239.812C81.6502 239.831 81.4962 239.873 81.3468 239.938C81.1975 240.003 81.0762 240.097 80.9828 240.218C80.8895 240.33 80.8428 240.479 80.8428 240.666C80.8428 240.843 80.8848 240.993 80.9688 241.114C81.0622 241.235 81.1928 241.333 81.3608 241.408C81.5382 241.483 81.7388 241.543 81.9628 241.59C82.2802 241.665 82.6208 241.735 82.9848 241.8C83.3582 241.865 83.6615 241.935 83.8948 242.01C84.2028 242.094 84.4642 242.215 84.6788 242.374C84.9028 242.533 85.0708 242.733 85.1828 242.976C85.3042 243.219 85.3648 243.513 85.3648 243.858C85.3648 244.306 85.2762 244.675 85.0988 244.964C84.9215 245.244 84.6835 245.468 84.3848 245.636C84.0955 245.804 83.7688 245.921 83.4048 245.986C83.0502 246.051 82.7002 246.084 82.3548 246.084ZM91.2614 246V239.91H90.0854V238.622H91.2614V237.88C91.2614 237.32 91.3407 236.867 91.4994 236.522C91.6674 236.167 91.924 235.906 92.2694 235.738C92.624 235.57 93.086 235.486 93.6554 235.486H94.6214V236.76H93.8234C93.534 236.76 93.3054 236.811 93.1374 236.914C92.9787 237.007 92.8667 237.152 92.8014 237.348C92.736 237.535 92.7034 237.763 92.7034 238.034V238.622H94.6214V239.91H92.7034V246H91.2614ZM98.9376 246.084C98.1723 246.084 97.5236 245.93 96.9916 245.622C96.4596 245.305 96.0536 244.861 95.7736 244.292C95.503 243.723 95.3676 243.065 95.3676 242.318C95.3676 241.562 95.5076 240.904 95.7876 240.344C96.0676 239.775 96.4736 239.331 97.0056 239.014C97.5376 238.687 98.1863 238.524 98.9516 238.524C99.717 238.524 100.366 238.687 100.898 239.014C101.43 239.331 101.831 239.775 102.102 240.344C102.372 240.913 102.508 241.576 102.508 242.332C102.508 243.069 102.368 243.723 102.088 244.292C101.817 244.861 101.416 245.305 100.884 245.622C100.361 245.93 99.7123 246.084 98.9376 246.084ZM98.9376 244.796C99.4416 244.796 99.8476 244.684 100.156 244.46C100.473 244.236 100.706 243.937 100.856 243.564C101.005 243.181 101.08 242.766 101.08 242.318C101.08 241.87 101.005 241.459 100.856 241.086C100.706 240.713 100.473 240.414 100.156 240.19C99.8476 239.957 99.4416 239.84 98.9376 239.84C98.443 239.84 98.037 239.957 97.7196 240.19C97.4023 240.414 97.169 240.713 97.0196 241.086C96.8796 241.459 96.8096 241.87 96.8096 242.318C96.8096 242.775 96.8796 243.191 97.0196 243.564C97.169 243.937 97.4023 244.236 97.7196 244.46C98.037 244.684 98.443 244.796 98.9376 244.796ZM103.987 246V238.622H105.345L105.415 239.686C105.602 239.397 105.817 239.168 106.059 239C106.302 238.832 106.568 238.711 106.857 238.636C107.147 238.561 107.45 238.524 107.767 238.524C107.851 238.524 107.931 238.524 108.005 238.524C108.08 238.524 108.15 238.524 108.215 238.524V239.91H107.767C107.235 239.91 106.792 240.017 106.437 240.232C106.092 240.447 105.835 240.745 105.667 241.128C105.509 241.511 105.429 241.949 105.429 242.444V246H103.987ZM116.256 246C115.677 246 115.206 245.921 114.842 245.762C114.478 245.594 114.207 245.333 114.03 244.978C113.862 244.623 113.778 244.161 113.778 243.592V239.91H112.616V238.622H113.778V236.494H115.22V238.622H117.082V239.91H115.22V243.41C115.22 243.849 115.299 244.18 115.458 244.404C115.616 244.619 115.948 244.726 116.452 244.726H117.026V246H116.256ZM118.316 246V236.102H119.758V239.658C119.954 239.406 120.178 239.196 120.43 239.028C120.691 238.86 120.971 238.734 121.27 238.65C121.568 238.566 121.867 238.524 122.166 238.524C122.875 238.524 123.43 238.678 123.832 238.986C124.233 239.285 124.518 239.691 124.686 240.204C124.854 240.717 124.938 241.296 124.938 241.94V246H123.482V242.276C123.482 241.977 123.458 241.683 123.412 241.394C123.374 241.105 123.3 240.843 123.188 240.61C123.076 240.367 122.903 240.176 122.67 240.036C122.446 239.887 122.142 239.812 121.76 239.812C121.396 239.812 121.083 239.891 120.822 240.05C120.57 240.209 120.364 240.423 120.206 240.694C120.056 240.955 119.944 241.245 119.87 241.562C119.795 241.87 119.758 242.178 119.758 242.486V246H118.316ZM126.655 246V238.622H128.097V246H126.655ZM127.369 237.642C127.089 237.642 126.861 237.558 126.683 237.39C126.515 237.213 126.431 236.989 126.431 236.718C126.431 236.447 126.52 236.228 126.697 236.06C126.875 235.883 127.099 235.794 127.369 235.794C127.621 235.794 127.841 235.883 128.027 236.06C128.223 236.228 128.321 236.447 128.321 236.718C128.321 236.989 128.228 237.213 128.041 237.39C127.864 237.558 127.64 237.642 127.369 237.642ZM132.64 246.084C132.295 246.084 131.949 246.051 131.604 245.986C131.259 245.921 130.937 245.804 130.638 245.636C130.339 245.468 130.087 245.244 129.882 244.964C129.677 244.675 129.546 244.32 129.49 243.9H130.96C131.035 244.124 131.165 244.306 131.352 244.446C131.548 244.586 131.763 244.689 131.996 244.754C132.239 244.819 132.477 244.852 132.71 244.852C132.85 244.852 133.004 244.843 133.172 244.824C133.349 244.805 133.517 244.763 133.676 244.698C133.835 244.633 133.965 244.539 134.068 244.418C134.171 244.287 134.222 244.115 134.222 243.9C134.222 243.732 134.175 243.592 134.082 243.48C133.998 243.368 133.877 243.279 133.718 243.214C133.569 243.139 133.387 243.083 133.172 243.046C132.752 242.953 132.299 242.864 131.814 242.78C131.338 242.687 130.918 242.528 130.554 242.304C130.423 242.22 130.307 242.127 130.204 242.024C130.101 241.912 130.013 241.786 129.938 241.646C129.863 241.506 129.807 241.357 129.77 241.198C129.733 241.039 129.714 240.867 129.714 240.68C129.714 240.297 129.789 239.971 129.938 239.7C130.097 239.429 130.311 239.21 130.582 239.042C130.853 238.865 131.161 238.734 131.506 238.65C131.851 238.566 132.215 238.524 132.598 238.524C133.093 238.524 133.541 238.603 133.942 238.762C134.343 238.921 134.675 239.154 134.936 239.462C135.197 239.77 135.351 240.157 135.398 240.624H134.04C133.984 240.372 133.821 240.171 133.55 240.022C133.289 239.863 132.957 239.784 132.556 239.784C132.416 239.784 132.262 239.793 132.094 239.812C131.935 239.831 131.781 239.873 131.632 239.938C131.483 240.003 131.361 240.097 131.268 240.218C131.175 240.33 131.128 240.479 131.128 240.666C131.128 240.843 131.17 240.993 131.254 241.114C131.347 241.235 131.478 241.333 131.646 241.408C131.823 241.483 132.024 241.543 132.248 241.59C132.565 241.665 132.906 241.735 133.27 241.8C133.643 241.865 133.947 241.935 134.18 242.01C134.488 242.094 134.749 242.215 134.964 242.374C135.188 242.533 135.356 242.733 135.468 242.976C135.589 243.219 135.65 243.513 135.65 243.858C135.65 244.306 135.561 244.675 135.384 244.964C135.207 245.244 134.969 245.468 134.67 245.636C134.381 245.804 134.054 245.921 133.69 245.986C133.335 246.051 132.985 246.084 132.64 246.084ZM143.843 246.084C143.105 246.084 142.494 245.921 142.009 245.594C141.533 245.258 141.173 244.805 140.931 244.236C140.697 243.667 140.581 243.027 140.581 242.318C140.581 241.599 140.702 240.955 140.945 240.386C141.187 239.807 141.556 239.355 142.051 239.028C142.545 238.692 143.171 238.524 143.927 238.524C144.207 238.524 144.487 238.557 144.767 238.622C145.056 238.687 145.322 238.79 145.565 238.93C145.817 239.061 146.031 239.238 146.209 239.462V236.102H147.651V246H146.265L146.209 244.992C146.041 245.244 145.831 245.454 145.579 245.622C145.336 245.781 145.065 245.897 144.767 245.972C144.468 246.047 144.16 246.084 143.843 246.084ZM144.081 244.796C144.557 244.796 144.949 244.679 145.257 244.446C145.574 244.213 145.812 243.905 145.971 243.522C146.129 243.139 146.209 242.724 146.209 242.276C146.209 241.819 146.129 241.408 145.971 241.044C145.821 240.671 145.588 240.377 145.271 240.162C144.963 239.938 144.566 239.826 144.081 239.826C143.577 239.826 143.175 239.943 142.877 240.176C142.578 240.4 142.359 240.703 142.219 241.086C142.088 241.469 142.023 241.889 142.023 242.346C142.023 242.682 142.06 242.999 142.135 243.298C142.209 243.587 142.326 243.849 142.485 244.082C142.653 244.306 142.867 244.483 143.129 244.614C143.39 244.735 143.707 244.796 144.081 244.796ZM151.771 246.084C151.435 246.084 151.108 246.042 150.791 245.958C150.483 245.865 150.208 245.729 149.965 245.552C149.722 245.365 149.526 245.137 149.377 244.866C149.237 244.586 149.167 244.259 149.167 243.886C149.167 243.438 149.251 243.069 149.419 242.78C149.596 242.481 149.83 242.253 150.119 242.094C150.408 241.926 150.74 241.809 151.113 241.744C151.496 241.669 151.892 241.632 152.303 241.632H154.109C154.109 241.268 154.053 240.951 153.941 240.68C153.829 240.4 153.652 240.185 153.409 240.036C153.176 239.877 152.863 239.798 152.471 239.798C152.238 239.798 152.014 239.826 151.799 239.882C151.594 239.929 151.416 240.008 151.267 240.12C151.118 240.232 151.015 240.381 150.959 240.568H149.447C149.503 240.213 149.629 239.91 149.825 239.658C150.021 239.397 150.264 239.182 150.553 239.014C150.842 238.846 151.15 238.725 151.477 238.65C151.813 238.566 152.154 238.524 152.499 238.524C153.563 238.524 154.328 238.837 154.795 239.462C155.271 240.078 155.509 240.927 155.509 242.01V246H154.263L154.207 245.062C153.992 245.351 153.736 245.571 153.437 245.72C153.148 245.869 152.858 245.967 152.569 246.014C152.28 246.061 152.014 246.084 151.771 246.084ZM151.995 244.866C152.415 244.866 152.784 244.796 153.101 244.656C153.418 244.507 153.666 244.297 153.843 244.026C154.02 243.746 154.109 243.419 154.109 243.046V242.738H152.793C152.522 242.738 152.256 242.747 151.995 242.766C151.743 242.775 151.51 242.813 151.295 242.878C151.09 242.934 150.922 243.032 150.791 243.172C150.67 243.312 150.609 243.513 150.609 243.774C150.609 244.026 150.674 244.231 150.805 244.39C150.936 244.549 151.108 244.67 151.323 244.754C151.538 244.829 151.762 244.866 151.995 244.866ZM160.487 249.332C159.918 249.332 159.367 249.253 158.835 249.094C158.303 248.945 157.818 248.679 157.379 248.296L157.953 247.148C158.289 247.419 158.658 247.633 159.059 247.792C159.47 247.951 159.904 248.03 160.361 248.03C161.117 248.03 161.663 247.825 161.999 247.414C162.335 247.003 162.503 246.467 162.503 245.804V245.09C162.335 245.323 162.125 245.519 161.873 245.678C161.631 245.827 161.36 245.935 161.061 246C160.763 246.075 160.459 246.112 160.151 246.112C159.433 246.112 158.859 245.967 158.429 245.678C158.009 245.379 157.706 244.973 157.519 244.46C157.342 243.947 157.253 243.354 157.253 242.682V238.622H158.709V242.332C158.709 242.631 158.728 242.929 158.765 243.228C158.803 243.527 158.882 243.797 159.003 244.04C159.125 244.273 159.302 244.465 159.535 244.614C159.769 244.754 160.086 244.824 160.487 244.824C160.991 244.824 161.388 244.703 161.677 244.46C161.967 244.208 162.172 243.881 162.293 243.48C162.415 243.069 162.475 242.626 162.475 242.15V238.622H163.917V245.65C163.917 246.229 163.847 246.747 163.707 247.204C163.577 247.661 163.367 248.049 163.077 248.366C162.797 248.683 162.443 248.921 162.013 249.08C161.593 249.248 161.085 249.332 160.487 249.332ZM169.517 246V236.102H170.959V239.658C171.155 239.406 171.379 239.196 171.631 239.028C171.892 238.86 172.172 238.734 172.471 238.65C172.769 238.566 173.068 238.524 173.367 238.524C174.076 238.524 174.631 238.678 175.033 238.986C175.434 239.285 175.719 239.691 175.887 240.204C176.055 240.717 176.139 241.296 176.139 241.94V246H174.683V242.276C174.683 241.977 174.659 241.683 174.613 241.394C174.575 241.105 174.501 240.843 174.389 240.61C174.277 240.367 174.104 240.176 173.871 240.036C173.647 239.887 173.343 239.812 172.961 239.812C172.597 239.812 172.284 239.891 172.023 240.05C171.771 240.209 171.565 240.423 171.407 240.694C171.257 240.955 171.145 241.245 171.071 241.562C170.996 241.87 170.959 242.178 170.959 242.486V246H169.517ZM180.209 246.084C179.873 246.084 179.546 246.042 179.229 245.958C178.921 245.865 178.645 245.729 178.403 245.552C178.16 245.365 177.964 245.137 177.815 244.866C177.675 244.586 177.605 244.259 177.605 243.886C177.605 243.438 177.689 243.069 177.857 242.78C178.034 242.481 178.267 242.253 178.557 242.094C178.846 241.926 179.177 241.809 179.551 241.744C179.933 241.669 180.33 241.632 180.741 241.632H182.547C182.547 241.268 182.491 240.951 182.379 240.68C182.267 240.4 182.089 240.185 181.847 240.036C181.613 239.877 181.301 239.798 180.909 239.798C180.675 239.798 180.451 239.826 180.237 239.882C180.031 239.929 179.854 240.008 179.705 240.12C179.555 240.232 179.453 240.381 179.397 240.568H177.885C177.941 240.213 178.067 239.91 178.263 239.658C178.459 239.397 178.701 239.182 178.991 239.014C179.28 238.846 179.588 238.725 179.915 238.65C180.251 238.566 180.591 238.524 180.937 238.524C182.001 238.524 182.766 238.837 183.233 239.462C183.709 240.078 183.947 240.927 183.947 242.01V246H182.701L182.645 245.062C182.43 245.351 182.173 245.571 181.875 245.72C181.585 245.869 181.296 245.967 181.007 246.014C180.717 246.061 180.451 246.084 180.209 246.084ZM180.433 244.866C180.853 244.866 181.221 244.796 181.539 244.656C181.856 244.507 182.103 244.297 182.281 244.026C182.458 243.746 182.547 243.419 182.547 243.046V242.738H181.231C180.96 242.738 180.694 242.747 180.433 242.766C180.181 242.775 179.947 242.813 179.733 242.878C179.527 242.934 179.359 243.032 179.229 243.172C179.107 243.312 179.047 243.513 179.047 243.774C179.047 244.026 179.112 244.231 179.243 244.39C179.373 244.549 179.546 244.67 179.761 244.754C179.975 244.829 180.199 244.866 180.433 244.866ZM187.623 246L184.865 238.622H186.475L188.603 244.698L190.717 238.622H192.341L189.583 246H187.623ZM196.526 246.084C195.752 246.084 195.103 245.925 194.58 245.608C194.058 245.291 193.661 244.852 193.39 244.292C193.129 243.723 192.998 243.069 192.998 242.332C192.998 241.585 193.134 240.927 193.404 240.358C193.684 239.789 194.086 239.341 194.608 239.014C195.14 238.687 195.78 238.524 196.526 238.524C197.096 238.524 197.59 238.631 198.01 238.846C198.43 239.051 198.776 239.331 199.046 239.686C199.326 240.041 199.532 240.437 199.662 240.876C199.793 241.305 199.849 241.753 199.83 242.22C199.83 242.323 199.826 242.421 199.816 242.514C199.807 242.607 199.798 242.705 199.788 242.808H194.454C194.482 243.181 194.576 243.522 194.734 243.83C194.902 244.138 195.136 244.385 195.434 244.572C195.733 244.749 196.102 244.838 196.54 244.838C196.783 244.838 197.016 244.81 197.24 244.754C197.474 244.689 197.679 244.591 197.856 244.46C198.043 244.32 198.174 244.143 198.248 243.928H199.704C199.583 244.423 199.364 244.833 199.046 245.16C198.738 245.477 198.36 245.711 197.912 245.86C197.474 246.009 197.012 246.084 196.526 246.084ZM194.482 241.66H198.402C198.393 241.296 198.309 240.974 198.15 240.694C197.992 240.405 197.772 240.181 197.492 240.022C197.212 239.854 196.876 239.77 196.484 239.77C196.055 239.77 195.696 239.859 195.406 240.036C195.126 240.213 194.907 240.447 194.748 240.736C194.599 241.016 194.51 241.324 194.482 241.66ZM201.318 246V238.622H202.69L202.76 239.658C202.946 239.387 203.17 239.173 203.432 239.014C203.693 238.846 203.973 238.725 204.272 238.65C204.57 238.566 204.86 238.524 205.14 238.524C205.849 238.524 206.404 238.678 206.806 238.986C207.216 239.285 207.506 239.691 207.674 240.204C207.851 240.708 207.94 241.282 207.94 241.926V246H206.484V242.22C206.484 241.921 206.465 241.627 206.428 241.338C206.39 241.049 206.311 240.792 206.19 240.568C206.078 240.335 205.914 240.153 205.7 240.022C205.485 239.882 205.196 239.812 204.832 239.812C204.384 239.812 204.006 239.933 203.698 240.176C203.39 240.419 203.156 240.745 202.998 241.156C202.839 241.567 202.76 242.029 202.76 242.542V246H201.318ZM210.063 239.308L209.657 238.734C209.788 238.641 209.919 238.529 210.049 238.398C210.18 238.267 210.297 238.127 210.399 237.978C210.511 237.819 210.586 237.67 210.623 237.53C210.371 237.511 210.161 237.423 209.993 237.264C209.825 237.105 209.741 236.895 209.741 236.634C209.741 236.326 209.835 236.097 210.021 235.948C210.208 235.789 210.441 235.71 210.721 235.71C211.067 235.71 211.314 235.841 211.463 236.102C211.613 236.354 211.687 236.639 211.687 236.956C211.687 237.301 211.608 237.637 211.449 237.964C211.3 238.291 211.099 238.575 210.847 238.818C210.605 239.051 210.343 239.215 210.063 239.308ZM216.328 246.084C215.535 246.084 214.965 245.869 214.62 245.44C214.284 245.001 214.116 244.39 214.116 243.606V239.91H212.94V238.622H214.116V236.48H215.558V238.622H217.812V239.91H215.558V243.368C215.558 243.629 215.581 243.867 215.628 244.082C215.684 244.297 215.787 244.465 215.936 244.586C216.085 244.707 216.3 244.773 216.58 244.782C216.795 244.782 216.981 244.745 217.14 244.67C217.308 244.595 217.443 244.511 217.546 244.418L218.106 245.496C217.929 245.636 217.742 245.753 217.546 245.846C217.359 245.93 217.163 245.991 216.958 246.028C216.753 246.065 216.543 246.084 216.328 246.084ZM226.711 246.084C226.403 246.084 226.109 246.051 225.829 245.986C225.559 245.921 225.302 245.818 225.059 245.678C224.826 245.529 224.616 245.347 224.429 245.132L224.387 246H222.987V236.102H224.429V239.616C224.691 239.261 225.041 238.991 225.479 238.804C225.918 238.617 226.371 238.524 226.837 238.524C227.575 238.524 228.181 238.692 228.657 239.028C229.133 239.355 229.483 239.803 229.707 240.372C229.941 240.932 230.057 241.571 230.057 242.29C230.057 242.999 229.936 243.643 229.693 244.222C229.451 244.791 229.082 245.244 228.587 245.58C228.102 245.916 227.477 246.084 226.711 246.084ZM226.557 244.81C227.071 244.81 227.477 244.693 227.775 244.46C228.074 244.227 228.289 243.919 228.419 243.536C228.55 243.153 228.615 242.743 228.615 242.304C228.615 241.847 228.545 241.431 228.405 241.058C228.275 240.685 228.055 240.386 227.747 240.162C227.449 239.938 227.047 239.826 226.543 239.826C226.086 239.826 225.699 239.952 225.381 240.204C225.064 240.447 224.821 240.759 224.653 241.142C224.495 241.525 224.415 241.921 224.415 242.332C224.415 242.761 224.485 243.167 224.625 243.55C224.775 243.923 225.008 244.227 225.325 244.46C225.643 244.693 226.053 244.81 226.557 244.81ZM234.794 246.084C234.019 246.084 233.371 245.925 232.848 245.608C232.325 245.291 231.929 244.852 231.658 244.292C231.397 243.723 231.266 243.069 231.266 242.332C231.266 241.585 231.401 240.927 231.672 240.358C231.952 239.789 232.353 239.341 232.876 239.014C233.408 238.687 234.047 238.524 234.794 238.524C235.363 238.524 235.858 238.631 236.278 238.846C236.698 239.051 237.043 239.331 237.314 239.686C237.594 240.041 237.799 240.437 237.93 240.876C238.061 241.305 238.117 241.753 238.098 242.22C238.098 242.323 238.093 242.421 238.084 242.514C238.075 242.607 238.065 242.705 238.056 242.808H232.722C232.75 243.181 232.843 243.522 233.002 243.83C233.17 244.138 233.403 244.385 233.702 244.572C234.001 244.749 234.369 244.838 234.808 244.838C235.051 244.838 235.284 244.81 235.508 244.754C235.741 244.689 235.947 244.591 236.124 244.46C236.311 244.32 236.441 244.143 236.516 243.928H237.972C237.851 244.423 237.631 244.833 237.314 245.16C237.006 245.477 236.628 245.711 236.18 245.86C235.741 246.009 235.279 246.084 234.794 246.084ZM232.75 241.66H236.67C236.661 241.296 236.577 240.974 236.418 240.694C236.259 240.405 236.04 240.181 235.76 240.022C235.48 239.854 235.144 239.77 234.752 239.77C234.323 239.77 233.963 239.859 233.674 240.036C233.394 240.213 233.175 240.447 233.016 240.736C232.867 241.016 232.778 241.324 232.75 241.66ZM242.833 246.084C242.058 246.084 241.41 245.925 240.887 245.608C240.364 245.291 239.968 244.852 239.697 244.292C239.436 243.723 239.305 243.069 239.305 242.332C239.305 241.585 239.44 240.927 239.711 240.358C239.991 239.789 240.392 239.341 240.915 239.014C241.447 238.687 242.086 238.524 242.833 238.524C243.402 238.524 243.897 238.631 244.317 238.846C244.737 239.051 245.082 239.331 245.353 239.686C245.633 240.041 245.838 240.437 245.969 240.876C246.1 241.305 246.156 241.753 246.137 242.22C246.137 242.323 246.132 242.421 246.123 242.514C246.114 242.607 246.104 242.705 246.095 242.808H240.761C240.789 243.181 240.882 243.522 241.041 243.83C241.209 244.138 241.442 244.385 241.741 244.572C242.04 244.749 242.408 244.838 242.847 244.838C243.09 244.838 243.323 244.81 243.547 244.754C243.78 244.689 243.986 244.591 244.163 244.46C244.35 244.32 244.48 244.143 244.555 243.928H246.011C245.89 244.423 245.67 244.833 245.353 245.16C245.045 245.477 244.667 245.711 244.219 245.86C243.78 246.009 243.318 246.084 242.833 246.084ZM240.789 241.66H244.709C244.7 241.296 244.616 240.974 244.457 240.694C244.298 240.405 244.079 240.181 243.799 240.022C243.519 239.854 243.183 239.77 242.791 239.77C242.362 239.77 242.002 239.859 241.713 240.036C241.433 240.213 241.214 240.447 241.055 240.736C240.906 241.016 240.817 241.324 240.789 241.66ZM247.624 246V238.622H248.996L249.066 239.658C249.253 239.387 249.477 239.173 249.738 239.014C250 238.846 250.28 238.725 250.578 238.65C250.877 238.566 251.166 238.524 251.446 238.524C252.156 238.524 252.711 238.678 253.112 238.986C253.523 239.285 253.812 239.691 253.98 240.204C254.158 240.708 254.246 241.282 254.246 241.926V246H252.79V242.22C252.79 241.921 252.772 241.627 252.734 241.338C252.697 241.049 252.618 240.792 252.496 240.568C252.384 240.335 252.221 240.153 252.006 240.022C251.792 239.882 251.502 239.812 251.138 239.812C250.69 239.812 250.312 239.933 250.004 240.176C249.696 240.419 249.463 240.745 249.304 241.156C249.146 241.567 249.066 242.029 249.066 242.542V246H247.624ZM262.564 246.084C262.218 246.084 261.873 246.051 261.528 245.986C261.182 245.921 260.86 245.804 260.562 245.636C260.263 245.468 260.011 245.244 259.806 244.964C259.6 244.675 259.47 244.32 259.414 243.9H260.884C260.958 244.124 261.089 244.306 261.276 244.446C261.472 244.586 261.686 244.689 261.92 244.754C262.162 244.819 262.4 244.852 262.634 244.852C262.774 244.852 262.928 244.843 263.096 244.824C263.273 244.805 263.441 244.763 263.6 244.698C263.758 244.633 263.889 244.539 263.992 244.418C264.094 244.287 264.146 244.115 264.146 243.9C264.146 243.732 264.099 243.592 264.006 243.48C263.922 243.368 263.8 243.279 263.642 243.214C263.492 243.139 263.31 243.083 263.096 243.046C262.676 242.953 262.223 242.864 261.738 242.78C261.262 242.687 260.842 242.528 260.478 242.304C260.347 242.22 260.23 242.127 260.128 242.024C260.025 241.912 259.936 241.786 259.862 241.646C259.787 241.506 259.731 241.357 259.694 241.198C259.656 241.039 259.638 240.867 259.638 240.68C259.638 240.297 259.712 239.971 259.862 239.7C260.02 239.429 260.235 239.21 260.506 239.042C260.776 238.865 261.084 238.734 261.43 238.65C261.775 238.566 262.139 238.524 262.522 238.524C263.016 238.524 263.464 238.603 263.866 238.762C264.267 238.921 264.598 239.154 264.86 239.462C265.121 239.77 265.275 240.157 265.322 240.624H263.964C263.908 240.372 263.744 240.171 263.474 240.022C263.212 239.863 262.881 239.784 262.48 239.784C262.34 239.784 262.186 239.793 262.018 239.812C261.859 239.831 261.705 239.873 261.556 239.938C261.406 240.003 261.285 240.097 261.192 240.218C261.098 240.33 261.052 240.479 261.052 240.666C261.052 240.843 261.094 240.993 261.178 241.114C261.271 241.235 261.402 241.333 261.57 241.408C261.747 241.483 261.948 241.543 262.172 241.59C262.489 241.665 262.83 241.735 263.194 241.8C263.567 241.865 263.87 241.935 264.104 242.01C264.412 242.094 264.673 242.215 264.888 242.374C265.112 242.533 265.28 242.733 265.392 242.976C265.513 243.219 265.574 243.513 265.574 243.858C265.574 244.306 265.485 244.675 265.308 244.964C265.13 245.244 264.892 245.468 264.594 245.636C264.304 245.804 263.978 245.921 263.614 245.986C263.259 246.051 262.909 246.084 262.564 246.084ZM270.285 246.084C269.511 246.084 268.862 245.925 268.339 245.608C267.826 245.291 267.439 244.852 267.177 244.292C266.925 243.723 266.799 243.069 266.799 242.332C266.799 241.604 266.93 240.955 267.191 240.386C267.462 239.807 267.863 239.355 268.395 239.028C268.937 238.692 269.604 238.524 270.397 238.524C270.939 238.524 271.419 238.617 271.839 238.804C272.259 238.981 272.6 239.247 272.861 239.602C273.132 239.947 273.309 240.381 273.393 240.904H271.951C271.83 240.521 271.625 240.246 271.335 240.078C271.055 239.91 270.724 239.826 270.341 239.826C269.828 239.826 269.417 239.947 269.109 240.19C268.811 240.433 268.591 240.745 268.451 241.128C268.311 241.511 268.241 241.912 268.241 242.332C268.241 242.771 268.311 243.177 268.451 243.55C268.601 243.923 268.825 244.227 269.123 244.46C269.431 244.684 269.833 244.796 270.327 244.796C270.701 244.796 271.046 244.717 271.363 244.558C271.681 244.39 271.886 244.11 271.979 243.718H273.463C273.379 244.259 273.183 244.707 272.875 245.062C272.567 245.407 272.185 245.664 271.727 245.832C271.279 246 270.799 246.084 270.285 246.084ZM274.859 246V236.102H276.301V239.658C276.497 239.406 276.721 239.196 276.973 239.028C277.234 238.86 277.514 238.734 277.813 238.65C278.111 238.566 278.41 238.524 278.709 238.524C279.418 238.524 279.973 238.678 280.375 238.986C280.776 239.285 281.061 239.691 281.229 240.204C281.397 240.717 281.481 241.296 281.481 241.94V246H280.025V242.276C280.025 241.977 280.001 241.683 279.955 241.394C279.917 241.105 279.843 240.843 279.731 240.61C279.619 240.367 279.446 240.176 279.213 240.036C278.989 239.887 278.685 239.812 278.303 239.812C277.939 239.812 277.626 239.891 277.365 240.05C277.113 240.209 276.907 240.423 276.749 240.694C276.599 240.955 276.487 241.245 276.413 241.562C276.338 241.87 276.301 242.178 276.301 242.486V246H274.859ZM286.446 246.084C285.672 246.084 285.023 245.925 284.5 245.608C283.978 245.291 283.581 244.852 283.31 244.292C283.049 243.723 282.918 243.069 282.918 242.332C282.918 241.585 283.054 240.927 283.324 240.358C283.604 239.789 284.006 239.341 284.528 239.014C285.06 238.687 285.7 238.524 286.446 238.524C287.016 238.524 287.51 238.631 287.93 238.846C288.35 239.051 288.696 239.331 288.966 239.686C289.246 240.041 289.452 240.437 289.582 240.876C289.713 241.305 289.769 241.753 289.75 242.22C289.75 242.323 289.746 242.421 289.736 242.514C289.727 242.607 289.718 242.705 289.708 242.808H284.374C284.402 243.181 284.496 243.522 284.654 243.83C284.822 244.138 285.056 244.385 285.354 244.572C285.653 244.749 286.022 244.838 286.46 244.838C286.703 244.838 286.936 244.81 287.16 244.754C287.394 244.689 287.599 244.591 287.776 244.46C287.963 244.32 288.094 244.143 288.168 243.928H289.624C289.503 244.423 289.284 244.833 288.966 245.16C288.658 245.477 288.28 245.711 287.832 245.86C287.394 246.009 286.932 246.084 286.446 246.084ZM284.402 241.66H288.322C288.313 241.296 288.229 240.974 288.07 240.694C287.912 240.405 287.692 240.181 287.412 240.022C287.132 239.854 286.796 239.77 286.404 239.77C285.975 239.77 285.616 239.859 285.326 240.036C285.046 240.213 284.827 240.447 284.668 240.736C284.519 241.016 284.43 241.324 284.402 241.66ZM294.219 246.084C293.482 246.084 292.871 245.921 292.385 245.594C291.909 245.258 291.55 244.805 291.307 244.236C291.074 243.667 290.957 243.027 290.957 242.318C290.957 241.599 291.079 240.955 291.321 240.386C291.564 239.807 291.933 239.355 292.427 239.028C292.922 238.692 293.547 238.524 294.303 238.524C294.583 238.524 294.863 238.557 295.143 238.622C295.433 238.687 295.699 238.79 295.941 238.93C296.193 239.061 296.408 239.238 296.585 239.462V236.102H298.027V246H296.641L296.585 244.992C296.417 245.244 296.207 245.454 295.955 245.622C295.713 245.781 295.442 245.897 295.143 245.972C294.845 246.047 294.537 246.084 294.219 246.084ZM294.457 244.796C294.933 244.796 295.325 244.679 295.633 244.446C295.951 244.213 296.189 243.905 296.347 243.522C296.506 243.139 296.585 242.724 296.585 242.276C296.585 241.819 296.506 241.408 296.347 241.044C296.198 240.671 295.965 240.377 295.647 240.162C295.339 239.938 294.943 239.826 294.457 239.826C293.953 239.826 293.552 239.943 293.253 240.176C292.955 240.4 292.735 240.703 292.595 241.086C292.465 241.469 292.399 241.889 292.399 242.346C292.399 242.682 292.437 242.999 292.511 243.298C292.586 243.587 292.703 243.849 292.861 244.082C293.029 244.306 293.244 244.483 293.505 244.614C293.767 244.735 294.084 244.796 294.457 244.796ZM302.96 246.084C301.924 246.084 301.131 245.813 300.58 245.272C300.039 244.721 299.768 243.886 299.768 242.766V238.622H301.21V242.682C301.21 243.121 301.271 243.499 301.392 243.816C301.523 244.133 301.719 244.376 301.98 244.544C302.241 244.712 302.573 244.796 302.974 244.796C303.394 244.796 303.73 244.712 303.982 244.544C304.243 244.367 304.43 244.119 304.542 243.802C304.663 243.485 304.724 243.111 304.724 242.682V238.622H306.166V242.766C306.166 243.905 305.886 244.745 305.326 245.286C304.775 245.818 303.987 246.084 302.96 246.084ZM307.903 246V236.102H309.345V246H307.903ZM314.378 246.084C313.603 246.084 312.955 245.925 312.432 245.608C311.909 245.291 311.513 244.852 311.242 244.292C310.981 243.723 310.85 243.069 310.85 242.332C310.85 241.585 310.985 240.927 311.256 240.358C311.536 239.789 311.937 239.341 312.46 239.014C312.992 238.687 313.631 238.524 314.378 238.524C314.947 238.524 315.442 238.631 315.862 238.846C316.282 239.051 316.627 239.331 316.898 239.686C317.178 240.041 317.383 240.437 317.514 240.876C317.645 241.305 317.701 241.753 317.682 242.22C317.682 242.323 317.677 242.421 317.668 242.514C317.659 242.607 317.649 242.705 317.64 242.808H312.306C312.334 243.181 312.427 243.522 312.586 243.83C312.754 244.138 312.987 244.385 313.286 244.572C313.585 244.749 313.953 244.838 314.392 244.838C314.635 244.838 314.868 244.81 315.092 244.754C315.325 244.689 315.531 244.591 315.708 244.46C315.895 244.32 316.025 244.143 316.1 243.928H317.556C317.435 244.423 317.215 244.833 316.898 245.16C316.59 245.477 316.212 245.711 315.764 245.86C315.325 246.009 314.863 246.084 314.378 246.084ZM312.334 241.66H316.254C316.245 241.296 316.161 240.974 316.002 240.694C315.843 240.405 315.624 240.181 315.344 240.022C315.064 239.854 314.728 239.77 314.336 239.77C313.907 239.77 313.547 239.859 313.258 240.036C312.978 240.213 312.759 240.447 312.6 240.736C312.451 241.016 312.362 241.324 312.334 241.66ZM322.151 246.084C321.414 246.084 320.802 245.921 320.317 245.594C319.841 245.258 319.482 244.805 319.239 244.236C319.006 243.667 318.889 243.027 318.889 242.318C318.889 241.599 319.01 240.955 319.253 240.386C319.496 239.807 319.864 239.355 320.359 239.028C320.854 238.692 321.479 238.524 322.235 238.524C322.515 238.524 322.795 238.557 323.075 238.622C323.364 238.687 323.63 238.79 323.873 238.93C324.125 239.061 324.34 239.238 324.517 239.462V236.102H325.959V246H324.573L324.517 244.992C324.349 245.244 324.139 245.454 323.887 245.622C323.644 245.781 323.374 245.897 323.075 245.972C322.776 246.047 322.468 246.084 322.151 246.084ZM322.389 244.796C322.865 244.796 323.257 244.679 323.565 244.446C323.882 244.213 324.12 243.905 324.279 243.522C324.438 243.139 324.517 242.724 324.517 242.276C324.517 241.819 324.438 241.408 324.279 241.044C324.13 240.671 323.896 240.377 323.579 240.162C323.271 239.938 322.874 239.826 322.389 239.826C321.885 239.826 321.484 239.943 321.185 240.176C320.886 240.4 320.667 240.703 320.527 241.086C320.396 241.469 320.331 241.889 320.331 242.346C320.331 242.682 320.368 242.999 320.443 243.298C320.518 243.587 320.634 243.849 320.793 244.082C320.961 244.306 321.176 244.483 321.437 244.614C321.698 244.735 322.016 244.796 322.389 244.796ZM334.818 249.332C334.248 249.332 333.698 249.253 333.166 249.094C332.634 248.945 332.148 248.679 331.71 248.296L332.284 247.148C332.62 247.419 332.988 247.633 333.39 247.792C333.8 247.951 334.234 248.03 334.692 248.03C335.448 248.03 335.994 247.825 336.33 247.414C336.666 247.003 336.834 246.467 336.834 245.804V245.09C336.666 245.323 336.456 245.519 336.204 245.678C335.961 245.827 335.69 245.935 335.392 246C335.093 246.075 334.79 246.112 334.482 246.112C333.763 246.112 333.189 245.967 332.76 245.678C332.34 245.379 332.036 244.973 331.85 244.46C331.672 243.947 331.584 243.354 331.584 242.682V238.622H333.04V242.332C333.04 242.631 333.058 242.929 333.096 243.228C333.133 243.527 333.212 243.797 333.334 244.04C333.455 244.273 333.632 244.465 333.866 244.614C334.099 244.754 334.416 244.824 334.818 244.824C335.322 244.824 335.718 244.703 336.008 244.46C336.297 244.208 336.502 243.881 336.624 243.48C336.745 243.069 336.806 242.626 336.806 242.15V238.622H338.248V245.65C338.248 246.229 338.178 246.747 338.038 247.204C337.907 247.661 337.697 248.049 337.408 248.366C337.128 248.683 336.773 248.921 336.344 249.08C335.924 249.248 335.415 249.332 334.818 249.332ZM343.253 246.084C342.478 246.084 341.83 245.925 341.307 245.608C340.784 245.291 340.388 244.852 340.117 244.292C339.856 243.723 339.725 243.069 339.725 242.332C339.725 241.585 339.86 240.927 340.131 240.358C340.411 239.789 340.812 239.341 341.335 239.014C341.867 238.687 342.506 238.524 343.253 238.524C343.822 238.524 344.317 238.631 344.737 238.846C345.157 239.051 345.502 239.331 345.773 239.686C346.053 240.041 346.258 240.437 346.389 240.876C346.52 241.305 346.576 241.753 346.557 242.22C346.557 242.323 346.552 242.421 346.543 242.514C346.534 242.607 346.524 242.705 346.515 242.808H341.181C341.209 243.181 341.302 243.522 341.461 243.83C341.629 244.138 341.862 244.385 342.161 244.572C342.46 244.749 342.828 244.838 343.267 244.838C343.51 244.838 343.743 244.81 343.967 244.754C344.2 244.689 344.406 244.591 344.583 244.46C344.77 244.32 344.9 244.143 344.975 243.928H346.431C346.31 244.423 346.09 244.833 345.773 245.16C345.465 245.477 345.087 245.711 344.639 245.86C344.2 246.009 343.738 246.084 343.253 246.084ZM341.209 241.66H345.129C345.12 241.296 345.036 240.974 344.877 240.694C344.718 240.405 344.499 240.181 344.219 240.022C343.939 239.854 343.603 239.77 343.211 239.77C342.782 239.77 342.422 239.859 342.133 240.036C341.853 240.213 341.634 240.447 341.475 240.736C341.326 241.016 341.237 241.324 341.209 241.66ZM351.152 246C350.573 246 350.102 245.921 349.738 245.762C349.374 245.594 349.103 245.333 348.926 244.978C348.758 244.623 348.674 244.161 348.674 243.592V239.91H347.512V238.622H348.674V236.494H350.116V238.622H351.978V239.91H350.116V243.41C350.116 243.849 350.195 244.18 350.354 244.404C350.513 244.619 350.844 244.726 351.348 244.726H351.922V246H351.152ZM354.178 246.14C353.898 246.14 353.665 246.051 353.478 245.874C353.301 245.697 353.212 245.463 353.212 245.174C353.212 244.885 353.305 244.651 353.492 244.474C353.679 244.287 353.907 244.194 354.178 244.194C354.449 244.194 354.673 244.287 354.85 244.474C355.037 244.651 355.13 244.885 355.13 245.174C355.13 245.463 355.037 245.697 354.85 245.874C354.673 246.051 354.449 246.14 354.178 246.14ZM60.4489 265.112C59.4316 265.112 58.5776 264.897 57.8869 264.468C57.2056 264.039 56.6922 263.446 56.3469 262.69C56.0016 261.934 55.8289 261.061 55.8289 260.072C55.8289 259.083 56.0016 258.205 56.3469 257.44C56.7016 256.675 57.2196 256.077 57.9009 255.648C58.5916 255.209 59.4456 254.99 60.4629 254.99C61.2002 254.99 61.8442 255.111 62.3949 255.354C62.9456 255.587 63.3889 255.923 63.7249 256.362C64.0702 256.791 64.2989 257.305 64.4109 257.902H62.9549C62.8149 257.426 62.5302 257.048 62.1009 256.768C61.6716 256.488 61.1209 256.348 60.4489 256.348C59.7022 256.348 59.1002 256.521 58.6429 256.866C58.1949 257.211 57.8682 257.664 57.6629 258.224C57.4576 258.775 57.3549 259.372 57.3549 260.016C57.3549 260.679 57.4622 261.295 57.6769 261.864C57.8916 262.433 58.2322 262.891 58.6989 263.236C59.1656 263.581 59.7629 263.754 60.4909 263.754C60.9389 263.754 61.3356 263.693 61.6809 263.572C62.0262 263.441 62.3156 263.259 62.5489 263.026C62.7822 262.783 62.9409 262.503 63.0249 262.186H64.5789C64.4576 262.793 64.2102 263.315 63.8369 263.754C63.4636 264.193 62.9922 264.529 62.4229 264.762C61.8536 264.995 61.1956 265.112 60.4489 265.112ZM65.9933 265V255.102H67.4353V258.658C67.6313 258.406 67.8553 258.196 68.1073 258.028C68.3687 257.86 68.6487 257.734 68.9473 257.65C69.246 257.566 69.5447 257.524 69.8433 257.524C70.5527 257.524 71.108 257.678 71.5093 257.986C71.9107 258.285 72.1953 258.691 72.3633 259.204C72.5313 259.717 72.6153 260.296 72.6153 260.94V265H71.1593V261.276C71.1593 260.977 71.136 260.683 71.0893 260.394C71.052 260.105 70.9773 259.843 70.8653 259.61C70.7533 259.367 70.5807 259.176 70.3473 259.036C70.1233 258.887 69.82 258.812 69.4373 258.812C69.0733 258.812 68.7607 258.891 68.4993 259.05C68.2473 259.209 68.042 259.423 67.8833 259.694C67.734 259.955 67.622 260.245 67.5473 260.562C67.4727 260.87 67.4353 261.178 67.4353 261.486V265H65.9933ZM77.5812 265.084C76.8065 265.084 76.1578 264.925 75.6352 264.608C75.1125 264.291 74.7158 263.852 74.4452 263.292C74.1838 262.723 74.0532 262.069 74.0532 261.332C74.0532 260.585 74.1885 259.927 74.4592 259.358C74.7392 258.789 75.1405 258.341 75.6632 258.014C76.1952 257.687 76.8345 257.524 77.5812 257.524C78.1505 257.524 78.6452 257.631 79.0652 257.846C79.4852 258.051 79.8305 258.331 80.1012 258.686C80.3812 259.041 80.5865 259.437 80.7172 259.876C80.8478 260.305 80.9038 260.753 80.8852 261.22C80.8852 261.323 80.8805 261.421 80.8712 261.514C80.8618 261.607 80.8525 261.705 80.8432 261.808H75.5092C75.5372 262.181 75.6305 262.522 75.7892 262.83C75.9572 263.138 76.1905 263.385 76.4892 263.572C76.7878 263.749 77.1565 263.838 77.5952 263.838C77.8378 263.838 78.0712 263.81 78.2952 263.754C78.5285 263.689 78.7338 263.591 78.9112 263.46C79.0978 263.32 79.2285 263.143 79.3032 262.928H80.7592C80.6378 263.423 80.4185 263.833 80.1012 264.16C79.7932 264.477 79.4152 264.711 78.9672 264.86C78.5285 265.009 78.0665 265.084 77.5812 265.084ZM75.5372 260.66H79.4572C79.4478 260.296 79.3638 259.974 79.2052 259.694C79.0465 259.405 78.8272 259.181 78.5472 259.022C78.2672 258.854 77.9312 258.77 77.5392 258.77C77.1098 258.77 76.7505 258.859 76.4612 259.036C76.1812 259.213 75.9618 259.447 75.8032 259.736C75.6538 260.016 75.5652 260.324 75.5372 260.66ZM85.715 265.084C84.9403 265.084 84.2916 264.925 83.769 264.608C83.2556 264.291 82.8683 263.852 82.607 263.292C82.355 262.723 82.229 262.069 82.229 261.332C82.229 260.604 82.3596 259.955 82.621 259.386C82.8916 258.807 83.293 258.355 83.825 258.028C84.3663 257.692 85.0336 257.524 85.827 257.524C86.3683 257.524 86.849 257.617 87.269 257.804C87.689 257.981 88.0296 258.247 88.291 258.602C88.5616 258.947 88.739 259.381 88.823 259.904H87.381C87.2596 259.521 87.0543 259.246 86.765 259.078C86.485 258.91 86.1536 258.826 85.771 258.826C85.2576 258.826 84.847 258.947 84.539 259.19C84.2403 259.433 84.021 259.745 83.881 260.128C83.741 260.511 83.671 260.912 83.671 261.332C83.671 261.771 83.741 262.177 83.881 262.55C84.0303 262.923 84.2543 263.227 84.553 263.46C84.861 263.684 85.2623 263.796 85.757 263.796C86.1303 263.796 86.4756 263.717 86.793 263.558C87.1103 263.39 87.3156 263.11 87.409 262.718H88.893C88.809 263.259 88.613 263.707 88.305 264.062C87.997 264.407 87.6143 264.664 87.157 264.832C86.709 265 86.2283 265.084 85.715 265.084ZM90.2883 265V255.102H91.7303V260.688H92.9203L94.9923 257.622H96.6163L94.1943 261.136L96.8263 265H95.1323L93.0323 261.962H91.7303V265H90.2883ZM105.319 265.084C105.011 265.084 104.717 265.051 104.437 264.986C104.166 264.921 103.91 264.818 103.667 264.678C103.434 264.529 103.224 264.347 103.037 264.132L102.995 265H101.595V255.102H103.037V258.616C103.298 258.261 103.648 257.991 104.087 257.804C104.526 257.617 104.978 257.524 105.445 257.524C106.182 257.524 106.789 257.692 107.265 258.028C107.741 258.355 108.091 258.803 108.315 259.372C108.548 259.932 108.665 260.571 108.665 261.29C108.665 261.999 108.544 262.643 108.301 263.222C108.058 263.791 107.69 264.244 107.195 264.58C106.71 264.916 106.084 265.084 105.319 265.084ZM105.165 263.81C105.678 263.81 106.084 263.693 106.383 263.46C106.682 263.227 106.896 262.919 107.027 262.536C107.158 262.153 107.223 261.743 107.223 261.304C107.223 260.847 107.153 260.431 107.013 260.058C106.882 259.685 106.663 259.386 106.355 259.162C106.056 258.938 105.655 258.826 105.151 258.826C104.694 258.826 104.306 258.952 103.989 259.204C103.672 259.447 103.429 259.759 103.261 260.142C103.102 260.525 103.023 260.921 103.023 261.332C103.023 261.761 103.093 262.167 103.233 262.55C103.382 262.923 103.616 263.227 103.933 263.46C104.25 263.693 104.661 263.81 105.165 263.81ZM112.505 265.084C112.169 265.084 111.843 265.042 111.525 264.958C111.217 264.865 110.942 264.729 110.699 264.552C110.457 264.365 110.261 264.137 110.111 263.866C109.971 263.586 109.901 263.259 109.901 262.886C109.901 262.438 109.985 262.069 110.153 261.78C110.331 261.481 110.564 261.253 110.853 261.094C111.143 260.926 111.474 260.809 111.847 260.744C112.23 260.669 112.627 260.632 113.037 260.632H114.843C114.843 260.268 114.787 259.951 114.675 259.68C114.563 259.4 114.386 259.185 114.143 259.036C113.91 258.877 113.597 258.798 113.205 258.798C112.972 258.798 112.748 258.826 112.533 258.882C112.328 258.929 112.151 259.008 112.001 259.12C111.852 259.232 111.749 259.381 111.693 259.568H110.181C110.237 259.213 110.363 258.91 110.559 258.658C110.755 258.397 110.998 258.182 111.287 258.014C111.577 257.846 111.885 257.725 112.211 257.65C112.547 257.566 112.888 257.524 113.233 257.524C114.297 257.524 115.063 257.837 115.529 258.462C116.005 259.078 116.243 259.927 116.243 261.01V265H114.997L114.941 264.062C114.727 264.351 114.47 264.571 114.171 264.72C113.882 264.869 113.593 264.967 113.303 265.014C113.014 265.061 112.748 265.084 112.505 265.084ZM112.729 263.866C113.149 263.866 113.518 263.796 113.835 263.656C114.153 263.507 114.4 263.297 114.577 263.026C114.755 262.746 114.843 262.419 114.843 262.046V261.738H113.527C113.257 261.738 112.991 261.747 112.729 261.766C112.477 261.775 112.244 261.813 112.029 261.878C111.824 261.934 111.656 262.032 111.525 262.172C111.404 262.312 111.343 262.513 111.343 262.774C111.343 263.026 111.409 263.231 111.539 263.39C111.67 263.549 111.843 263.67 112.057 263.754C112.272 263.829 112.496 263.866 112.729 263.866ZM121.18 265.084C120.405 265.084 119.756 264.925 119.234 264.608C118.72 264.291 118.333 263.852 118.072 263.292C117.82 262.723 117.694 262.069 117.694 261.332C117.694 260.604 117.824 259.955 118.086 259.386C118.356 258.807 118.758 258.355 119.29 258.028C119.831 257.692 120.498 257.524 121.292 257.524C121.833 257.524 122.314 257.617 122.734 257.804C123.154 257.981 123.494 258.247 123.756 258.602C124.026 258.947 124.204 259.381 124.288 259.904H122.846C122.724 259.521 122.519 259.246 122.23 259.078C121.95 258.91 121.618 258.826 121.236 258.826C120.722 258.826 120.312 258.947 120.004 259.19C119.705 259.433 119.486 259.745 119.346 260.128C119.206 260.511 119.136 260.912 119.136 261.332C119.136 261.771 119.206 262.177 119.346 262.55C119.495 262.923 119.719 263.227 120.018 263.46C120.326 263.684 120.727 263.796 121.222 263.796C121.595 263.796 121.94 263.717 122.258 263.558C122.575 263.39 122.78 263.11 122.874 262.718H124.358C124.274 263.259 124.078 263.707 123.77 264.062C123.462 264.407 123.079 264.664 122.622 264.832C122.174 265 121.693 265.084 121.18 265.084ZM125.753 265V255.102H127.195V260.688H128.385L130.457 257.622H132.081L129.659 261.136L132.291 265H130.597L128.497 261.962H127.195V265H125.753ZM137.06 265V255.102H138.502V265H137.06ZM142.638 265.084C142.302 265.084 141.976 265.042 141.658 264.958C141.35 264.865 141.075 264.729 140.832 264.552C140.59 264.365 140.394 264.137 140.244 263.866C140.104 263.586 140.034 263.259 140.034 262.886C140.034 262.438 140.118 262.069 140.286 261.78C140.464 261.481 140.697 261.253 140.986 261.094C141.276 260.926 141.607 260.809 141.98 260.744C142.363 260.669 142.76 260.632 143.17 260.632H144.976C144.976 260.268 144.92 259.951 144.808 259.68C144.696 259.4 144.519 259.185 144.276 259.036C144.043 258.877 143.73 258.798 143.338 258.798C143.105 258.798 142.881 258.826 142.666 258.882C142.461 258.929 142.284 259.008 142.134 259.12C141.985 259.232 141.882 259.381 141.826 259.568H140.314C140.37 259.213 140.496 258.91 140.692 258.658C140.888 258.397 141.131 258.182 141.42 258.014C141.71 257.846 142.018 257.725 142.344 257.65C142.68 257.566 143.021 257.524 143.366 257.524C144.43 257.524 145.196 257.837 145.662 258.462C146.138 259.078 146.376 259.927 146.376 261.01V265H145.13L145.074 264.062C144.86 264.351 144.603 264.571 144.304 264.72C144.015 264.869 143.726 264.967 143.436 265.014C143.147 265.061 142.881 265.084 142.638 265.084ZM142.862 263.866C143.282 263.866 143.651 263.796 143.968 263.656C144.286 263.507 144.533 263.297 144.71 263.026C144.888 262.746 144.976 262.419 144.976 262.046V261.738H143.66C143.39 261.738 143.124 261.747 142.862 261.766C142.61 261.775 142.377 261.813 142.162 261.878C141.957 261.934 141.789 262.032 141.658 262.172C141.537 262.312 141.476 262.513 141.476 262.774C141.476 263.026 141.542 263.231 141.672 263.39C141.803 263.549 141.976 263.67 142.19 263.754C142.405 263.829 142.629 263.866 142.862 263.866ZM150.963 265.084C150.169 265.084 149.6 264.869 149.255 264.44C148.919 264.001 148.751 263.39 148.751 262.606V258.91H147.575V257.622H148.751V255.48H150.193V257.622H152.447V258.91H150.193V262.368C150.193 262.629 150.216 262.867 150.263 263.082C150.319 263.297 150.421 263.465 150.571 263.586C150.72 263.707 150.935 263.773 151.215 263.782C151.429 263.782 151.616 263.745 151.775 263.67C151.943 263.595 152.078 263.511 152.181 263.418L152.741 264.496C152.563 264.636 152.377 264.753 152.181 264.846C151.994 264.93 151.798 264.991 151.593 265.028C151.387 265.065 151.177 265.084 150.963 265.084ZM157.028 265.084C156.254 265.084 155.605 264.925 155.082 264.608C154.56 264.291 154.163 263.852 153.892 263.292C153.631 262.723 153.5 262.069 153.5 261.332C153.5 260.585 153.636 259.927 153.906 259.358C154.186 258.789 154.588 258.341 155.11 258.014C155.642 257.687 156.282 257.524 157.028 257.524C157.598 257.524 158.092 257.631 158.512 257.846C158.932 258.051 159.278 258.331 159.548 258.686C159.828 259.041 160.034 259.437 160.164 259.876C160.295 260.305 160.351 260.753 160.332 261.22C160.332 261.323 160.328 261.421 160.318 261.514C160.309 261.607 160.3 261.705 160.29 261.808H154.956C154.984 262.181 155.078 262.522 155.236 262.83C155.404 263.138 155.638 263.385 155.936 263.572C156.235 263.749 156.604 263.838 157.042 263.838C157.285 263.838 157.518 263.81 157.742 263.754C157.976 263.689 158.181 263.591 158.358 263.46C158.545 263.32 158.676 263.143 158.75 262.928H160.206C160.085 263.423 159.866 263.833 159.548 264.16C159.24 264.477 158.862 264.711 158.414 264.86C157.976 265.009 157.514 265.084 157.028 265.084ZM154.984 260.66H158.904C158.895 260.296 158.811 259.974 158.652 259.694C158.494 259.405 158.274 259.181 157.994 259.022C157.714 258.854 157.378 258.77 156.986 258.77C156.557 258.77 156.198 258.859 155.908 259.036C155.628 259.213 155.409 259.447 155.25 259.736C155.101 260.016 155.012 260.324 154.984 260.66ZM161.82 265V257.622H163.178L163.248 258.686C163.434 258.397 163.649 258.168 163.892 258C164.134 257.832 164.4 257.711 164.69 257.636C164.979 257.561 165.282 257.524 165.6 257.524C165.684 257.524 165.763 257.524 165.838 257.524C165.912 257.524 165.982 257.524 166.048 257.524V258.91H165.6C165.068 258.91 164.624 259.017 164.27 259.232C163.924 259.447 163.668 259.745 163.5 260.128C163.341 260.511 163.262 260.949 163.262 261.444V265H161.82ZM174.27 265.084C173.504 265.084 172.856 264.93 172.324 264.622C171.792 264.305 171.386 263.861 171.106 263.292C170.835 262.723 170.7 262.065 170.7 261.318C170.7 260.562 170.84 259.904 171.12 259.344C171.4 258.775 171.806 258.331 172.338 258.014C172.87 257.687 173.518 257.524 174.284 257.524C175.049 257.524 175.698 257.687 176.23 258.014C176.762 258.331 177.163 258.775 177.434 259.344C177.704 259.913 177.84 260.576 177.84 261.332C177.84 262.069 177.7 262.723 177.42 263.292C177.149 263.861 176.748 264.305 176.216 264.622C175.693 264.93 175.044 265.084 174.27 265.084ZM174.27 263.796C174.774 263.796 175.18 263.684 175.488 263.46C175.805 263.236 176.038 262.937 176.188 262.564C176.337 262.181 176.412 261.766 176.412 261.318C176.412 260.87 176.337 260.459 176.188 260.086C176.038 259.713 175.805 259.414 175.488 259.19C175.18 258.957 174.774 258.84 174.27 258.84C173.775 258.84 173.369 258.957 173.052 259.19C172.734 259.414 172.501 259.713 172.352 260.086C172.212 260.459 172.142 260.87 172.142 261.318C172.142 261.775 172.212 262.191 172.352 262.564C172.501 262.937 172.734 263.236 173.052 263.46C173.369 263.684 173.775 263.796 174.27 263.796ZM179.32 265V257.622H180.678L180.748 258.686C180.934 258.397 181.149 258.168 181.392 258C181.634 257.832 181.9 257.711 182.19 257.636C182.479 257.561 182.782 257.524 183.1 257.524C183.184 257.524 183.263 257.524 183.338 257.524C183.412 257.524 183.482 257.524 183.548 257.524V258.91H183.1C182.568 258.91 182.124 259.017 181.77 259.232C181.424 259.447 181.168 259.745 181 260.128C180.841 260.511 180.762 260.949 180.762 261.444V265H179.32ZM191.728 265.084C190.953 265.084 190.304 264.925 189.782 264.608C189.259 264.291 188.862 263.852 188.592 263.292C188.33 262.723 188.2 262.069 188.2 261.332C188.2 260.585 188.335 259.927 188.606 259.358C188.886 258.789 189.287 258.341 189.81 258.014C190.342 257.687 190.981 257.524 191.728 257.524C192.297 257.524 192.792 257.631 193.212 257.846C193.632 258.051 193.977 258.331 194.248 258.686C194.528 259.041 194.733 259.437 194.864 259.876C194.994 260.305 195.05 260.753 195.032 261.22C195.032 261.323 195.027 261.421 195.018 261.514C195.008 261.607 194.999 261.705 194.99 261.808H189.656C189.684 262.181 189.777 262.522 189.936 262.83C190.104 263.138 190.337 263.385 190.636 263.572C190.934 263.749 191.303 263.838 191.742 263.838C191.984 263.838 192.218 263.81 192.442 263.754C192.675 263.689 192.88 263.591 193.058 263.46C193.244 263.32 193.375 263.143 193.45 262.928H194.906C194.784 263.423 194.565 263.833 194.248 264.16C193.94 264.477 193.562 264.711 193.114 264.86C192.675 265.009 192.213 265.084 191.728 265.084ZM189.684 260.66H193.604C193.594 260.296 193.51 259.974 193.352 259.694C193.193 259.405 192.974 259.181 192.694 259.022C192.414 258.854 192.078 258.77 191.686 258.77C191.256 258.77 190.897 258.859 190.608 259.036C190.328 259.213 190.108 259.447 189.95 259.736C189.8 260.016 189.712 260.324 189.684 260.66ZM195.654 265L198.272 261.234L195.78 257.622H197.502L199.238 260.268L200.918 257.622H202.584L200.106 261.276L202.766 265H201.058L199.154 262.312L197.278 265H195.654ZM203.806 267.688V257.622H205.178L205.248 258.672C205.509 258.289 205.85 258.005 206.27 257.818C206.69 257.622 207.147 257.524 207.642 257.524C208.379 257.524 208.986 257.692 209.462 258.028C209.938 258.355 210.292 258.807 210.526 259.386C210.759 259.955 210.876 260.595 210.876 261.304C210.876 262.032 210.754 262.681 210.512 263.25C210.278 263.819 209.914 264.267 209.42 264.594C208.934 264.921 208.318 265.084 207.572 265.084C207.217 265.084 206.89 265.047 206.592 264.972C206.302 264.897 206.046 264.79 205.822 264.65C205.607 264.501 205.416 264.328 205.248 264.132V267.688H203.806ZM207.39 263.796C207.894 263.796 208.295 263.684 208.594 263.46C208.892 263.227 209.107 262.923 209.238 262.55C209.368 262.177 209.434 261.771 209.434 261.332C209.434 260.875 209.364 260.459 209.224 260.086C209.093 259.703 208.874 259.4 208.566 259.176C208.267 258.943 207.866 258.826 207.362 258.826C206.904 258.826 206.517 258.943 206.2 259.176C205.882 259.4 205.64 259.703 205.472 260.086C205.313 260.469 205.234 260.884 205.234 261.332C205.234 261.789 205.308 262.209 205.458 262.592C205.616 262.965 205.854 263.259 206.172 263.474C206.498 263.689 206.904 263.796 207.39 263.796ZM212.364 265V255.102H213.806V265H212.364ZM218.881 265.084C218.116 265.084 217.467 264.93 216.935 264.622C216.403 264.305 215.997 263.861 215.717 263.292C215.446 262.723 215.311 262.065 215.311 261.318C215.311 260.562 215.451 259.904 215.731 259.344C216.011 258.775 216.417 258.331 216.949 258.014C217.481 257.687 218.13 257.524 218.895 257.524C219.66 257.524 220.309 257.687 220.841 258.014C221.373 258.331 221.774 258.775 222.045 259.344C222.316 259.913 222.451 260.576 222.451 261.332C222.451 262.069 222.311 262.723 222.031 263.292C221.76 263.861 221.359 264.305 220.827 264.622C220.304 264.93 219.656 265.084 218.881 265.084ZM218.881 263.796C219.385 263.796 219.791 263.684 220.099 263.46C220.416 263.236 220.65 262.937 220.799 262.564C220.948 262.181 221.023 261.766 221.023 261.318C221.023 260.87 220.948 260.459 220.799 260.086C220.65 259.713 220.416 259.414 220.099 259.19C219.791 258.957 219.385 258.84 218.881 258.84C218.386 258.84 217.98 258.957 217.663 259.19C217.346 259.414 217.112 259.713 216.963 260.086C216.823 260.459 216.753 260.87 216.753 261.318C216.753 261.775 216.823 262.191 216.963 262.564C217.112 262.937 217.346 263.236 217.663 263.46C217.98 263.684 218.386 263.796 218.881 263.796ZM223.931 265V257.622H225.289L225.359 258.686C225.545 258.397 225.76 258.168 226.003 258C226.245 257.832 226.511 257.711 226.801 257.636C227.09 257.561 227.393 257.524 227.711 257.524C227.795 257.524 227.874 257.524 227.949 257.524C228.023 257.524 228.093 257.524 228.159 257.524V258.91H227.711C227.179 258.91 226.735 259.017 226.381 259.232C226.035 259.447 225.779 259.745 225.611 260.128C225.452 260.511 225.373 260.949 225.373 261.444V265H223.931ZM232.36 265.084C231.586 265.084 230.937 264.925 230.414 264.608C229.892 264.291 229.495 263.852 229.224 263.292C228.963 262.723 228.832 262.069 228.832 261.332C228.832 260.585 228.968 259.927 229.238 259.358C229.518 258.789 229.92 258.341 230.442 258.014C230.974 257.687 231.614 257.524 232.36 257.524C232.93 257.524 233.424 257.631 233.844 257.846C234.264 258.051 234.61 258.331 234.88 258.686C235.16 259.041 235.366 259.437 235.496 259.876C235.627 260.305 235.683 260.753 235.664 261.22C235.664 261.323 235.66 261.421 235.65 261.514C235.641 261.607 235.632 261.705 235.622 261.808H230.288C230.316 262.181 230.41 262.522 230.568 262.83C230.736 263.138 230.97 263.385 231.268 263.572C231.567 263.749 231.936 263.838 232.374 263.838C232.617 263.838 232.85 263.81 233.074 263.754C233.308 263.689 233.513 263.591 233.69 263.46C233.877 263.32 234.008 263.143 234.082 262.928H235.538C235.417 263.423 235.198 263.833 234.88 264.16C234.572 264.477 234.194 264.711 233.746 264.86C233.308 265.009 232.846 265.084 232.36 265.084ZM230.316 260.66H234.236C234.227 260.296 234.143 259.974 233.984 259.694C233.826 259.405 233.606 259.181 233.326 259.022C233.046 258.854 232.71 258.77 232.318 258.77C231.889 258.77 231.53 258.859 231.24 259.036C230.96 259.213 230.741 259.447 230.582 259.736C230.433 260.016 230.344 260.324 230.316 260.66ZM244.283 265.084C243.518 265.084 242.869 264.93 242.337 264.622C241.805 264.305 241.399 263.861 241.119 263.292C240.849 262.723 240.713 262.065 240.713 261.318C240.713 260.562 240.853 259.904 241.133 259.344C241.413 258.775 241.819 258.331 242.351 258.014C242.883 257.687 243.532 257.524 244.297 257.524C245.063 257.524 245.711 257.687 246.243 258.014C246.775 258.331 247.177 258.775 247.447 259.344C247.718 259.913 247.853 260.576 247.853 261.332C247.853 262.069 247.713 262.723 247.433 263.292C247.163 263.861 246.761 264.305 246.229 264.622C245.707 264.93 245.058 265.084 244.283 265.084ZM244.283 263.796C244.787 263.796 245.193 263.684 245.501 263.46C245.819 263.236 246.052 262.937 246.201 262.564C246.351 262.181 246.425 261.766 246.425 261.318C246.425 260.87 246.351 260.459 246.201 260.086C246.052 259.713 245.819 259.414 245.501 259.19C245.193 258.957 244.787 258.84 244.283 258.84C243.789 258.84 243.383 258.957 243.065 259.19C242.748 259.414 242.515 259.713 242.365 260.086C242.225 260.459 242.155 260.87 242.155 261.318C242.155 261.775 242.225 262.191 242.365 262.564C242.515 262.937 242.748 263.236 243.065 263.46C243.383 263.684 243.789 263.796 244.283 263.796ZM252.441 265C251.863 265 251.391 264.921 251.027 264.762C250.663 264.594 250.393 264.333 250.215 263.978C250.047 263.623 249.963 263.161 249.963 262.592V258.91H248.801V257.622H249.963V255.494H251.405V257.622H253.267V258.91H251.405V262.41C251.405 262.849 251.485 263.18 251.643 263.404C251.802 263.619 252.133 263.726 252.637 263.726H253.211V265H252.441ZM254.501 265V255.102H255.943V258.658C256.139 258.406 256.363 258.196 256.615 258.028C256.876 257.86 257.156 257.734 257.455 257.65C257.754 257.566 258.052 257.524 258.351 257.524C259.06 257.524 259.616 257.678 260.017 257.986C260.418 258.285 260.703 258.691 260.871 259.204C261.039 259.717 261.123 260.296 261.123 260.94V265H259.667V261.276C259.667 260.977 259.644 260.683 259.597 260.394C259.56 260.105 259.485 259.843 259.373 259.61C259.261 259.367 259.088 259.176 258.855 259.036C258.631 258.887 258.328 258.812 257.945 258.812C257.581 258.812 257.268 258.891 257.007 259.05C256.755 259.209 256.55 259.423 256.391 259.694C256.242 259.955 256.13 260.245 256.055 260.562C255.98 260.87 255.943 261.178 255.943 261.486V265H254.501ZM266.089 265.084C265.314 265.084 264.666 264.925 264.143 264.608C263.62 264.291 263.224 263.852 262.953 263.292C262.692 262.723 262.561 262.069 262.561 261.332C262.561 260.585 262.696 259.927 262.967 259.358C263.247 258.789 263.648 258.341 264.171 258.014C264.703 257.687 265.342 257.524 266.089 257.524C266.658 257.524 267.153 257.631 267.573 257.846C267.993 258.051 268.338 258.331 268.609 258.686C268.889 259.041 269.094 259.437 269.225 259.876C269.356 260.305 269.412 260.753 269.393 261.22C269.393 261.323 269.388 261.421 269.379 261.514C269.37 261.607 269.36 261.705 269.351 261.808H264.017C264.045 262.181 264.138 262.522 264.297 262.83C264.465 263.138 264.698 263.385 264.997 263.572C265.296 263.749 265.664 263.838 266.103 263.838C266.346 263.838 266.579 263.81 266.803 263.754C267.036 263.689 267.242 263.591 267.419 263.46C267.606 263.32 267.736 263.143 267.811 262.928H269.267C269.146 263.423 268.926 263.833 268.609 264.16C268.301 264.477 267.923 264.711 267.475 264.86C267.036 265.009 266.574 265.084 266.089 265.084ZM264.045 260.66H267.965C267.956 260.296 267.872 259.974 267.713 259.694C267.554 259.405 267.335 259.181 267.055 259.022C266.775 258.854 266.439 258.77 266.047 258.77C265.618 258.77 265.258 258.859 264.969 259.036C264.689 259.213 264.47 259.447 264.311 259.736C264.162 260.016 264.073 260.324 264.045 260.66ZM270.88 265V257.622H272.238L272.308 258.686C272.495 258.397 272.709 258.168 272.952 258C273.195 257.832 273.461 257.711 273.75 257.636C274.039 257.561 274.343 257.524 274.66 257.524C274.744 257.524 274.823 257.524 274.898 257.524C274.973 257.524 275.043 257.524 275.108 257.524V258.91H274.66C274.128 258.91 273.685 259.017 273.33 259.232C272.985 259.447 272.728 259.745 272.56 260.128C272.401 260.511 272.322 260.949 272.322 261.444V265H270.88ZM283.022 265.084C282.285 265.084 281.674 264.921 281.188 264.594C280.712 264.258 280.353 263.805 280.11 263.236C279.877 262.667 279.76 262.027 279.76 261.318C279.76 260.599 279.882 259.955 280.124 259.386C280.367 258.807 280.736 258.355 281.23 258.028C281.725 257.692 282.35 257.524 283.106 257.524C283.386 257.524 283.666 257.557 283.946 257.622C284.236 257.687 284.502 257.79 284.744 257.93C284.996 258.061 285.211 258.238 285.388 258.462V255.102H286.83V265H285.444L285.388 263.992C285.22 264.244 285.01 264.454 284.758 264.622C284.516 264.781 284.245 264.897 283.946 264.972C283.648 265.047 283.34 265.084 283.022 265.084ZM283.26 263.796C283.736 263.796 284.128 263.679 284.436 263.446C284.754 263.213 284.992 262.905 285.15 262.522C285.309 262.139 285.388 261.724 285.388 261.276C285.388 260.819 285.309 260.408 285.15 260.044C285.001 259.671 284.768 259.377 284.45 259.162C284.142 258.938 283.746 258.826 283.26 258.826C282.756 258.826 282.355 258.943 282.056 259.176C281.758 259.4 281.538 259.703 281.398 260.086C281.268 260.469 281.202 260.889 281.202 261.346C281.202 261.682 281.24 261.999 281.314 262.298C281.389 262.587 281.506 262.849 281.664 263.082C281.832 263.306 282.047 263.483 282.308 263.614C282.57 263.735 282.887 263.796 283.26 263.796ZM290.951 265.084C290.615 265.084 290.288 265.042 289.971 264.958C289.663 264.865 289.387 264.729 289.145 264.552C288.902 264.365 288.706 264.137 288.557 263.866C288.417 263.586 288.347 263.259 288.347 262.886C288.347 262.438 288.431 262.069 288.599 261.78C288.776 261.481 289.009 261.253 289.299 261.094C289.588 260.926 289.919 260.809 290.293 260.744C290.675 260.669 291.072 260.632 291.483 260.632H293.289C293.289 260.268 293.233 259.951 293.121 259.68C293.009 259.4 292.831 259.185 292.589 259.036C292.355 258.877 292.043 258.798 291.651 258.798C291.417 258.798 291.193 258.826 290.979 258.882C290.773 258.929 290.596 259.008 290.447 259.12C290.297 259.232 290.195 259.381 290.139 259.568H288.627C288.683 259.213 288.809 258.91 289.005 258.658C289.201 258.397 289.443 258.182 289.733 258.014C290.022 257.846 290.33 257.725 290.657 257.65C290.993 257.566 291.333 257.524 291.679 257.524C292.743 257.524 293.508 257.837 293.975 258.462C294.451 259.078 294.689 259.927 294.689 261.01V265H293.443L293.387 264.062C293.172 264.351 292.915 264.571 292.617 264.72C292.327 264.869 292.038 264.967 291.749 265.014C291.459 265.061 291.193 265.084 290.951 265.084ZM291.175 263.866C291.595 263.866 291.963 263.796 292.281 263.656C292.598 263.507 292.845 263.297 293.023 263.026C293.2 262.746 293.289 262.419 293.289 262.046V261.738H291.973C291.702 261.738 291.436 261.747 291.175 261.766C290.923 261.775 290.689 261.813 290.475 261.878C290.269 261.934 290.101 262.032 289.971 262.172C289.849 262.312 289.789 262.513 289.789 262.774C289.789 263.026 289.854 263.231 289.985 263.39C290.115 263.549 290.288 263.67 290.503 263.754C290.717 263.829 290.941 263.866 291.175 263.866ZM299.667 268.332C299.098 268.332 298.547 268.253 298.015 268.094C297.483 267.945 296.998 267.679 296.559 267.296L297.133 266.148C297.469 266.419 297.838 266.633 298.239 266.792C298.65 266.951 299.084 267.03 299.541 267.03C300.297 267.03 300.843 266.825 301.179 266.414C301.515 266.003 301.683 265.467 301.683 264.804V264.09C301.515 264.323 301.305 264.519 301.053 264.678C300.81 264.827 300.54 264.935 300.241 265C299.942 265.075 299.639 265.112 299.331 265.112C298.612 265.112 298.038 264.967 297.609 264.678C297.189 264.379 296.886 263.973 296.699 263.46C296.522 262.947 296.433 262.354 296.433 261.682V257.622H297.889V261.332C297.889 261.631 297.908 261.929 297.945 262.228C297.982 262.527 298.062 262.797 298.183 263.04C298.304 263.273 298.482 263.465 298.715 263.614C298.948 263.754 299.266 263.824 299.667 263.824C300.171 263.824 300.568 263.703 300.857 263.46C301.146 263.208 301.352 262.881 301.473 262.48C301.594 262.069 301.655 261.626 301.655 261.15V257.622H303.097V264.65C303.097 265.229 303.027 265.747 302.887 266.204C302.756 266.661 302.546 267.049 302.257 267.366C301.977 267.683 301.622 267.921 301.193 268.08C300.773 268.248 300.264 268.332 299.667 268.332ZM307.613 265.084C307.267 265.084 306.922 265.051 306.577 264.986C306.231 264.921 305.909 264.804 305.611 264.636C305.312 264.468 305.06 264.244 304.855 263.964C304.649 263.675 304.519 263.32 304.463 262.9H305.933C306.007 263.124 306.138 263.306 306.325 263.446C306.521 263.586 306.735 263.689 306.969 263.754C307.211 263.819 307.449 263.852 307.683 263.852C307.823 263.852 307.977 263.843 308.145 263.824C308.322 263.805 308.49 263.763 308.649 263.698C308.807 263.633 308.938 263.539 309.041 263.418C309.143 263.287 309.195 263.115 309.195 262.9C309.195 262.732 309.148 262.592 309.055 262.48C308.971 262.368 308.849 262.279 308.691 262.214C308.541 262.139 308.359 262.083 308.145 262.046C307.725 261.953 307.272 261.864 306.787 261.78C306.311 261.687 305.891 261.528 305.527 261.304C305.396 261.22 305.279 261.127 305.177 261.024C305.074 260.912 304.985 260.786 304.911 260.646C304.836 260.506 304.78 260.357 304.743 260.198C304.705 260.039 304.687 259.867 304.687 259.68C304.687 259.297 304.761 258.971 304.911 258.7C305.069 258.429 305.284 258.21 305.555 258.042C305.825 257.865 306.133 257.734 306.479 257.65C306.824 257.566 307.188 257.524 307.571 257.524C308.065 257.524 308.513 257.603 308.915 257.762C309.316 257.921 309.647 258.154 309.909 258.462C310.17 258.77 310.324 259.157 310.371 259.624H309.013C308.957 259.372 308.793 259.171 308.523 259.022C308.261 258.863 307.93 258.784 307.529 258.784C307.389 258.784 307.235 258.793 307.067 258.812C306.908 258.831 306.754 258.873 306.605 258.938C306.455 259.003 306.334 259.097 306.241 259.218C306.147 259.33 306.101 259.479 306.101 259.666C306.101 259.843 306.143 259.993 306.227 260.114C306.32 260.235 306.451 260.333 306.619 260.408C306.796 260.483 306.997 260.543 307.221 260.59C307.538 260.665 307.879 260.735 308.243 260.8C308.616 260.865 308.919 260.935 309.153 261.01C309.461 261.094 309.722 261.215 309.937 261.374C310.161 261.533 310.329 261.733 310.441 261.976C310.562 262.219 310.623 262.513 310.623 262.858C310.623 263.306 310.534 263.675 310.357 263.964C310.179 264.244 309.941 264.468 309.643 264.636C309.353 264.804 309.027 264.921 308.663 264.986C308.308 265.051 307.958 265.084 307.613 265.084ZM312.957 265.14C312.677 265.14 312.444 265.051 312.257 264.874C312.08 264.697 311.991 264.463 311.991 264.174C311.991 263.885 312.085 263.651 312.271 263.474C312.458 263.287 312.687 263.194 312.957 263.194C313.228 263.194 313.452 263.287 313.629 263.474C313.816 263.651 313.909 263.885 313.909 264.174C313.909 264.463 313.816 264.697 313.629 264.874C313.452 265.051 313.228 265.14 312.957 265.14Z" fill="#7A7A7A"/>
<defs>
<linearGradient id="paint0_linear_3694_2235" x1="257.003" y1="10.2308" x2="236.541" y2="16.619" gradientUnits="userSpaceOnUse">
<stop stop-color="#FF722D"/>
<stop offset="1" stop-color="#E2AE95"/>
</linearGradient>
<linearGradient id="paint1_linear_3694_2235" x1="119.509" y1="141.129" x2="113.251" y2="161.631" gradientUnits="userSpaceOnUse">
<stop stop-color="#FF722D"/>
<stop offset="1" stop-color="#E2AE95"/>
</linearGradient>
</defs>
</svg>
