<svg width="239" height="167" viewBox="0 0 239 167" fill="none" xmlns="http://www.w3.org/2000/svg">
<path fill-rule="evenodd" clip-rule="evenodd" d="M228.647 32.7168C234.171 32.7168 238.65 37.1954 238.65 42.7201C238.65 48.2448 234.171 52.7235 228.647 52.7235H171.485C177.01 52.7235 181.488 57.2021 181.488 62.7268C181.488 68.2515 177.01 72.7302 171.485 72.7302H202.924C208.449 72.7302 212.927 77.2088 212.927 82.7335C212.927 88.2582 208.449 92.7368 202.924 92.7368H188.385C181.419 92.7368 175.772 97.2155 175.772 102.74C175.772 106.423 178.63 109.758 184.346 112.744C189.871 112.744 194.35 117.222 194.35 122.747C194.35 128.272 189.871 132.75 184.346 132.75H65.7359C60.2113 132.75 55.7326 128.272 55.7326 122.747C55.7326 117.222 60.2113 112.744 65.7359 112.744H10.0033C4.47863 112.744 0 108.265 0 102.74C0 97.2155 4.47863 92.7368 10.0033 92.7368H67.165C72.6897 92.7368 77.1683 88.2582 77.1683 82.7335C77.1683 77.2088 72.6897 72.7302 67.165 72.7302H31.4389C25.9143 72.7302 21.4356 68.2515 21.4356 62.7268C21.4356 57.2021 25.9143 52.7235 31.4389 52.7235H88.6006C83.076 52.7235 78.5973 48.2448 78.5973 42.7201C78.5973 37.1954 83.076 32.7168 88.6006 32.7168H228.647ZM228.647 72.7302C234.171 72.7302 238.65 77.2088 238.65 82.7335C238.65 88.2582 234.171 92.7368 228.647 92.7368C223.122 92.7368 218.643 88.2582 218.643 82.7335C218.643 77.2088 223.122 72.7302 228.647 72.7302Z" fill="#272727"/>
<path d="M94.2371 137.551C95.3083 137.359 96.0212 136.335 95.8294 135.264C95.6376 134.193 94.6138 133.48 93.5426 133.672L93.8899 135.611L94.2371 137.551ZM83.5578 136.007C82.5153 136.319 81.9232 137.417 82.2352 138.46C82.5472 139.502 83.6453 140.094 84.6878 139.782L84.1228 137.895L83.5578 136.007ZM78.9637 141.832C79.9631 141.402 80.4245 140.243 79.9942 139.243C79.5638 138.244 78.4047 137.782 77.4053 138.213L78.1845 140.022L78.9637 141.832ZM144.434 133.811C143.365 133.611 142.336 134.317 142.136 135.387C141.937 136.457 142.643 137.485 143.713 137.685L144.074 135.748L144.434 133.811ZM93.8899 135.611L93.5426 133.672C89.9302 134.319 86.5779 135.103 83.5578 136.007L84.1228 137.895L84.6878 139.782C87.5445 138.927 90.7491 138.175 94.2371 137.551L93.8899 135.611ZM78.1845 140.022L77.4053 138.213C74.2733 139.561 71.6465 141.121 69.7723 142.897C67.8956 144.675 66.6234 146.822 66.6234 149.28H68.5938H70.5641C70.5641 148.277 71.0717 147.094 72.4825 145.758C73.8958 144.419 76.0644 143.08 78.9637 141.832L78.1845 140.022ZM68.5938 149.28H66.6234C66.6234 152.364 68.609 154.945 71.3491 156.981C74.1262 159.044 78.0191 160.819 82.6525 162.276C91.9425 165.195 104.655 166.97 118.61 166.97V165V163.03C104.942 163.03 92.6464 161.286 83.834 158.516C79.4162 157.128 75.9843 155.515 73.6995 153.818C71.3777 152.092 70.5641 150.537 70.5641 149.28H68.5938ZM118.61 165V166.97C132.565 166.97 145.278 165.195 154.568 162.276C159.201 160.819 163.094 159.044 165.871 156.981C168.611 154.945 170.597 152.364 170.597 149.28H168.627H166.656C166.656 150.537 165.843 152.092 163.521 153.818C161.236 155.515 157.804 157.128 153.386 158.516C144.574 161.286 132.278 163.03 118.61 163.03V165ZM168.627 149.28H170.597C170.597 145.215 167.187 142.016 162.798 139.647C158.248 137.192 151.89 135.199 144.434 133.811L144.074 135.748L143.713 137.685C150.956 139.034 156.874 140.928 160.926 143.115C165.14 145.389 166.656 147.587 166.656 149.28H168.627Z" fill="#595959"/>
<g filter="url(#filter0_d_3979_743)">
<path d="M111.766 84.71C110.249 81.6411 108.774 78.55 107.198 75.5118C106.261 73.7064 105.164 71.9842 104.189 70.068C106.976 68.5184 109.651 66.9849 112.459 65.7566C124.499 60.4909 137.052 58.1256 150.205 59.3707C154.815 67.0434 158.19 75.2718 160.764 83.8035C162.336 89.0113 163.516 94.3488 164.628 99.679C165.31 102.948 165.519 106.316 165.961 109.636C166.123 110.849 166.346 112.054 166.628 113.176C166.716 120.105 166.716 127.119 166.716 134.253C164.763 134.673 162.809 134.961 160.859 135.278C159.072 135.57 157.289 135.892 155.561 136.191C155.146 134.65 154.815 133.177 154.351 131.748C153.285 128.464 149.703 127.408 146.889 128.476C143.091 129.918 140.977 132.865 139.94 136.611C139.621 137.761 139.89 139.073 139.89 140.388C134.559 141.64 129.056 142.932 123.506 144.236C123.382 142.388 123.229 140.571 123.147 138.751C123.032 136.195 122.969 133.638 122.882 130.848C122.415 126.12 122.061 121.611 121.451 117.136C121.022 113.992 120.246 110.896 119.614 107.673C118.921 105.038 118.24 102.507 117.555 99.8742C116.238 94.9072 114.612 90.161 112.236 85.6139C112.076 85.2494 111.911 84.9718 111.746 84.7042C111.746 84.7142 111.766 84.71 111.766 84.71ZM141.705 90.0082C142.205 84.6771 142.71 79.3463 143.198 74.0141C143.236 73.5993 143.215 73.1625 143.128 72.7559C142.864 71.5199 141.589 70.5217 140.371 70.5484C139.172 70.5747 138.364 71.4103 138.159 72.8862C138.078 73.4699 138.084 74.065 138.028 74.6528C137.129 83.9694 136.221 93.2851 135.331 102.602C135.191 104.07 135.037 105.546 135.05 107.017C135.061 108.449 136.396 109.686 137.751 109.728C138.983 109.767 139.942 108.833 140.082 107.367C140.626 101.659 141.148 95.9484 141.705 90.0082ZM123.079 73.0398C120.358 73.9256 118.808 75.8535 118.367 78.6141C117.663 83.013 120.581 87.4402 124.871 88.6418C128.249 89.5879 131.642 88.1144 132.971 84.9664C134.327 81.7573 133.718 78.7227 131.571 76.0728C129.453 73.4597 126.705 72.2409 123.079 73.0398ZM146.551 92.7878C145.838 93.9105 144.845 94.9458 144.464 96.1715C143.025 100.798 146.29 106.139 151.035 107.193C154.952 108.063 158.557 105.762 159.337 101.895C160.208 97.5757 157.505 92.9202 153.27 91.6011C150.937 90.8742 148.682 91.0785 146.551 92.7878Z" fill="#3C3C3C" stroke="#666666" stroke-width="1.5708"/>
<path d="M36.998 81.5158C37.9017 80.8896 38.8456 80.416 39.702 79.8173C43.5122 77.1532 47.2886 74.4407 51.1102 71.7932C51.3769 71.6085 52.0016 71.6637 52.3065 71.8535C55.5875 73.8964 59.0039 73.6395 62.387 72.3328C63.887 71.7534 65.322 70.8649 66.5956 69.8719C68.7777 68.1705 68.2771 65.0693 65.9071 63.4368C65.7397 63.3215 65.5702 63.2094 65.3476 63.0593C68.6077 60.7421 71.8113 58.4461 75.0478 56.1974C75.332 55.9999 75.9056 55.9551 76.2198 56.1037C81.8105 58.7478 87.0108 62.0333 91.9183 65.7882C92.4422 66.189 92.9362 66.6288 93.4114 67.1906C87.9892 69.4496 82.8366 72.0243 77.931 75.1182C70.5554 79.7699 64.1622 85.49 58.7742 92.3405C55.516 90.5405 52.3359 88.5758 48.9791 86.9838C45.1138 85.1505 41.0922 83.6464 37.0683 82.0901C36.998 81.9908 36.998 81.8008 36.998 81.5158Z" fill="#636363" stroke="#666666" stroke-width="1.5708"/>
<path d="M58.8164 92.4218C64.1656 85.492 70.5589 79.7718 77.9344 75.1202C82.8401 72.0263 87.9926 69.4515 93.4494 67.2715C94.7507 68.1647 96.0719 69.0264 97.2025 70.0907C100.353 73.0561 103.47 76.0597 106.508 79.1389C108.313 80.9682 109.944 82.9689 111.71 84.8021C111.767 84.7117 111.747 84.716 111.655 84.7542C111.785 85.0959 112.008 85.3993 112.231 85.7027C114.613 90.1628 116.239 94.909 117.482 99.8287C116.046 99.0771 114.765 98.0155 113.295 97.5182C110.642 96.6215 108.09 97.1221 106.04 99.1547C104.122 101.056 103.749 103.406 104.435 105.946C105.336 109.283 108.636 112.041 112.021 112.338C115.681 112.659 118.037 111.247 119.626 107.78C120.247 110.898 121.023 113.994 121.452 117.138C122.062 121.613 122.416 126.122 122.876 130.735C119.524 128.795 116.817 129.435 114.509 131.531C111.682 134.099 111.762 137.366 114.505 142.424C109.451 145.779 104.391 149.137 99.2586 152.544C97.4707 144.826 95.0938 137.569 91.7573 130.616C88.5905 124.017 84.9235 117.748 80.2222 112.132C77.5732 108.967 74.9063 105.788 71.9623 102.907C67.9682 98.9981 63.6141 95.4784 58.8164 92.4218ZM97.685 112.834C97.9746 114.066 98.2411 115.303 98.5592 116.527C99.0258 118.322 100.573 119.316 102.154 118.875C103.495 118.5 103.937 117.355 103.488 115.428C102.253 110.13 101.022 104.832 99.7823 99.5359C98.5616 94.322 97.3533 89.105 96.0933 83.9006C95.6734 82.1666 94.0675 81.1419 92.6181 81.5422C91.1857 81.9377 90.7265 83.05 91.1895 85.0367C93.3332 94.2353 95.4797 103.433 97.685 112.834ZM80.3632 102.847C80.6464 102.93 80.9265 103.026 81.2132 103.095C86.5789 104.37 91.012 100.233 89.872 95.0175C89.0125 91.085 85.1851 88.025 81.1531 88.0466C76.6245 88.0709 73.5005 91.9033 74.489 96.3173C75.1967 99.4772 77.179 101.589 80.3632 102.847Z" fill="#3C3C3C" stroke="#666666" stroke-width="1.5708"/>
<path d="M150.196 59.2834C137.052 58.1254 124.499 60.4907 112.459 65.7564C109.651 66.9847 106.976 68.5182 104.181 69.9761C102.718 67.9843 101.369 65.8864 99.8952 63.8799C97.1411 60.1292 94.3142 56.4319 91.5191 52.7113C91.1541 52.2253 90.7986 51.7322 90.3867 51.1717C95.9938 49.6904 101.509 48.2354 107.023 46.7737C107.643 46.6092 108.049 46.736 108.454 47.3162C110.566 50.3446 113.606 51.8416 117.185 52.2563C118.467 52.4048 119.825 52.4047 121.082 52.1479C124.213 51.5084 125.44 48.9418 124.643 46.0165C124.419 45.193 124.075 44.4021 123.735 43.4555C125.98 42.6929 128.26 41.9133 130.544 41.1443C131.705 40.7535 132.858 40.3265 134.044 40.0323C134.433 39.9356 135.048 40.0621 135.332 40.329C139.411 44.1572 143.066 48.3584 146.183 53.01C147.55 55.0502 148.854 57.1329 150.196 59.2834Z" fill="#636363" stroke="#666666" stroke-width="1.5708"/>
<path d="M141.693 90.1264C141.15 95.9513 140.627 101.662 140.084 107.37C139.944 108.836 138.985 109.77 137.753 109.731C136.398 109.689 135.063 108.451 135.051 107.02C135.039 105.549 135.192 104.073 135.333 102.605C136.223 93.288 137.131 83.9723 138.03 74.6557C138.086 74.0679 138.08 73.4727 138.161 72.8891C138.366 71.4132 139.174 70.5776 140.373 70.5513C141.591 70.5246 142.866 71.5228 143.13 72.7588C143.217 73.1654 143.237 73.6022 143.199 74.017C142.711 79.3492 142.207 84.68 141.693 90.1264Z" fill="#B5B5B5"/>
<path d="M123.183 73.0117C126.707 72.2409 129.454 73.4597 131.572 76.0729C133.72 78.7227 134.328 81.7574 132.973 84.9664C131.644 88.1144 128.251 89.5879 124.873 88.6418C120.583 87.4402 117.665 83.013 118.368 78.6141C118.81 75.8535 120.36 73.9256 123.183 73.0117ZM128.094 82.642C128.207 81.8708 128.494 81.077 128.396 80.3334C128.233 79.0846 126.901 78.107 125.667 78.1231C124.499 78.1383 123.771 78.773 123.454 79.855C123.121 80.9959 123.691 82.3696 124.722 83.0679C125.732 83.7524 126.874 83.6585 128.094 82.642Z" fill="#B5B5B5"/>
<path d="M146.618 92.7252C148.682 91.0778 150.937 90.8734 153.27 91.6004C157.505 92.9194 160.208 97.5749 159.337 101.894C158.557 105.762 154.952 108.062 151.035 107.192C146.29 106.139 143.025 100.797 144.464 96.1708C144.845 94.945 145.838 93.9098 146.618 92.7252ZM149.275 99.6362C149.686 100.252 149.985 101.002 150.531 101.456C151.77 102.484 153.591 102.075 154.144 100.703C154.623 99.5158 154.411 98.395 153.502 97.4533C152.697 96.6193 151.701 96.3221 150.633 96.7501C149.461 97.2201 149.122 98.2343 149.275 99.6362Z" fill="#B5B5B5"/>
<path d="M119.615 107.672C118.037 111.244 115.681 112.656 112.022 112.335C108.636 112.038 105.337 109.28 104.435 105.943C103.75 103.403 104.123 101.053 106.041 99.1516C108.091 97.119 110.642 96.6184 113.295 97.5152C114.766 98.0124 116.046 99.074 117.486 99.9284C118.241 102.506 118.922 105.037 119.615 107.672ZM112.428 102.296C110.751 102.093 109.721 102.642 109.446 103.884C109.142 105.255 109.999 106.723 111.372 107.183C112.616 107.599 113.92 107.14 114.434 106.104C115.019 104.922 114.504 103.479 113.185 102.638C113.01 102.526 112.806 102.457 112.428 102.296Z" fill="#B5B5B5"/>
<path d="M112.235 85.6136C112.007 85.3972 111.783 85.0939 111.652 84.7422C111.91 84.9715 112.076 85.2491 112.235 85.6136Z" fill="black" stroke="#666666" stroke-width="1.5708"/>
<path d="M97.6548 112.73C95.4794 103.431 93.3329 94.2327 91.1892 85.034C90.7262 83.0474 91.1854 81.9351 92.6178 81.5395C94.0672 81.1393 95.6731 82.1639 96.093 83.898C97.353 89.1024 98.5613 94.3194 99.782 99.5332C101.022 104.829 102.253 110.128 103.488 115.425C103.937 117.352 103.494 118.497 102.153 118.872C100.573 119.314 99.0255 118.32 98.5589 116.525C98.2408 115.301 97.9743 114.063 97.6548 112.73Z" fill="#B5B5B5"/>
<path d="M80.268 102.811C77.1779 101.592 75.1955 99.4795 74.4879 96.3197C73.4994 91.9057 76.6234 88.0732 81.152 88.0489C85.184 88.0273 89.0114 91.0873 89.8709 95.0198C91.0109 100.236 86.5778 104.372 81.2121 103.097C80.9254 103.029 80.6453 102.933 80.268 102.811ZM79.8327 96.6385C80.3898 97.1241 80.8729 97.7777 81.5186 98.0619C83.1017 98.7587 84.7784 97.7429 84.8313 96.1283C84.8707 94.9277 84.2528 94.051 83.2139 93.4874C82.2537 92.9666 81.2814 92.9147 80.3828 93.6216C79.4146 94.3831 79.3502 95.3744 79.8327 96.6385Z" fill="#B5B5B5"/>
</g>
<path opacity="0.75" fill-rule="evenodd" clip-rule="evenodd" d="M176.017 20.7629C176.413 16.9013 175.21 13.046 172.687 10.0957L171.279 8.44929L173.434 8.67032C177.296 9.06642 181.151 7.86276 184.101 5.3399L185.748 3.93209L185.527 6.08704C185.13 9.94868 186.334 13.8039 188.857 16.7543L190.265 18.4007L188.11 18.1796C184.248 17.7835 180.393 18.9872 177.443 21.5101L175.796 22.9179L176.017 20.7629Z" stroke="url(#paint0_linear_3979_743)" stroke-width="3.94067" stroke-linejoin="round"/>
<path opacity="0.75" fill-rule="evenodd" clip-rule="evenodd" d="M53.7591 159.445C50.7927 156.941 46.9298 155.762 43.0707 156.183L40.9173 156.418L42.3146 154.763C44.8185 151.796 45.9975 147.933 45.5767 144.074L45.3419 141.921L46.9972 143.318C49.9637 145.822 53.8265 147.001 57.6856 146.58L59.839 146.345L58.4417 148.001C55.9378 150.967 54.7588 154.83 55.1796 158.689L55.4144 160.843L53.7591 159.445Z" stroke="url(#paint1_linear_3979_743)" stroke-width="3.94067" stroke-linejoin="round"/>
<defs>
<filter id="filter0_d_3979_743" x="25.7409" y="29.7901" width="152.233" height="135.553" filterUnits="userSpaceOnUse" color-interpolation-filters="sRGB">
<feFlood flood-opacity="0" result="BackgroundImageFix"/>
<feColorMatrix in="SourceAlpha" type="matrix" values="0 0 0 0 0 0 0 0 0 0 0 0 0 0 0 0 0 0 127 0" result="hardAlpha"/>
<feOffset dy="1.0472"/>
<feGaussianBlur stdDeviation="5.23599"/>
<feComposite in2="hardAlpha" operator="out"/>
<feColorMatrix type="matrix" values="0 0 0 0 0 0 0 0 0 0 0 0 0 0 0 0 0 0 0.25 0"/>
<feBlend mode="normal" in2="BackgroundImageFix" result="effect1_dropShadow_3979_743"/>
<feBlend mode="normal" in="SourceGraphic" in2="effect1_dropShadow_3979_743" result="shape"/>
</filter>
<linearGradient id="paint0_linear_3979_743" x1="191.003" y1="10.2308" x2="170.541" y2="16.6191" gradientUnits="userSpaceOnUse">
<stop stop-color="#FF722D"/>
<stop offset="1" stop-color="#E2AE95"/>
</linearGradient>
<linearGradient id="paint1_linear_3979_743" x1="53.5069" y1="141.131" x2="47.2494" y2="161.633" gradientUnits="userSpaceOnUse">
<stop stop-color="#FF722D"/>
<stop offset="1" stop-color="#E2AE95"/>
</linearGradient>
</defs>
</svg>
