<svg width="125" height="125" viewBox="0 0 125 125" fill="none" xmlns="http://www.w3.org/2000/svg">
<circle cx="62.5" cy="62.5" r="62.5" fill="#2B2A2A"/>
<path d="M62.7206 82.9531C60.669 83.3441 59.2991 81.3479 60.3046 79.4396C60.3434 79.366 60.394 79.2973 60.4239 79.2205C60.9942 77.7537 60.9694 77.795 59.5962 76.9922C56.225 75.0215 54.142 72.1445 53.5813 68.2309C52.9833 64.0567 52.9513 59.85 53.1267 55.6597C53.2384 52.989 53.0984 50.2142 54.2765 47.7022C54.8746 46.4267 55.6245 45.1827 56.51 44.09C58.3161 41.8611 60.795 40.6751 63.5556 40.0647C64.2242 39.9169 64.9237 39.8483 65.6093 39.8461C70.9809 39.8288 76.3528 39.8604 81.7243 39.8272C84.7418 39.8086 87.4982 40.6235 89.9096 42.3956C92.4149 44.2368 94.0253 46.729 94.5417 49.8264C95.3198 54.4938 95.0644 59.2096 95.0206 63.9067C95.0033 65.7645 94.7433 67.6477 94.3537 69.4679C93.7955 72.0758 92.3431 74.1687 90.2292 75.8448C87.7446 77.8148 84.9776 78.7524 81.8113 78.6337C80.0232 78.5666 78.2229 78.7265 76.442 78.5953C74.16 78.4273 72.109 79.0077 70.0625 79.9362C67.6762 81.0189 65.2161 81.9387 62.7206 82.9531ZM65.0197 52.1594C64.2413 52.6461 63.8128 53.5691 64.0165 54.3204C64.2551 55.2004 65.1141 55.9472 65.9893 55.949C71.4388 55.9603 76.8884 55.9686 82.3378 55.939C83.1252 55.9348 83.7261 55.4678 83.9983 54.6878C84.2553 53.9515 84.2808 53.2421 83.7284 52.5953C83.0835 51.84 82.2016 51.7672 81.3199 51.7645C76.4853 51.7498 71.6505 51.7464 66.8159 51.7725C66.2568 51.7756 65.6987 51.9857 65.0197 52.1594ZM65.8409 64.5178C68.3816 64.5178 70.9224 64.5195 73.4631 64.5172C74.69 64.5161 75.5775 63.6691 75.5785 62.5069C75.5796 61.3427 74.6933 60.4904 73.4707 60.4891C71.0696 60.4865 68.6646 60.5686 66.269 60.4532C65.1331 60.3984 64.103 61.4012 63.9949 62.2997C63.8792 63.2616 64.586 64.1852 65.8409 64.5178Z" fill="url(#paint0_linear_3912_4027)"/>
<path d="M37.9821 41.8489C35.9284 43.505 34.8223 45.6153 34.9814 48.2006C35.08 49.8032 35.4648 51.3967 35.8131 52.974C36.7855 57.378 37.7464 61.7862 38.8282 66.1639C39.5549 69.1045 40.4325 72.0106 41.3281 74.9057C42.3374 78.1689 43.4329 81.4057 44.5092 84.6478C45.3686 87.2365 48.1708 89.185 50.7743 89.221C52.8075 89.2491 54.6525 88.5407 56.5536 88.0347C60.7242 86.9244 64.8867 85.784 69.0559 84.6682C70.7743 84.2083 72.4294 83.6549 73.6086 82.198C73.7509 82.0221 74.0067 81.8343 74.2133 81.8305C75.8254 81.8003 77.4383 81.8138 79.1686 81.8138C78.4591 83.4834 77.5262 84.8428 76.2947 85.9991C74.0149 88.1396 71.0741 88.7651 68.1938 89.5382C64.2629 90.5933 60.3362 91.664 56.411 92.7404C54.5836 93.2416 52.7816 93.8136 50.8412 93.7443C48.3145 93.6539 46.0845 92.8189 44.0511 91.3445C41.5222 89.5109 40.4132 86.8303 39.4792 83.9998C37.2438 77.2253 35.14 70.4117 33.5121 63.4643C32.6138 59.6305 31.9102 55.7515 31.0722 51.903C30.7089 50.2348 30.4823 48.5696 30.577 46.86C30.727 44.149 31.7832 41.8301 33.5504 39.8042C35.5686 37.4906 38.2834 36.533 41.1465 35.7947C45.3253 34.717 49.4848 33.5638 53.6472 32.4233C55.7665 31.8425 57.8543 31.1084 60.1047 31.2737C62.7855 31.4706 65.1996 32.3341 67.1687 34.2139C67.9339 34.9444 68.6039 35.7746 69.3173 36.5594C69.2635 36.6444 69.2098 36.7294 69.1561 36.8144C68.3602 36.8144 67.5636 36.7929 66.7687 36.8204C65.9677 36.8481 65.1687 36.9563 64.368 36.9669C63.9381 36.9726 63.4372 36.9655 63.0881 36.7603C61.8331 36.0227 60.5207 35.663 59.0812 35.838C58.7053 36.809 58.4226 37.8158 57.944 38.7187C56.8845 40.7175 55.0895 41.7862 52.9544 42.3355C50.6791 42.9209 48.4077 43.526 46.118 44.05C43.9218 44.5527 42.0057 43.8834 40.3233 42.4453C40.0729 42.2312 39.7705 42.0635 39.5649 41.8143C39.0288 41.1646 38.542 41.3353 37.9821 41.8489Z" fill="url(#paint1_linear_3912_4027)"/>
<defs>
<linearGradient id="paint0_linear_3912_4027" x1="74.0646" y1="39.8269" x2="74.0646" y2="83.0026" gradientUnits="userSpaceOnUse">
<stop stop-color="#FE5200"/>
<stop offset="1" stop-color="#FFA174"/>
</linearGradient>
<linearGradient id="paint1_linear_3912_4027" x1="54.862" y1="31.25" x2="54.862" y2="93.75" gradientUnits="userSpaceOnUse">
<stop stop-color="#FE5200"/>
<stop offset="1" stop-color="#FFA174"/>
</linearGradient>
</defs>
</svg>
