<svg width="125" height="125" viewBox="0 0 125 125" fill="none" xmlns="http://www.w3.org/2000/svg">
<circle cx="62.5" cy="62.5" r="62.5" fill="#2B2A2A"/>
<path d="M48.7063 42.0017C61.3236 42.0017 73.8541 41.9999 86.3846 42.003C89.679 42.0038 92.063 44.7078 92.2976 47.4655C92.4432 49.1771 91.1506 49.6334 89.8019 49.143C88.0498 48.5059 86.2761 47.9706 84.4004 48.0927C81.2201 48.2997 78.392 49.3725 76.0066 51.5788C73.8379 53.5847 72.3584 55.9999 71.9304 58.8838C71.7208 60.296 70.9684 61.1163 70.1096 62.031C69.1882 63.0124 68.6413 64.196 68.6807 65.5718C68.767 68.5911 68.3425 68.9408 65.328 68.9305C54.6787 68.8941 44.0291 68.9294 33.3797 68.908C30.3408 68.9019 27.9213 67.3104 27.1206 64.2629C27.0494 63.9917 27.0062 63.7045 27.0059 63.4247C26.9992 58.1289 26.9987 52.8331 27.0019 47.5373C27.0034 45.0835 29.2068 42.5293 31.6431 42.182C32.376 42.0776 33.121 42.0117 33.8608 42.0094C38.7803 41.9946 43.6999 42.0017 48.7063 42.0017ZM50.6167 52.4932C50.5294 51.7217 49.9499 51.0641 49.334 51.0377C48.5644 51.0047 48.0219 51.6344 47.7204 52.9105C46.4439 52.4087 45.9768 52.4912 45.4818 53.3058C45.0481 54.0195 45.3049 54.6217 46.3913 55.4383C45.3765 56.1732 45.0537 56.8089 45.4388 57.4901C45.5962 57.7685 45.9012 58.0818 46.1887 58.1421C46.6945 58.2481 47.2384 58.1717 47.7954 58.1717C48.0272 59.3513 48.3573 59.7102 49.3043 59.7132C50.1397 59.7158 50.475 59.3107 50.7288 57.9004C51.6384 58.4785 52.4721 58.4698 53.0401 57.4648C53.6205 56.4378 52.8135 55.9294 52.1475 55.401C53.2147 54.5759 53.4359 54.0472 53.0552 53.3231C52.676 52.6021 52.2134 52.5097 50.9171 52.8622C50.8436 52.8821 50.7194 52.7152 50.6167 52.4932ZM38.473 51.6565C38.055 51.4518 37.5893 51.0145 37.2285 51.0885C36.3335 51.2721 36.0025 52.0604 35.9509 52.9482C34.7603 52.4229 34.1479 52.4794 33.7749 53.1526C33.6145 53.442 33.373 53.8486 33.4665 54.0831C33.6637 54.5778 34.0574 54.9942 34.4073 55.4955C33.9653 56.0255 33.0029 56.4936 33.633 57.5227C34.209 58.4636 35.0193 58.5046 35.8974 57.8925C36.1982 59.2794 36.5294 59.7072 37.3427 59.698C37.6649 59.6943 38.1034 59.6218 38.2803 59.408C38.6015 59.02 38.7665 58.5027 39.0167 57.9991C39.716 58.3895 40.4542 58.5123 41.0718 57.7073C41.9193 56.6028 40.8423 56.0495 40.3391 55.3542C41.3461 54.6585 41.5996 54.1423 41.2245 53.4589C41.0567 53.1533 40.7838 52.7403 40.5066 52.6952C39.9842 52.6101 39.4241 52.7562 38.8851 52.8057C38.795 52.5046 38.6823 52.128 38.473 51.6565ZM62.4115 52.0367C61.9562 51.705 61.5035 51.101 61.0449 51.0965C59.9923 51.086 59.8032 52.0665 59.5866 52.8956C58.5693 52.4376 57.9335 52.5095 57.476 53.1191C56.975 53.7868 57.1573 54.3674 58.2133 55.4675C57.1871 56.2511 56.9711 56.7963 57.376 57.5817C57.7561 58.319 58.2749 58.4256 59.565 58.0302C59.8223 58.7405 59.9655 59.5623 60.9021 59.7068C62.2082 59.9082 62.3323 58.7931 62.6842 57.9783C63.662 58.3995 64.4649 58.2698 64.8464 57.662C65.2969 56.9442 65.0335 56.2372 64.0279 55.4646C65.0815 54.3832 65.2586 53.8688 64.8114 53.1886C64.3778 52.5293 63.7057 52.43 62.6323 52.8961C62.5612 52.6502 62.4916 52.4097 62.4115 52.0367Z" fill="url(#paint0_linear_3912_4121)"/>
<path d="M89.322 51.8955C91.3863 52.9522 92.934 54.4326 94.046 56.4205C95.1668 58.4239 95.3368 60.5769 95.2383 62.7766C97.2422 62.968 98.1944 64.0099 98.1944 65.9177C98.1944 70.8661 98.1804 75.8145 98.2022 80.7628C98.2096 82.4304 96.8379 83.6586 95.3562 83.6638C88.3244 83.6881 81.2924 83.6916 74.2606 83.6607C72.8012 83.6543 71.4358 82.4379 71.4445 80.7317C71.4698 75.7545 71.4941 70.7766 71.4289 65.8002C71.4091 64.2864 72.7304 62.6975 74.4266 62.8191C74.0626 58.781 75.3159 55.3611 78.6428 52.9445C81.9368 50.5518 85.515 50.202 89.322 51.8955ZM80.7923 62.8333C83.557 62.8333 86.3217 62.8333 89.0719 62.8333C89.5086 60.1237 88.5897 58.6034 86.8055 57.4924C85.6159 56.7516 83.3698 56.9153 82.3257 57.7963C80.674 59.19 80.151 60.7212 80.7923 62.8333ZM87.5299 72.5459C87.6051 72.2457 87.7491 71.9441 87.743 71.6455C87.7219 70.6062 86.578 69.2161 85.5679 68.9394C84.4538 68.6342 82.8913 69.2976 82.2827 70.3342C81.7367 71.2641 81.8613 72.7849 82.7727 73.5805C83.3899 74.1193 83.4757 74.6721 83.4372 75.3652C83.4228 75.6244 83.4199 75.8863 83.4385 76.145C83.4923 76.8975 83.9703 77.3874 84.624 77.5561C85.2862 77.727 85.7851 77.2621 86.0329 76.6826C86.1926 76.309 86.2107 75.852 86.2018 75.4342C86.1864 74.7118 86.1604 74.0457 86.8924 73.572C87.1621 73.3975 87.2669 72.9682 87.5299 72.5459Z" fill="url(#paint1_linear_3912_4121)"/>
<defs>
<linearGradient id="paint0_linear_3912_4121" x1="59.6544" y1="42" x2="59.6544" y2="68.9307" gradientUnits="userSpaceOnUse">
<stop stop-color="#FE5200"/>
<stop offset="1" stop-color="#FFA174"/>
</linearGradient>
<linearGradient id="paint1_linear_3912_4121" x1="84.8155" y1="50.8428" x2="84.8155" y2="83.6829" gradientUnits="userSpaceOnUse">
<stop stop-color="#FE5200"/>
<stop offset="1" stop-color="#FFA174"/>
</linearGradient>
</defs>
</svg>
