<svg width="51" height="51" viewBox="0 0 51 51" fill="none" xmlns="http://www.w3.org/2000/svg">
<rect x="0.75" y="0.75" width="49.5" height="49.5" rx="24.75" fill="#2A2A2A"/>
<rect x="0.75" y="0.75" width="49.5" height="49.5" rx="24.75" stroke="#595959" stroke-width="1.5"/>
<path d="M37.57 16H14.3245C13.0408 16 12 17.0211 12 18.2804V46.7916C12 48.7285 14.2304 49.8152 15.7565 48.6221L24.5049 42.2366C24.9135 41.9172 25.4171 41.7435 25.9358 41.7433C26.4544 41.7431 26.9582 41.9163 27.367 42.2354L36.1393 48.6285C37.6659 49.8199 39.8946 48.7326 39.8946 46.7962V18.2804C39.8946 17.0211 38.8538 16 37.57 16ZM32.1794 27.9017L30.0495 30.0327C29.9451 30.138 29.8672 30.2667 29.8225 30.4081C29.7777 30.5495 29.7673 30.6995 29.7921 30.8457L30.2948 33.8543C30.4203 34.6045 29.6532 35.1764 28.9965 34.8225L26.364 33.4022C26.2361 33.3329 26.093 33.2967 25.9476 33.2967C25.8022 33.2967 25.6591 33.3329 25.5312 33.4022L22.8987 34.8225C22.242 35.1764 21.4749 34.6045 21.6004 33.8543L22.1031 30.8457C22.1279 30.6995 22.1175 30.5495 22.0727 30.4081C22.0279 30.2667 21.9501 30.138 21.8456 30.0327L19.7158 27.9017C19.1846 27.3705 19.4775 26.4448 20.2115 26.3355L23.1549 25.8968C23.2998 25.8745 23.4369 25.817 23.5543 25.7293C23.6718 25.6417 23.7659 25.5266 23.8285 25.3941L25.1447 22.6569C25.2159 22.504 25.3292 22.3746 25.4713 22.2839C25.6135 22.1932 25.7787 22.145 25.9473 22.145C26.1159 22.145 26.2811 22.1932 26.4232 22.2839C26.5654 22.3746 26.6787 22.504 26.7498 22.6569L28.0661 25.3941C28.1963 25.6649 28.4485 25.8532 28.7397 25.8968L31.6831 26.3355C32.4171 26.4448 32.71 27.3705 32.1794 27.9017Z" fill="url(#paint0_linear_3792_803)"/>
<defs>
<linearGradient id="paint0_linear_3792_803" x1="25.9473" y1="16" x2="25.9473" y2="53.5" gradientUnits="userSpaceOnUse">
<stop stop-color="#FF722D"/>
<stop offset="1" stop-color="#FFC2A4"/>
</linearGradient>
</defs>
</svg>
