<svg width="29" height="27" viewBox="0 0 29 27" fill="none" xmlns="http://www.w3.org/2000/svg">
<path d="M3.21177 21.1496C6.36345 21.1494 9.48589 21.1556 12.6083 21.1426C12.9384 21.1412 13.0266 21.2361 13.0044 21.5514C12.9152 22.8155 13.2936 23.9256 14.187 24.8307C14.705 25.3555 15.336 25.7128 16.0573 25.8972C16.114 25.9117 16.1654 25.9472 16.2251 25.9947C16.1259 26.0206 16.0207 26.0283 15.9156 26.0283C11.8843 26.0288 7.85297 26.0344 3.82171 26.0241C2.9158 26.0218 2.133 25.6584 1.44312 25.0802C0.649051 24.4147 0.176571 23.5617 0.0312951 22.5471C-0.0322286 22.1034 0.0206145 21.6431 0.0206145 21.1505C1.08118 21.1505 2.13185 21.1505 3.21177 21.1496Z" fill="#A4A4A4"/>
<path d="M21.1038 19.3199C21.1042 20.299 21.1115 21.2782 21.1027 22.2572C21.0952 23.107 20.7646 23.8422 20.2535 24.5037C19.583 25.3716 18.6771 25.8526 17.6132 26.0159C17.1815 26.0822 16.7309 26.0256 16.2537 25.9988C16.1646 25.9471 16.1132 25.9117 16.0565 25.8972C15.3352 25.7127 14.7042 25.3554 14.1863 24.8307C13.2928 23.9255 12.9144 22.8154 13.0036 21.5513C13.0259 21.236 12.9376 21.1411 12.6075 21.1425C9.4851 21.1555 6.36266 21.1493 3.24023 21.1487C3.24238 21.0326 3.24641 20.9166 3.24641 20.8006C3.24671 14.1926 3.24667 7.58453 3.2467 0.976488C3.2467 0.370518 3.55538 0.0556322 4.1499 0.0556243C9.52104 0.0555535 14.8922 0.0607082 20.2633 0.0468783C20.748 0.0456307 21.13 0.39349 21.1143 0.912479C21.0826 1.95656 21.1049 3.00227 21.0821 4.08229C20.8405 4.2475 20.5638 4.33117 20.4145 4.51715C20.0428 4.98019 19.7291 5.48981 19.385 5.95638C18.7149 3.80639 16.4772 2.20259 14.5959 2.56401C14.6558 2.9826 14.6853 3.41237 14.7819 3.82646C15.2527 5.84382 17.1204 7.25009 19.0639 7.34663C19.002 7.72746 18.8252 8.28834 18.739 8.64663C18.4998 8.59475 18.2162 8.36692 18.0008 8.31784C16.1286 7.89126 14.7981 8.46245 13.8226 10.1098C12.4431 12.4395 12.8316 15.442 14.8065 17.4577C16.553 19.2402 18.6546 19.884 21.1038 19.3199ZM6.72214 4.64956C6.91552 4.74383 7.10786 4.91734 7.30245 4.91992C8.94531 4.94162 10.5887 4.94445 12.2317 4.92569C12.8632 4.91848 13.2022 4.20301 12.8574 3.6735C12.6779 3.39779 12.4019 3.30068 12.0974 3.29938C10.5386 3.2927 8.97967 3.29614 7.42078 3.29699C7.36856 3.29702 7.3158 3.3042 7.26421 3.31329C6.5891 3.43228 6.32658 4.02633 6.72214 4.64956ZM6.56224 7.63102C6.72783 8.01394 7.01524 8.17565 7.43517 8.17281C8.97392 8.16238 10.5128 8.16868 12.0516 8.16859C12.1043 8.16858 12.1571 8.1694 12.2097 8.16678C12.6646 8.1441 13.0087 7.78607 12.9976 7.34777C12.9868 6.92376 12.6414 6.57541 12.2013 6.57381C10.6203 6.56806 9.03936 6.56979 7.45838 6.57113C6.77471 6.57171 6.49611 6.8834 6.56224 7.63102ZM10.4829 11.4048C11.0629 11.3857 11.3642 11.1083 11.3605 10.5969C11.3569 10.1086 11.0176 9.80838 10.4598 9.80731C9.44776 9.80537 8.43569 9.80335 7.42369 9.81041C7.27006 9.81148 7.10255 9.83064 6.9661 9.89428C6.61342 10.0588 6.45333 10.446 6.54961 10.8262C6.63826 11.1763 6.92437 11.3996 7.32368 11.4019C8.35677 11.408 9.38993 11.4046 10.4829 11.4048Z" fill="white"/>
<path d="M6.70552 4.6294C6.32664 4.02395 6.58916 3.4299 7.26427 3.31091C7.31586 3.30182 7.36862 3.29464 7.42084 3.29462C8.97973 3.29376 10.5386 3.29032 12.0975 3.297C12.402 3.2983 12.6779 3.39541 12.8574 3.67112C13.2022 4.20063 12.8632 4.9161 12.2317 4.92331C10.5888 4.94207 8.94537 4.93924 7.30251 4.91754C7.10792 4.91497 6.91559 4.74145 6.70552 4.6294Z" fill="#91A5AF"/>
<path d="M6.55639 7.60679C6.49794 6.88391 6.77654 6.57222 7.46022 6.57164C9.04119 6.5703 10.6222 6.56857 12.2031 6.57432C12.6433 6.57592 12.9886 6.92428 12.9994 7.34828C13.0105 7.78658 12.6665 8.14461 12.2115 8.16729C12.1589 8.16991 12.1061 8.1691 12.0534 8.1691C10.5146 8.16919 8.97575 8.1629 7.43701 8.17332C7.01707 8.17616 6.72966 8.01445 6.55639 7.60679Z" fill="#90A4AE"/>
<path d="M10.4544 11.4041C9.39131 11.4038 8.35816 11.4072 7.32506 11.4012C6.92575 11.3988 6.63965 11.1755 6.55099 10.8254C6.45471 10.4452 6.6148 10.058 6.96749 9.8935C7.10394 9.82985 7.27145 9.8107 7.42507 9.80962C8.43707 9.80257 9.44915 9.80458 10.4612 9.80652C11.019 9.80759 11.3583 10.1078 11.3618 10.5961C11.3656 11.1075 11.0643 11.3849 10.4544 11.4041Z" fill="#90A4AE"/>
<g filter="url(#filter0_d_3318_819)">
<path d="M19.3868 5.9551C19.2298 6.4229 19.0657 6.86634 18.8912 7.33231C16.9366 7.28239 15.2544 5.84254 14.7837 3.82518C14.687 3.41109 14.6575 2.98132 14.5977 2.56273C16.4789 2.20131 18.7166 3.80511 19.3868 5.9551Z" fill="#4DAF51"/>
<path d="M21.1307 19.315C18.6562 19.8819 16.5546 19.238 14.8082 17.4555C12.8333 15.4398 12.4447 12.4374 13.8243 10.1077C14.7997 8.4603 16.1302 7.88911 18.0025 8.31568C18.2179 8.36477 18.4314 8.42202 18.6872 8.49154C19.2716 8.74462 19.8094 8.68198 20.3686 8.47385C20.634 8.38706 20.8753 8.3051 21.1165 8.22315C21.4283 8.20279 21.7398 8.17275 22.0518 8.16373C23.437 8.12366 24.3851 8.83105 25.1001 9.94642C25.8333 11.0901 26.0953 12.3532 25.9713 13.6814C25.8614 14.8573 25.4303 15.9366 24.7045 16.88C24.0635 17.7134 23.2972 18.4101 22.3433 18.8685C21.964 19.0508 21.5527 19.1663 21.1307 19.315Z" fill="url(#paint0_linear_3318_819)"/>
<path d="M20.3435 8.47886C19.8083 8.68215 19.2705 8.74479 18.7109 8.49013C18.7557 8.11577 18.817 7.75906 18.8893 7.35572C19.0644 6.86564 19.2285 6.4222 19.3927 5.97875C19.7296 5.48783 20.0433 4.9782 20.415 4.51517C20.5643 4.32918 20.841 4.24552 21.0831 4.10976C21.499 4.07106 21.7505 4.29843 21.8817 4.61584C22.0312 4.97755 21.9149 5.31975 21.6565 5.62026C21.4687 5.83866 21.3093 6.08147 21.1005 6.33597C20.6866 7.01874 20.3893 7.70606 20.3435 8.47886Z" fill="url(#paint1_linear_3318_819)"/>
</g>
<defs>
<filter id="filter0_d_3318_819" x="10.4934" y="-0.000781298" width="18.0191" height="22.0289" filterUnits="userSpaceOnUse" color-interpolation-filters="sRGB">
<feFlood flood-opacity="0" result="BackgroundImageFix"/>
<feColorMatrix in="SourceAlpha" type="matrix" values="0 0 0 0 0 0 0 0 0 0 0 0 0 0 0 0 0 0 127 0" result="hardAlpha"/>
<feOffset/>
<feGaussianBlur stdDeviation="1.25625"/>
<feComposite in2="hardAlpha" operator="out"/>
<feColorMatrix type="matrix" values="0 0 0 0 0 0 0 0 0 0 0 0 0 0 0 0 0 0 0.1 0"/>
<feBlend mode="normal" in2="BackgroundImageFix" result="effect1_dropShadow_3318_819"/>
<feBlend mode="normal" in="SourceGraphic" in2="effect1_dropShadow_3318_819" result="shape"/>
</filter>
<linearGradient id="paint0_linear_3318_819" x1="18.7405" y1="9.61953" x2="24.2666" y2="20.668" gradientUnits="userSpaceOnUse">
<stop stop-color="#FF722D"/>
<stop offset="1" stop-color="#FFC5A9"/>
</linearGradient>
<linearGradient id="paint1_linear_3318_819" x1="20.3294" y1="4.10547" x2="18.68" y2="9.80024" gradientUnits="userSpaceOnUse">
<stop stop-color="#FF722D"/>
<stop offset="1" stop-color="#FFC5A9"/>
</linearGradient>
</defs>
</svg>
