<svg width="18" height="18" viewBox="0 0 18 18" fill="none" xmlns="http://www.w3.org/2000/svg">
<path d="M13.7894 13.7765C9.76782 13.7765 5.76824 13.7765 1.72461 13.7765C2.042 12.3486 2.69468 11.1396 3.71037 10.1128C4.73088 9.08116 5.94827 8.42115 7.35319 8.08874C7.4779 6.94653 8.10969 6.26117 9.0325 6.31551C9.90652 6.36697 10.597 6.94107 10.6312 8.08647C12.2405 8.45189 13.5904 9.26654 14.6621 10.5173C15.4616 11.4504 16.0199 12.512 16.2459 13.7765C15.4029 13.7765 14.6071 13.7765 13.7894 13.7765Z" fill="#F44336"/>
<path d="M15.9335 17.5408C15.8532 17.6963 15.7822 17.838 15.7042 17.9937C15.6386 17.9937 15.5662 17.9937 15.4938 17.9937C11.1646 17.9937 6.83535 17.992 2.50612 17.9997C2.32616 18 2.25294 17.9308 2.18461 17.7912C1.87457 17.1582 1.55892 16.5278 1.24009 15.886C0.833908 15.886 0.424813 15.886 0 15.886C0 15.5212 0 15.1677 0 14.8008C5.99587 14.8008 11.991 14.8008 17.9996 14.8008C17.9996 15.1572 17.9996 15.5107 17.9996 15.8856C17.6422 15.8856 17.2924 15.8912 16.943 15.8827C16.8126 15.8795 16.7407 15.9097 16.6798 16.0386C16.4435 16.5391 16.19 17.0316 15.9335 17.5408Z" fill="#F44336"/>
<path d="M9.48078 2.8859C9.59007 3.1121 9.72211 3.31379 9.79476 3.53495C9.86708 3.75511 9.87979 3.99482 9.9204 4.23643C9.53695 4.23643 9.16691 4.23643 8.77204 4.23643C8.84893 3.85078 8.59635 3.59573 8.42909 3.30952C8.24925 3.0018 8.13868 2.68533 8.10849 2.32093C8.05805 1.71217 8.22423 1.18981 8.56341 0.693174C8.69481 0.50076 8.74882 0.255615 8.85201 0C9.15974 0 9.52953 0 9.96595 0C9.85506 0.369817 9.76191 0.722939 9.64044 1.06606C9.58667 1.21796 9.47432 1.34887 9.39072 1.49058C9.10945 1.96741 9.1387 2.42556 9.48078 2.8859Z" fill="#F44336"/>
<path d="M5.83045 2.17516C5.96351 2.48474 6.07852 2.7843 6.23108 3.0634C6.69153 3.90574 6.64885 4.72049 6.15319 5.53274C6.00337 5.77826 5.89458 6.04875 5.7492 6.34396C5.46281 6.34396 5.10706 6.34396 4.73084 6.34396C4.74419 5.86442 4.85141 5.43067 5.13674 5.04821C5.41507 4.67512 5.54538 4.26426 5.36719 3.81327C5.28931 3.61618 5.15656 3.43932 5.03907 3.25957C4.8108 2.91034 4.75491 2.52029 4.72461 2.09775C5.09308 2.09775 5.43567 2.09691 5.77823 2.10022C5.79552 2.10039 5.81246 2.13644 5.83045 2.17516Z" fill="#F44336"/>
<path d="M12.6125 4.61536C12.7902 4.94479 12.9867 5.24685 13.1245 5.57363C13.2218 5.80438 13.2394 6.06864 13.2972 6.33967C12.9035 6.33967 12.5549 6.33967 12.1728 6.33967C12.174 5.84011 11.7474 5.5177 11.5985 5.06912C11.343 4.29949 11.3959 3.56351 11.8757 2.87294C12.0296 2.65129 12.1087 2.37771 12.234 2.10156C12.5335 2.10156 12.8828 2.10156 13.2577 2.10156C13.2619 2.50458 13.18 2.88046 12.9803 3.22738C12.8983 3.36982 12.7939 3.49924 12.7091 3.64022C12.5273 3.94245 12.5192 4.26609 12.6125 4.61536Z" fill="#F44336"/>
</svg>
