<svg width="113" height="113" viewBox="0 0 113 113" fill="none" xmlns="http://www.w3.org/2000/svg">
<circle cx="56.5" cy="56.5" r="56.5" fill="#2B2A2A"/>
<path d="M59.2201 45.3181C50.4743 45.3181 41.8116 45.3181 33.1489 45.3181C31.1468 45.3181 30.2386 44.3347 30.4903 42.3387C30.7511 40.2706 31.3829 38.3574 32.7043 36.6645C34.3173 34.5981 36.3585 33.2967 38.8837 32.6996C40.327 32.3583 41.7923 32.5774 43.2467 32.5456C43.7702 32.5342 43.9999 32.4246 43.946 31.8611C43.8988 31.3676 43.9356 30.866 43.9364 30.368C43.9385 29.13 44.8581 28.2128 46.0964 28.213C47.3326 28.2131 48.2308 29.1225 48.2595 30.3743C48.2753 31.0603 47.965 31.9584 48.3761 32.3763C48.8264 32.8343 49.7381 32.5216 50.4464 32.5236C55.096 32.5374 59.7457 32.5175 64.3952 32.5459C65.0444 32.5499 65.2922 32.386 65.2102 31.7274C65.1593 31.3187 65.2006 30.8985 65.2008 30.4835C65.2014 29.1486 66.07 28.2217 67.3284 28.213C68.6395 28.2038 69.4982 29.1219 69.5279 30.5077C69.5418 31.1607 69.2211 32.0479 69.671 32.4025C70.0873 32.7307 70.9384 32.5504 71.595 32.5228C73.3074 32.4508 74.9682 32.6133 76.5449 33.3546C79.7384 34.856 81.8684 37.2351 82.6392 40.7248C82.8596 41.7222 83.1975 42.72 82.8358 43.7693C82.4616 44.8545 81.8634 45.3171 80.7248 45.3174C73.5842 45.3188 66.4437 45.3181 59.2201 45.3181Z" fill="url(#paint0_linear_3783_736)"/>
<path d="M32.6973 49.4434C48.7498 49.4858 64.8029 49.4824 80.8555 49.4453C82.2785 49.442 83.3354 50.3992 83.3242 51.9395C83.2895 56.6978 83.3745 61.4579 83.2852 66.2148C83.2383 68.71 83.0683 71.2065 82.9639 73.7031C82.8501 76.4218 81.885 78.8613 80.0352 80.8545C78.4897 82.5196 76.5496 83.6331 74.2754 83.9961C72.4613 84.2856 70.6137 84.2485 68.7832 84.3691C62.8287 84.7616 56.8693 84.7144 50.9121 84.6484C48.0566 84.6168 45.1963 84.4737 42.3428 84.3184C40.2665 84.2053 38.1496 84.0943 36.2695 83.0078C32.9782 81.1054 30.9775 78.3542 30.6416 74.4883C30.4682 72.4928 30.3042 70.4988 30.3164 68.4131C29.9649 62.8953 30.2539 57.4514 30.1377 52.0127C30.1055 50.4986 31.0614 49.4392 32.6973 49.4434Z" fill="url(#paint1_linear_3783_736)"/>
<path d="M51.999 56C52.3506 56 52.6967 56.078 52.998 56.251L67.001 64.252C67.6207 64.5925 67.9395 65.2965 67.9395 66C67.9394 66.7035 67.6207 67.4068 67.001 67.7529L52.998 75.7539C52.6966 75.9269 52.3507 76.0056 51.999 76H51.8145C51.7955 76.0001 50.0002 75.9996 50 73.8672V58.1436C50.0003 56.0113 51.7956 56.0001 51.8145 56H51.999Z" fill="#2E3436"/>
<defs>
<linearGradient id="paint0_linear_3783_736" x1="30.4492" y1="36.7656" x2="82.9949" y2="36.7656" gradientUnits="userSpaceOnUse">
<stop stop-color="#FF722D"/>
<stop offset="1" stop-color="#FFA173"/>
</linearGradient>
<linearGradient id="paint1_linear_3783_736" x1="56.7311" y1="49.4434" x2="56.7311" y2="84.6928" gradientUnits="userSpaceOnUse">
<stop stop-color="#FF722D"/>
<stop offset="1" stop-color="#FF9561"/>
</linearGradient>
</defs>
</svg>
