<svg width="75" height="75" viewBox="0 0 75 75" fill="none" xmlns="http://www.w3.org/2000/svg">
<circle cx="37.5" cy="37.5" r="36.5578" stroke="#4D4D4D" stroke-width="1.88438"/>
<path d="M54.6586 46.4996C49.7861 45.6949 47.602 40.7027 47.5118 40.4908L47.5026 40.4708C47.3641 40.2439 47.2768 39.9895 47.2468 39.7252C47.2168 39.461 47.2448 39.1934 47.3288 38.9411C47.656 38.1681 48.7387 37.8236 49.4561 37.5953C49.6352 37.5384 49.8046 37.4846 49.9374 37.4317C51.2341 36.9183 51.4977 36.3868 51.4913 36.031C51.4573 35.8091 51.358 35.6025 51.2062 35.4375C51.0544 35.2725 50.8569 35.1566 50.639 35.1046L50.6294 35.101C50.4368 35.0234 50.2311 34.9839 50.0236 34.9847C49.8409 34.9816 49.6595 35.0176 49.4918 35.0905C48.9854 35.3472 48.4336 35.5013 47.8678 35.544C47.5418 35.5518 47.2233 35.445 46.9676 35.242C46.9831 34.9524 47.0016 34.6536 47.0216 34.3379L47.0284 34.2266C47.3553 31.9305 47.216 29.5918 46.6189 27.351C45.9148 25.7421 44.7537 24.3767 43.2804 23.4252C41.8072 22.4737 40.087 21.9783 38.3346 22.0007C38.1066 22.0031 37.8786 22.0053 37.6505 22.0072C35.9006 21.9855 34.1831 22.4811 32.7125 23.4319C31.2419 24.3828 30.0832 25.747 29.3812 27.354C28.7841 29.5928 28.6446 31.9296 28.971 34.2238C28.993 34.5632 29.0134 34.9027 29.0322 35.2424C28.7505 35.4637 28.3968 35.5721 28.0398 35.5465C27.4391 35.5207 26.851 35.3651 26.316 35.0902C26.1848 35.032 26.0424 35.0036 25.899 35.0068C25.6035 34.9951 25.3118 35.0763 25.0647 35.2391C24.8176 35.4019 24.6275 35.638 24.5209 35.9145C24.3817 36.6484 25.4269 37.18 26.0623 37.4316C26.1966 37.4851 26.3653 37.5386 26.5435 37.5952C27.2604 37.8233 28.344 38.1679 28.6711 38.9413C28.755 39.1936 28.783 39.4613 28.7529 39.7256C28.7229 39.9899 28.6357 40.2444 28.4973 40.4714L28.4882 40.4911C28.0184 41.5164 27.4065 42.47 26.6706 43.3237C25.3335 44.991 23.4413 46.1189 21.3414 46.5002C21.2422 46.5165 21.1525 46.5691 21.0896 46.6478C21.0267 46.7265 20.995 46.8257 21.0006 46.9263C21.0051 47.0025 21.0229 47.0773 21.0533 47.1472C21.3522 47.8479 22.8523 48.4265 25.3915 48.8191C25.6288 48.8559 25.7293 49.2439 25.8679 49.8795C25.9233 50.1339 25.9807 50.398 26.0607 50.6706C26.0868 50.7915 26.1568 50.8983 26.2571 50.9704C26.3574 51.0424 26.4808 51.0745 26.6034 51.0605C26.8467 51.0468 27.0884 51.0121 27.3257 50.9567C27.9516 50.8198 28.5898 50.7474 29.2304 50.7406C29.6905 50.7417 30.1498 50.7807 30.6036 50.857C31.5625 51.1006 32.4543 51.5573 33.2131 52.1934C34.4938 53.2898 36.1032 53.9257 37.7856 54C37.843 54 37.9003 53.9979 37.9558 53.9932C38.0257 53.9965 38.1177 54 38.2141 54C39.8974 53.9252 41.5077 53.289 42.7892 52.1922C43.5472 51.5567 44.4382 51.1004 45.3961 50.8572C45.8501 50.781 46.3095 50.7421 46.7697 50.7408C47.4098 50.7438 48.0479 50.8116 48.6744 50.9431C48.912 50.9953 49.1538 51.0259 49.3969 51.0347H49.4366C49.5517 51.044 49.6663 51.0108 49.7588 50.9415C49.8512 50.8721 49.9153 50.7714 49.9389 50.658C50.0179 50.389 50.0757 50.1331 50.1325 49.8719C50.2699 49.2396 50.3704 48.8534 50.6087 48.8165C53.1485 48.4232 54.6486 47.8455 54.9454 47.1488C54.9763 47.0782 54.9946 47.0027 54.9994 46.9258C55.0049 46.8251 54.9732 46.726 54.9103 46.6473C54.8475 46.5687 54.7578 46.5161 54.6586 46.4996Z" fill="white"/>
</svg>
