<svg width="218" height="39" viewBox="0 0 218 39" fill="none" xmlns="http://www.w3.org/2000/svg">
<path d="M209.877 38.8107C208.054 38.8107 206.386 38.5668 204.871 38.0791C203.383 37.5914 202.189 36.7315 201.291 35.4995C200.418 34.2674 199.982 32.5476 199.982 30.3401V0H208.067V24.7957C208.067 26.9775 208.183 28.5946 208.414 29.647C208.67 30.6995 209.068 31.3925 209.607 31.7262C210.146 32.0342 210.852 32.1882 211.725 32.1882C212.469 32.1882 213.291 32.0085 214.189 31.6492C215.113 31.2642 216.153 30.7251 217.308 30.0321V36.5005C215.922 37.3476 214.6 37.938 213.342 38.2716C212.084 38.631 210.929 38.8107 209.877 38.8107ZM194.476 14.9005V9.12513H216.846V14.9005H194.476Z" fill="white"/>
<path d="M171.644 38.8107C169.719 38.8107 167.999 38.4 166.484 37.5786C164.996 36.7572 163.828 35.6663 162.981 34.3059C162.134 32.9455 161.71 31.4824 161.71 29.9166C161.71 28.4278 162.044 26.9519 162.711 25.4888C163.404 24 164.585 22.7166 166.253 21.6385C167.947 20.5604 170.283 19.8802 173.261 19.5979C173.928 19.5209 174.788 19.4439 175.84 19.3669C176.919 19.2898 177.958 19.2257 178.959 19.1743C179.96 19.0973 180.653 19.0588 181.038 19.0588V17.6342C181.038 16.5562 180.422 15.7733 179.19 15.2856C177.984 14.7979 176.29 14.554 174.108 14.554C172.593 14.554 171.066 14.862 169.526 15.4781C168.012 16.0941 166.407 16.9925 164.713 18.1733C164.739 17.5316 164.765 16.4278 164.79 14.862C164.842 13.2706 164.919 11.8845 165.021 10.7038C166.664 10.062 168.384 9.47167 170.181 8.93263C172.003 8.36793 174.134 8.08557 176.572 8.08557C180.345 8.08557 183.374 8.86846 185.659 10.4342C187.969 11.9743 189.124 13.8866 189.124 16.1711V27.4524C189.124 29.5316 189.304 31.431 189.663 33.1508C190.048 34.8449 190.548 36.5005 191.165 38.1176H183.348C183.169 37.707 182.938 37.1551 182.655 36.462C182.373 35.769 182.129 35.0246 181.924 34.2289C180.307 35.846 178.613 37.0139 176.842 37.7326C175.07 38.4513 173.338 38.8107 171.644 38.8107ZM173.761 32.2267C174.968 32.2267 176.136 31.9701 177.265 31.4567C178.394 30.9433 179.652 29.7497 181.038 27.8759V24.4107C180.474 24.4364 179.511 24.5134 178.151 24.6417C176.79 24.7444 175.738 24.8471 174.993 24.9497C172.991 25.1551 171.618 25.6299 170.874 26.3743C170.155 27.0931 169.796 27.9273 169.796 28.877C169.796 29.8011 170.155 30.5968 170.874 31.2642C171.618 31.9059 172.581 32.2267 173.761 32.2267Z" fill="white"/>
<path d="M136.839 38.8107C134.914 38.8107 133.194 38.4 131.679 37.5786C130.191 36.7572 129.023 35.6663 128.176 34.3059C127.329 32.9455 126.905 31.4824 126.905 29.9166C126.905 28.4278 127.239 26.9519 127.906 25.4888C128.599 24 129.78 22.7166 131.448 21.6385C133.143 20.5604 135.478 19.8802 138.456 19.5979C139.123 19.5209 139.983 19.4439 141.036 19.3669C142.114 19.2898 143.153 19.2257 144.154 19.1743C145.155 19.0973 145.848 19.0588 146.233 19.0588V17.6342C146.233 16.5562 145.617 15.7733 144.385 15.2856C143.179 14.7979 141.485 14.554 139.303 14.554C137.789 14.554 136.261 14.862 134.721 15.4781C133.207 16.0941 131.602 16.9925 129.908 18.1733C129.934 17.5316 129.96 16.4278 129.985 14.862C130.037 13.2706 130.114 11.8845 130.216 10.7038C131.859 10.062 133.579 9.47167 135.376 8.93263C137.198 8.36793 139.329 8.08557 141.767 8.08557C145.54 8.08557 148.569 8.86846 150.854 10.4342C153.164 11.9743 154.319 13.8866 154.319 16.1711V27.4524C154.319 29.5316 154.499 31.431 154.858 33.1508C155.243 34.8449 155.744 36.5005 156.36 38.1176H148.544C148.364 37.707 148.133 37.1551 147.851 36.462C147.568 35.769 147.324 35.0246 147.119 34.2289C145.502 35.846 143.808 37.0139 142.037 37.7326C140.266 38.4513 138.533 38.8107 136.839 38.8107ZM138.956 32.2267C140.163 32.2267 141.331 31.9701 142.46 31.4567C143.59 30.9433 144.847 29.7497 146.233 27.8759V24.4107C145.669 24.4364 144.706 24.5134 143.346 24.6417C141.985 24.7444 140.933 24.8471 140.189 24.9497C138.186 25.1551 136.813 25.6299 136.069 26.3743C135.35 27.0931 134.991 27.9273 134.991 28.877C134.991 29.8011 135.35 30.5968 136.069 31.2642C136.813 31.9059 137.776 32.2267 138.956 32.2267Z" fill="white"/>
<path d="M99.4517 38.1177V20.3679C99.4517 17.5444 99.2849 15.1444 98.9512 13.1679C98.6431 11.1658 98.3351 9.66418 98.0271 8.66311H105.959C106.164 9.27916 106.382 10.2032 106.613 11.4353C106.844 12.6674 107.011 13.63 107.114 14.323C108.525 12.2952 110.066 10.7551 111.734 9.70269C113.402 8.62461 114.891 8.08557 116.2 8.08557C118.921 8.08557 120.846 9.16365 121.976 11.3198C123.131 13.4503 123.708 15.9915 123.708 18.9433L117.278 19.9444C117.176 18.6353 116.855 17.5829 116.316 16.7872C115.777 15.9915 114.891 15.5936 113.659 15.5936C113.017 15.5936 112.286 15.9529 111.465 16.6717C110.643 17.3647 109.873 18.2631 109.154 19.3669C108.436 20.4706 107.897 21.6257 107.537 22.8321V38.1177H99.4517Z" fill="white"/>
<path d="M73.3095 38.8107C71.3843 38.8107 69.6646 38.4 68.1501 37.5786C66.6614 36.7572 65.4934 35.6663 64.6464 34.3059C63.7993 32.9455 63.3758 31.4824 63.3758 29.9166C63.3758 28.4278 63.7095 26.9519 64.3769 25.4888C65.0699 24 66.2507 22.7166 67.9191 21.6385C69.6132 20.5604 71.949 19.8802 74.9266 19.5979C75.594 19.5209 76.4539 19.4439 77.5063 19.3669C78.5843 19.2898 79.6239 19.2257 80.625 19.1743C81.626 19.0973 82.3191 19.0588 82.7041 19.0588V17.6342C82.7041 16.5562 82.0881 15.7733 80.856 15.2856C79.6496 14.7979 77.9555 14.554 75.7736 14.554C74.2592 14.554 72.7319 14.862 71.1918 15.4781C69.6774 16.0941 68.0731 16.9925 66.379 18.1733C66.4047 17.5316 66.4303 16.4278 66.456 14.862C66.5073 13.2706 66.5843 11.8845 66.687 10.7038C68.3298 10.062 70.0496 9.47167 71.8464 8.93263C73.6688 8.36793 75.7993 8.08557 78.2378 8.08557C82.0111 8.08557 85.0399 8.86846 87.3244 10.4342C89.6346 11.9743 90.7897 13.8866 90.7897 16.1711V27.4524C90.7897 29.5316 90.9693 31.431 91.3287 33.1508C91.7137 34.8449 92.2143 36.5005 92.8303 38.1176H85.0143C84.8346 37.707 84.6036 37.1551 84.3212 36.462C84.0389 35.769 83.795 35.0246 83.5897 34.2289C81.9726 35.846 80.2784 37.0139 78.5073 37.7326C76.7362 38.4513 75.0036 38.8107 73.3095 38.8107ZM75.4271 32.2267C76.6335 32.2267 77.8014 31.9701 78.9309 31.4567C80.0603 30.9433 81.318 29.7497 82.7041 27.8759V24.4107C82.1394 24.4364 81.1768 24.5134 79.8164 24.6417C78.456 24.7444 77.4036 24.8471 76.6592 24.9497C74.6571 25.1551 73.2838 25.6299 72.5394 26.3743C71.8207 27.0931 71.4613 27.9273 71.4613 28.877C71.4613 29.8011 71.8207 30.5968 72.5394 31.2642C73.2838 31.9059 74.2464 32.2267 75.4271 32.2267Z" fill="white"/>
<path d="M43.433 38.8107C39.3774 38.8107 36.0533 37.5016 33.4608 34.8834C30.8683 32.2396 29.572 28.4406 29.572 23.4866C29.572 20.1754 30.2266 17.3775 31.5357 15.0931C32.8704 12.8086 34.6287 11.0759 36.8105 9.8952C39.018 8.68878 41.418 8.08557 44.0105 8.08557C48.0918 8.08557 51.4159 9.4075 53.9827 12.0513C56.5752 14.6952 57.8715 18.507 57.8715 23.4866C57.8715 26.7979 57.2041 29.5957 55.8693 31.8802C54.5602 34.139 52.8148 35.8588 50.633 37.0396C48.4511 38.2203 46.0511 38.8107 43.433 38.8107ZM43.741 32.3422C45.5891 32.3422 47.0522 31.5594 48.1303 29.9936C49.234 28.4021 49.7859 26.2332 49.7859 23.4866C49.7859 20.7144 49.2725 18.5455 48.2458 16.9797C47.2191 15.3882 45.7175 14.5925 43.741 14.5925C41.8672 14.5925 40.3784 15.3882 39.2747 16.9797C38.1966 18.5455 37.6576 20.7144 37.6576 23.4866C37.6576 26.2332 38.1709 28.4021 39.1977 29.9936C40.2501 31.5594 41.7645 32.3422 43.741 32.3422Z" fill="white"/>
<path d="M12.2438 38.8107C9.677 38.8107 7.30267 38.4898 5.12085 37.8481C2.9647 37.1807 1.25775 36.4107 0 35.538L1.57861 28.4535C3.01604 29.6342 4.74866 30.584 6.77646 31.3027C8.82994 31.9957 10.7037 32.3422 12.3978 32.3422C13.7583 32.3422 14.862 32.0856 15.7091 31.5722C16.5818 31.0332 17.0182 30.43 17.0182 29.7626C17.0182 28.9155 16.569 28.1711 15.6706 27.5294C14.7978 26.862 12.9882 26.2332 10.2417 25.6428C7.52085 25.0524 5.44171 24.3465 4.00427 23.5251C2.56684 22.7038 1.57861 21.7669 1.03957 20.7144C0.526203 19.662 0.269519 18.5326 0.269519 17.3262C0.269519 16.6332 0.462032 15.7733 0.847058 14.7465C1.23208 13.6941 1.88663 12.6674 2.81069 11.6663C3.76042 10.6396 5.04384 9.79252 6.66096 9.12514C8.30373 8.4321 10.3572 8.08557 12.8214 8.08557C15.1829 8.08557 17.2235 8.34226 18.9433 8.85563C20.6887 9.34333 22.1133 9.8567 23.2171 10.3957L22.1005 17.2107C21.0224 16.6203 19.662 16.0171 18.0192 15.4011C16.3765 14.7594 14.554 14.4385 12.5519 14.4385C10.8577 14.4385 9.68983 14.7337 9.04812 15.3241C8.40641 15.8888 8.08555 16.4663 8.08555 17.0567C8.08555 17.7754 8.40641 18.3401 9.04812 18.7508C9.7155 19.1358 11.3198 19.585 13.8609 20.0984C15.8631 20.4834 17.6855 21.0225 19.3283 21.7155C20.9968 22.4086 22.3315 23.3455 23.3326 24.5262C24.3337 25.707 24.8342 27.2086 24.8342 29.031C24.8342 30.8792 24.2695 32.5476 23.1401 34.0364C22.0363 35.4995 20.5347 36.6674 18.6353 37.5401C16.7358 38.3872 14.6053 38.8107 12.2438 38.8107Z" fill="white"/>
</svg>
