<svg width="75" height="75" viewBox="0 0 75 75" fill="none" xmlns="http://www.w3.org/2000/svg">
<circle cx="37.5" cy="37.5" r="36.5578" stroke="#4D4D4D" stroke-width="1.88438"/>
<path d="M28.4796 42.6672C28.672 41.0747 29.3251 40.1831 30.5559 39.2691C32.317 38.0312 34.5168 38.7314 34.5168 38.7314V34.5774C35.0517 34.5636 35.5867 34.5954 36.1155 34.6721V40.0179C36.1155 40.0179 33.9164 39.3178 32.1554 40.5563C30.9252 41.4696 30.2707 42.362 30.0791 43.9545C30.0731 44.8192 30.2353 45.9496 30.9827 46.9269C30.7978 46.8321 30.6095 46.7242 30.4177 46.6031C28.7714 45.4976 28.4716 43.8393 28.4796 42.6672ZM45.1988 26.8965C43.9873 25.569 43.5291 24.2287 43.3636 23.2871H44.8875C44.8875 23.2871 44.5837 25.7559 46.7982 28.1837L46.829 28.2163C46.232 27.8409 45.6847 27.3977 45.1988 26.8965ZM52.5401 30.6601V35.8984C52.5401 35.8984 50.5955 35.8223 49.1564 35.4562C47.1468 34.9441 45.8552 34.1587 45.8552 34.1587C45.8552 34.1587 44.963 33.5987 44.8909 33.5597V44.3769C44.8909 44.9792 44.7259 46.4833 44.223 47.7379C43.5665 49.3791 42.5535 50.4563 42.3672 50.6765C42.3672 50.6765 41.135 52.1326 38.9612 53.1133C37.0018 53.9979 35.2814 53.9755 34.7672 53.9979C34.7672 53.9979 31.7934 54.1156 29.1174 52.3766C28.5387 51.9932 27.9986 51.5591 27.5039 51.0797L27.5173 51.0893C30.1939 52.8284 33.1671 52.7106 33.1671 52.7106C33.682 52.6882 35.4023 52.7106 37.3611 51.826C39.5329 50.8455 40.767 49.3893 40.767 49.3893C40.9514 49.1691 41.9691 48.0918 42.6229 46.4501C43.1244 45.1962 43.2907 43.6913 43.2907 43.0891V32.2732C43.3629 32.3128 44.2544 32.8728 44.2544 32.8728C44.2544 32.8728 45.5467 33.6589 47.5562 34.1703C48.996 34.5364 50.9401 34.6126 50.9401 34.6126V30.5078C51.6052 30.6569 52.1723 30.6973 52.5401 30.6601Z" fill="#EE1D52"/>
<path d="M50.9393 30.5078V34.6113C50.9393 34.6113 48.9952 34.5351 47.5554 34.169C45.5459 33.6569 44.2536 32.8716 44.2536 32.8716C44.2536 32.8716 43.362 32.3116 43.2899 32.2718V43.0903C43.2899 43.6927 43.125 45.1974 42.6221 46.4513C41.9656 48.0932 40.9525 49.1704 40.7662 49.3906C40.7662 49.3906 39.5334 50.8467 37.3603 51.8274C35.4015 52.7119 33.6812 52.6895 33.1663 52.7119C33.1663 52.7119 30.1931 52.8297 27.5164 51.0906L27.5031 51.081C27.2205 50.8073 26.9545 50.5185 26.7064 50.2157C25.8522 49.1742 25.3286 47.9427 25.1971 47.5913V47.5869C24.9854 46.9763 24.5406 45.5098 24.6014 44.0895C24.7089 41.5836 25.5904 40.0455 25.8235 39.6602C26.4408 38.6094 27.2436 37.6693 28.1963 36.8817C29.037 36.2019 29.9899 35.6611 31.0158 35.2814C32.125 34.8356 33.3127 34.5966 34.5153 34.5774V38.7314C34.5153 38.7314 32.3154 38.0338 30.555 39.2691C29.3242 40.1831 28.6711 41.0747 28.4788 42.6672C28.4708 43.8393 28.7706 45.4976 30.4155 46.6037C30.6073 46.7253 30.7957 46.8333 30.9805 46.9275C31.2678 47.3011 31.6176 47.6266 32.0156 47.8909C33.6224 48.908 34.9687 48.979 36.6905 48.3184C37.8384 47.8768 38.7025 46.8815 39.1033 45.7786C39.3551 45.09 39.3518 44.3967 39.3518 43.6799V23.2871H43.3587C43.5244 24.2287 43.9825 25.569 45.1939 26.8965C45.6798 27.3977 46.2273 27.8409 46.8241 28.2163C47.0004 28.3987 47.902 29.3006 49.0593 29.8543C49.6577 30.1405 50.2886 30.3597 50.9393 30.5078Z" fill="white"/>
<path d="M23.6035 46.3164V46.3196L23.7029 46.5891C23.6915 46.5578 23.6546 46.4624 23.6035 46.3164Z" fill="#69C9D0"/>
<path d="M31.0158 35.282C29.9898 35.6618 29.0369 36.2026 28.1962 36.8822C27.2433 37.6717 26.4406 38.6138 25.8241 39.6665C25.591 40.0506 24.7095 41.59 24.602 44.0958C24.5412 45.5161 24.986 46.9826 25.1977 47.5932V47.5976C25.3313 47.9459 25.8528 49.1773 26.707 50.222C26.9551 50.5248 27.2211 50.8138 27.5037 51.0874C26.5983 50.4871 25.7907 49.7616 25.1075 48.9341C24.2607 47.9018 23.7385 46.683 23.6022 46.3233C23.6021 46.3207 23.6021 46.3181 23.6022 46.3157V46.3111C23.3899 45.7011 22.9438 44.234 23.0059 42.8119C23.1134 40.306 23.9949 38.7679 24.228 38.3826C24.8443 37.3296 25.647 36.3875 26.6001 35.5983C27.4406 34.9183 28.3936 34.3775 29.4197 33.998C30.0598 33.7435 30.7266 33.5558 31.4086 33.438C32.4363 33.2661 33.486 33.2511 34.5186 33.3938V34.578C33.3149 34.5968 32.126 34.8358 31.0158 35.282Z" fill="#69C9D0"/>
<path d="M43.3633 23.2878H39.3563V43.6813C39.3563 44.3981 39.3563 45.0894 39.1079 45.78C38.7032 46.8823 37.8423 47.8775 36.695 48.3192C34.9727 48.9823 33.6264 48.9087 32.0202 47.8916C31.6214 47.6285 31.2708 47.3041 30.9824 46.9315C32.3508 47.6311 33.5755 47.6189 35.0929 47.0353C36.2396 46.5935 37.1017 45.5982 37.5051 44.4954C37.7575 43.8067 37.7542 43.1135 37.7542 42.3972V22H43.2871C43.2871 22 43.2251 22.5069 43.3633 23.2878ZM50.9405 29.3736V30.5085C50.291 30.3602 49.6613 30.1409 49.0639 29.855C47.9066 29.3013 47.0049 28.3995 46.8287 28.217C47.0332 28.3458 47.2456 28.4629 47.4644 28.5678C48.8715 29.2411 50.2573 29.4421 50.9405 29.3736Z" fill="#69C9D0"/>
</svg>
