<svg width="51" height="51" viewBox="0 0 51 51" fill="none" xmlns="http://www.w3.org/2000/svg">
<rect x="0.75" y="0.75" width="49.5" height="49.5" rx="24.75" fill="#2A2A2A"/>
<rect x="0.75" y="0.75" width="49.5" height="49.5" rx="24.75" stroke="#595959" stroke-width="1.5"/>
<path d="M10.663 35.2328C10.191 34.9451 10.0003 34.555 10.0014 34.0218C10.0118 28.8624 10.0125 23.7028 10 18.5434C9.99875 18.0245 10.1606 17.5897 10.5908 17.3628C11.0414 17.125 11.5333 17.1776 11.985 17.4934C13.8967 18.8296 15.8149 20.1565 17.7349 21.4808C19.5715 22.7475 21.4124 24.0078 23.2528 25.2689C23.9626 25.7553 23.9546 26.8076 23.24 27.2956C21.3383 28.5942 19.4359 29.892 17.5403 31.1995C15.6912 32.475 13.8471 33.7579 12.0077 35.0472C11.5933 35.3376 11.1691 35.4101 10.663 35.2328Z" fill="url(#paint0_linear_3821_767)"/>
<path d="M16.5127 46.9343C15.7164 47.8962 14.9376 48.8313 14.1593 49.7669C13.9187 50.056 13.6962 50.3623 13.4361 50.6325C12.9953 51.0906 12.1639 51.1333 11.7644 50.6877C11.3342 50.2076 11.2526 49.5774 11.6971 49.0294C12.9818 47.4453 14.2662 45.8609 15.5606 44.2847C16.9663 42.5728 18.3859 40.8722 19.7942 39.1623C20.8519 37.8781 21.9045 36.5895 22.9539 35.2984C24.4615 33.4435 25.9574 31.5791 27.471 29.7292C28.8736 28.0147 30.3 26.3197 31.7027 24.6053C32.9387 23.0947 34.1536 21.5669 35.3835 20.0514C36.0675 19.2084 36.7662 18.3773 37.4525 17.5361C37.8332 17.0696 38.3997 16.8724 38.9079 17.0859C39.4113 17.2975 39.7089 17.7354 39.6321 18.3191C39.5988 18.5716 39.4514 18.8349 39.289 19.0403C38.3206 20.2652 37.3384 21.4793 36.3496 22.6878C35.4784 23.7526 34.5868 24.8009 33.7147 25.8651C33.0002 26.7369 32.3061 27.6253 31.5939 28.499C30.8803 29.3746 30.1513 30.2375 29.4367 31.1123C28.5585 32.1874 27.694 33.2736 26.8131 34.3465C25.9399 35.4098 25.0463 36.4564 24.1754 37.5215C23.1962 38.719 22.239 39.9343 21.26 41.1319C20.3892 42.1972 19.4963 43.2443 18.6235 44.3079C17.9178 45.1679 17.2275 46.0406 16.5127 46.9343Z" fill="url(#paint1_linear_3821_767)"/>
<path d="M40.726 36.7996C40.852 37.0828 41.041 37.3417 41.0422 37.6015C41.0609 41.6104 41.0565 45.6194 41.0539 49.6284C41.0535 50.2643 40.5616 50.7534 39.9253 50.756C38.7799 50.7605 37.6334 50.7283 36.4893 50.7668C35.641 50.7954 35.1455 50.3188 35.1455 49.398C35.1455 46.1673 35.1455 42.9366 35.1455 39.7059C35.1455 39.0451 35.1429 38.3842 35.1462 37.7234C35.1502 36.9103 35.5955 36.468 36.4035 36.468C37.5783 36.4679 38.7536 36.4499 39.9275 36.482C40.188 36.4891 40.4437 36.6731 40.726 36.7996Z" fill="url(#paint2_linear_3821_767)"/>
<path d="M29.766 36.4692C30.6324 36.4692 31.4547 36.4679 32.277 36.4696C32.9763 36.4711 33.3815 36.8739 33.3817 37.5716C33.3827 41.5951 33.3826 45.6186 33.3819 49.6421C33.3817 50.3252 32.9574 50.757 32.2847 50.758C31.0953 50.7598 29.9059 50.7611 28.7165 50.7576C28.0028 50.7555 27.5608 50.3049 27.5608 49.5897C27.5605 45.5955 27.5604 41.6014 27.5609 37.6073C27.561 36.8428 27.9378 36.4706 28.7087 36.4693C29.0465 36.4688 29.3842 36.4692 29.766 36.4692Z" fill="url(#paint3_linear_3821_767)"/>
<defs>
<linearGradient id="paint0_linear_3821_767" x1="16.8903" y1="17.2148" x2="16.8903" y2="35.3287" gradientUnits="userSpaceOnUse">
<stop stop-color="#FF722D"/>
<stop offset="1" stop-color="#FBDFD1"/>
</linearGradient>
<linearGradient id="paint1_linear_3821_767" x1="25.5222" y1="17" x2="25.5222" y2="51" gradientUnits="userSpaceOnUse">
<stop stop-color="#FF722D"/>
<stop offset="1" stop-color="#FBDFD1"/>
</linearGradient>
<linearGradient id="paint2_linear_3821_767" x1="38.1004" y1="36.4629" x2="38.1004" y2="50.768" gradientUnits="userSpaceOnUse">
<stop stop-color="#FF722D"/>
<stop offset="1" stop-color="#FBDFD1"/>
</linearGradient>
<linearGradient id="paint3_linear_3821_767" x1="30.4715" y1="36.4688" x2="30.4715" y2="50.7598" gradientUnits="userSpaceOnUse">
<stop stop-color="#FF722D"/>
<stop offset="1" stop-color="#FBDFD1"/>
</linearGradient>
</defs>
</svg>
