<svg width="32" height="32" viewBox="0 0 32 32" fill="none" xmlns="http://www.w3.org/2000/svg">
<path d="M0 32L2.26868 23.7906C0.874703 21.3822 0.142661 18.6509 0.146245 15.8714C0.130108 7.11278 7.27517 0 16.0565 0C20.3185 0 24.3203 1.6449 27.3334 4.64544C28.8187 6.11626 29.9958 7.86586 30.7969 9.79286C31.5979 11.7199 32.0068 13.7859 31.9999 15.8714C31.9999 24.6131 24.8548 31.7259 16.0726 31.7259C13.3994 31.7259 10.7907 31.0642 8.45747 29.7907L0 32ZM8.83068 26.9358L9.31689 27.2259C11.3577 28.4282 13.6852 29.063 16.0565 29.0646C23.3477 29.0646 29.2944 23.1459 29.2944 15.8866C29.2944 12.3708 27.9175 9.04886 25.4217 6.56544C24.1946 5.33685 22.7352 4.36218 21.1279 3.69762C19.5205 3.03304 17.7969 2.69171 16.0565 2.6933C8.74901 2.69424 2.80428 8.61306 2.80428 15.8723C2.80428 18.3558 3.5013 20.792 4.82985 22.8888L5.13753 23.3888L3.79285 28.2592L8.83068 26.9358Z" fill="white"/>
<path fill-rule="evenodd" clip-rule="evenodd" d="M12.086 9.22709C11.7945 8.56535 11.4706 8.54927 11.1953 8.54927C10.9521 8.5332 10.6919 8.5332 10.4165 8.5332C10.1582 8.5332 9.72046 8.62964 9.3482 9.03328C8.975 9.436 7.95508 10.388 7.95508 12.3392C7.95508 14.2914 9.38049 16.1783 9.57516 16.4363C9.76889 16.6944 12.3291 20.8227 16.3802 22.4203C19.7495 23.7429 20.4305 23.4848 21.1597 23.4035C21.8881 23.3232 23.5092 22.4525 23.8492 21.5167C24.173 20.5978 24.173 19.7914 24.0761 19.6296C23.9792 19.469 23.7029 19.3715 23.3146 19.1618C22.9091 18.9688 20.9651 18.0008 20.5929 17.8714C20.2196 17.7427 19.9604 17.6784 19.7011 18.0651C19.4419 18.4688 18.6802 19.3555 18.4382 19.6136C18.2103 19.8717 17.968 19.9039 17.5788 19.7101C17.1742 19.5171 15.894 19.0975 14.3708 17.7427C13.1876 16.6935 12.3937 15.3879 12.1506 15.0013C11.9246 14.5976 12.1183 14.3877 12.3291 14.1939C12.5076 14.0171 12.7346 13.7269 12.9293 13.501C13.123 13.2741 13.1876 13.0973 13.3338 12.8392C13.463 12.5812 13.3984 12.3392 13.3015 12.1463C13.2038 11.9686 12.4431 10.0174 12.086 9.22709Z" fill="white"/>
</svg>
