<svg width="55" height="58" viewBox="0 0 55 58" fill="none" xmlns="http://www.w3.org/2000/svg">
<g opacity="0.24">
<path d="M2.32441 68.061L6.36826 51.0299C3.3422 46.1825 1.64654 40.6236 1.45198 34.9126C0.782768 16.9184 14.88 1.78784 32.8407 1.15287C41.5578 0.844684 49.8621 3.93492 56.2429 9.88195C59.3875 12.7965 61.9223 16.3061 63.7007 20.2074C65.4791 24.1087 66.4654 28.324 66.6028 32.6092C67.2378 50.57 53.1405 65.7006 35.178 66.3357C29.7105 66.529 24.3269 65.358 19.4621 62.9103L2.32441 68.061ZM20.0181 57.0177L21.0336 57.5785C25.295 59.901 30.1016 61.0372 34.9519 60.869C49.8646 60.3418 61.5976 47.7512 61.0703 32.8361C60.8149 25.6127 57.7573 18.887 52.4723 13.965C49.8732 11.5295 46.8175 9.63245 43.4819 8.38326C40.1459 7.13406 36.5957 6.5574 33.0363 6.6865C18.0902 7.21685 6.36128 19.8075 6.88857 34.7223C7.06897 39.825 8.67156 44.7799 11.5412 48.9919L12.2068 49.997L9.81025 60.1009L20.0181 57.0177Z" fill="url(#paint0_linear_3467_994)"/>
<path fill-rule="evenodd" clip-rule="evenodd" d="M25.392 20.3979C24.7477 19.0594 24.0842 19.0497 23.5209 19.0696C23.0225 19.0542 22.4903 19.073 21.9271 19.0929C21.3988 19.1116 20.5103 19.3414 19.7783 20.1977C19.0442 21.0521 17.0273 23.0817 17.169 27.0907C17.3108 31.1017 20.3633 34.8754 20.7802 35.3915C21.1952 35.9078 26.7315 44.2047 35.1334 47.1942C42.1207 49.6679 43.4948 49.0884 44.9804 48.8687C46.4644 48.651 49.7168 46.7448 50.3441 44.7974C50.9398 42.8861 50.8812 41.2292 50.6712 40.9039C50.4613 40.5809 49.8891 40.4006 49.0797 39.9977C48.2362 39.6306 44.1899 37.7823 43.4191 37.5433C42.6465 37.306 42.1115 37.1926 41.6094 38.0059C41.1084 38.854 39.615 40.7309 39.1386 41.2787C38.6912 41.8254 38.1982 41.909 37.3879 41.5391C36.5465 41.1719 33.8976 40.4022 30.6838 37.7289C28.1874 35.6586 26.4688 33.0335 25.9435 32.2569C25.4519 31.4438 25.8329 30.9985 26.25 30.5852C26.6024 30.209 27.0455 29.5963 27.4272 29.118C27.8069 28.6379 27.9262 28.27 28.2066 27.7291C28.4522 27.1896 28.3024 26.6971 28.0902 26.3078C27.8774 25.9497 26.1797 21.9958 25.392 20.3979Z" fill="url(#paint1_linear_3467_994)"/>
</g>
<defs>
<linearGradient id="paint0_linear_3467_994" x1="32.725" y1="1.15695" x2="35.0495" y2="66.904" gradientUnits="userSpaceOnUse">
<stop stop-color="#FF722D"/>
<stop offset="1" stop-color="#FFB794"/>
</linearGradient>
<linearGradient id="paint1_linear_3467_994" x1="33.4366" y1="18.686" x2="34.5222" y2="49.393" gradientUnits="userSpaceOnUse">
<stop stop-color="#FF722D"/>
<stop offset="1" stop-color="#FFB794"/>
</linearGradient>
</defs>
</svg>
