<svg width="22" height="22" viewBox="0 0 22 22" fill="none" xmlns="http://www.w3.org/2000/svg">
<path d="M16.8556 16.8406C11.9402 16.8406 7.05171 16.8406 2.10938 16.8406C2.49731 15.0951 3.29505 13.6173 4.53647 12.3622C5.7838 11.1011 7.27174 10.2943 8.98892 9.88801C9.14135 8.49181 9.91355 7.65405 11.0414 7.72047C12.1097 7.78338 12.9537 8.48514 12.9955 9.88523C14.9625 10.3319 16.6123 11.3277 17.9222 12.8565C18.8995 13.9972 19.5818 15.2949 19.858 16.8406C18.8277 16.8406 17.8551 16.8406 16.8556 16.8406Z" fill="#F44336"/>
<path d="M19.4748 21.4391C19.3766 21.6292 19.2898 21.8024 19.1945 21.9927C19.1143 21.9927 19.0258 21.9927 18.9374 21.9927C13.6459 21.9927 8.35452 21.9907 3.06311 22.0001C2.84315 22.0005 2.75365 21.9158 2.67014 21.7453C2.29119 20.9714 1.90539 20.2009 1.5157 19.4164C1.01924 19.4164 0.519228 19.4164 0 19.4164C0 18.9705 0 18.5383 0 18.0898C7.32846 18.0898 14.6561 18.0898 22 18.0898C22 18.5255 22 18.9576 22 19.4159C21.5631 19.4159 21.1357 19.4227 20.7086 19.4123C20.5492 19.4084 20.4613 19.4454 20.3869 19.6029C20.0981 20.2147 19.7883 20.8167 19.4748 21.4391Z" fill="#F44336"/>
<path d="M11.5905 3.52762C11.7241 3.80412 11.8854 4.05066 11.9742 4.321C12.0626 4.59012 12.0782 4.88312 12.1278 5.17846C11.6591 5.17846 11.2069 5.17846 10.7242 5.17846C10.8182 4.70706 10.5095 4.39529 10.305 4.04544C10.0852 3.66929 9.9501 3.28245 9.9132 2.83703C9.85154 2.0929 10.0547 1.45439 10.4692 0.847311C10.6298 0.612111 10.6958 0.312455 10.822 0C11.1981 0 11.6501 0 12.1835 0C12.0479 0.452051 11.9341 0.883696 11.7856 1.30312C11.7199 1.48879 11.5826 1.64881 11.4804 1.82203C11.1366 2.40489 11.1724 2.96493 11.5905 3.52762Z" fill="#F44336"/>
<path d="M7.12896 2.65919C7.29159 3.03761 7.43216 3.40379 7.61863 3.74494C8.18141 4.7746 8.12925 5.77051 7.52342 6.76339C7.3403 7.06349 7.20735 7.39414 7.02965 7.75498C6.67961 7.75498 6.24479 7.75498 5.78496 7.75498C5.80127 7.16881 5.93233 6.63862 6.28107 6.1711C6.62125 5.71505 6.78053 5.21283 6.56273 4.66155C6.46755 4.42065 6.30529 4.20446 6.16169 3.98474C5.8827 3.55785 5.81438 3.08106 5.77734 2.56457C6.22771 2.56457 6.64644 2.56354 7.06513 2.56759C7.08626 2.56779 7.10697 2.61187 7.12896 2.65919Z" fill="#F44336"/>
<path d="M15.4164 5.64309C15.6336 6.04577 15.8738 6.415 16.0422 6.81444C16.1611 7.0965 16.1826 7.41953 16.2533 7.75082C15.772 7.75082 15.3459 7.75082 14.879 7.75082C14.8804 7.14018 14.359 6.74608 14.177 6.19776C13.8647 5.25699 13.9294 4.35735 14.5158 3.51321C14.704 3.24228 14.8006 2.90787 14.9538 2.57031C15.3198 2.57031 15.7467 2.57031 16.205 2.57031C16.2101 3.06295 16.11 3.5224 15.8659 3.94648C15.7657 4.12059 15.6381 4.27879 15.5345 4.45111C15.3122 4.82055 15.3024 5.21616 15.4164 5.64309Z" fill="#F44336"/>
</svg>
