<svg width="22" height="22" viewBox="0 0 22 22" fill="none" xmlns="http://www.w3.org/2000/svg">
<path d="M9.58984 3.04785C10.754 3.04802 11.6443 3.93839 11.6445 5.10254C11.6445 5.44502 11.5755 5.71918 11.4385 5.99316C13.1554 6.42239 14.6642 7.39433 15.7832 8.72168C13.2507 9.00773 11.2823 11.1567 11.2822 13.7656C11.2822 14.3294 11.3763 14.8712 11.5459 15.3779H0.68457C0.27378 15.3778 0 15.1032 0 14.6924C4.72169e-05 14.2816 0.273815 14.008 0.68457 14.0078H1.37012C1.50711 10.1035 4.17839 6.88362 7.74023 5.99316C7.60328 5.71922 7.53418 5.44497 7.53418 5.10254C7.53437 3.93828 8.42552 3.04785 9.58984 3.04785Z" fill="white"/>
<path d="M16.2288 18.9334C16.147 19.0917 16.0747 19.2361 15.9953 19.3947C15.9284 19.3947 15.8547 19.3947 15.781 19.3947C11.3715 19.3947 6.96203 19.3929 2.55257 19.4008C2.36927 19.4011 2.29469 19.3306 2.2251 19.1885C1.90931 18.5437 1.58781 17.9016 1.26307 17.248C0.849362 17.248 0.432686 17.248 0 17.248C0 16.8764 0 16.5163 0 16.1426C6.10699 16.1426 12.2133 16.1426 18.3332 16.1426C18.3332 16.5056 18.3332 16.8656 18.3332 17.2475C17.9691 17.2475 17.6129 17.2532 17.257 17.2445C17.1242 17.2413 17.0509 17.2721 16.9889 17.4034C16.7482 17.9131 16.49 18.4147 16.2288 18.9334Z" fill="white"/>
<circle cx="17.2049" cy="14.0477" r="4.79478" fill="#2ECC71"/>
<path d="M15.2305 13.9539L16.5467 15.2701L19.1791 12.6377" stroke="white" stroke-width="0.953584" stroke-linecap="round" stroke-linejoin="round"/>
</svg>
