<svg width="19" height="22" viewBox="0 0 19 22" fill="none" xmlns="http://www.w3.org/2000/svg">
<path d="M14.7744 21.5956C14.2714 21.9706 13.7267 22.0971 13.1465 21.9232C12.8959 21.8481 12.6412 21.7077 12.4483 21.5314C11.439 20.6085 10.2883 19.9221 9.02526 19.4147C8.40345 19.1649 7.73935 19.0066 7.19543 18.5885C6.68085 18.193 6.1684 17.7941 5.66668 17.3824C4.86403 16.7239 3.99884 16.1677 3.06323 15.7171C2.38764 15.3917 2.35809 14.7165 2.98724 14.2777C3.56476 13.8749 4.20192 13.8914 4.81947 14.0938C5.29498 14.2497 5.73617 14.5153 6.1842 14.7483C6.54067 14.9337 6.88017 15.1516 7.23521 15.3399C7.49713 15.4788 7.65107 15.4284 7.76138 15.153C7.95022 14.6816 7.87939 14.1985 7.69663 13.7522C7.11148 12.3234 6.50003 10.9052 5.89579 9.48423C5.46899 8.48054 5.03525 7.47981 4.60887 6.47595C4.39039 5.96154 4.5624 5.4445 4.98339 5.19121C5.45532 4.90726 6.15104 5.10391 6.40296 5.51814C7.23802 6.89122 8.10121 8.24719 8.95313 9.61003C9.04568 9.75808 9.11474 9.92804 9.23378 10.0495C9.30245 10.1196 9.45321 10.1468 9.56064 10.135C10.0739 10.0788 10.5833 9.98188 11.0974 9.93941C11.6273 9.89563 12.1616 9.87192 12.6928 9.88576C13.7124 9.91233 14.7167 10.0621 15.6962 10.3576C15.7964 10.3879 15.899 10.4136 16.0024 10.4289C16.6498 10.5252 16.824 11.047 16.9818 11.5544C17.2815 12.5185 17.5758 13.4857 17.8227 14.4642C17.942 14.9368 17.9174 15.4442 18.0142 15.9245C18.1308 16.5032 18.2999 17.0719 18.462 17.6405C18.5141 17.8233 18.6241 17.9889 18.6934 18.1679C18.8616 18.6019 18.7101 19.0227 18.2793 19.3054C17.118 20.0674 15.9538 20.8249 14.7744 21.5956Z" fill="url(#paint0_linear_3694_2101)"/>
<path d="M8.52411 6.18586C8.21888 5.6951 7.91317 5.2266 7.61714 4.75206C6.84424 3.51308 5.11405 3.22871 3.98933 4.14781C3.16349 4.82265 2.79171 6.01339 3.31749 7.1264C3.63408 7.79658 3.9086 8.48665 4.20007 9.16862C4.22956 9.23761 4.24561 9.31235 4.26921 9.38865C2.73817 9.38094 1.04379 8.20305 0.386768 6.6039C-0.527346 4.37899 0.282205 2.24602 1.73481 1.06917C3.48869 -0.351754 5.86465 -0.320446 7.58834 0.949599C8.95047 1.95323 10.1589 4.19373 8.95635 6.86981C8.80284 6.63167 8.66544 6.41852 8.52411 6.18586Z" fill="url(#paint1_linear_3694_2101)"/>
<defs>
<linearGradient id="paint0_linear_3694_2101" x1="10.6478" y1="5.05762" x2="10.6478" y2="22" gradientUnits="userSpaceOnUse">
<stop stop-color="#FF8A00"/>
<stop offset="1" stop-color="#FFCF97"/>
</linearGradient>
<linearGradient id="paint1_linear_3694_2101" x1="4.72466" y1="0" x2="4.72466" y2="9.38865" gradientUnits="userSpaceOnUse">
<stop stop-color="#FF8A00"/>
<stop offset="1" stop-color="#FFCF97"/>
</linearGradient>
</defs>
</svg>
