<svg width="200" height="200" viewBox="0 0 200 200" fill="none" xmlns="http://www.w3.org/2000/svg">
<circle cx="100" cy="100" r="100" fill="#2F2F2F"/>
<path d="M85.1453 129.444C83.7221 126.069 83.0403 122.64 82.6745 119.087C81.9893 112.431 83.3773 106.212 86.4341 100.378C89.3708 94.7726 93.6687 90.3678 99.1335 87.1241C103.047 84.8014 107.286 83.3931 111.756 82.7287C115.718 82.1398 119.671 82.4545 123.589 83.274C128.295 84.2585 132.563 86.2691 136.393 89.0987C140.019 91.7766 143.005 95.1007 145.323 99.0117C147.539 102.752 149.069 106.772 149.637 111.037C150.74 119.33 149.396 127.201 144.715 134.31C143.906 135.538 142.985 136.69 142.134 137.891C141.912 138.204 141.757 138.566 141.582 138.886C144.113 140.876 146.583 142.751 148.971 144.726C150.068 145.633 150.206 146.864 149.748 148.089C149.235 149.459 148.255 149.932 146.862 149.93C135.863 149.913 124.862 150.053 113.867 149.861C108.851 149.774 104.039 148.325 99.7533 145.613C97.2725 144.043 94.8079 142.366 92.641 140.401C89.3285 137.397 87.017 133.6 85.1453 129.444ZM109.241 119.395C110.019 120.852 110.797 122.309 111.624 123.857C111.324 123.994 110.938 124.176 110.548 124.348C108.729 125.152 106.801 125.067 104.875 125.089C103.143 125.108 101.794 126.372 101.715 127.927C101.66 129.002 103.044 130.591 104.166 130.671C108.221 130.959 112.035 130.161 115.59 128.145C115.927 127.954 116.548 127.856 116.83 128.037C120.236 130.231 123.992 130.858 127.954 130.682C129.933 130.594 131.122 128.879 130.464 127.014C130.073 125.906 128.862 125.039 127.577 125.088C125.232 125.177 122.958 124.974 120.695 123.792C123.044 120.633 124.542 117.15 124.897 113.14C125.924 113.14 126.892 113.175 127.857 113.132C129.531 113.057 130.74 111.797 130.696 110.232C130.653 108.679 129.438 107.55 127.776 107.541C125.909 107.531 124.041 107.538 122.174 107.538C121.137 107.538 120.1 107.538 119.005 107.538C119.005 106.515 119.006 105.666 119.004 104.818C119.001 103.095 117.656 101.666 116.067 101.696C114.761 101.721 113.425 103.262 113.405 104.783C113.393 105.665 113.403 106.547 113.403 107.538C113.011 107.538 112.736 107.538 112.46 107.538C109.902 107.538 107.345 107.529 104.788 107.542C103.362 107.55 102.057 108.595 101.728 109.948C101.495 110.904 102.35 112.424 103.622 112.837C104.545 113.137 105.594 113.13 106.586 113.117C107.407 113.106 107.66 113.419 107.825 114.189C108.188 115.886 108.693 117.553 109.241 119.395Z" fill="url(#paint0_linear_2797_498)"/>
<path d="M75.8108 90.9805C79.2021 90.9768 82.4862 90.9768 86.1003 90.9768C80.4699 97.9621 77.3962 105.736 76.9363 114.602C76.3848 114.602 75.9496 114.602 75.5144 114.602C68.2884 114.602 61.0624 114.602 53.8364 114.602C51.5919 114.602 50.5528 114.016 50.1141 112.503C49.7048 111.092 50.4141 109.654 51.9661 108.515C54.0208 107.008 56.0347 105.445 57.9787 103.973C56.4716 101.675 54.862 99.5495 53.6112 97.2302C52.0849 94.4 50.9873 91.3516 50.5817 88.1336C50.3013 85.9087 50.1501 83.6589 50.0917 81.4164C49.9885 77.4526 50.9483 73.6769 52.3968 70.0161C54.3244 65.1444 57.4358 61.0947 61.3503 57.6962C65.337 54.235 69.9466 51.8783 75.1464 50.7913C82.1468 49.3278 88.962 49.8381 95.5361 52.794C102.141 55.7639 107.125 60.4765 110.704 66.7455C112.334 69.6022 113.263 72.7045 114.106 75.8441C114.32 76.6378 113.924 77.0546 113.114 77.0899C107.851 77.3194 102.959 78.9218 98.3032 81.26C96.3599 82.2359 94.5571 83.4917 92.5867 84.6828C91.9706 83.5286 91.3382 82.4001 90.7574 81.2456C88.8393 77.433 86.9522 73.6046 85.0279 69.7951C84.0432 67.8456 82.4871 67.2765 80.8658 68.3323C80.3413 68.6739 79.9224 69.2874 79.6341 69.8658C75.8634 77.4295 72.1211 85.0074 68.3813 92.5865C67.5788 94.2127 68.1049 95.7548 69.6867 96.5315C71.0803 97.2158 72.5616 96.6367 73.3645 95.0649C73.9086 93.9998 74.3945 92.9045 74.9524 91.8469C75.1255 91.5186 75.449 91.2695 75.8108 90.9805Z" fill="url(#paint1_linear_2797_498)"/>
<path d="M81.498 85.3732C80.3794 85.3732 79.3819 85.3732 78.1001 85.3732C79.5481 82.4669 80.8847 79.7844 82.3211 76.9013C83.8336 79.7948 85.239 82.4835 86.7495 85.3732C84.8991 85.3732 83.2591 85.3732 81.498 85.3732Z" fill="url(#paint2_linear_2797_498)"/>
<path d="M116.566 119.956C116.156 119.804 115.637 119.654 115.4 119.31C114.144 117.487 113.472 115.434 113.228 113.194C115.211 113.194 117.185 113.194 119.27 113.194C118.949 115.706 118.154 117.938 116.566 119.956Z" fill="url(#paint3_linear_2797_498)"/>
<defs>
<linearGradient id="paint0_linear_2797_498" x1="116.251" y1="82.4253" x2="116.251" y2="149.963" gradientUnits="userSpaceOnUse">
<stop stop-color="#FE5200"/>
<stop offset="1" stop-color="#FFA174"/>
</linearGradient>
<linearGradient id="paint1_linear_2797_498" x1="82.0818" y1="50" x2="82.0818" y2="114.602" gradientUnits="userSpaceOnUse">
<stop stop-color="#FE5200"/>
<stop offset="1" stop-color="#FFA174"/>
</linearGradient>
<linearGradient id="paint2_linear_2797_498" x1="82.4248" y1="76.9013" x2="82.4248" y2="85.3732" gradientUnits="userSpaceOnUse">
<stop stop-color="#FE5200"/>
<stop offset="1" stop-color="#FFA174"/>
</linearGradient>
<linearGradient id="paint3_linear_2797_498" x1="116.249" y1="113.194" x2="116.249" y2="119.956" gradientUnits="userSpaceOnUse">
<stop stop-color="#FE5200"/>
<stop offset="1" stop-color="#FFA174"/>
</linearGradient>
</defs>
</svg>
