<svg width="180" height="180" viewBox="0 0 180 180" fill="none" xmlns="http://www.w3.org/2000/svg">
<circle cx="90" cy="90" r="90" fill="#2B2A2A"/>
<path d="M89.7674 135C85.5814 135 90.5335 128.39 69.8963 118.109C68.7657 117.545 67.6685 116.916 66.6102 116.226C56.3419 109.545 50 97.3256 50 84.173C50 62.5395 67.8033 45 89.7674 45C111.732 45 129.535 62.5395 129.535 84.1688C129.535 98.6609 121.816 112.035 109.672 118.093C89.014 128.386 93.9535 135 89.7674 135ZM89.7674 99.8791C98.6042 99.8791 105.674 92.88 105.674 84.3698C105.674 75.8595 98.6042 68.8605 89.7674 68.8605C80.9307 68.8605 73.8605 75.8595 73.8605 84.3698C73.8605 92.88 80.9307 99.8791 89.7674 99.8791Z" fill="url(#paint0_linear_2955_502)"/>
<defs>
<linearGradient id="paint0_linear_2955_502" x1="89.7674" y1="45" x2="89.7674" y2="135" gradientUnits="userSpaceOnUse">
<stop stop-color="#FE5200"/>
<stop offset="1" stop-color="#FFA174"/>
</linearGradient>
</defs>
</svg>
