<svg width="40" height="40" viewBox="0 0 40 40" fill="none" xmlns="http://www.w3.org/2000/svg">
<circle cx="20" cy="20" r="19.3846" fill="#2A2A2A" stroke="#595959" stroke-width="1.23077"/>
<path d="M21.0009 28.4068C20.0601 28.13 19.339 27.5091 18.5635 26.983C18.0116 26.6087 17.4687 26.2208 16.9292 25.8289C16.8579 25.7771 16.7985 25.6688 16.7888 25.5806C16.7677 25.3898 16.7823 25.1951 16.7823 24.9779C18.8977 24.9779 21.0051 24.9779 23.1765 24.9779C23.0915 24.887 23.0545 24.8315 23.0037 24.7953C22.2997 24.295 21.5867 23.807 20.8911 23.2954C20.4692 22.9851 20.393 22.5937 20.5247 22.0914C20.6505 21.6121 21.0563 21.3442 21.5061 21.3047C21.9279 21.2678 22.2336 21.4972 22.5648 21.6701C23.1184 21.9591 23.6602 22.2709 24.2069 22.573C25.3375 23.1978 26.4676 23.8235 27.5992 24.4463C27.8638 24.592 28.1313 24.7327 28.4023 24.8659C28.5203 24.9239 28.5654 24.9994 28.5647 25.1316C28.5598 26.0129 28.56 26.8942 28.5646 27.7755C28.5652 27.8966 28.5292 27.9639 28.4077 27.9773C27.8821 28.0352 27.3559 28.0886 26.8309 28.1518C26.286 28.2174 25.7427 28.2967 25.1977 28.362C24.6656 28.4258 24.1321 28.4784 23.5995 28.5381C23.2354 28.5789 22.8726 28.6347 22.5076 28.6639C21.9917 28.7051 21.5032 28.5611 21.0009 28.4068Z" fill="#4285F4"/>
<path d="M26.1279 11.0371C26.2612 11.0371 26.3701 11.1451 26.3701 11.2783C26.3701 12.4175 26.3669 13.5572 26.374 14.6963C26.3748 14.8078 26.4144 14.9332 26.4736 15.0283C27.1521 16.117 27.8384 17.2008 28.5205 18.2871C28.5449 18.326 28.5605 18.3781 28.5605 18.4238C28.5625 20.193 28.5625 21.9622 28.5625 23.7656C28.3411 23.6455 28.1391 23.5363 27.9375 23.4268C27.0065 22.9206 26.0746 22.4161 25.1445 21.9082C24.2512 21.4204 23.3675 20.9142 22.4648 20.4443C21.7301 20.0619 20.7963 20.2269 20.1836 20.7676C19.6607 21.2292 19.3949 21.7987 19.4082 22.4912C19.4168 22.9375 19.5693 23.3418 19.835 23.7021C19.8721 23.7525 19.9033 23.8078 19.9551 23.8887H15.7549V25.7432H15.5127C14.7249 25.7432 13.9372 25.7403 13.1494 25.7441C11.8976 25.7503 10.9276 24.742 10.9336 23.541C10.9419 21.9005 10.9394 20.2596 10.9297 18.6191C10.9285 18.4229 10.9802 18.2589 11.0781 18.1045C11.7352 17.0682 12.3979 16.0354 13.0518 14.9971C13.104 14.9141 13.1246 14.798 13.125 14.6973C13.13 13.5654 13.1279 12.4336 13.1279 11.3018C13.1279 11.1557 13.2465 11.0371 13.3926 11.0371H26.1279ZM15.4258 14.2539C15.5424 14.503 15.8086 14.6912 16.0967 14.6914C18.5302 14.6925 20.9639 14.692 23.3975 14.6934L23.3984 14.6924C20.9753 14.6913 18.5521 14.6925 16.1289 14.6914C15.7779 14.6912 15.4576 14.4352 15.3809 14.125L15.4258 14.2539ZM16.0938 13.2734C15.7428 13.2738 15.4447 13.5269 15.3779 13.8477C15.448 13.5276 15.7599 13.2756 16.126 13.2754C18.5628 13.2741 20.9997 13.2755 23.4365 13.2744C23.423 13.2737 23.4094 13.2725 23.3955 13.2725C20.9618 13.2738 18.5274 13.2721 16.0938 13.2734Z" fill="#4285F4"/>
<path d="M17.1523 15.3253L18.8477 17.0207L22.2385 13.6299" stroke="white" stroke-width="1.3716" stroke-linecap="round" stroke-linejoin="round"/>
</svg>
