<svg width="125" height="125" viewBox="0 0 125 125" fill="none" xmlns="http://www.w3.org/2000/svg">
<circle cx="62.5" cy="62.5" r="62.5" fill="#2B2A2A"/>
<path d="M66.0575 86.5971C66.0506 84.9568 65.3934 83.3863 64.2301 82.2299L48.7436 66.7434C46.8948 64.3207 45.5847 61.5311 44.901 58.5612C44.2173 55.5913 44.1757 52.5097 44.7791 49.5224C45.8136 44.2294 48.7836 39.512 53.1093 36.2911C57.4351 33.0703 62.806 31.5772 68.1734 32.1035C73.5407 32.6298 78.5193 35.1377 82.1371 39.1374C85.7548 43.1371 87.7519 48.3416 87.7386 53.7348C87.7416 58.6495 86.0579 63.4164 82.9688 67.239C86.3429 69.5048 89.1078 72.5659 91.0199 76.1524C92.932 79.7389 93.9325 83.7407 93.9332 87.805C93.9332 89.4479 93.2806 91.0236 92.1188 92.1853C90.9571 93.347 89.3815 93.9996 87.7386 93.9996H69.1548C68.3334 93.9996 67.5456 93.6733 66.9647 93.0924C66.3839 92.5116 66.0575 91.7238 66.0575 90.9023V86.5971Z" fill="url(#paint0_linear_3851_1872)"/>
<path d="M41.5578 63.9244L62.0619 84.3976C62.6279 84.9911 62.9487 85.7766 62.9601 86.5967V90.9019C62.9601 91.7234 62.6338 92.5112 62.053 93.092C61.4721 93.6729 60.6843 93.9992 59.8628 93.9992H55.5576C55.15 94.0016 54.7459 93.9234 54.3685 93.7693C53.9912 93.6152 53.6479 93.388 53.3585 93.101L32.8854 72.5969C32.3179 72.0179 32 71.2395 32 70.4288C32 69.618 32.3179 68.8396 32.8854 68.2607L37.2216 63.9244C37.8006 63.3569 38.579 63.0391 39.3897 63.0391C40.2004 63.0391 40.9788 63.3569 41.5578 63.9244Z" fill="url(#paint1_linear_3851_1872)"/>
<defs>
<linearGradient id="paint0_linear_3851_1872" x1="69.1443" y1="32" x2="69.1443" y2="93.9996" gradientUnits="userSpaceOnUse">
<stop stop-color="#FF722D"/>
<stop offset="1" stop-color="#EDAB8B"/>
</linearGradient>
<linearGradient id="paint1_linear_3851_1872" x1="47.4801" y1="63.0391" x2="47.4801" y2="93.9993" gradientUnits="userSpaceOnUse">
<stop stop-color="#FF722D"/>
<stop offset="1" stop-color="#E2C8BC"/>
</linearGradient>
</defs>
</svg>
