<svg width="40" height="40" viewBox="0 0 40 40" fill="none" xmlns="http://www.w3.org/2000/svg">
<circle cx="20" cy="20" r="19.3846" fill="#2A2A2A" stroke="#595959" stroke-width="1.23077"/>
<path d="M24.7894 24.7756C20.7678 24.7756 16.7682 24.7756 12.7246 24.7756C13.042 23.3476 13.6947 22.1386 14.7104 21.1118C15.7309 20.0802 16.9483 19.4202 18.3532 19.0878C18.4779 17.9456 19.1097 17.2602 20.0325 17.3145C20.9065 17.366 21.597 17.9401 21.6312 19.0855C23.2405 19.4509 24.5904 20.2656 25.6621 21.5163C26.4616 22.4494 27.0199 23.511 27.2459 24.7756C26.4029 24.7756 25.6071 24.7756 24.7894 24.7756Z" fill="#F44336"/>
<path d="M26.9335 28.5388C26.8532 28.6943 26.7822 28.836 26.7042 28.9917C26.6386 28.9917 26.5662 28.9917 26.4938 28.9917C22.1646 28.9917 17.8354 28.99 13.5061 28.9977C13.3262 28.9981 13.2529 28.9288 13.1846 28.7893C12.8746 28.1562 12.5589 27.5259 12.2401 26.8841C11.8339 26.8841 11.4248 26.8841 11 26.8841C11 26.5193 11 26.1657 11 25.7988C16.9959 25.7988 22.991 25.7988 28.9996 25.7988C28.9996 26.1552 28.9996 26.5087 28.9996 26.8836C28.6422 26.8836 28.2924 26.8893 27.943 26.8807C27.8126 26.8776 27.7407 26.9078 27.6798 27.0367C27.4435 27.5372 27.19 28.0296 26.9335 28.5388Z" fill="#F44336"/>
<path d="M20.4808 13.8839C20.5901 14.1101 20.7221 14.3118 20.7948 14.533C20.8671 14.7532 20.8798 14.9929 20.9204 15.2345C20.5369 15.2345 20.1669 15.2345 19.772 15.2345C19.8489 14.8488 19.5963 14.5938 19.4291 14.3076C19.2492 13.9998 19.1387 13.6834 19.1085 13.319C19.058 12.7102 19.2242 12.1879 19.5634 11.6912C19.6948 11.4988 19.7488 11.2537 19.852 10.998C20.1597 10.998 20.5295 10.998 20.9659 10.998C20.8551 11.3679 20.7619 11.721 20.6404 12.0641C20.5867 12.216 20.4743 12.3469 20.3907 12.4886C20.1095 12.9655 20.1387 13.4236 20.4808 13.8839Z" fill="#F44336"/>
<path d="M16.8304 13.1742C16.9635 13.4838 17.0785 13.7833 17.2311 14.0624C17.6915 14.9048 17.6489 15.7195 17.1532 16.5318C17.0034 16.7773 16.8946 17.0478 16.7492 17.343C16.4628 17.343 16.1071 17.343 15.7308 17.343C15.7442 16.8634 15.8514 16.4297 16.1367 16.0472C16.4151 15.6741 16.5454 15.2633 16.3672 14.8123C16.2893 14.6152 16.1566 14.4383 16.0391 14.2586C15.8108 13.9094 15.7549 13.5193 15.7246 13.0968C16.0931 13.0968 16.4357 13.0959 16.7782 13.0992C16.7955 13.0994 16.8125 13.1355 16.8304 13.1742Z" fill="#F44336"/>
<path d="M23.6125 15.6144C23.7902 15.9438 23.9867 16.2459 24.1245 16.5726C24.2218 16.8034 24.2394 17.0677 24.2972 17.3387C23.9035 17.3387 23.5549 17.3387 23.1728 17.3387C23.174 16.8391 22.7474 16.5167 22.5985 16.0681C22.343 15.2985 22.3959 14.5625 22.8757 13.872C23.0296 13.6503 23.1087 13.3767 23.234 13.1006C23.5335 13.1006 23.8828 13.1006 24.2577 13.1006C24.2619 13.5036 24.18 13.8795 23.9803 14.2264C23.8983 14.3688 23.7939 14.4983 23.7091 14.6392C23.5273 14.9415 23.5192 15.2651 23.6125 15.6144Z" fill="#F44336"/>
</svg>
