<svg width="40" height="40" viewBox="0 0 40 40" fill="none" xmlns="http://www.w3.org/2000/svg">
<circle cx="20" cy="20" r="19.3719" fill="#2A2A2A" stroke="#595959" stroke-width="1.25625"/>
<path d="M19.0215 11.7852C20.1415 11.7852 20.9979 12.6417 20.998 13.7617C20.998 14.091 20.9324 14.3547 20.8008 14.6182C22.4525 15.0311 23.9041 15.966 24.9805 17.2432C22.5431 17.5172 20.6484 19.5852 20.6484 22.0957C20.6485 22.6376 20.7384 23.1584 20.9014 23.6455H10.4561C10.0607 23.6455 9.7969 23.3816 9.79688 22.9863C9.79688 22.591 10.0607 22.3271 10.4561 22.3271H11.1152C11.2471 18.5717 13.8162 15.4748 17.2422 14.6182C17.1105 14.3547 17.0449 14.091 17.0449 13.7617C17.045 12.6417 17.9015 11.7852 19.0215 11.7852Z" fill="white"/>
<path d="M25.4076 27.0644C25.3289 27.2167 25.2593 27.3555 25.1829 27.5081C25.1186 27.5081 25.0477 27.5081 24.9768 27.5081C20.7353 27.5081 16.4937 27.5064 12.2522 27.514C12.0759 27.5143 12.0042 27.4464 11.9372 27.3098C11.6335 26.6895 11.3242 26.072 11.0118 25.4432C10.6139 25.4432 10.2131 25.4432 9.79688 25.4432C9.79688 25.0858 9.79688 24.7394 9.79688 24.3799C15.6713 24.3799 21.545 24.3799 27.4318 24.3799C27.4318 24.7291 27.4318 25.0754 27.4318 25.4427C27.0816 25.4427 26.7389 25.4482 26.3966 25.4399C26.2688 25.4368 26.1984 25.4664 26.1388 25.5926C25.9072 26.083 25.6589 26.5655 25.4076 27.0644Z" fill="white"/>
<circle cx="26.3485" cy="22.3661" r="4.61217" fill="#2ECC71"/>
<path d="M24.4473 22.2749L25.7134 23.541L28.2455 21.0088" stroke="white" stroke-width="1.00737" stroke-linecap="round" stroke-linejoin="round"/>
</svg>
