<svg width="40" height="40" viewBox="0 0 40 40" fill="none" xmlns="http://www.w3.org/2000/svg">
<circle cx="20" cy="20" r="19.3719" fill="#2A2A2A" stroke="#595959" stroke-width="1.25625"/>
<path d="M24.4315 29.6324C23.9742 29.9734 23.479 30.0884 22.9516 29.9303C22.7237 29.862 22.4921 29.7344 22.3168 29.5741C21.3992 28.735 20.3531 28.111 19.2049 27.6497C18.6396 27.4226 18.0359 27.2788 17.5414 26.8987C17.0736 26.5391 16.6077 26.1764 16.1516 25.8022C15.4219 25.2035 14.6353 24.6979 13.7848 24.2882C13.1706 23.9924 13.1437 23.3786 13.7157 22.9797C14.2407 22.6135 14.82 22.6285 15.3814 22.8125C15.8137 22.9542 16.2147 23.1957 16.6221 23.4075C16.9461 23.5761 17.2548 23.7741 17.5775 23.9453C17.8157 24.0716 17.9556 24.0258 18.0559 23.7754C18.2276 23.3468 18.1632 22.9077 17.997 22.502C17.465 21.203 16.9092 19.9138 16.3599 18.6219C15.9719 17.7095 15.5775 16.7997 15.1899 15.8871C14.9913 15.4194 15.1477 14.9494 15.5304 14.7191C15.9594 14.461 16.5919 14.6397 16.8209 15.0163C17.5801 16.2646 18.3648 17.4973 19.1393 18.7363C19.2234 18.8709 19.2862 19.0254 19.3944 19.1358C19.4569 19.1996 19.5939 19.2243 19.6916 19.2136C20.1582 19.1625 20.6213 19.0743 21.0887 19.0357C21.5704 18.9959 22.0562 18.9744 22.5391 18.9869C23.466 19.0111 24.379 19.1472 25.2695 19.4159C25.3605 19.4434 25.4538 19.4668 25.5478 19.4808C26.1364 19.5683 26.2948 20.0426 26.4382 20.5039C26.7106 21.3804 26.9782 22.2597 27.2027 23.1492C27.3111 23.5789 27.2888 24.0401 27.3768 24.4768C27.4828 25.0029 27.6365 25.5199 27.7839 26.0368C27.8313 26.203 27.9312 26.3536 27.9943 26.5163C28.1471 26.9109 28.0095 27.2934 27.6178 27.5504C26.562 28.2431 25.5037 28.9318 24.4315 29.6324Z" fill="url(#paint0_linear_3694_2124)"/>
<path d="M18.7493 15.6236C18.4718 15.1774 18.1939 14.7515 17.9248 14.3201C17.2221 13.1938 15.6492 12.9352 14.6267 13.7708C13.8759 14.3843 13.538 15.4668 14.016 16.4787C14.3038 17.0879 14.5533 17.7153 14.8183 18.3352C14.8451 18.398 14.8597 18.4659 14.8812 18.5353C13.4893 18.5283 11.9489 17.4574 11.3516 16.0036C10.5206 13.981 11.2566 12.0419 12.5771 10.972C14.1716 9.68022 16.3316 9.70868 17.8986 10.8633C19.1369 11.7757 20.2355 13.8125 19.1423 16.2454C19.0027 16.0289 18.8778 15.8351 18.7493 15.6236Z" fill="url(#paint1_linear_3694_2124)"/>
<defs>
<linearGradient id="paint0_linear_3694_2124" x1="20.68" y1="14.5977" x2="20.68" y2="30.0001" gradientUnits="userSpaceOnUse">
<stop stop-color="#FF8A00"/>
<stop offset="1" stop-color="#FFCF97"/>
</linearGradient>
<linearGradient id="paint1_linear_3694_2124" x1="15.2952" y1="10" x2="15.2952" y2="18.5353" gradientUnits="userSpaceOnUse">
<stop stop-color="#FF8A00"/>
<stop offset="1" stop-color="#FFCF97"/>
</linearGradient>
</defs>
</svg>
