<svg width="512" height="512" viewBox="0 0 512 512" fill="none" xmlns="http://www.w3.org/2000/svg">
<path d="M273.61 89.4975C317.007 85.2863 392.956 120.181 421.055 201.596C447.454 278.059 413.936 365.046 340.096 408.655C271.308 449.275 178.179 434.147 124.016 373.859C78.2987 322.971 68.9813 247.426 96.2612 199.365C86.9874 252.128 94.0191 298.727 125.07 339.694C148.136 370.134 178.693 389.696 216.082 397.664C290.819 413.605 362.903 375.123 391.425 304.559C403.416 274.887 404.414 244.328 398.177 213.362C391.879 182.046 376.127 155.81 353.561 133.563C331.151 111.474 303.474 98.512 273.61 89.4975Z" fill="white"/>
<path d="M311.025 370.037C310.612 370.232 310.19 370.427 309.77 370.622C309.325 370.826 308.879 371.021 308.427 371.216C298.247 375.742 287.539 379.139 276.454 381.323C268.798 382.838 260.961 383.774 253.007 384.096L266.276 376.47L267.525 375.742C271.077 373.736 274.588 371.701 277.992 369.436C300.379 354.459 303.204 327.388 281.863 311.02C261.273 295.238 237.638 283.49 216.524 268.309C192.716 251.214 168.115 234.346 147.788 213.561C138.352 203.913 131.414 192.962 127.487 181.051C122.631 166.306 122.39 150.094 127.76 133.045C131.437 121.385 137.994 112.439 146.143 105.134C146.455 104.861 146.767 104.595 147.079 104.322C147.837 103.652 148.608 103.011 149.388 102.387C149.537 102.254 149.693 102.128 149.849 102.011C157.452 95.9475 166.155 91.0525 175.061 86.5567C178.495 84.8309 181.992 83.2244 185.536 81.7098C185.545 81.7098 185.545 81.7098 185.552 81.7006C186.621 81.2324 187.697 80.7803 188.783 80.3351C188.799 80.3282 188.806 80.3282 188.822 80.3213C189.104 80.2112 189.384 80.101 189.673 80C178.41 92.8333 171.587 109.653 171.587 128.068C171.587 136.653 173.072 144.887 175.803 152.529C178.394 161.475 183.617 170.184 191.585 178.318C192.733 179.488 193.935 180.645 195.193 181.776C195.496 182.065 195.801 182.338 196.106 182.605C196.441 182.907 196.783 183.203 197.127 183.502C197.456 183.782 197.784 184.064 198.119 184.337C212.012 196.083 227.382 206.192 243.219 215.668C243.921 216.09 244.633 216.51 245.342 216.932C255.981 223.248 266.806 229.288 277.501 235.37C302.275 249.465 325.997 263.827 338.298 290.99C352.575 322.479 341.436 355.402 311.025 370.037Z" fill="#FF722D"/>
<path d="M286.144 145.245C286.144 156.155 281.719 166.037 274.568 173.195C267.41 180.346 257.528 184.771 246.618 184.771C224.784 184.771 207.09 167.076 207.09 145.245C207.09 134.332 211.515 124.45 218.666 117.292C225.823 110.141 235.705 105.717 246.618 105.717C257.528 105.717 267.41 110.141 274.568 117.292C281.719 124.45 286.144 134.332 286.144 145.245Z" fill="#FF722D"/>
</svg>
