<svg width="40" height="40" viewBox="0 0 40 40" fill="none" xmlns="http://www.w3.org/2000/svg">
<circle cx="20" cy="20" r="19.3719" fill="#2A2A2A" stroke="#595959" stroke-width="1.25625"/>
<path fill-rule="evenodd" clip-rule="evenodd" d="M15.758 11C14.5515 11 13.5723 12.008 13.5723 13.25V26.75C13.5723 27.992 14.5515 29 15.758 29C16.9645 29 17.9437 27.992 17.9437 26.75V13.25C17.9437 12.008 16.9645 11 15.758 11ZM26.6866 13.25V26.75C26.6866 27.992 25.7074 29 24.5008 29C23.2943 29 22.3151 27.992 22.3151 26.75V13.25C22.3151 12.008 23.2943 11 24.5008 11C25.7074 11 26.6866 12.008 26.6866 13.25Z" fill="#9E9E9E"/>
</svg>
