<svg width="180" height="180" viewBox="0 0 180 180" fill="none" xmlns="http://www.w3.org/2000/svg">
<circle cx="90" cy="90" r="90" fill="#2B2A2A"/>
<path d="M70.257 60.0025C88.4259 60.0025 106.47 59.9998 124.514 60.0043C129.258 60.0055 132.691 63.8993 133.029 67.8703C133.238 70.335 131.377 70.9921 129.435 70.2859C126.912 69.3685 124.358 68.5976 121.657 68.7735C117.077 69.0716 113.004 70.6163 109.57 73.7934C106.447 76.682 104.316 80.1598 103.7 84.3127C103.398 86.3462 102.314 87.5275 101.078 88.8447C99.7511 90.2579 98.9635 91.9623 99.0201 93.9434C99.1445 98.2912 98.5331 98.7947 94.1924 98.7799C78.8573 98.7275 63.5219 98.7783 48.1867 98.7476C43.8108 98.7388 40.3267 96.4469 39.1737 92.0585C39.0711 91.6681 39.009 91.2545 39.0084 90.8516C38.9988 83.2257 38.9981 75.5997 39.0028 67.9738C39.005 64.4402 42.1778 60.7622 45.686 60.2621C46.7414 60.1117 47.8143 60.0168 48.8795 60.0136C55.9636 59.9922 63.0478 60.0025 70.257 60.0025ZM73.008 75.1102C72.8824 73.9992 72.0479 73.0523 71.1609 73.0143C70.0528 72.9668 69.2715 73.8736 68.8373 75.7111C66.9992 74.9885 66.3266 75.1073 65.6138 76.2803C64.9893 77.3081 65.3591 78.1752 66.9235 79.3511C65.4621 80.4093 64.9974 81.3248 65.5519 82.3057C65.7785 82.7066 66.2177 83.1578 66.6317 83.2446C67.36 83.3972 68.1433 83.2872 68.9454 83.2872C69.2792 84.9858 69.7545 85.5027 71.1183 85.507C72.3212 85.5107 72.804 84.9274 73.1695 82.8966C74.4793 83.729 75.6798 83.7165 76.4977 82.2694C77.3335 80.7904 76.1715 80.0584 75.2124 79.2974C76.7491 78.1092 77.0677 77.3479 76.5195 76.3053C75.9735 75.2671 75.3072 75.1339 73.4406 75.6415C73.3348 75.6703 73.1559 75.4299 73.008 75.1102ZM55.5211 73.9053C54.9192 73.6107 54.2486 72.9809 53.7291 73.0875C52.4402 73.3518 51.9636 74.487 51.8893 75.7654C50.1749 75.0089 49.293 75.0904 48.7558 76.0597C48.5249 76.4765 48.1772 77.0619 48.3118 77.3996C48.5957 78.112 49.1626 78.7116 49.6666 79.4336C49.03 80.1967 47.6442 80.8708 48.5515 82.3527C49.381 83.7076 50.5478 83.7666 51.8122 82.8852C52.2454 84.8824 52.7223 85.4984 53.8936 85.4851C54.3574 85.4798 54.9889 85.3754 55.2437 85.0676C55.7062 84.5088 55.9437 83.764 56.304 83.0387C57.311 83.6008 58.3741 83.7777 59.2634 82.6186C60.4838 81.0281 58.9329 80.2313 58.2083 79.2301C59.6585 78.2283 60.0234 77.4849 59.4832 76.5009C59.2416 76.0607 58.8487 75.4661 58.4495 75.4011C57.6972 75.2785 56.8907 75.4889 56.1146 75.5602C55.9848 75.1266 55.8226 74.5843 55.5211 73.9053ZM89.9926 74.4529C89.3369 73.9752 88.685 73.1055 88.0246 73.0989C86.5089 73.0839 86.2367 74.4957 85.9247 75.6897C84.4598 75.0302 83.5442 75.1337 82.8855 76.0115C82.164 76.973 82.4265 77.8091 83.9471 79.3932C82.4694 80.5216 82.1584 81.3067 82.7414 82.4376C83.2887 83.4993 84.0359 83.6528 85.8936 83.0835C86.2642 84.1064 86.4703 85.2897 87.819 85.4977C89.6998 85.7878 89.8784 84.182 90.3853 83.0088C91.7933 83.6152 92.9495 83.4285 93.4988 82.5532C94.1475 81.5197 93.7683 80.5015 92.3201 79.389C93.8373 77.8318 94.0924 77.091 93.4484 76.1116C92.8241 75.1622 91.8561 75.0192 90.3105 75.6904C90.2081 75.3363 90.1079 74.99 89.9926 74.4529Z" fill="url(#paint0_linear_2797_1170)"/>
<path d="M128.744 74.2512C131.716 75.7728 133.945 77.9047 135.546 80.7672C137.16 83.6521 137.405 86.7524 137.263 89.9199C140.149 90.1956 141.52 91.6959 141.52 94.4432C141.52 101.569 141.5 108.695 141.531 115.82C141.542 118.221 139.567 119.99 137.433 119.997C127.307 120.032 117.181 120.038 107.055 119.993C104.954 119.984 102.987 118.232 103 115.775C103.036 108.608 103.072 101.44 102.978 94.2739C102.949 92.0941 104.852 89.8061 107.294 89.9812C106.77 84.1663 108.575 79.2417 113.366 75.7617C118.109 72.3162 123.262 71.8126 128.744 74.2512ZM116.461 90.0016C120.442 90.0016 124.423 90.0016 128.383 90.0016C129.012 86.0998 127.689 83.9106 125.12 82.3107C123.407 81.244 120.172 81.4797 118.669 82.7483C116.29 84.7552 115.537 86.9602 116.461 90.0016ZM126.163 103.988C126.271 103.555 126.479 103.121 126.47 102.691C126.439 101.195 124.792 99.1929 123.338 98.7944C121.733 98.3549 119.483 99.3102 118.607 100.803C117.821 102.142 118 104.332 119.313 105.478C120.201 106.254 120.325 107.05 120.269 108.048C120.249 108.421 120.245 108.798 120.271 109.17C120.349 110.254 121.037 110.959 121.978 111.202C122.932 111.449 123.651 110.779 124.007 109.945C124.237 109.407 124.263 108.748 124.25 108.147C124.228 107.107 124.191 106.147 125.245 105.465C125.633 105.214 125.784 104.596 126.163 103.988Z" fill="url(#paint1_linear_2797_1170)"/>
<defs>
<linearGradient id="paint0_linear_2797_1170" x1="86.0223" y1="60" x2="86.0223" y2="98.7802" gradientUnits="userSpaceOnUse">
<stop stop-color="#FE5200"/>
<stop offset="1" stop-color="#FFA174"/>
</linearGradient>
<linearGradient id="paint1_linear_2797_1170" x1="122.254" y1="72.7353" x2="122.254" y2="120.025" gradientUnits="userSpaceOnUse">
<stop stop-color="#FE5200"/>
<stop offset="1" stop-color="#FFA174"/>
</linearGradient>
</defs>
</svg>
