<svg width="180" height="180" viewBox="0 0 180 180" fill="none" xmlns="http://www.w3.org/2000/svg">
<circle cx="90" cy="90" r="90" fill="#2B2A2A"/>
<path d="M90.3177 119.452C87.3634 120.015 85.3907 117.141 86.8387 114.393C86.8945 114.287 86.9673 114.188 87.0104 114.077C87.8316 111.965 87.7959 112.025 85.8184 110.869C80.964 108.031 77.9644 103.888 77.157 98.2524C76.2959 92.2416 76.2499 86.1841 76.5024 80.15C76.6633 76.3042 76.4617 72.3085 78.1581 68.6912C79.0195 66.8545 80.0993 65.0632 81.3744 63.4896C83.9752 60.28 87.5447 58.5721 91.52 57.6932C92.4829 57.4803 93.4901 57.3816 94.4773 57.3785C102.213 57.3535 109.948 57.399 117.683 57.3512C122.028 57.3244 125.997 58.4978 129.47 61.0497C133.077 63.701 135.396 67.2897 136.14 71.75C137.261 78.4711 136.893 85.2619 136.83 92.0257C136.805 94.701 136.43 97.4127 135.869 100.034C135.066 103.789 132.974 106.803 129.93 109.217C126.352 112.053 122.368 113.403 117.808 113.232C115.233 113.136 112.641 113.366 110.076 113.177C106.79 112.935 103.837 113.771 100.89 115.108C97.4537 116.667 93.9112 117.992 90.3177 119.452ZM93.6284 75.1096C92.5075 75.8104 91.8903 77.1396 92.1837 78.2214C92.5274 79.4885 93.7643 80.564 95.0246 80.5666C102.872 80.5829 110.719 80.5949 118.566 80.5522C119.7 80.5461 120.566 79.8737 120.958 78.7505C121.328 77.6902 121.364 76.6686 120.569 75.7372C119.64 74.6496 118.37 74.5447 117.101 74.5409C110.139 74.5197 103.177 74.5148 96.2149 74.5525C95.4097 74.5568 94.6061 74.8594 93.6284 75.1096ZM94.8109 92.9056C98.4696 92.9057 102.128 92.9081 105.787 92.9048C107.554 92.9032 108.832 91.6835 108.833 90.01C108.835 88.3335 107.558 87.1062 105.798 87.1043C102.34 87.1006 98.877 87.2189 95.4274 87.0526C93.7916 86.9738 92.3083 88.4178 92.1526 89.7117C91.986 91.0967 93.0038 92.4267 94.8109 92.9056Z" fill="url(#paint0_linear_2797_1135)"/>
<path d="M54.6944 60.2625C51.7371 62.6473 50.1444 65.686 50.3734 69.4088C50.5153 71.7167 51.0694 74.0113 51.571 76.2826C52.9714 82.6244 54.355 88.9721 55.9128 95.276C56.9592 99.5104 58.2231 103.695 59.5126 107.864C60.9661 112.563 62.5436 117.224 64.0935 121.893C65.3309 125.621 69.3662 128.426 73.1152 128.478C76.043 128.519 78.6998 127.499 81.4374 126.77C87.443 125.171 93.4371 123.529 99.4407 121.922C101.915 121.26 104.298 120.463 105.997 118.365C106.202 118.112 106.57 117.841 106.867 117.836C109.189 117.792 111.511 117.812 114.003 117.812C112.981 120.216 111.638 122.174 109.865 123.839C106.582 126.921 102.347 127.822 98.1992 128.935C92.5387 130.454 86.8843 131.996 81.2321 133.546C78.6006 134.268 76.0057 135.092 73.2116 134.992C69.5731 134.862 66.3619 133.659 63.4337 131.536C59.7922 128.896 58.1952 125.036 56.8502 120.96C53.6312 111.204 50.6018 101.393 48.2577 91.3886C46.9641 85.8679 45.9508 80.2821 44.7441 74.7403C44.221 72.3381 43.8947 69.9403 44.031 67.4784C44.2471 63.5746 45.768 60.2354 48.3128 57.318C51.2189 53.9864 55.1283 52.6076 59.2511 51.5443C65.2686 49.9924 71.2583 48.3319 77.2522 46.6895C80.3039 45.8533 83.3104 44.796 86.5509 45.0341C90.4113 45.3177 93.8877 46.5611 96.7231 49.268C97.825 50.3199 98.7898 51.5155 99.817 52.6456C99.7397 52.768 99.6623 52.8903 99.585 53.0127C98.4389 53.0127 97.2918 52.9817 96.1471 53.0214C94.9936 53.0613 93.8432 53.217 92.6902 53.2324C92.0711 53.2406 91.3497 53.2303 90.8471 52.9349C89.0399 51.8727 87.15 51.3547 85.0772 51.6067C84.5358 53.0049 84.1287 54.4547 83.4395 55.755C81.9138 58.6331 79.3291 60.1721 76.2546 60.9631C72.9781 61.8061 69.7073 62.6774 66.4102 63.432C63.2475 64.1559 60.4884 63.1921 58.0658 61.1212C57.7052 60.813 57.2697 60.5714 56.9736 60.2126C56.2017 59.277 55.5007 59.5229 54.6944 60.2625Z" fill="url(#paint1_linear_2797_1135)"/>
<defs>
<linearGradient id="paint0_linear_2797_1135" x1="106.653" y1="57.3508" x2="106.653" y2="119.524" gradientUnits="userSpaceOnUse">
<stop stop-color="#FE5200"/>
<stop offset="1" stop-color="#FFA174"/>
</linearGradient>
<linearGradient id="paint1_linear_2797_1135" x1="79.0015" y1="45" x2="79.0015" y2="135" gradientUnits="userSpaceOnUse">
<stop stop-color="#FE5200"/>
<stop offset="1" stop-color="#FFA174"/>
</linearGradient>
</defs>
</svg>
